<svg width="337" height="213" viewBox="0 0 337 213" fill="none" xmlns="http://www.w3.org/2000/svg">
<mask id="path-1-inside-1_1283_45999" fill="white">
<path fill-rule="evenodd" clip-rule="evenodd" d="M323 0C330.732 0 337 6.26802 337 14V138.079C332.12 143.533 329.153 150.735 329.153 158.629C329.153 166.523 332.12 173.725 337 179.179V199C337 206.732 330.732 213 323 213H14C6.26801 213 0 206.732 0 199V14C0 6.26801 6.26801 0 14 0H323Z"/>
</mask>
<path fill-rule="evenodd" clip-rule="evenodd" d="M323 0C330.732 0 337 6.26802 337 14V138.079C332.12 143.533 329.153 150.735 329.153 158.629C329.153 166.523 332.12 173.725 337 179.179V199C337 206.732 330.732 213 323 213H14C6.26801 213 0 206.732 0 199V14C0 6.26801 6.26801 0 14 0H323Z" fill="url(#paint0_linear_1283_45999)"/>
<path d="M337 138.079L337.835 138.827L338.121 138.508V138.079H337ZM337 179.179H338.121V178.75L337.835 178.431L337 179.179ZM338.121 14C338.121 5.64888 331.351 -1.12105 323 -1.12105V1.12105C330.113 1.12105 335.879 6.88716 335.879 14H338.121ZM338.121 138.079V14H335.879V138.079H338.121ZM330.274 158.629C330.274 151.021 333.132 144.083 337.835 138.827L336.165 137.332C331.108 142.983 328.032 150.448 328.032 158.629H330.274ZM337.835 178.431C333.132 173.175 330.274 166.237 330.274 158.629H328.032C328.032 166.81 331.108 174.275 336.165 179.926L337.835 178.431ZM338.121 199V179.179H335.879V199H338.121ZM323 214.121C331.351 214.121 338.121 207.351 338.121 199H335.879C335.879 206.113 330.113 211.879 323 211.879V214.121ZM14 214.121H323V211.879H14V214.121ZM-1.12105 199C-1.12105 207.351 5.64887 214.121 14 214.121V211.879C6.88715 211.879 1.12105 206.113 1.12105 199H-1.12105ZM-1.12105 14V199H1.12105V14H-1.12105ZM14 -1.12105C5.64887 -1.12105 -1.12105 5.64887 -1.12105 14H1.12105C1.12105 6.88715 6.88715 1.12105 14 1.12105V-1.12105ZM323 -1.12105H14V1.12105H323V-1.12105Z" fill="url(#paint1_linear_1283_45999)" fill-opacity="0.4" mask="url(#path-1-inside-1_1283_45999)"/>
<mask id="mask0_1283_45999" style="mask-type:alpha" maskUnits="userSpaceOnUse" x="0" y="0" width="337" height="213">
<mask id="path-3-inside-2_1283_45999" fill="white">
<path fill-rule="evenodd" clip-rule="evenodd" d="M323 0C330.732 0 337 6.26802 337 14V131.226C337 135.639 335.178 139.793 333.03 143.649C330.56 148.084 329.153 153.192 329.153 158.629C329.153 164.066 330.56 169.174 333.03 173.609C335.178 177.465 337 181.619 337 186.032V199C337 206.732 330.732 213 323 213H14C6.26801 213 0 206.732 0 199V14C0 6.26801 6.26801 0 14 0H323Z"/>
</mask>
<path fill-rule="evenodd" clip-rule="evenodd" d="M323 0C330.732 0 337 6.26802 337 14V131.226C337 135.639 335.178 139.793 333.03 143.649C330.56 148.084 329.153 153.192 329.153 158.629C329.153 164.066 330.56 169.174 333.03 173.609C335.178 177.465 337 181.619 337 186.032V199C337 206.732 330.732 213 323 213H14C6.26801 213 0 206.732 0 199V14C0 6.26801 6.26801 0 14 0H323Z" fill="white"/>
<path d="M333.03 173.609L334.01 173.064L333.03 173.609ZM333.03 143.649L332.051 143.103L333.03 143.649ZM338.121 14C338.121 5.64888 331.351 -1.12105 323 -1.12105V1.12105C330.113 1.12105 335.879 6.88716 335.879 14H338.121ZM338.121 131.226V14H335.879V131.226H338.121ZM330.274 158.629C330.274 153.388 331.63 148.467 334.01 144.194L332.051 143.103C329.49 147.701 328.032 152.996 328.032 158.629H330.274ZM334.01 173.064C331.63 168.791 330.274 163.87 330.274 158.629H328.032C328.032 164.262 329.49 169.557 332.051 174.155L334.01 173.064ZM338.121 199V186.032H335.879V199H338.121ZM323 214.121C331.351 214.121 338.121 207.351 338.121 199H335.879C335.879 206.113 330.113 211.879 323 211.879V214.121ZM14 214.121H323V211.879H14V214.121ZM-1.12105 199C-1.12105 207.351 5.64887 214.121 14 214.121V211.879C6.88715 211.879 1.12105 206.113 1.12105 199H-1.12105ZM-1.12105 14V199H1.12105V14H-1.12105ZM14 -1.12105C5.64887 -1.12105 -1.12105 5.64887 -1.12105 14H1.12105C1.12105 6.88715 6.88715 1.12105 14 1.12105V-1.12105ZM323 -1.12105H14V1.12105H323V-1.12105ZM332.051 174.155C334.177 177.971 335.879 181.916 335.879 186.032H338.121C338.121 181.321 336.179 176.958 334.01 173.064L332.051 174.155ZM335.879 131.226C335.879 135.342 334.177 139.287 332.051 143.103L334.01 144.194C336.179 140.3 338.121 135.937 338.121 131.226H335.879Z" fill="url(#paint2_linear_1283_45999)" fill-opacity="0.4" mask="url(#path-3-inside-2_1283_45999)"/>
</mask>
<g mask="url(#mask0_1283_45999)">
<g style="mix-blend-mode:screen" opacity="0.6" filter="url(#filter0_f_1283_45999)">
<path d="M336.327 260.588C297.606 279.902 239.941 300.409 180.622 283.813C110.638 264.241 105.656 211.858 41.6588 198.548C-41.8759 181.17 -73.399 262.063 -160.297 246.372C-234.958 232.89 -247.703 166.673 -308.462 174.105C-354.273 179.711 -364.967 219.544 -419.007 227.237C-458.476 232.856 -493.596 217.434 -517.269 203.363" stroke="url(#paint3_linear_1283_45999)" stroke-width="0.595479" stroke-miterlimit="10"/>
<path d="M336.327 262.83C297.606 282.144 239.941 302.651 180.622 286.055C110.638 266.483 105.656 214.1 41.6589 200.79C-41.8758 183.412 -73.399 264.305 -160.297 248.614C-234.958 235.132 -247.703 168.915 -308.462 176.347C-354.273 181.953 -364.967 221.786 -419.007 229.479C-458.476 235.098 -493.596 219.676 -517.269 205.605" stroke="url(#paint4_linear_1283_45999)" stroke-width="0.595479" stroke-miterlimit="10"/>
<path d="M336.327 265.072C297.606 284.386 239.941 304.893 180.622 288.297C110.638 268.725 105.657 216.342 41.6589 203.032C-41.8758 185.654 -73.3989 266.547 -160.297 250.857C-234.958 237.374 -247.703 171.157 -308.462 178.589C-354.273 184.195 -364.967 224.028 -419.006 231.721C-458.476 237.34 -493.596 221.918 -517.269 207.847" stroke="url(#paint5_linear_1283_45999)" stroke-width="0.595479" stroke-miterlimit="10"/>
<path d="M336.327 267.315C297.606 286.628 239.941 307.135 180.622 290.539C110.638 270.967 105.657 218.584 41.659 205.274C-41.8757 187.896 -73.3989 268.789 -160.297 253.099C-234.958 239.617 -247.703 173.399 -308.462 180.831C-354.273 186.437 -364.967 226.271 -419.006 233.963C-458.476 239.582 -493.596 224.16 -517.269 210.089" stroke="url(#paint6_linear_1283_45999)" stroke-width="0.595479" stroke-miterlimit="10"/>
<path d="M336.328 269.557C297.606 288.87 239.941 309.377 180.622 292.781C110.638 273.209 105.657 220.826 41.6591 207.516C-41.8756 190.138 -73.3988 271.031 -160.297 255.341C-234.958 241.859 -247.703 175.641 -308.462 183.073C-354.273 188.679 -364.967 228.513 -419.006 236.205C-458.476 241.824 -493.596 226.402 -517.269 212.331" stroke="url(#paint7_linear_1283_45999)" stroke-width="0.595479" stroke-miterlimit="10"/>
<path d="M336.328 271.799C297.607 291.112 239.941 311.619 180.622 295.023C110.638 275.451 105.657 223.069 41.6592 209.758C-41.8755 192.38 -73.3987 273.273 -160.297 257.583C-234.958 244.101 -247.703 177.883 -308.462 185.315C-354.273 190.922 -364.966 230.755 -419.006 238.447C-458.476 244.066 -493.596 228.644 -517.268 214.573" stroke="url(#paint8_linear_1283_45999)" stroke-width="0.595479" stroke-miterlimit="10"/>
<path d="M336.328 274.041C297.607 293.354 239.941 313.861 180.622 297.265C110.638 277.694 105.657 225.311 41.6592 212.001C-41.8755 194.623 -73.3986 275.515 -160.297 259.825C-234.958 246.343 -247.703 180.125 -308.462 187.557C-354.273 193.164 -364.966 232.997 -419.006 240.69C-458.476 246.309 -493.596 230.886 -517.268 216.815" stroke="url(#paint9_linear_1283_45999)" stroke-width="0.595479" stroke-miterlimit="10"/>
<path d="M336.328 276.283C297.607 295.596 239.941 316.103 180.622 299.507C110.638 279.936 105.657 227.553 41.6593 214.243C-41.8754 196.865 -73.3985 277.758 -160.296 262.067C-234.958 248.585 -247.703 182.367 -308.461 189.799C-354.273 195.406 -364.966 235.239 -419.006 242.932C-458.476 248.551 -493.596 233.128 -517.268 219.057" stroke="url(#paint10_linear_1283_45999)" stroke-width="0.595479" stroke-miterlimit="10"/>
<path d="M336.328 278.525C297.607 297.838 239.941 318.346 180.623 301.749C110.638 282.178 105.657 229.795 41.6594 216.485C-41.8753 199.107 -73.3985 280 -160.296 264.309C-234.958 250.827 -247.703 184.61 -308.461 192.041C-354.272 197.648 -364.966 237.481 -419.006 245.174C-458.476 250.793 -493.596 235.37 -517.268 221.299" stroke="url(#paint11_linear_1283_45999)" stroke-width="0.595479" stroke-miterlimit="10"/>
<path d="M-514.807 200.099C-490.798 213.302 -455.161 227.759 -415.197 222.597C-360.74 215.457 -350.105 177.864 -303.837 172.626C-242.501 165.671 -229.42 228.261 -154.437 241.671C-67.8189 257.201 -36.6501 179.874 46.3083 196.553C109.858 209.338 114.913 259.453 184.497 278.286C243.33 294.267 300.463 274.58 338.834 256.051" stroke="url(#paint12_linear_1283_45999)" stroke-width="0.595479" stroke-miterlimit="10"/>
<path d="M-512.341 196.829C-487.993 209.158 -451.841 222.656 -411.369 217.942C-356.496 211.37 -345.924 176.007 -299.198 171.138C-237.289 164.667 -223.867 223.623 -148.566 236.95C-62.2305 252.308 -31.4261 178.551 50.9692 194.539C114.064 206.794 119.205 254.65 188.379 272.729C246.72 288.125 303.323 269.269 341.352 251.51" stroke="url(#paint13_linear_1283_45999)" stroke-width="0.595479" stroke-miterlimit="10"/>
<path d="M-509.869 193.562C-485.191 205.02 -448.509 217.653 -407.539 213.296C-352.237 207.41 -341.743 174.167 -294.553 169.654C-232.059 163.663 -218.308 218.988 -142.686 232.242C-56.6298 247.44 -26.1863 177.245 55.6393 192.539C118.279 204.263 123.501 249.856 192.275 267.196C250.106 281.99 306.187 263.952 343.865 246.975" stroke="url(#paint14_linear_1283_45999)" stroke-width="0.595479" stroke-miterlimit="10"/>
<path d="M-507.407 190.298C-482.393 200.888 -445.194 212.59 -403.719 208.653C-348.002 203.37 -337.568 172.324 -289.922 168.179C-226.85 162.665 -212.763 214.363 -136.825 227.541C-51.0557 242.574 -20.9666 175.946 60.2894 190.544C122.475 201.739 127.808 244.915 196.147 261.658C253.524 275.718 309.04 258.637 346.372 242.437" stroke="url(#paint15_linear_1283_45999)" stroke-width="0.595479" stroke-miterlimit="10"/>
<path d="M-504.941 187.028C-479.587 196.744 -441.872 207.514 -399.888 204.008C-343.752 199.321 -333.383 170.478 -285.273 166.705C-221.628 161.675 -207.201 209.738 -130.948 222.84C-45.4549 237.706 -15.7302 174.647 64.9494 188.547C126.68 199.212 132.105 240.088 200.032 256.129C256.921 269.564 311.9 253.326 348.882 237.91" stroke="url(#paint16_linear_1283_45999)" stroke-width="0.595479" stroke-miterlimit="10"/>
<path d="M-502.476 183.758C-476.785 192.606 -438.55 202.438 -396.065 199.359C-339.517 195.264 -329.212 168.624 -280.635 165.217C-216.412 160.664 -201.649 205.1 -125.075 218.13C-39.8673 232.83 -10.5036 173.335 69.613 186.543C130.889 196.678 136.402 235.261 203.917 250.582C260.315 263.382 314.764 248.009 351.4 233.369" stroke="url(#paint17_linear_1283_45999)" stroke-width="0.595479" stroke-miterlimit="10"/>
<path d="M-500.013 180.494C-473.983 188.467 -435.238 197.363 -392.245 194.716C-335.281 191.206 -325.037 166.78 -276.003 163.742C-211.2 159.676 -196.103 200.474 -119.211 213.421C-34.2796 227.954 -5.28032 172.028 74.2665 184.541C135.091 194.157 140.682 230.433 207.796 245.048C263.706 257.223 317.618 242.694 353.913 228.834" stroke="url(#paint18_linear_1283_45999)" stroke-width="0.595479" stroke-miterlimit="10"/>
<path d="M-497.548 177.224C-471.181 184.33 -431.916 192.288 -388.421 190.068C-331.041 187.143 -320.859 164.931 -271.364 162.255C-205.984 158.666 -190.551 195.837 -113.343 208.707C-28.6984 223.076 -0.0534065 170.716 78.9237 182.534C139.294 191.62 144.972 225.603 211.672 239.505C267.093 251.055 320.471 237.38 356.414 224.294" stroke="url(#paint19_linear_1283_45999)" stroke-width="0.595479" stroke-miterlimit="10"/>
<path d="M-495.082 173.954C-468.38 180.192 -428.598 187.201 -384.597 185.418C-326.808 183.075 -316.685 163.087 -266.729 160.773C-200.772 157.661 -184.999 191.198 -107.473 204.002C-23.1079 218.21 5.17619 169.413 83.5836 180.537C143.499 189.093 149.258 220.778 215.56 233.968C270.483 244.897 323.335 232.062 358.934 219.763" stroke="url(#paint20_linear_1283_45999)" stroke-width="0.595479" stroke-miterlimit="10"/>
<path d="M-492.62 170.689C-465.584 176.05 -425.289 182.116 -380.77 180.779C-322.572 179.017 -312.503 161.247 -262.091 159.301C-195.559 156.673 -179.446 186.575 -101.606 199.304C-17.5235 213.34 10.3961 168.113 88.2374 178.535C147.698 186.561 153.542 215.96 219.432 228.43C273.867 238.734 326.189 226.746 361.435 215.22" stroke="url(#paint21_linear_1283_45999)" stroke-width="0.595479" stroke-miterlimit="10"/>
<path d="M-490.154 167.42C-462.783 171.912 -421.97 177.031 -376.943 176.124C-318.325 174.941 -308.322 159.391 -257.449 157.808C-190.34 155.656 -173.891 181.931 -95.7287 194.587C-11.9259 208.463 15.6328 166.798 92.9044 176.525C151.91 184.022 157.835 211.123 223.321 222.878C277.258 232.559 329.049 221.42 363.956 210.674" stroke="url(#paint22_linear_1283_45999)" stroke-width="0.595479" stroke-miterlimit="10"/>
<path d="M-487.682 164.153C-459.971 167.771 -418.645 171.948 -373.113 171.478C-314.092 170.874 -304.137 157.545 -252.807 156.33C-185.118 154.666 -168.335 177.303 -89.8548 189.876C-6.3383 203.587 20.8661 165.489 97.568 174.521C156.119 181.488 162.128 206.303 227.21 217.341C280.655 226.404 331.919 216.106 366.469 206.14" stroke="url(#paint23_linear_1283_45999)" stroke-width="0.595479" stroke-miterlimit="10"/>
<path d="M-485.22 160.89C-457.172 163.64 -415.336 166.864 -369.292 166.836C-309.856 166.8 -299.969 155.698 -248.172 154.849C-179.905 153.662 -162.786 172.671 -83.9909 185.168C-0.757104 198.708 26.0894 164.183 102.222 172.52C160.318 178.957 166.401 201.488 231.086 211.798C284.038 220.242 334.766 210.788 368.98 201.595" stroke="url(#paint24_linear_1283_45999)" stroke-width="0.595479" stroke-miterlimit="10"/>
<path d="M-482.754 157.62C-454.37 159.502 -412.02 161.767 -365.469 162.187C-305.619 162.727 -295.791 153.848 -243.537 153.367C-174.693 152.657 -157.208 167.876 -78.1206 180.464C4.85987 193.669 31.3126 162.877 106.882 170.522C164.524 176.43 170.691 196.675 234.971 206.268C287.425 214.091 337.633 205.48 371.49 197.068" stroke="url(#paint25_linear_1283_45999)" stroke-width="0.595479" stroke-miterlimit="10"/>
<path d="M-480.288 154.349C-451.565 155.358 -408.701 156.681 -361.638 157.541C-301.379 158.646 -291.61 152.008 -238.888 151.893C-169.47 151.667 -151.646 163.251 -72.2434 175.763C10.4543 188.797 36.5491 161.578 111.542 168.525C168.729 173.903 174.97 191.863 238.85 200.734C290.808 207.945 340.487 200.165 374.001 192.54" stroke="url(#paint26_linear_1283_45999)" stroke-width="0.595479" stroke-miterlimit="10"/>
<path d="M-477.826 151.085C-448.767 151.226 -405.389 151.59 -357.818 152.898C-297.149 154.568 -287.435 150.164 -234.253 150.411C-164.258 150.662 -146.1 158.609 -66.3798 171.054C16.0419 183.921 41.7723 160.271 116.195 166.523C172.928 171.371 179.25 187.052 242.732 195.194C294.195 201.793 343.347 194.854 376.511 187.995" stroke="url(#paint27_linear_1283_45999)" stroke-width="0.595479" stroke-miterlimit="10"/>
<path d="M-475.361 147.815C-445.965 147.088 -402.07 146.487 -353.995 148.249C-292.916 150.484 -283.257 148.314 -229.619 148.93C-159.043 149.668 -140.548 153.971 -60.5063 166.344C21.6327 179.039 47.0051 158.962 120.859 164.519C177.143 168.841 183.535 182.245 246.613 189.654C297.575 195.638 346.203 189.533 379.024 183.461" stroke="url(#paint28_linear_1283_45999)" stroke-width="0.595479" stroke-miterlimit="10"/>
<path d="M-472.895 144.545C-443.166 142.94 -398.76 141.387 -350.171 143.6C-288.682 146.401 -279.079 146.465 -224.983 147.449C-153.83 148.664 -134.999 149.339 -54.6422 161.636C27.2105 174.167 52.222 157.653 125.512 162.519C181.342 166.311 187.808 177.431 250.496 184.114C300.958 189.493 349.064 184.223 381.532 178.924" stroke="url(#paint29_linear_1283_45999)" stroke-width="0.595479" stroke-miterlimit="10"/>
<path d="M-470.433 141.281C-440.368 138.808 -395.444 136.289 -346.344 138.96C-284.442 142.319 -274.898 144.624 -220.341 145.971C-148.611 147.662 -129.44 144.704 -48.7651 156.934C32.8115 169.298 57.4586 156.353 130.179 160.524C185.554 163.786 192.094 172.639 254.381 178.583C304.348 183.35 351.924 178.911 384.052 174.392" stroke="url(#paint30_linear_1283_45999)" stroke-width="0.595479" stroke-miterlimit="10"/>
<path d="M-467.961 138.015C-437.556 134.668 -392.122 131.197 -342.513 134.316C-280.198 138.233 -270.72 142.775 -215.7 144.494C-143.396 146.669 -123.885 140.076 -42.8951 152.231C38.3953 164.43 62.6881 155.051 134.832 158.524C189.753 161.256 196.369 167.836 258.263 173.044C307.731 177.206 354.784 173.6 386.559 169.855" stroke="url(#paint31_linear_1283_45999)" stroke-width="0.595479" stroke-miterlimit="10"/>
<path d="M-465.495 134.744C-434.754 130.529 -388.809 126.089 -338.686 129.659C-275.964 134.132 -266.542 140.924 -211.057 142.999C-138.169 145.654 -118.328 135.431 -37.0238 147.509C43.9868 159.547 67.9187 153.731 139.493 156.509C193.959 158.712 200.649 163.024 262.142 167.493C311.111 171.05 357.645 168.272 389.074 165.303" stroke="url(#paint32_linear_1283_45999)" stroke-width="0.595479" stroke-miterlimit="10"/>
<path d="M-463.033 131.481C-431.955 126.398 -385.493 120.993 -334.866 125.017C-271.727 130.042 -262.367 139.081 -206.426 141.524C-132.964 144.664 -112.783 130.806 -31.1536 142.805C49.5744 154.672 73.1418 152.426 144.153 154.512C198.164 156.185 204.928 158.23 266.024 161.953C314.49 164.911 360.502 162.951 391.581 160.766" stroke="url(#paint33_linear_1283_45999)" stroke-width="0.595479" stroke-miterlimit="10"/>
<path d="M-460.567 128.211C-429.15 122.254 -382.177 115.879 -331.042 120.368C-267.497 125.947 -258.189 137.231 -201.791 140.043C-127.751 143.66 -107.235 126.174 -25.2899 138.097C55.1583 149.803 78.3648 151.12 148.807 152.511C202.363 153.654 209.206 153.436 269.903 156.42C317.873 158.783 363.358 157.647 394.091 156.238" stroke="url(#paint34_linear_1283_45999)" stroke-width="0.595479" stroke-miterlimit="10"/>
<path d="M-458.101 124.94C-426.348 118.115 -378.858 110.775 -327.212 115.722C-263.249 121.853 -254.004 135.384 -197.145 138.558C-122.529 142.652 -101.675 121.539 -19.4092 133.389C62.857 145.24 83.605 149.814 153.477 150.51C206.579 151.124 213.492 148.645 273.791 150.883C321.259 152.647 366.222 152.329 396.608 151.697" stroke="url(#paint35_linear_1283_45999)" stroke-width="0.595479" stroke-miterlimit="10"/>
<path d="M-455.639 121.677C-423.553 113.974 -375.545 105.669 -323.392 111.08C-259.019 117.76 -249.83 133.541 -192.508 137.088C-117.317 141.665 -96.1273 116.924 -13.5426 128.692C66.3361 140.079 88.8309 148.518 158.133 148.519C210.78 148.603 217.77 143.868 277.676 145.354C324.648 146.523 369.085 147.029 399.125 147.173" stroke="url(#paint36_linear_1283_45999)" stroke-width="0.595479" stroke-miterlimit="10"/>
<path d="M-453.174 118.406C-420.751 109.836 -372.228 100.555 -319.568 106.431C-254.781 113.652 -245.658 131.687 -187.869 135.599C-112.094 140.657 -90.5748 112.285 -7.67513 123.977C75.2245 135.669 94.0513 147.201 162.784 146.508C214.976 146.062 222.036 139.066 281.545 139.806C328.015 140.376 371.929 141.7 401.619 142.628" stroke="url(#paint37_linear_1283_45999)" stroke-width="0.595479" stroke-miterlimit="10"/>
<path d="M-450.708 115.137C-417.949 105.698 -368.905 95.4452 -315.744 101.782C-250.546 109.551 -241.483 129.844 -183.233 134.118C-106.885 139.66 -85.0293 107.661 -1.80097 119.266C77.5118 130.328 99.2849 145.893 167.448 144.504C219.192 143.532 226.318 134.283 285.438 134.263C331.407 134.246 374.803 136.38 404.146 138.085" stroke="url(#paint38_linear_1283_45999)" stroke-width="0.595479" stroke-miterlimit="10"/>
<path d="M-448.246 111.873C-415.147 101.56 -365.592 90.3379 -311.924 97.1392C-246.306 105.454 -237.309 128.001 -178.602 132.643C-101.676 138.661 -79.5003 103.206 4.05909 114.565C83.0695 125.632 104.508 144.587 172.098 142.509C223.387 141.008 230.592 129.512 289.306 128.732C334.776 128.126 377.643 131.074 406.64 133.556" stroke="url(#paint39_linear_1283_45999)" stroke-width="0.595479" stroke-miterlimit="10"/>
<path d="M-445.774 108.607C-412.339 97.4262 -362.269 85.2286 -308.087 92.4979C-242.055 101.354 -233.118 126.159 -173.95 131.163C-96.447 137.658 -73.9349 98.5751 9.93937 109.858C88.667 120.754 109.748 143.282 176.768 140.509C227.603 138.478 234.88 124.732 293.205 123.193C338.171 122.006 380.523 125.758 409.17 129.023" stroke="url(#paint40_linear_1283_45999)" stroke-width="0.595479" stroke-miterlimit="10"/>
<path d="M-443.308 105.336C-409.533 93.2809 -358.949 80.1078 -304.263 87.8481C-237.817 97.2462 -228.94 124.308 -169.315 129.681C-91.2314 136.664 -68.386 93.9426 15.8098 105.153C94.2577 115.888 114.971 141.975 181.428 138.511C231.808 135.95 239.161 119.964 297.083 117.659C341.557 115.887 383.373 120.449 411.677 124.484" stroke="url(#paint41_linear_1283_45999)" stroke-width="0.595479" stroke-miterlimit="10"/>
<path d="M-440.846 102.072C-406.735 89.1494 -355.633 74.9941 -300.439 83.1989C-233.579 93.1387 -224.762 122.458 -164.676 128.193C-86.0151 135.653 -62.8334 89.3041 21.6773 100.438C99.8426 111.002 120.198 140.662 186.078 136.5C236.004 133.409 243.433 115.183 300.956 112.105C344.933 109.754 386.227 115.118 414.181 119.936" stroke="url(#paint42_linear_1283_45999)" stroke-width="0.595479" stroke-miterlimit="10"/>
<path d="M-438.38 98.8019C-403.94 85.008 -352.313 69.874 -296.615 78.5499C-229.338 89.0248 -220.587 120.614 -160.041 126.712C-80.8062 134.655 -57.2846 84.6724 27.5512 95.7274C105.43 106.127 125.431 139.353 190.742 134.496C240.213 130.875 247.714 110.416 304.845 106.569C348.319 103.636 389.091 109.8 416.695 115.402" stroke="url(#paint43_linear_1283_45999)" stroke-width="0.595479" stroke-miterlimit="10"/>
<path d="M-435.914 95.532C-401.134 80.8638 -348.986 64.7578 -292.785 73.9047C-225.094 84.9214 -216.409 118.765 -155.399 125.235C-75.5869 133.655 -51.729 80.0446 33.4217 91.0234C111.021 101.262 130.654 138.047 195.402 132.499C244.419 128.349 251.999 105.659 308.723 101.036C351.704 97.5349 391.947 104.496 419.209 110.868" stroke="url(#paint44_linear_1283_45999)" stroke-width="0.595479" stroke-miterlimit="10"/>
<path d="M-433.452 92.268C-398.336 76.732 -345.67 59.6439 -288.965 69.2618C-220.856 80.8136 -212.235 116.921 -150.764 123.753C-70.3748 132.65 -46.1806 75.4124 39.2851 86.315C116.602 96.3826 135.877 136.741 200.059 130.491C248.621 125.811 256.28 100.891 312.609 95.4885C355.089 91.4162 394.808 99.1683 421.719 106.323" stroke="url(#paint45_linear_1283_45999)" stroke-width="0.595479" stroke-miterlimit="10"/>
<path d="M-430.987 88.9975C-395.534 72.5938 -342.35 54.5235 -285.141 64.6125C-216.615 76.6994 -208.056 115.071 -146.123 122.275C-65.1525 131.659 -40.6249 70.7839 45.1622 81.614C122.199 91.5206 141.114 135.442 204.726 128.497C252.833 123.287 260.573 96.1477 316.494 89.9583C358.484 85.3114 397.671 93.8672 424.236 101.799" stroke="url(#paint46_linear_1283_45999)" stroke-width="0.595479" stroke-miterlimit="10"/>
<path d="M-428.521 85.7281C-392.729 68.45 -339.026 49.3975 -281.317 59.9641C-212.374 72.5862 -203.878 113.222 -141.488 120.794C-59.9401 130.655 -35.0762 66.1529 51.0259 76.9068C127.777 86.6488 146.337 134.136 209.373 126.493C257.025 120.753 264.841 91.3908 320.369 84.4154C361.862 79.207 400.521 88.5433 426.74 97.2519" stroke="url(#paint47_linear_1283_45999)" stroke-width="0.595479" stroke-miterlimit="10"/>
<path d="M-426.052 82.4679C-389.924 64.3221 -335.683 44.1874 -277.49 55.3251C-208.104 68.359 -199.697 111.382 -136.846 119.317C-54.7242 129.661 -29.5204 61.5246 56.9002 72.1958C133.375 81.7702 151.564 132.824 214.037 124.489C261.231 118.226 269.139 86.6408 324.252 78.8752C365.251 73.0987 403.385 83.2256 429.254 92.7176" stroke="url(#paint48_linear_1283_45999)" stroke-width="0.595479" stroke-miterlimit="10"/>
<path d="M-423.586 79.1978C-387.118 60.1776 -332.363 39.0841 -273.66 50.6796C-203.858 64.2821 -195.516 109.542 -132.204 117.839C-49.5052 128.661 -23.9651 56.8963 62.777 67.4949C138.965 76.9048 156.8 131.525 218.703 122.495C265.449 115.706 273.435 81.9076 328.147 73.3422C368.656 67.0079 406.252 77.9181 431.781 88.1904" stroke="url(#paint49_linear_1283_45999)" stroke-width="0.595479" stroke-miterlimit="10"/>
<path d="M-421.121 75.9262C-384.323 56.0347 -329.044 33.9793 -269.836 46.0291C-199.621 60.1902 -191.338 107.691 -127.565 116.35C-44.2826 127.652 -18.4127 52.2566 68.6444 62.7791C144.557 72.0214 162.027 130.211 223.36 120.486C269.652 113.167 277.722 77.1595 332.023 67.7973C372.044 60.8985 409.109 72.5957 434.285 83.6412" stroke="url(#paint50_linear_1283_45999)" stroke-width="0.595479" stroke-miterlimit="10"/>
<path d="M-418.659 72.6636C-381.525 51.9044 -325.728 28.8836 -266.013 41.3811C-195.384 56.1007 -187.166 105.838 -122.93 114.869C-39.0738 126.655 -12.864 47.6259 74.5146 58.0758C150.141 67.1536 167.257 128.909 228.02 118.489C273.857 110.641 282.027 72.4915 335.908 62.2684C375.447 54.859 411.965 67.2923 436.802 79.1182" stroke="url(#paint51_linear_1283_45999)" stroke-width="0.595479" stroke-miterlimit="10"/>
<path d="M-416.193 69.3932C-378.719 47.7597 -322.412 23.7867 -262.189 36.7318C-191.147 52.0099 -182.988 103.988 -118.295 113.388C-33.8612 125.651 -7.31156 42.9873 80.3783 53.3677C155.725 62.2845 172.473 127.599 232.667 116.485C278.049 108.107 286.299 67.6936 339.776 56.721C378.823 48.7101 414.816 61.9675 439.306 74.57" stroke="url(#paint52_linear_1283_45999)" stroke-width="0.595479" stroke-miterlimit="10"/>
</g>
<g style="mix-blend-mode:color-dodge" opacity="0.1" filter="url(#filter1_f_1283_45999)">
<path d="M365.461 -41.0498C331.556 -52.7619 281.951 -63.4188 234.976 -43.3994C179.555 -19.7876 181.092 23.8059 129.918 41.6273C63.1217 64.8928 28.5131 1.78915 -41.2288 24.0292C-101.15 43.1384 -104.507 98.9385 -155.248 99.362C-193.507 99.6789 -206.58 68.0863 -251.827 67.573C-284.874 67.1977 -312.085 83.6506 -330.03 97.7619" stroke="url(#paint53_linear_1283_45999)" stroke-width="0.482809" stroke-miterlimit="10"/>
<path d="M-327.656 100.18C-309.341 86.7457 -281.601 71.0308 -248.197 70.9771C-202.666 70.9919 -189.883 100.749 -151.288 100.08C-100.123 99.2023 -96.0996 46.3478 -35.9066 27.2637C33.6227 5.18605 67.5567 65.3962 133.954 42.7669C184.816 25.4262 183.583 -16.3118 238.755 -39.2729C285.398 -58.7348 334.476 -48.6952 368.009 -37.5893" stroke="url(#paint54_linear_1283_45999)" stroke-width="0.482809" stroke-miterlimit="10"/>
<path d="M-325.277 102.602C-306.589 89.8505 -278.324 74.8685 -244.55 74.3921C-198.739 73.8947 -186.246 101.825 -147.315 100.804C-95.7304 99.467 -91.0368 49.5632 -30.5732 30.5129C38.7422 8.60624 71.9927 65.9216 138.002 43.9211C188.547 27.0647 187.628 -12.825 242.544 -35.123C288.844 -54.0512 337.398 -44.6374 370.566 -34.1278" stroke="url(#paint55_linear_1283_45999)" stroke-width="0.482809" stroke-miterlimit="10"/>
<path d="M-322.894 105.022C-303.841 92.9509 -275.047 78.6222 -240.902 77.7991C-194.812 76.6912 -182.611 102.888 -143.337 101.525C-91.3241 99.7301 -85.9692 52.7755 -25.2334 33.7503C43.8693 12.0061 76.4403 66.4316 142.055 45.0636C192.284 28.6915 191.674 -9.34632 246.341 -30.9935C292.287 -49.372 340.324 -40.5741 373.12 -30.6707" stroke="url(#paint56_linear_1283_45999)" stroke-width="0.482809" stroke-miterlimit="10"/>
<path d="M-320.519 107.44C-301.097 96.0459 -271.778 82.4277 -237.263 81.2044C-190.896 79.5569 -178.982 103.955 -139.372 102.239C-86.9351 99.9901 -80.9137 55.9811 -19.9109 36.9846C48.9743 15.4064 80.8704 66.9386 146.092 46.203C196.004 30.3153 195.746 -5.74816 250.119 -26.8585C295.771 -44.5844 343.241 -36.5125 375.669 -27.2103" stroke="url(#paint57_linear_1283_45999)" stroke-width="0.482809" stroke-miterlimit="10"/>
<path d="M-318.141 109.863C-298.345 99.1509 -268.501 86.2432 -233.615 84.611C-186.968 82.4289 -175.343 105.022 -135.392 102.951C-82.5361 100.243 -75.8446 59.1844 -14.5747 40.2167C54.1015 18.8059 85.3143 67.4432 150.137 47.3438C199.733 31.9404 199.797 -2.24242 253.907 -22.7308C299.225 -39.8905 346.163 -32.4545 378.219 -23.7586" stroke="url(#paint58_linear_1283_45999)" stroke-width="0.482809" stroke-miterlimit="10"/>
<path d="M-315.763 112.286C-295.597 102.251 -265.225 90.0587 -229.972 88.0214C-183.05 85.3083 -171.715 106.097 -131.419 103.675C-78.1399 100.513 -70.782 62.4001 -9.24003 43.4574C59.2185 22.2127 89.7517 67.9602 154.186 48.4897C203.465 33.5706 203.848 1.26343 257.697 -18.5893C302.679 -35.1741 349.088 -28.3915 380.776 -20.2967" stroke="url(#paint59_linear_1283_45999)" stroke-width="0.482809" stroke-miterlimit="10"/>
<path d="M-313.388 114.704C-292.849 105.351 -261.957 93.8732 -226.333 91.4269C-179.132 88.1879 -168.086 107.164 -127.454 104.39C-73.7496 100.765 -65.7265 65.606 -3.91385 46.6971C64.3358 25.6197 94.1855 68.4724 158.227 49.6344C207.19 35.1909 207.885 4.77177 261.48 -14.4576C306.128 -30.4763 352.005 -24.3296 383.33 -16.8398" stroke="url(#paint60_linear_1283_45999)" stroke-width="0.482809" stroke-miterlimit="10"/>
<path d="M-311.009 117.127C-290.101 108.451 -258.681 97.6888 -222.69 94.8373C-175.21 91.0724 -164.452 108.235 -123.481 105.114C-69.3532 101.035 -60.6637 68.8217 1.41606 49.9416C69.4481 29.0303 98.6232 68.9895 162.271 50.784C210.917 36.8248 211.931 8.28133 265.262 -10.3174C309.576 -25.7699 354.922 -20.2678 385.874 -13.3756" stroke="url(#paint61_linear_1283_45999)" stroke-width="0.482809" stroke-miterlimit="10"/>
<path d="M-308.631 119.55C-287.353 111.551 -255.406 101.513 -219.047 98.2477C-171.293 93.9604 -160.823 109.302 -119.512 105.833C-64.9607 101.3 -55.6011 72.0374 6.74699 53.1773C74.5664 32.4284 103.062 69.4978 166.316 51.9247C214.645 38.4499 215.973 11.7857 269.054 -6.18467C313.025 -21.0724 357.848 -16.2048 388.432 -9.9225" stroke="url(#paint62_linear_1283_45999)" stroke-width="0.482809" stroke-miterlimit="10"/>
<path d="M-306.256 121.968C-284.61 114.656 -252.14 105.336 -215.402 101.65C-167.375 96.8404 -157.188 110.365 -115.541 106.544C-60.5701 101.552 -50.5404 75.2399 12.0748 56.4086C79.6803 35.8307 107.492 70.0053 170.356 53.0698C218.369 40.0793 220.012 15.2857 272.832 -2.04899C316.469 -16.3705 360.765 -12.1426 390.976 -6.45779" stroke="url(#paint63_linear_1283_45999)" stroke-width="0.482809" stroke-miterlimit="10"/>
<path d="M-299.12 129.228C-276.361 123.952 -242.319 116.804 -204.469 111.877C-155.609 105.516 -146.288 113.579 -103.621 108.708C-47.3788 102.344 -35.3511 84.878 28.0739 66.1343C95.0352 46.0559 120.815 71.5488 182.498 56.5108C229.56 44.9732 232.138 25.7988 284.199 10.3702C326.818 -2.26426 369.532 0.0535563 398.643 3.93101" stroke="url(#paint64_linear_1283_45999)" stroke-width="0.482809" stroke-miterlimit="10"/>
<path d="M-296.742 131.651C-273.613 127.052 -239.045 120.637 -200.826 115.287C-151.689 108.409 -142.655 114.65 -99.6515 109.427C-42.9863 102.609 -30.2505 88.2195 33.405 69.3697C100.194 49.5936 125.248 72.0605 186.543 57.6512C233.289 46.598 236.181 29.2943 287.987 14.4976C330.263 2.428 372.459 4.10758 401.193 7.38243" stroke="url(#paint65_linear_1283_45999)" stroke-width="0.482809" stroke-miterlimit="10"/>
<path d="M-294.363 134.074C-270.861 130.158 -235.77 124.462 -197.177 118.694C-147.764 111.308 -139.02 115.714 -95.6718 110.14C-38.587 102.863 -25.1811 91.4237 38.7415 72.6026C105.316 52.9976 129.692 72.5659 190.589 58.7929C237.017 48.224 240.217 32.7895 291.77 18.6298C333.705 7.11634 375.376 8.17006 403.744 10.835" stroke="url(#paint66_linear_1283_45999)" stroke-width="0.482809" stroke-miterlimit="10"/>
<path d="M-291.988 136.492C-268.117 133.253 -232.5 128.29 -193.538 122.1C-143.849 114.204 -135.391 116.78 -91.7026 110.859C-34.1944 103.128 -20.1234 94.643 44.0675 75.842C110.434 56.4044 134.126 73.0779 194.629 59.9373C240.741 49.8528 244.251 36.2839 295.557 22.7663C337.15 11.8089 378.298 12.2281 406.296 14.3005" stroke="url(#paint67_linear_1283_45999)" stroke-width="0.482809" stroke-miterlimit="10"/>
<path d="M-289.61 138.915C-265.369 136.353 -229.224 132.127 -189.896 125.51C-139.93 117.106 -131.758 117.851 -87.7338 111.578C-29.8009 103.384 -15.0612 97.8586 49.4018 79.0826C115.554 59.8161 138.568 73.5912 198.677 61.0831C244.477 51.4792 248.291 39.7745 299.343 26.9026C340.589 16.505 381.218 16.2946 408.849 17.7571" stroke="url(#paint68_linear_1283_45999)" stroke-width="0.482809" stroke-miterlimit="10"/>
<path d="M-287.232 141.338C-262.623 139.461 -225.955 135.964 -186.253 128.92C-136.011 120.008 -128.124 118.923 -83.7643 112.297C-25.4081 103.649 -10.0019 101.069 54.7281 82.322C120.663 63.2215 142.997 74.1067 202.718 62.2275C248.201 53.1079 252.321 43.2724 303.13 31.039C344.031 21.1925 384.14 20.3525 411.398 21.2174" stroke="url(#paint69_linear_1283_45999)" stroke-width="0.482809" stroke-miterlimit="10"/>
<path d="M-284.857 143.756C-259.878 142.557 -222.681 139.797 -182.608 132.322C-132.087 122.906 -124.49 119.986 -79.7898 113.013C-21.0103 103.911 -4.93393 104.282 60.0646 85.5544C125.79 66.6214 147.441 74.6118 206.768 63.365C251.935 54.7298 256.359 46.7499 306.919 35.1672C347.478 25.8768 387.062 24.4109 413.957 24.671" stroke="url(#paint70_linear_1283_45999)" stroke-width="0.482809" stroke-miterlimit="10"/>
<path d="M-282.474 146.175C-257.122 145.658 -219.403 143.626 -178.96 135.729C-128.16 125.809 -120.857 121.057 -75.8159 113.728C-16.6167 104.167 0.129781 107.488 65.3953 88.7898C130.903 70.0227 151.88 75.1197 210.808 64.5091C255.658 56.3581 260.389 50.2388 310.705 39.3032C350.919 30.5639 389.984 28.4685 416.505 28.131" stroke="url(#paint71_linear_1283_45999)" stroke-width="0.482809" stroke-miterlimit="10"/>
<path d="M-280.095 148.598C-254.373 148.758 -216.13 147.468 -175.314 139.144C-124.238 128.725 -117.223 122.128 -71.839 114.458C-12.2114 104.438 5.19644 110.709 70.729 92.0395C136.024 73.4348 156.321 75.642 214.856 65.6639C259.389 57.9973 264.424 53.7335 314.49 43.4486C354.36 35.2604 392.908 32.5405 419.062 31.6017" stroke="url(#paint72_linear_1283_45999)" stroke-width="0.482809" stroke-miterlimit="10"/>
<path d="M-277.721 151.016C-251.629 151.853 -212.857 151.301 -171.674 142.55C-120.315 131.632 -113.594 123.195 -67.8735 115.172C-7.82628 104.693 10.2517 113.915 76.06 95.2752C141.141 76.8416 160.755 76.154 218.901 66.8047C263.117 59.6224 268.457 57.2141 318.277 47.5851C357.798 39.9429 395.829 36.6072 421.61 35.0621" stroke="url(#paint73_linear_1283_45999)" stroke-width="0.482809" stroke-miterlimit="10"/>
<path d="M-275.342 153.439C-248.878 154.958 -209.581 155.148 -168.032 145.96C-116.398 134.542 -109.96 124.266 -63.9043 115.891C-3.43374 104.959 15.3107 117.125 81.3861 98.5147C146.255 80.2435 165.189 76.6661 222.941 67.9493C266.841 61.2513 272.489 60.6949 322.06 51.7166C361.237 44.6168 398.747 40.6602 424.16 38.514" stroke="url(#paint74_linear_1283_45999)" stroke-width="0.482809" stroke-miterlimit="10"/>
<path d="M-272.964 155.862C-246.129 158.058 -206.304 158.986 -164.383 149.367C-112.466 137.451 -106.322 125.334 -59.9262 116.612C0.967643 105.225 20.3786 120.338 86.726 101.752C153.074 83.1663 169.636 77.176 226.995 69.0917C270.578 62.878 276.527 64.1721 325.852 55.8496C364.68 49.2959 401.673 44.7235 426.718 41.976" stroke="url(#paint75_linear_1283_45999)" stroke-width="0.482809" stroke-miterlimit="10"/>
<path d="M-270.59 158.28C-243.387 161.162 -203.032 162.827 -160.744 152.772C-108.549 140.361 -102.693 126.4 -55.9559 117.323C5.3577 105.476 25.4351 123.534 92.0533 104.982C156.488 87.0346 174.071 77.6789 231.037 70.2272C274.303 64.4978 280.557 67.6388 329.64 59.977C368.124 53.9657 404.596 48.7725 429.273 45.4238" stroke="url(#paint76_linear_1283_45999)" stroke-width="0.482809" stroke-miterlimit="10"/>
<path d="M-268.211 160.704C-240.639 164.263 -199.756 166.675 -157.101 156.183C-104.624 143.282 -99.0642 127.476 -51.9826 118.047C9.75932 105.743 30.4981 126.751 97.3833 108.227C164.269 89.7043 178.504 78.2003 235.076 71.381C278.025 66.1359 284.58 71.1274 333.417 64.1214C371.552 58.6562 407.507 52.8471 431.812 48.8921" stroke="url(#paint77_linear_1283_45999)" stroke-width="0.482809" stroke-miterlimit="10"/>
<path d="M-265.832 163.126C-237.89 167.362 -196.475 170.517 -153.458 159.593C-100.702 146.197 -95.4345 128.542 -48.0132 118.766C14.1484 106.003 35.5536 129.956 102.718 111.468C166.723 93.8487 182.947 78.7135 239.125 72.5267C281.762 67.7623 288.614 74.5992 337.212 68.2591C375 63.3312 410.441 56.9113 434.378 52.3552" stroke="url(#paint78_linear_1283_45999)" stroke-width="0.482809" stroke-miterlimit="10"/>
<path d="M-263.458 165.545C-235.142 170.463 -193.203 174.359 -149.819 162.999C-96.7761 149.11 -91.8049 129.609 -44.0477 119.481C18.5373 106.264 40.5774 133.024 108.041 114.703C171.796 97.1109 187.38 79.2259 243.161 73.6665C285.482 69.3865 292.64 78.0615 340.986 72.3896C378.427 67.9991 413.346 60.967 436.914 55.8096" stroke="url(#paint79_linear_1283_45999)" stroke-width="0.482809" stroke-miterlimit="10"/>
<path d="M-261.075 167.963C-232.39 173.558 -189.922 178.202 -146.166 166.401C-92.8414 152.022 -88.162 130.672 -40.0651 120.197C22.9432 106.526 45.6497 136.231 113.38 117.939C176.922 100.518 191.827 79.7347 247.215 74.8078C289.219 71.0121 296.679 81.529 344.786 76.5229C381.876 72.6647 416.285 65.0269 439.481 59.2632" stroke="url(#paint80_linear_1283_45999)" stroke-width="0.482809" stroke-miterlimit="10"/>
<path d="M-258.696 170.386C-229.638 176.664 -186.642 182.054 -142.523 169.812C-88.9163 154.943 -84.5286 131.744 -36.0957 120.917C27.3373 106.783 50.7089 139.442 118.711 121.175C182.04 103.917 196.261 80.2472 251.26 75.9492C292.948 72.6378 300.711 84.9878 348.569 80.6548C385.317 77.3304 419.198 69.0841 442.03 62.7242" stroke="url(#paint81_linear_1283_45999)" stroke-width="0.482809" stroke-miterlimit="10"/>
<path d="M-256.321 172.805C-226.894 179.759 -183.367 185.901 -138.88 173.223C-84.9912 157.864 -80.8952 132.816 -32.1226 121.642C31.7337 107.053 55.7718 142.658 124.041 124.42C187.156 107.333 200.699 80.7646 255.299 77.1027C296.67 74.2756 304.736 88.4588 352.35 84.804C388.751 82.0082 422.118 73.1597 444.577 66.1936" stroke="url(#paint82_linear_1283_45999)" stroke-width="0.482809" stroke-miterlimit="10"/>
<path d="M-253.943 175.227C-224.151 182.863 -180.087 189.752 -135.237 176.633C-81.0628 160.789 -77.2658 133.882 -28.1535 122.36C36.1225 107.313 60.8307 145.869 129.376 127.661C192.273 110.739 205.141 81.2777 259.348 78.2483C300.402 75.9055 308.768 91.9168 356.141 88.9365C392.192 86.6731 425.043 77.2225 447.131 69.6502" stroke="url(#paint83_linear_1283_45999)" stroke-width="0.482809" stroke-miterlimit="10"/>
<path d="M-251.565 177.65C-221.399 185.968 -176.803 193.6 -131.589 180.039C-77.1327 163.706 -73.6324 134.953 -24.179 123.076C40.5202 107.574 65.8949 149.076 134.707 130.896C197.392 114.137 209.575 81.7896 263.394 79.3891C304.13 77.5306 312.801 95.3663 359.925 93.0679C395.63 91.3244 427.961 81.2755 449.685 73.1069" stroke="url(#paint84_linear_1283_45999)" stroke-width="0.482809" stroke-miterlimit="10"/>
<path d="M-249.19 180.069C-218.655 189.064 -173.527 197.448 -127.95 183.445C-73.2078 166.627 -70.0028 136.02 -20.2098 123.796C44.9128 107.84 70.9538 152.287 140.033 134.136C202.504 117.548 214.009 82.3022 267.437 80.5392C307.858 79.1651 316.832 98.8252 363.715 97.21C399.071 95.9902 430.886 85.3478 452.237 76.573" stroke="url(#paint85_linear_1283_45999)" stroke-width="0.482809" stroke-miterlimit="10"/>
<path d="M-246.812 182.491C-215.907 192.163 -170.247 201.299 -124.307 186.855C-69.2792 169.552 -66.3696 137.091 -16.2356 124.511C49.3117 108.092 76.0179 155.494 145.369 137.368C207.627 120.943 218.453 82.8065 271.488 81.676C311.591 80.7862 320.872 102.262 367.503 101.337C402.518 100.643 433.809 89.3967 454.792 80.0207" stroke="url(#paint86_linear_1283_45999)" stroke-width="0.482809" stroke-miterlimit="10"/>
<path d="M-244.433 184.914C-213.155 195.268 -166.964 205.156 -120.664 190.266C-65.3505 172.478 -62.7364 138.163 -12.2663 125.23C53.7043 108.357 81.0769 158.704 150.695 140.608C212.736 124.348 222.887 83.3186 275.523 82.8242C315.309 82.4187 324.891 105.714 371.284 105.478C405.951 105.298 436.724 93.4672 457.34 83.4899" stroke="url(#paint87_linear_1283_45999)" stroke-width="0.482809" stroke-miterlimit="10"/>
<path d="M-242.054 187.328C-210.406 198.36 -163.656 209.079 -117.02 193.667C-61.3871 175.494 -59.1017 139.226 -8.29191 125.946C58.0984 108.614 86.1411 161.911 156.03 143.848C217.862 127.756 227.324 83.8355 279.572 83.97C319.038 84.0438 328.934 109.156 375.071 109.614C409.393 109.954 439.65 97.5301 459.893 86.9466" stroke="url(#paint88_linear_1283_45999)" stroke-width="0.482809" stroke-miterlimit="10"/>
<path d="M-239.675 189.752C-207.654 201.465 -160.378 212.917 -113.372 197.074C-57.4581 178.388 -55.4671 140.288 -4.31765 126.662C62.496 108.875 91.2052 165.118 161.366 147.081C222.98 131.154 231.768 84.3404 283.622 85.1074C322.777 85.6618 332.975 112.585 378.868 113.743C412.847 114.595 442.577 101.585 462.457 90.3963" stroke="url(#paint89_linear_1283_45999)" stroke-width="0.482809" stroke-miterlimit="10"/>
<path d="M-237.297 192.175C-204.911 204.569 -157.101 216.755 -109.729 200.485C-53.5353 181.296 -51.8337 141.361 -0.344661 127.387C66.8973 109.142 96.268 168.335 166.696 150.326C228.101 134.567 236.206 84.8581 287.666 86.2575C326.504 87.2963 337.009 116.026 382.65 117.884C416.289 119.252 445.498 105.652 465.005 93.866" stroke="url(#paint90_linear_1283_45999)" stroke-width="0.482809" stroke-miterlimit="10"/>
<path d="M-234.922 194.593C-202.167 207.664 -153.828 220.588 -106.086 203.895C-49.6129 184.202 -48.2057 142.435 3.62439 128.106C71.286 109.402 101.327 171.545 172.027 153.561C233.215 137.968 240.644 85.3661 291.711 87.398C330.232 88.9212 341.049 119.401 386.438 122.012C419.735 123.851 448.416 109.705 467.559 97.3138" stroke="url(#paint91_linear_1283_45999)" stroke-width="0.482809" stroke-miterlimit="10"/>
<path d="M-232.544 197.015C-199.415 210.769 -150.554 224.421 -102.443 207.305C-45.6902 187.109 -44.5725 143.506 7.59367 128.825C75.6787 109.667 106.39 174.761 177.353 156.8C238.328 141.37 245.073 85.8815 295.746 88.5459C333.95 90.5534 345.077 122.885 390.214 126.155C423.172 128.542 451.331 113.775 470.107 100.783" stroke="url(#paint92_linear_1283_45999)" stroke-width="0.482809" stroke-miterlimit="10"/>
</g>
<g style="mix-blend-mode:color-dodge" opacity="0.4" filter="url(#filter2_f_1283_45999)">
<path d="M581.302 222.335C541.399 231.19 483.859 236.812 433.281 208.048C373.607 174.12 381.009 124.969 325.391 98.1477C252.796 63.1344 205.421 130.077 129.357 95.8415C64.0052 66.4263 67.4522 2.82127 10.0644 -4.24844C-33.2057 -9.57617 -52.108 24.4907 -103.397 19.1951C-140.857 15.3278 -169.524 -6.83184 -188.007 -25.1374" stroke="url(#paint93_linear_1283_45999)" stroke-width="0.482809" stroke-miterlimit="10"/>
<path d="M-185.005 -27.5664C-166.016 -9.97939 -136.654 11.4136 -98.845 15.813C-47.2999 21.7096 -28.9636 -10.317 14.6412 -4.54692C72.4492 3.09192 70.1393 63.4489 135.803 92.8711C211.647 126.895 257.882 63.1404 330.109 97.3818C385.436 123.619 378.619 170.708 438.095 203.867C488.369 231.957 545.233 226.966 584.637 218.749" stroke="url(#paint94_linear_1283_45999)" stroke-width="0.482809" stroke-miterlimit="10"/>
<path d="M-181.998 -30.0001C-162.497 -13.1368 -132.445 7.49472 -94.2733 12.4205C-42.4765 18.9335 -24.7066 -11.0629 19.2328 -4.85055C77.4563 3.36263 76.2882 60.4664 142.263 89.8855C217.886 123.688 262.972 63.1217 334.841 96.6008C389.872 122.248 383.651 167.286 442.923 199.661C492.879 227.103 549.068 222.752 587.981 215.162" stroke="url(#paint95_linear_1283_45999)" stroke-width="0.482809" stroke-miterlimit="10"/>
<path d="M-178.985 -32.4297C-158.984 -16.2898 -128.248 3.67091 -89.7012 9.03731C-37.6681 16.2777 -20.4541 -11.7943 23.8296 -5.15005C82.4785 3.63704 82.4422 57.488 148.728 86.914C224.132 120.505 268.073 63.122 339.578 95.8339C394.314 120.892 388.683 163.874 447.758 195.48C497.384 222.253 552.908 218.532 591.321 211.58" stroke="url(#paint96_linear_1283_45999)" stroke-width="0.482809" stroke-miterlimit="10"/>
<path d="M-175.983 -34.8583C-155.475 -19.4369 -124.053 -0.212379 -85.139 5.65517C-32.863 13.5423 -16.2066 -12.5299 28.4117 -5.44333C87.4809 3.9129 88.5817 54.5159 155.173 83.944C230.353 117.319 273.154 63.1236 344.296 95.0684C398.736 119.537 393.76 160.329 452.572 191.289C501.95 217.285 556.737 214.313 594.656 207.994" stroke="url(#paint97_linear_1283_45999)" stroke-width="0.482809" stroke-miterlimit="10"/>
<path d="M-172.976 -37.2923C-151.957 -22.5947 -119.849 -4.10633 -80.5668 2.27237C-28.043 10.8011 -11.9491 -13.2662 33.0091 -5.73246C92.4937 4.1981 94.7363 51.5478 161.634 80.9781C236.599 114.136 278.251 63.1295 349.024 94.3023C403.168 118.181 398.801 156.887 457.396 187.108C506.47 212.42 560.572 210.098 597.991 204.417" stroke="url(#paint98_linear_1283_45999)" stroke-width="0.482809" stroke-miterlimit="10"/>
<path d="M-169.969 -39.7268C-148.443 -25.7477 -115.644 -8.00074 -75.9999 -1.11568C-23.2336 8.04991 -7.7022 -14.0124 37.6006 -6.03682C97.5055 4.46287 100.885 48.5645 168.094 78.0018C242.834 110.943 283.341 63.1201 353.756 93.5306C407.605 116.82 403.842 153.443 462.225 182.912C510.993 207.529 564.412 205.878 601.336 200.83" stroke="url(#paint99_linear_1283_45999)" stroke-width="0.482809" stroke-miterlimit="10"/>
<path d="M-166.966 -42.1554C-144.93 -28.9001 -111.449 -11.894 -71.4377 -4.49783C-18.424 5.29935 -3.45468 -14.748 42.1828 -6.33011C102.508 4.74872 107.025 45.5924 174.544 75.0265C249.07 107.751 288.427 63.1165 358.479 92.7599C412.032 115.47 408.868 149.997 467.044 178.726C515.508 202.659 568.242 201.659 604.676 197.249" stroke="url(#paint100_linear_1283_45999)" stroke-width="0.482809" stroke-miterlimit="10"/>
<path d="M-163.959 -44.5897C-141.416 -32.0529 -107.245 -15.7883 -66.8707 -7.88571C-13.6097 2.54306 0.797611 -15.4893 46.7745 -6.63431C107.52 5.01364 113.174 42.6093 181 72.0456C255.3 104.554 293.518 63.1073 363.206 91.9835C416.463 114.104 413.904 146.549 471.863 174.53C520.022 197.779 572.071 197.44 608.005 193.657" stroke="url(#paint101_linear_1283_45999)" stroke-width="0.482809" stroke-miterlimit="10"/>
<path d="M-160.952 -47.0233C-137.903 -35.2051 -103.041 -19.6918 -62.3039 -11.2729C-8.8008 -0.217334 5.04485 -16.2247 51.3612 -6.9326C112.527 5.28447 119.322 39.6269 187.455 69.0753C261.536 101.373 298.609 63.1087 367.933 91.2178C420.895 112.749 418.935 143.107 476.692 170.345C524.536 192.909 575.911 193.221 611.35 190.081" stroke="url(#paint102_linear_1283_45999)" stroke-width="0.482809" stroke-miterlimit="10"/>
<path d="M-157.949 -49.4529C-134.394 -38.3632 -98.8465 -23.5961 -57.7361 -14.6512C-3.99087 -2.96886 9.29791 -16.9565 55.9489 -7.22205C117.53 5.56936 125.467 36.6585 193.906 66.1091C267.767 98.1849 303.69 63.1094 372.656 90.4461C425.322 111.388 423.962 139.669 481.506 166.153C529.046 188.034 579.741 189.001 614.68 186.489" stroke="url(#paint103_linear_1283_45999)" stroke-width="0.482809" stroke-miterlimit="10"/>
<path d="M-154.943 -51.8867C-130.881 -41.5156 -94.6426 -27.4999 -53.1646 -18.0439C0.832733 -5.73514 13.5547 -17.7026 60.5451 -7.53105C122.547 5.82949 131.621 33.6706 200.371 63.1281C274.012 94.9926 308.79 63.1002 377.393 89.6698C429.764 110.022 429.002 136.217 486.34 161.952C533.564 183.149 583.58 184.771 618.03 182.897" stroke="url(#paint104_linear_1283_45999)" stroke-width="0.482809" stroke-miterlimit="10"/>
<path d="M-151.93 -54.3155C-127.358 -44.6682 -90.4335 -31.3986 -48.5926 -21.4262C5.6416 -8.49546 17.8119 -18.4384 65.137 -7.82448C127.559 6.1152 137.77 30.6983 206.831 60.1527C280.247 91.801 313.886 63.0965 382.126 88.8989C434.2 108.662 434.039 132.78 491.169 157.767C538.084 178.284 587.425 180.557 621.369 179.316" stroke="url(#paint105_linear_1283_45999)" stroke-width="0.482809" stroke-miterlimit="10"/>
<path d="M-148.928 -56.7448C-123.849 -47.816 -86.2392 -35.3028 -44.0303 -24.8092C10.4557 -11.2621 22.0544 -19.1796 69.7241 -8.12381C132.567 6.38499 143.914 27.7201 213.281 57.1767C286.477 88.6034 318.972 63.0921 386.848 88.1274C438.627 107.301 439.055 129.342 495.988 153.57C542.593 173.408 591.249 176.332 624.709 175.724" stroke="url(#paint106_linear_1283_45999)" stroke-width="0.482809" stroke-miterlimit="10"/>
<path d="M-145.921 -59.1783C-120.335 -50.968 -82.0356 -39.2162 -39.4634 -28.1962C15.2695 -14.0276 26.3065 -19.9201 74.3109 -8.42197C137.574 6.65595 150.123 24.5999 219.736 54.2065C292.777 85.2687 324.058 63.0889 391.576 87.3619C443.059 105.946 444.087 125.911 500.812 149.39C547.103 168.544 595.089 172.123 628.044 172.148" stroke="url(#paint107_linear_1283_45999)" stroke-width="0.482809" stroke-miterlimit="10"/>
<path d="M-142.913 -61.613C-116.816 -54.1266 -77.8311 -43.1208 -34.8908 -31.5797C20.0885 -16.7995 30.5595 -20.6518 78.9086 -8.71176C142.587 6.9405 156.278 21.6312 226.197 51.24C299.018 82.0807 329.155 63.094 396.304 86.5951C447.491 104.59 449.108 122.478 505.632 145.203C551.608 163.684 598.919 167.903 631.38 168.571" stroke="url(#paint108_linear_1283_45999)" stroke-width="0.482809" stroke-miterlimit="10"/>
<path d="M-139.911 -64.0422C-113.308 -57.2743 -73.6323 -47.03 -30.3287 -34.9625C24.8971 -19.5707 34.8069 -21.388 83.4954 -9.01089C147.594 7.21049 162.421 18.6432 232.647 48.2641C305.253 78.8882 334.24 63.0899 401.026 85.8238C451.918 103.229 454.13 119.046 510.456 141.012C556.118 158.819 602.754 163.688 634.719 164.979" stroke="url(#paint109_linear_1283_45999)" stroke-width="0.482809" stroke-miterlimit="10"/>
<path d="M-136.904 -66.476C-109.795 -60.4266 -69.4243 -50.9489 -25.7622 -38.3498C29.7101 -22.3465 39.0586 -22.1288 88.0818 -9.30933C152.601 7.4912 168.57 15.6606 239.107 45.2885C311.493 75.6911 339.336 63.0859 405.758 85.0527C456.36 101.873 459.156 115.619 515.279 136.821C560.622 153.949 606.588 159.464 638.059 161.397" stroke="url(#paint110_linear_1283_45999)" stroke-width="0.482809" stroke-miterlimit="10"/>
<path d="M-133.897 -68.9098C-106.282 -63.589 -65.2257 -54.8675 -21.1952 -41.7372C34.5236 -25.1223 43.3109 -22.8696 92.6688 -9.60779C157.608 7.76187 174.714 12.6832 245.558 42.3133C317.719 72.4997 344.416 63.0777 410.481 84.2821C460.786 100.513 464.173 112.183 520.103 132.631C565.127 149.09 610.423 155.25 641.393 157.811" stroke="url(#paint111_linear_1283_45999)" stroke-width="0.482809" stroke-miterlimit="10"/>
<path d="M-130.894 -71.3393C-102.772 -66.737 -61.0216 -58.7822 -16.6273 -45.1155C39.3427 -27.8942 47.5641 -23.6013 97.2613 -9.90245C162.621 8.03632 180.869 9.70445 252.019 39.3466C323.965 69.3164 349.513 63.0827 415.214 83.52C465.224 99.1618 469.195 108.77 524.928 128.449C569.637 144.234 614.259 151.035 644.739 154.233" stroke="url(#paint112_linear_1283_45999)" stroke-width="0.482809" stroke-miterlimit="10"/>
<path d="M-127.883 -73.7677C-99.2494 -69.8892 -56.8132 -62.6906 -12.0557 -48.4975C44.1656 -30.6699 51.8157 -24.3416 101.853 -10.1956C167.628 8.31755 187.017 6.73244 258.474 36.3768C330.195 66.1303 354.604 63.0846 419.936 82.75C469.65 97.8024 474.212 105.344 529.752 124.259C574.142 139.375 618.093 146.821 648.073 150.648" stroke="url(#paint113_linear_1283_45999)" stroke-width="0.482809" stroke-miterlimit="10"/>
<path d="M-124.875 -76.2022C-95.7355 -73.0423 -52.6096 -66.615 -7.48359 -51.8908C48.9838 -33.4616 56.0683 -25.0831 106.45 -10.5052C172.65 8.58179 193.172 3.74388 264.934 33.3903C336.436 62.9324 359.7 63.0698 424.668 81.9681C474.087 96.4311 479.233 101.912 534.575 120.058C578.646 134.505 621.933 142.591 651.418 147.05" stroke="url(#paint114_linear_1283_45999)" stroke-width="0.482809" stroke-miterlimit="10"/>
<path d="M-121.873 -78.6308C-92.227 -76.1894 -48.4062 -70.5288 -2.9217 -55.2729C53.8018 -36.2427 60.3155 -25.8187 111.032 -10.7985C177.648 8.8629 199.311 0.771731 271.389 30.4199C342.671 59.7405 364.785 63.0663 429.396 81.2022C478.519 95.0758 484.25 98.4956 539.399 115.867C583.146 129.651 625.767 138.367 654.752 143.464" stroke="url(#paint115_linear_1283_45999)" stroke-width="0.482809" stroke-miterlimit="10"/>
<path d="M-118.866 -81.065C-88.7088 -79.3473 -44.1982 -74.4582 1.64514 -58.6607C58.6147 -39.0288 64.5676 -26.5599 115.618 -11.0973C182.655 9.13318 205.455 -2.206 277.839 27.4443C348.901 56.5535 369.871 63.0625 434.118 80.4312C482.945 93.7154 489.267 95.0789 544.218 111.681C587.647 124.807 629.597 134.157 658.087 139.888" stroke="url(#paint116_linear_1283_45999)" stroke-width="0.482809" stroke-miterlimit="10"/>
<path d="M-115.859 -83.4994C-85.195 -82.5003 -39.9895 -78.3777 6.21755 -62.0438C63.4432 -41.8109 68.8253 -27.2965 120.215 -11.3968C187.672 9.40278 211.609 -5.18438 284.305 24.4729C357 54.1301 374.972 63.0627 438.856 79.6643C487.387 92.359 494.29 91.6666 549.048 107.494C592.152 119.957 633.437 129.937 661.432 136.301" stroke="url(#paint117_linear_1283_45999)" stroke-width="0.482809" stroke-miterlimit="10"/>
<path d="M-112.856 -85.9278C-81.687 -85.6573 -35.7865 -82.3013 10.7794 -65.4258C68.2559 -44.5966 73.0724 -28.0319 124.802 -11.6852C192.674 9.68878 217.749 -8.1464 290.755 21.5078C361.368 50.1945 380.058 63.0693 443.579 78.9038C491.814 91.0091 499.303 88.2657 553.872 103.314C596.658 115.117 637.272 125.733 664.772 132.729" stroke="url(#paint118_linear_1283_45999)" stroke-width="0.482809" stroke-miterlimit="10"/>
<path d="M-109.849 -88.3624C-78.173 -88.8104 -31.5779 -86.2311 15.3469 -68.814C73.0791 -47.3936 77.32 -28.7783 129.395 -11.9897C197.692 9.95821 223.898 -11.1298 297.21 18.5265C370.523 48.1828 385.144 63.0549 448.301 78.1223C496.241 89.6381 504.31 84.8388 558.686 99.1128C601.148 110.253 641.096 121.499 668.097 129.133" stroke="url(#paint119_linear_1283_45999)" stroke-width="0.482809" stroke-miterlimit="10"/>
<path d="M-106.842 -90.7962C-74.6595 -91.9628 -27.3648 -90.1553 19.9138 -72.2013C77.8968 -50.1846 81.5673 -29.5139 133.981 -12.2881C202.694 10.2341 230.037 -14.1019 303.671 15.5509C373.839 43.81 390.24 63.0511 453.034 77.3513C500.683 88.2825 509.327 81.4326 563.52 94.9218C605.658 105.408 644.946 117.279 671.452 125.546" stroke="url(#paint120_linear_1283_45999)" stroke-width="0.482809" stroke-miterlimit="10"/>
<path d="M-103.839 -93.2255C-71.146 -95.1158 -23.1615 -94.0798 24.4759 -75.5842C82.7198 -52.9716 85.8147 -30.2502 138.563 -12.5821C207.697 10.5093 236.123 -16.922 310.116 12.5802C380.006 40.7758 395.326 63.0468 457.751 76.5851C505.105 86.927 514.335 78.036 568.329 90.7361C610.144 100.569 648.761 113.065 674.772 121.965" stroke="url(#paint121_linear_1283_45999)" stroke-width="0.482809" stroke-miterlimit="10"/>
<path d="M-100.827 -95.6538C-67.6277 -98.2627 -18.9486 -98.0033 29.0529 -78.9613C87.5524 -55.7576 90.0769 -30.9808 143.165 -12.8756C212.719 10.7849 242.282 -19.8944 316.581 9.60993C386.251 37.5841 400.426 63.0483 462.488 75.8194C509.547 85.5718 519.358 74.635 573.168 86.5503C614.655 95.7352 652.615 108.851 678.127 118.388" stroke="url(#paint122_linear_1283_45999)" stroke-width="0.482809" stroke-miterlimit="10"/>
<path d="M-97.8201 -98.0883C-64.1091 -101.421 -14.7355 -101.938 33.6201 -82.3494C92.3753 -58.5545 94.3295 -31.7223 147.752 -13.1748C217.726 11.0648 248.426 -22.8725 323.037 6.63875C392.487 34.4015 405.512 63.044 467.216 75.0528C513.979 84.2158 524.371 71.2431 577.987 82.3641C619.156 90.9003 656.44 104.636 681.461 114.801" stroke="url(#paint123_linear_1283_45999)" stroke-width="0.482809" stroke-miterlimit="10"/>
<path d="M-94.8175 -100.518C-60.6001 -104.569 -10.5272 -105.868 38.1873 -85.7376C97.1982 -61.3516 98.5819 -32.4639 152.344 -13.4793C222.739 11.3295 254.576 -25.8559 329.492 3.6575C398.723 31.1988 410.603 63.0345 471.939 74.2714C518.405 82.8449 529.379 67.8364 582.806 78.1578C623.651 86.0505 660.275 100.401 684.796 111.204" stroke="url(#paint124_linear_1283_45999)" stroke-width="0.482809" stroke-miterlimit="10"/>
<path d="M-91.8106 -102.951C-57.0921 -107.726 -6.31461 -109.802 42.754 -89.1246C102.025 -64.1528 102.829 -33.1992 156.931 -13.7775C227.741 11.6056 260.719 -28.833 335.952 0.682131C404.958 28.0072 415.699 63.0308 476.671 73.5005C522.842 81.4847 534.392 64.4455 587.635 73.9722C628.152 81.2167 664.114 96.182 688.136 107.623" stroke="url(#paint125_linear_1283_45999)" stroke-width="0.482809" stroke-miterlimit="10"/>
<path d="M-88.8034 -105.385C-53.5737 -110.884 -2.09644 -113.732 47.3263 -92.5076C106.853 -66.9446 107.081 -33.9404 161.523 -14.0715C232.753 11.8807 266.869 -31.806 342.407 -2.28869C411.194 24.8249 420.785 63.0269 481.399 72.7343C527.274 80.129 539.406 61.064 592.454 69.7863C632.649 76.3974 667.944 91.9726 691.476 104.041" stroke="url(#paint126_linear_1283_45999)" stroke-width="0.482809" stroke-miterlimit="10"/>
<path d="M-85.8011 -107.814C-50.065 -114.031 2.11152 -117.661 51.8884 -95.8902C111.676 -69.7414 111.329 -34.6765 166.11 -14.3705C237.76 12.1508 273.013 -34.7839 348.858 -5.26443C417.424 21.6277 425.871 63.0228 486.126 71.9579C531.705 78.7632 544.419 57.6724 597.283 65.5899C637.149 71.5627 671.783 87.7427 694.815 100.449" stroke="url(#paint127_linear_1283_45999)" stroke-width="0.482809" stroke-miterlimit="10"/>
<path d="M-82.794 -110.248C-46.5515 -117.184 6.32441 -121.595 56.4554 -99.2777C116.503 -72.543 115.581 -35.4174 170.702 -14.6643C242.773 12.4361 279.162 -37.7566 355.318 -8.23023C423.665 18.4505 430.967 63.0288 490.859 71.1966C536.142 77.4125 549.438 54.3059 602.107 61.4091C641.656 66.7433 675.619 83.5383 698.156 96.8779" stroke="url(#paint128_linear_1283_45999)" stroke-width="0.482809" stroke-miterlimit="10"/>
<path d="M-79.7868 -112.683C-43.0331 -120.342 10.5421 -125.535 61.0224 -102.666C121.331 -75.3449 119.833 -36.1586 175.289 -14.9633C247.78 12.7063 285.307 -40.7344 361.768 -11.2059C429.89 15.2586 436.053 63.0248 495.576 70.4208C540.564 76.0472 554.436 50.92 606.926 57.2132C646.147 61.9192 679.448 79.3089 701.49 93.2813" stroke="url(#paint129_linear_1283_45999)" stroke-width="0.482809" stroke-miterlimit="10"/>
<path d="M-76.7792 -115.106C-39.5192 -123.484 14.7969 -129.546 65.5898 -106.043C126.209 -78.2436 124.086 -36.8892 179.881 -15.2568C252.788 12.9872 291.456 -43.7068 368.229 -14.1813C436.136 12.0665 441.143 63.0163 500.309 69.6499C544.996 74.6921 559.461 47.5487 611.75 53.0227C650.649 57.0952 683.288 75.0897 704.83 89.7001" stroke="url(#paint130_linear_1283_45999)" stroke-width="0.482809" stroke-miterlimit="10"/>
<path d="M-73.772 -117.541C-36.0008 -126.642 19.0054 -133.466 70.162 -109.426C131.033 -81.0105 128.339 -37.6207 184.473 -15.5512C257.8 13.2619 297.605 -46.6801 374.689 -17.1477C442.372 8.88384 446.24 63.0216 505.041 68.888C549.438 73.3457 564.48 44.1916 616.585 48.8408C655.161 52.2899 687.128 70.8795 708.18 86.1275" stroke="url(#paint131_linear_1283_45999)" stroke-width="0.482809" stroke-miterlimit="10"/>
<path d="M-70.7649 -119.975C-32.4925 -129.8 23.2139 -137.386 74.7289 -112.814C135.851 -83.7923 132.591 -38.3623 189.065 -15.8556C262.817 13.5313 303.754 -49.6634 381.144 -20.1289C448.612 5.68601 451.33 63.0121 509.769 68.1114C553.87 71.9796 569.494 40.8198 621.403 44.6446C659.662 47.4651 690.963 66.6546 711.515 82.5306" stroke="url(#paint132_linear_1283_45999)" stroke-width="0.482809" stroke-miterlimit="10"/>
<path d="M-67.7627 -122.404C-28.9839 -132.947 27.4174 -141.299 79.2957 -116.201C140.669 -86.5732 136.838 -39.1078 193.651 -16.1539C267.819 13.8074 309.898 -52.6407 387.6 -23.0992C454.842 2.49949 456.421 63.0135 514.496 67.3457C558.302 70.6245 574.506 37.5241 626.228 40.464C664.161 42.7064 694.792 62.4458 714.855 78.9593" stroke="url(#paint133_linear_1283_45999)" stroke-width="0.482809" stroke-miterlimit="10"/>
<path d="M-64.7556 -124.837C-25.4657 -136.104 31.621 -145.213 83.8626 -119.589C145.488 -89.3541 141.09 -39.8484 198.238 -16.4523C272.826 14.0782 316.047 -55.6231 394.05 -26.0743C461.073 -0.687047 461.502 63.0053 519.213 66.5704C562.723 69.2597 579.518 34.1031 631.041 36.2639C668.661 37.8424 698.622 58.2169 718.189 75.3633" stroke="url(#paint134_linear_1283_45999)" stroke-width="0.482809" stroke-miterlimit="10"/>
</g>
</g>
<defs>
<filter id="filter0_f_1283_45999" x="-522.421" y="27.7814" width="966.863" height="285.36" filterUnits="userSpaceOnUse" color-interpolation-filters="sRGB">
<feFlood flood-opacity="0" result="BackgroundImageFix"/>
<feBlend mode="normal" in="SourceGraphic" in2="BackgroundImageFix" result="shape"/>
<feGaussianBlur stdDeviation="2.5" result="effect1_foregroundBlur_1283_45999"/>
</filter>
<filter id="filter1_f_1283_45999" x="-335.179" y="-59.8371" width="810.424" height="280.379" filterUnits="userSpaceOnUse" color-interpolation-filters="sRGB">
<feFlood flood-opacity="0" result="BackgroundImageFix"/>
<feBlend mode="normal" in="SourceGraphic" in2="BackgroundImageFix" result="shape"/>
<feGaussianBlur stdDeviation="2.5" result="effect1_foregroundBlur_1283_45999"/>
</filter>
<filter id="filter2_f_1283_45999" x="-193.177" y="-141.326" width="916.525" height="376.06" filterUnits="userSpaceOnUse" color-interpolation-filters="sRGB">
<feFlood flood-opacity="0" result="BackgroundImageFix"/>
<feBlend mode="normal" in="SourceGraphic" in2="BackgroundImageFix" result="shape"/>
<feGaussianBlur stdDeviation="2.5" result="effect1_foregroundBlur_1283_45999"/>
</filter>
<linearGradient id="paint0_linear_1283_45999" x1="73.8421" y1="0.500007" x2="204.429" y2="214.459" gradientUnits="userSpaceOnUse">
<stop stop-color="#4D00B0"/>
<stop offset="1" stop-color="#501AEC"/>
</linearGradient>
<linearGradient id="paint1_linear_1283_45999" x1="322.092" y1="-3.25415e-05" x2="-19.1589" y2="154.575" gradientUnits="userSpaceOnUse">
<stop stop-color="white" stop-opacity="0.87"/>
<stop offset="0.515625" stop-color="white" stop-opacity="0"/>
<stop offset="1" stop-color="white" stop-opacity="0.87"/>
</linearGradient>
<linearGradient id="paint2_linear_1283_45999" x1="322.092" y1="-3.25415e-05" x2="-19.1589" y2="154.575" gradientUnits="userSpaceOnUse">
<stop stop-color="white" stop-opacity="0.87"/>
<stop offset="0.515625" stop-color="white" stop-opacity="0"/>
<stop offset="1" stop-color="white" stop-opacity="0.87"/>
</linearGradient>
<linearGradient id="paint3_linear_1283_45999" x1="249.489" y1="418.84" x2="-428.748" y2="46.2845" gradientUnits="userSpaceOnUse">
<stop stop-color="white"/>
<stop offset="1" stop-color="#676767"/>
</linearGradient>
<linearGradient id="paint4_linear_1283_45999" x1="249.49" y1="421.082" x2="-428.748" y2="48.5264" gradientUnits="userSpaceOnUse">
<stop stop-color="white"/>
<stop offset="1" stop-color="#676767"/>
</linearGradient>
<linearGradient id="paint5_linear_1283_45999" x1="249.49" y1="423.324" x2="-428.748" y2="50.7686" gradientUnits="userSpaceOnUse">
<stop stop-color="white"/>
<stop offset="1" stop-color="#676767"/>
</linearGradient>
<linearGradient id="paint6_linear_1283_45999" x1="249.49" y1="425.566" x2="-428.748" y2="53.0107" gradientUnits="userSpaceOnUse">
<stop stop-color="white"/>
<stop offset="1" stop-color="#676767"/>
</linearGradient>
<linearGradient id="paint7_linear_1283_45999" x1="249.49" y1="427.808" x2="-428.748" y2="55.2528" gradientUnits="userSpaceOnUse">
<stop stop-color="white"/>
<stop offset="1" stop-color="#676767"/>
</linearGradient>
<linearGradient id="paint8_linear_1283_45999" x1="249.49" y1="430.05" x2="-428.748" y2="57.4949" gradientUnits="userSpaceOnUse">
<stop stop-color="white"/>
<stop offset="1" stop-color="#676767"/>
</linearGradient>
<linearGradient id="paint9_linear_1283_45999" x1="249.49" y1="432.292" x2="-428.748" y2="59.737" gradientUnits="userSpaceOnUse">
<stop stop-color="white"/>
<stop offset="1" stop-color="#676767"/>
</linearGradient>
<linearGradient id="paint10_linear_1283_45999" x1="249.49" y1="434.535" x2="-428.748" y2="61.9791" gradientUnits="userSpaceOnUse">
<stop stop-color="white"/>
<stop offset="1" stop-color="#676767"/>
</linearGradient>
<linearGradient id="paint11_linear_1283_45999" x1="249.49" y1="436.777" x2="-428.748" y2="64.2212" gradientUnits="userSpaceOnUse">
<stop stop-color="white"/>
<stop offset="1" stop-color="#676767"/>
</linearGradient>
<linearGradient id="paint12_linear_1283_45999" x1="251.761" y1="414.735" x2="-425.984" y2="42.461" gradientUnits="userSpaceOnUse">
<stop stop-color="white"/>
<stop offset="1" stop-color="#676767"/>
</linearGradient>
<linearGradient id="paint13_linear_1283_45999" x1="254.004" y1="410.698" x2="-423.254" y2="38.7025" gradientUnits="userSpaceOnUse">
<stop stop-color="white"/>
<stop offset="1" stop-color="#676767"/>
</linearGradient>
<linearGradient id="paint14_linear_1283_45999" x1="256.245" y1="406.665" x2="-420.52" y2="34.9513" gradientUnits="userSpaceOnUse">
<stop stop-color="white"/>
<stop offset="1" stop-color="#676767"/>
</linearGradient>
<linearGradient id="paint15_linear_1283_45999" x1="258.478" y1="402.631" x2="-417.794" y2="31.2" gradientUnits="userSpaceOnUse">
<stop stop-color="white"/>
<stop offset="1" stop-color="#676767"/>
</linearGradient>
<linearGradient id="paint16_linear_1283_45999" x1="260.717" y1="398.602" x2="-415.069" y2="27.449" gradientUnits="userSpaceOnUse">
<stop stop-color="white"/>
<stop offset="1" stop-color="#676767"/>
</linearGradient>
<linearGradient id="paint17_linear_1283_45999" x1="262.959" y1="394.566" x2="-412.339" y2="23.6911" gradientUnits="userSpaceOnUse">
<stop stop-color="white"/>
<stop offset="1" stop-color="#676767"/>
</linearGradient>
<linearGradient id="paint18_linear_1283_45999" x1="265.199" y1="390.536" x2="-409.614" y2="19.939" gradientUnits="userSpaceOnUse">
<stop stop-color="white"/>
<stop offset="1" stop-color="#676767"/>
</linearGradient>
<linearGradient id="paint19_linear_1283_45999" x1="267.427" y1="386.496" x2="-406.886" y2="16.1849" gradientUnits="userSpaceOnUse">
<stop stop-color="white"/>
<stop offset="1" stop-color="#676767"/>
</linearGradient>
<linearGradient id="paint20_linear_1283_45999" x1="269.674" y1="382.467" x2="-404.158" y2="12.4297" gradientUnits="userSpaceOnUse">
<stop stop-color="white"/>
<stop offset="1" stop-color="#676767"/>
</linearGradient>
<linearGradient id="paint21_linear_1283_45999" x1="271.9" y1="378.429" x2="-401.432" y2="8.67719" gradientUnits="userSpaceOnUse">
<stop stop-color="white"/>
<stop offset="1" stop-color="#676767"/>
</linearGradient>
<linearGradient id="paint22_linear_1283_45999" x1="274.145" y1="374.39" x2="-398.701" y2="4.91658" gradientUnits="userSpaceOnUse">
<stop stop-color="white"/>
<stop offset="1" stop-color="#676767"/>
</linearGradient>
<linearGradient id="paint23_linear_1283_45999" x1="276.386" y1="370.357" x2="-395.967" y2="1.16492" gradientUnits="userSpaceOnUse">
<stop stop-color="white"/>
<stop offset="1" stop-color="#676767"/>
</linearGradient>
<linearGradient id="paint24_linear_1283_45999" x1="278.62" y1="366.321" x2="-393.239" y2="-2.58986" gradientUnits="userSpaceOnUse">
<stop stop-color="white"/>
<stop offset="1" stop-color="#676767"/>
</linearGradient>
<linearGradient id="paint25_linear_1283_45999" x1="280.859" y1="362.291" x2="-390.513" y2="-6.34181" gradientUnits="userSpaceOnUse">
<stop stop-color="white"/>
<stop offset="1" stop-color="#676767"/>
</linearGradient>
<linearGradient id="paint26_linear_1283_45999" x1="283.099" y1="358.261" x2="-387.787" y2="-10.0941" gradientUnits="userSpaceOnUse">
<stop stop-color="white"/>
<stop offset="1" stop-color="#676767"/>
</linearGradient>
<linearGradient id="paint27_linear_1283_45999" x1="285.333" y1="354.224" x2="-385.059" y2="-13.8499" gradientUnits="userSpaceOnUse">
<stop stop-color="white"/>
<stop offset="1" stop-color="#676767"/>
</linearGradient>
<linearGradient id="paint28_linear_1283_45999" x1="287.573" y1="350.191" x2="-382.332" y2="-17.605" gradientUnits="userSpaceOnUse">
<stop stop-color="white"/>
<stop offset="1" stop-color="#676767"/>
</linearGradient>
<linearGradient id="paint29_linear_1283_45999" x1="289.808" y1="346.155" x2="-379.604" y2="-21.3601" gradientUnits="userSpaceOnUse">
<stop stop-color="white"/>
<stop offset="1" stop-color="#676767"/>
</linearGradient>
<linearGradient id="paint30_linear_1283_45999" x1="292.054" y1="342.128" x2="-376.877" y2="-25.1132" gradientUnits="userSpaceOnUse">
<stop stop-color="white"/>
<stop offset="1" stop-color="#676767"/>
</linearGradient>
<linearGradient id="paint31_linear_1283_45999" x1="294.288" y1="338.092" x2="-374.143" y2="-28.8643" gradientUnits="userSpaceOnUse">
<stop stop-color="white"/>
<stop offset="1" stop-color="#676767"/>
</linearGradient>
<linearGradient id="paint32_linear_1283_45999" x1="296.526" y1="334.048" x2="-371.411" y2="-32.6271" gradientUnits="userSpaceOnUse">
<stop stop-color="white"/>
<stop offset="1" stop-color="#676767"/>
</linearGradient>
<linearGradient id="paint33_linear_1283_45999" x1="298.759" y1="330.016" x2="-368.685" y2="-36.3789" gradientUnits="userSpaceOnUse">
<stop stop-color="white"/>
<stop offset="1" stop-color="#676767"/>
</linearGradient>
<linearGradient id="paint34_linear_1283_45999" x1="300.998" y1="325.986" x2="-365.959" y2="-40.1313" gradientUnits="userSpaceOnUse">
<stop stop-color="white"/>
<stop offset="1" stop-color="#676767"/>
</linearGradient>
<linearGradient id="paint35_linear_1283_45999" x1="303.241" y1="321.949" x2="-363.229" y2="-43.8909" gradientUnits="userSpaceOnUse">
<stop stop-color="white"/>
<stop offset="1" stop-color="#676767"/>
</linearGradient>
<linearGradient id="paint36_linear_1283_45999" x1="305.485" y1="317.927" x2="-360.504" y2="-47.6398" gradientUnits="userSpaceOnUse">
<stop stop-color="white"/>
<stop offset="1" stop-color="#676767"/>
</linearGradient>
<linearGradient id="paint37_linear_1283_45999" x1="307.706" y1="313.882" x2="-357.776" y2="-51.3962" gradientUnits="userSpaceOnUse">
<stop stop-color="white"/>
<stop offset="1" stop-color="#676767"/>
</linearGradient>
<linearGradient id="paint38_linear_1283_45999" x1="309.957" y1="309.847" x2="-355.044" y2="-55.1581" gradientUnits="userSpaceOnUse">
<stop stop-color="white"/>
<stop offset="1" stop-color="#676767"/>
</linearGradient>
<linearGradient id="paint39_linear_1283_45999" x1="312.18" y1="305.816" x2="-352.321" y2="-58.9047" gradientUnits="userSpaceOnUse">
<stop stop-color="white"/>
<stop offset="1" stop-color="#676767"/>
</linearGradient>
<linearGradient id="paint40_linear_1283_45999" x1="314.435" y1="301.788" x2="-349.585" y2="-62.6598" gradientUnits="userSpaceOnUse">
<stop stop-color="white"/>
<stop offset="1" stop-color="#676767"/>
</linearGradient>
<linearGradient id="paint41_linear_1283_45999" x1="316.67" y1="297.751" x2="-346.856" y2="-66.4166" gradientUnits="userSpaceOnUse">
<stop stop-color="white"/>
<stop offset="1" stop-color="#676767"/>
</linearGradient>
<linearGradient id="paint42_linear_1283_45999" x1="318.898" y1="293.71" x2="-344.128" y2="-70.1727" gradientUnits="userSpaceOnUse">
<stop stop-color="white"/>
<stop offset="1" stop-color="#676767"/>
</linearGradient>
<linearGradient id="paint43_linear_1283_45999" x1="321.139" y1="289.678" x2="-341.4" y2="-73.9288" gradientUnits="userSpaceOnUse">
<stop stop-color="white"/>
<stop offset="1" stop-color="#676767"/>
</linearGradient>
<linearGradient id="paint44_linear_1283_45999" x1="323.38" y1="285.645" x2="-338.671" y2="-77.6848" gradientUnits="userSpaceOnUse">
<stop stop-color="white"/>
<stop offset="1" stop-color="#676767"/>
</linearGradient>
<linearGradient id="paint45_linear_1283_45999" x1="325.614" y1="281.608" x2="-335.943" y2="-81.4414" gradientUnits="userSpaceOnUse">
<stop stop-color="white"/>
<stop offset="1" stop-color="#676767"/>
</linearGradient>
<linearGradient id="paint46_linear_1283_45999" x1="327.86" y1="277.582" x2="-333.216" y2="-85.1948" gradientUnits="userSpaceOnUse">
<stop stop-color="white"/>
<stop offset="1" stop-color="#676767"/>
</linearGradient>
<linearGradient id="paint47_linear_1283_45999" x1="330.089" y1="273.539" x2="-330.486" y2="-88.9537" gradientUnits="userSpaceOnUse">
<stop stop-color="white"/>
<stop offset="1" stop-color="#676767"/>
</linearGradient>
<linearGradient id="paint48_linear_1283_45999" x1="332.329" y1="269.509" x2="-327.753" y2="-92.7033" gradientUnits="userSpaceOnUse">
<stop stop-color="white"/>
<stop offset="1" stop-color="#676767"/>
</linearGradient>
<linearGradient id="paint49_linear_1283_45999" x1="334.583" y1="265.483" x2="-325.024" y2="-96.4599" gradientUnits="userSpaceOnUse">
<stop stop-color="white"/>
<stop offset="1" stop-color="#676767"/>
</linearGradient>
<linearGradient id="paint50_linear_1283_45999" x1="336.813" y1="261.439" x2="-322.294" y2="-100.221" gradientUnits="userSpaceOnUse">
<stop stop-color="white"/>
<stop offset="1" stop-color="#676767"/>
</linearGradient>
<linearGradient id="paint51_linear_1283_45999" x1="339.056" y1="257.417" x2="-319.569" y2="-103.97" gradientUnits="userSpaceOnUse">
<stop stop-color="white"/>
<stop offset="1" stop-color="#676767"/>
</linearGradient>
<linearGradient id="paint52_linear_1283_45999" x1="341.286" y1="253.373" x2="-316.839" y2="-107.73" gradientUnits="userSpaceOnUse">
<stop stop-color="white"/>
<stop offset="1" stop-color="#676767"/>
</linearGradient>
<linearGradient id="paint53_linear_1283_45999" x1="277.067" y1="-161.794" x2="-240.38" y2="217.361" gradientUnits="userSpaceOnUse">
<stop stop-color="white"/>
<stop offset="1" stop-color="#424242"/>
</linearGradient>
<linearGradient id="paint54_linear_1283_45999" x1="279.375" y1="-158.664" x2="-237.696" y2="220.206" gradientUnits="userSpaceOnUse">
<stop stop-color="white"/>
<stop offset="1" stop-color="#424242"/>
</linearGradient>
<linearGradient id="paint55_linear_1283_45999" x1="281.653" y1="-155.587" x2="-235.048" y2="223.002" gradientUnits="userSpaceOnUse">
<stop stop-color="white"/>
<stop offset="1" stop-color="#424242"/>
</linearGradient>
<linearGradient id="paint56_linear_1283_45999" x1="283.929" y1="-152.513" x2="-232.398" y2="225.791" gradientUnits="userSpaceOnUse">
<stop stop-color="white"/>
<stop offset="1" stop-color="#424242"/>
</linearGradient>
<linearGradient id="paint57_linear_1283_45999" x1="286.198" y1="-149.438" x2="-229.754" y2="228.582" gradientUnits="userSpaceOnUse">
<stop stop-color="white"/>
<stop offset="1" stop-color="#424242"/>
</linearGradient>
<linearGradient id="paint58_linear_1283_45999" x1="288.472" y1="-146.366" x2="-227.11" y2="231.372" gradientUnits="userSpaceOnUse">
<stop stop-color="white"/>
<stop offset="1" stop-color="#424242"/>
</linearGradient>
<linearGradient id="paint59_linear_1283_45999" x1="290.749" y1="-143.29" x2="-224.463" y2="234.168" gradientUnits="userSpaceOnUse">
<stop stop-color="white"/>
<stop offset="1" stop-color="#424242"/>
</linearGradient>
<linearGradient id="paint60_linear_1283_45999" x1="293.023" y1="-140.218" x2="-221.819" y2="236.958" gradientUnits="userSpaceOnUse">
<stop stop-color="white"/>
<stop offset="1" stop-color="#424242"/>
</linearGradient>
<linearGradient id="paint61_linear_1283_45999" x1="295.289" y1="-137.136" x2="-219.173" y2="239.752" gradientUnits="userSpaceOnUse">
<stop stop-color="white"/>
<stop offset="1" stop-color="#424242"/>
</linearGradient>
<linearGradient id="paint62_linear_1283_45999" x1="297.569" y1="-134.066" x2="-216.527" y2="242.545" gradientUnits="userSpaceOnUse">
<stop stop-color="white"/>
<stop offset="1" stop-color="#424242"/>
</linearGradient>
<linearGradient id="paint63_linear_1283_45999" x1="299.833" y1="-130.986" x2="-213.883" y2="245.336" gradientUnits="userSpaceOnUse">
<stop stop-color="white"/>
<stop offset="1" stop-color="#424242"/>
</linearGradient>
<linearGradient id="paint64_linear_1283_45999" x1="306.658" y1="-121.756" x2="-205.937" y2="253.717" gradientUnits="userSpaceOnUse">
<stop stop-color="white"/>
<stop offset="1" stop-color="#424242"/>
</linearGradient>
<linearGradient id="paint65_linear_1283_45999" x1="308.932" y1="-118.685" x2="-203.293" y2="256.508" gradientUnits="userSpaceOnUse">
<stop stop-color="white"/>
<stop offset="1" stop-color="#424242"/>
</linearGradient>
<linearGradient id="paint66_linear_1283_45999" x1="311.206" y1="-115.612" x2="-200.649" y2="259.299" gradientUnits="userSpaceOnUse">
<stop stop-color="white"/>
<stop offset="1" stop-color="#424242"/>
</linearGradient>
<linearGradient id="paint67_linear_1283_45999" x1="313.477" y1="-112.534" x2="-198.003" y2="262.093" gradientUnits="userSpaceOnUse">
<stop stop-color="white"/>
<stop offset="1" stop-color="#424242"/>
</linearGradient>
<linearGradient id="paint68_linear_1283_45999" x1="315.752" y1="-109.46" x2="-195.357" y2="264.886" gradientUnits="userSpaceOnUse">
<stop stop-color="white"/>
<stop offset="1" stop-color="#424242"/>
</linearGradient>
<linearGradient id="paint69_linear_1283_45999" x1="318.023" y1="-106.383" x2="-192.711" y2="267.68" gradientUnits="userSpaceOnUse">
<stop stop-color="white"/>
<stop offset="1" stop-color="#424242"/>
</linearGradient>
<linearGradient id="paint70_linear_1283_45999" x1="320.302" y1="-103.315" x2="-190.066" y2="270.471" gradientUnits="userSpaceOnUse">
<stop stop-color="white"/>
<stop offset="1" stop-color="#424242"/>
</linearGradient>
<linearGradient id="paint71_linear_1283_45999" x1="322.572" y1="-100.237" x2="-187.415" y2="273.261" gradientUnits="userSpaceOnUse">
<stop stop-color="white"/>
<stop offset="1" stop-color="#424242"/>
</linearGradient>
<linearGradient id="paint72_linear_1283_45999" x1="324.847" y1="-97.1542" x2="-184.765" y2="276.06" gradientUnits="userSpaceOnUse">
<stop stop-color="white"/>
<stop offset="1" stop-color="#424242"/>
</linearGradient>
<linearGradient id="paint73_linear_1283_45999" x1="327.116" y1="-94.079" x2="-182.121" y2="278.851" gradientUnits="userSpaceOnUse">
<stop stop-color="white"/>
<stop offset="1" stop-color="#424242"/>
</linearGradient>
<linearGradient id="paint74_linear_1283_45999" x1="329.389" y1="-91.0074" x2="-179.477" y2="281.642" gradientUnits="userSpaceOnUse">
<stop stop-color="white"/>
<stop offset="1" stop-color="#424242"/>
</linearGradient>
<linearGradient id="paint75_linear_1283_45999" x1="331.667" y1="-87.9305" x2="-176.828" y2="284.439" gradientUnits="userSpaceOnUse">
<stop stop-color="white"/>
<stop offset="1" stop-color="#424242"/>
</linearGradient>
<linearGradient id="paint76_linear_1283_45999" x1="333.944" y1="-84.8655" x2="-174.186" y2="287.228" gradientUnits="userSpaceOnUse">
<stop stop-color="white"/>
<stop offset="1" stop-color="#424242"/>
</linearGradient>
<linearGradient id="paint77_linear_1283_45999" x1="336.205" y1="-81.7798" x2="-171.539" y2="290.022" gradientUnits="userSpaceOnUse">
<stop stop-color="white"/>
<stop offset="1" stop-color="#424242"/>
</linearGradient>
<linearGradient id="paint78_linear_1283_45999" x1="338.489" y1="-78.7045" x2="-168.889" y2="292.821" gradientUnits="userSpaceOnUse">
<stop stop-color="white"/>
<stop offset="1" stop-color="#424242"/>
</linearGradient>
<linearGradient id="paint79_linear_1283_45999" x1="340.749" y1="-75.6302" x2="-166.248" y2="295.608" gradientUnits="userSpaceOnUse">
<stop stop-color="white"/>
<stop offset="1" stop-color="#424242"/>
</linearGradient>
<linearGradient id="paint80_linear_1283_45999" x1="343.036" y1="-72.5618" x2="-163.596" y2="298.4" gradientUnits="userSpaceOnUse">
<stop stop-color="white"/>
<stop offset="1" stop-color="#424242"/>
</linearGradient>
<linearGradient id="paint81_linear_1283_45999" x1="345.307" y1="-69.4835" x2="-160.949" y2="301.194" gradientUnits="userSpaceOnUse">
<stop stop-color="white"/>
<stop offset="1" stop-color="#424242"/>
</linearGradient>
<linearGradient id="paint82_linear_1283_45999" x1="347.573" y1="-66.4019" x2="-158.302" y2="303.989" gradientUnits="userSpaceOnUse">
<stop stop-color="white"/>
<stop offset="1" stop-color="#424242"/>
</linearGradient>
<linearGradient id="paint83_linear_1283_45999" x1="349.848" y1="-63.328" x2="-155.656" y2="306.783" gradientUnits="userSpaceOnUse">
<stop stop-color="white"/>
<stop offset="1" stop-color="#424242"/>
</linearGradient>
<linearGradient id="paint84_linear_1283_45999" x1="352.124" y1="-60.254" x2="-153.009" y2="309.577" gradientUnits="userSpaceOnUse">
<stop stop-color="white"/>
<stop offset="1" stop-color="#424242"/>
</linearGradient>
<linearGradient id="paint85_linear_1283_45999" x1="354.395" y1="-57.1757" x2="-150.363" y2="312.372" gradientUnits="userSpaceOnUse">
<stop stop-color="white"/>
<stop offset="1" stop-color="#424242"/>
</linearGradient>
<linearGradient id="paint86_linear_1283_45999" x1="356.673" y1="-54.1081" x2="-147.718" y2="315.163" gradientUnits="userSpaceOnUse">
<stop stop-color="white"/>
<stop offset="1" stop-color="#424242"/>
</linearGradient>
<linearGradient id="paint87_linear_1283_45999" x1="358.941" y1="-51.0241" x2="-145.07" y2="317.96" gradientUnits="userSpaceOnUse">
<stop stop-color="white"/>
<stop offset="1" stop-color="#424242"/>
</linearGradient>
<linearGradient id="paint88_linear_1283_45999" x1="361.215" y1="-47.9527" x2="-142.42" y2="320.748" gradientUnits="userSpaceOnUse">
<stop stop-color="white"/>
<stop offset="1" stop-color="#424242"/>
</linearGradient>
<linearGradient id="paint89_linear_1283_45999" x1="363.5" y1="-44.8857" x2="-139.773" y2="323.543" gradientUnits="userSpaceOnUse">
<stop stop-color="white"/>
<stop offset="1" stop-color="#424242"/>
</linearGradient>
<linearGradient id="paint90_linear_1283_45999" x1="365.768" y1="-41.8011" x2="-137.124" y2="326.34" gradientUnits="userSpaceOnUse">
<stop stop-color="white"/>
<stop offset="1" stop-color="#424242"/>
</linearGradient>
<linearGradient id="paint91_linear_1283_45999" x1="368.045" y1="-38.736" x2="-134.482" y2="329.13" gradientUnits="userSpaceOnUse">
<stop stop-color="white"/>
<stop offset="1" stop-color="#424242"/>
</linearGradient>
<linearGradient id="paint92_linear_1283_45999" x1="370.312" y1="-35.6524" x2="-131.833" y2="331.926" gradientUnits="userSpaceOnUse">
<stop stop-color="white"/>
<stop offset="1" stop-color="#424242"/>
</linearGradient>
<linearGradient id="paint93_linear_1283_45999" x1="465.553" y1="347.544" x2="-70.9839" y2="-148.887" gradientUnits="userSpaceOnUse">
<stop stop-color="white"/>
<stop offset="1" stop-color="white"/>
</linearGradient>
<linearGradient id="paint94_linear_1283_45999" x1="468.573" y1="344.301" x2="-67.5761" y2="-151.76" gradientUnits="userSpaceOnUse">
<stop stop-color="white"/>
<stop offset="1" stop-color="white"/>
</linearGradient>
<linearGradient id="paint95_linear_1283_45999" x1="471.551" y1="341.114" x2="-64.2155" y2="-154.581" gradientUnits="userSpaceOnUse">
<stop stop-color="white"/>
<stop offset="1" stop-color="white"/>
</linearGradient>
<linearGradient id="paint96_linear_1283_45999" x1="474.527" y1="337.929" x2="-60.8527" y2="-157.394" gradientUnits="userSpaceOnUse">
<stop stop-color="white"/>
<stop offset="1" stop-color="white"/>
</linearGradient>
<linearGradient id="paint97_linear_1283_45999" x1="477.495" y1="334.742" x2="-57.4974" y2="-160.21" gradientUnits="userSpaceOnUse">
<stop stop-color="white"/>
<stop offset="1" stop-color="white"/>
</linearGradient>
<linearGradient id="paint98_linear_1283_45999" x1="480.468" y1="331.56" x2="-54.1419" y2="-163.025" gradientUnits="userSpaceOnUse">
<stop stop-color="white"/>
<stop offset="1" stop-color="white"/>
</linearGradient>
<linearGradient id="paint99_linear_1283_45999" x1="483.445" y1="328.373" x2="-50.7818" y2="-165.847" gradientUnits="userSpaceOnUse">
<stop stop-color="white"/>
<stop offset="1" stop-color="white"/>
</linearGradient>
<linearGradient id="paint100_linear_1283_45999" x1="486.418" y1="325.191" x2="-47.4263" y2="-168.662" gradientUnits="userSpaceOnUse">
<stop stop-color="white"/>
<stop offset="1" stop-color="white"/>
</linearGradient>
<linearGradient id="paint101_linear_1283_45999" x1="489.384" y1="321.997" x2="-44.0684" y2="-171.481" gradientUnits="userSpaceOnUse">
<stop stop-color="white"/>
<stop offset="1" stop-color="white"/>
</linearGradient>
<linearGradient id="paint102_linear_1283_45999" x1="492.364" y1="318.817" x2="-40.7105" y2="-174.299" gradientUnits="userSpaceOnUse">
<stop stop-color="white"/>
<stop offset="1" stop-color="white"/>
</linearGradient>
<linearGradient id="paint103_linear_1283_45999" x1="495.327" y1="315.625" x2="-37.3546" y2="-177.115" gradientUnits="userSpaceOnUse">
<stop stop-color="white"/>
<stop offset="1" stop-color="white"/>
</linearGradient>
<linearGradient id="paint104_linear_1283_45999" x1="498.307" y1="312.436" x2="-33.9921" y2="-179.939" gradientUnits="userSpaceOnUse">
<stop stop-color="white"/>
<stop offset="1" stop-color="white"/>
</linearGradient>
<linearGradient id="paint105_linear_1283_45999" x1="501.282" y1="309.252" x2="-30.6291" y2="-182.752" gradientUnits="userSpaceOnUse">
<stop stop-color="white"/>
<stop offset="1" stop-color="white"/>
</linearGradient>
<linearGradient id="paint106_linear_1283_45999" x1="504.253" y1="306.062" x2="-27.2708" y2="-185.571" gradientUnits="userSpaceOnUse">
<stop stop-color="white"/>
<stop offset="1" stop-color="white"/>
</linearGradient>
<linearGradient id="paint107_linear_1283_45999" x1="507.226" y1="302.88" x2="-23.9149" y2="-188.387" gradientUnits="userSpaceOnUse">
<stop stop-color="white"/>
<stop offset="1" stop-color="white"/>
</linearGradient>
<linearGradient id="paint108_linear_1283_45999" x1="510.199" y1="299.698" x2="-20.5587" y2="-191.204" gradientUnits="userSpaceOnUse">
<stop stop-color="white"/>
<stop offset="1" stop-color="white"/>
</linearGradient>
<linearGradient id="paint109_linear_1283_45999" x1="513.169" y1="296.508" x2="-17.2005" y2="-194.023" gradientUnits="userSpaceOnUse">
<stop stop-color="white"/>
<stop offset="1" stop-color="white"/>
</linearGradient>
<linearGradient id="paint110_linear_1283_45999" x1="516.144" y1="293.324" x2="-13.8427" y2="-196.841" gradientUnits="userSpaceOnUse">
<stop stop-color="white"/>
<stop offset="1" stop-color="white"/>
</linearGradient>
<linearGradient id="paint111_linear_1283_45999" x1="519.115" y1="290.135" x2="-10.4843" y2="-199.66" gradientUnits="userSpaceOnUse">
<stop stop-color="white"/>
<stop offset="1" stop-color="white"/>
</linearGradient>
<linearGradient id="paint112_linear_1283_45999" x1="522.093" y1="286.957" x2="-7.12776" y2="-202.477" gradientUnits="userSpaceOnUse">
<stop stop-color="white"/>
<stop offset="1" stop-color="white"/>
</linearGradient>
<linearGradient id="paint113_linear_1283_45999" x1="525.063" y1="283.769" x2="-3.76467" y2="-205.29" gradientUnits="userSpaceOnUse">
<stop stop-color="white"/>
<stop offset="1" stop-color="white"/>
</linearGradient>
<linearGradient id="paint114_linear_1283_45999" x1="528.038" y1="280.574" x2="-0.401133" y2="-208.115" gradientUnits="userSpaceOnUse">
<stop stop-color="white"/>
<stop offset="1" stop-color="white"/>
</linearGradient>
<linearGradient id="paint115_linear_1283_45999" x1="531.006" y1="277.387" x2="2.95469" y2="-210.931" gradientUnits="userSpaceOnUse">
<stop stop-color="white"/>
<stop offset="1" stop-color="white"/>
</linearGradient>
<linearGradient id="paint116_linear_1283_45999" x1="533.979" y1="274.205" x2="6.31084" y2="-213.748" gradientUnits="userSpaceOnUse">
<stop stop-color="white"/>
<stop offset="1" stop-color="white"/>
</linearGradient>
<linearGradient id="paint117_linear_1283_45999" x1="536.957" y1="271.018" x2="9.67207" y2="-216.57" gradientUnits="userSpaceOnUse">
<stop stop-color="white"/>
<stop offset="1" stop-color="white"/>
</linearGradient>
<linearGradient id="paint118_linear_1283_45999" x1="539.933" y1="267.843" x2="13.0257" y2="-219.384" gradientUnits="userSpaceOnUse">
<stop stop-color="white"/>
<stop offset="1" stop-color="white"/>
</linearGradient>
<linearGradient id="paint119_linear_1283_45999" x1="542.893" y1="264.644" x2="16.3848" y2="-222.203" gradientUnits="userSpaceOnUse">
<stop stop-color="white"/>
<stop offset="1" stop-color="white"/>
</linearGradient>
<linearGradient id="paint120_linear_1283_45999" x1="545.878" y1="261.459" x2="19.7482" y2="-225.027" gradientUnits="userSpaceOnUse">
<stop stop-color="white"/>
<stop offset="1" stop-color="white"/>
</linearGradient>
<linearGradient id="paint121_linear_1283_45999" x1="548.836" y1="258.273" x2="23.0998" y2="-227.839" gradientUnits="userSpaceOnUse">
<stop stop-color="white"/>
<stop offset="1" stop-color="white"/>
</linearGradient>
<linearGradient id="paint122_linear_1283_45999" x1="551.824" y1="255.096" x2="26.4658" y2="-230.656" gradientUnits="userSpaceOnUse">
<stop stop-color="white"/>
<stop offset="1" stop-color="white"/>
</linearGradient>
<linearGradient id="paint123_linear_1283_45999" x1="554.794" y1="251.906" x2="29.825" y2="-233.476" gradientUnits="userSpaceOnUse">
<stop stop-color="white"/>
<stop offset="1" stop-color="white"/>
</linearGradient>
<linearGradient id="paint124_linear_1283_45999" x1="557.76" y1="248.712" x2="33.184" y2="-236.295" gradientUnits="userSpaceOnUse">
<stop stop-color="white"/>
<stop offset="1" stop-color="white"/>
</linearGradient>
<linearGradient id="paint125_linear_1283_45999" x1="560.735" y1="245.528" x2="36.5427" y2="-239.114" gradientUnits="userSpaceOnUse">
<stop stop-color="white"/>
<stop offset="1" stop-color="white"/>
</linearGradient>
<linearGradient id="paint126_linear_1283_45999" x1="563.71" y1="242.343" x2="39.9018" y2="-241.934" gradientUnits="userSpaceOnUse">
<stop stop-color="white"/>
<stop offset="1" stop-color="white"/>
</linearGradient>
<linearGradient id="paint127_linear_1283_45999" x1="566.68" y1="239.153" x2="43.2606" y2="-244.754" gradientUnits="userSpaceOnUse">
<stop stop-color="white"/>
<stop offset="1" stop-color="white"/>
</linearGradient>
<linearGradient id="paint128_linear_1283_45999" x1="569.659" y1="235.976" x2="46.6174" y2="-247.571" gradientUnits="userSpaceOnUse">
<stop stop-color="white"/>
<stop offset="1" stop-color="white"/>
</linearGradient>
<linearGradient id="paint129_linear_1283_45999" x1="572.626" y1="232.779" x2="49.9788" y2="-250.393" gradientUnits="userSpaceOnUse">
<stop stop-color="white"/>
<stop offset="1" stop-color="white"/>
</linearGradient>
<linearGradient id="paint130_linear_1283_45999" x1="575.599" y1="229.598" x2="53.3407" y2="-253.205" gradientUnits="userSpaceOnUse">
<stop stop-color="white"/>
<stop offset="1" stop-color="white"/>
</linearGradient>
<linearGradient id="paint131_linear_1283_45999" x1="578.585" y1="226.423" x2="56.7" y2="-256.025" gradientUnits="userSpaceOnUse">
<stop stop-color="white"/>
<stop offset="1" stop-color="white"/>
</linearGradient>
<linearGradient id="paint132_linear_1283_45999" x1="581.553" y1="223.225" x2="60.0615" y2="-258.848" gradientUnits="userSpaceOnUse">
<stop stop-color="white"/>
<stop offset="1" stop-color="white"/>
</linearGradient>
<linearGradient id="paint133_linear_1283_45999" x1="584.528" y1="220.051" x2="63.4158" y2="-261.662" gradientUnits="userSpaceOnUse">
<stop stop-color="white"/>
<stop offset="1" stop-color="white"/>
</linearGradient>
<linearGradient id="paint134_linear_1283_45999" x1="587.496" y1="216.855" x2="66.7773" y2="-264.484" gradientUnits="userSpaceOnUse">
<stop stop-color="white"/>
<stop offset="1" stop-color="white"/>
</linearGradient>
</defs>
</svg>
