<svg width="338" height="213" viewBox="0 0 338 213" fill="none" xmlns="http://www.w3.org/2000/svg">
<mask id="path-1-inside-1_1283_45749" fill="white">
<path fill-rule="evenodd" clip-rule="evenodd" d="M323.316 0C331.048 0 337.316 6.26802 337.316 14V138.079C332.436 143.533 329.468 150.735 329.468 158.629C329.468 166.523 332.436 173.725 337.316 179.179V199C337.316 206.732 331.048 213 323.316 213H14.3158C6.58381 213 0.315796 206.732 0.315796 199V14C0.315796 6.26801 6.5838 0 14.3158 0H323.316Z"/>
</mask>
<path fill-rule="evenodd" clip-rule="evenodd" d="M323.316 0C331.048 0 337.316 6.26802 337.316 14V138.079C332.436 143.533 329.468 150.735 329.468 158.629C329.468 166.523 332.436 173.725 337.316 179.179V199C337.316 206.732 331.048 213 323.316 213H14.3158C6.58381 213 0.315796 206.732 0.315796 199V14C0.315796 6.26801 6.5838 0 14.3158 0H323.316Z" fill="url(#paint0_linear_1283_45749)"/>
<path d="M337.316 138.079L338.237 138.904L338.552 138.552V138.079H337.316ZM337.316 179.179H338.552V178.706L338.237 178.354L337.316 179.179ZM338.552 14C338.552 5.58514 331.731 -1.23646 323.316 -1.23646V1.23646C330.365 1.23646 336.079 6.95089 336.079 14H338.552ZM338.552 138.079V14H336.079V138.079H338.552ZM330.705 158.629C330.705 151.05 333.552 144.14 338.237 138.904L336.394 137.255C331.319 142.927 328.232 150.419 328.232 158.629H330.705ZM338.237 178.354C333.552 173.118 330.705 166.208 330.705 158.629H328.232C328.232 166.839 331.319 174.331 336.394 180.003L338.237 178.354ZM338.552 199V179.179H336.079V199H338.552ZM323.316 214.236C331.731 214.236 338.552 207.415 338.552 199H336.079C336.079 206.049 330.365 211.764 323.316 211.764V214.236ZM14.3158 214.236H323.316V211.764H14.3158V214.236ZM-0.920659 199C-0.920659 207.415 5.90093 214.236 14.3158 214.236V211.764C7.26669 211.764 1.55225 206.049 1.55225 199H-0.920659ZM-0.920659 14V199H1.55225V14H-0.920659ZM14.3158 -1.23646C5.90093 -1.23646 -0.920659 5.58514 -0.920659 14H1.55225C1.55225 6.95089 7.26668 1.23646 14.3158 1.23646V-1.23646ZM323.316 -1.23646H14.3158V1.23646H323.316V-1.23646Z" fill="url(#paint1_linear_1283_45749)" fill-opacity="0.4" mask="url(#path-1-inside-1_1283_45749)"/>
<mask id="mask0_1283_45749" style="mask-type:alpha" maskUnits="userSpaceOnUse" x="0" y="0" width="338" height="213">
<mask id="path-3-inside-2_1283_45749" fill="white">
<path fill-rule="evenodd" clip-rule="evenodd" d="M323.316 0C331.048 0 337.316 6.26802 337.316 14V138.079C332.436 143.533 329.468 150.735 329.468 158.629C329.468 166.523 332.436 173.725 337.316 179.179V199C337.316 206.732 331.048 213 323.316 213H14.3158C6.58381 213 0.315796 206.732 0.315796 199V14C0.315796 6.26801 6.5838 0 14.3158 0H323.316Z"/>
</mask>
<path fill-rule="evenodd" clip-rule="evenodd" d="M323.316 0C331.048 0 337.316 6.26802 337.316 14V138.079C332.436 143.533 329.468 150.735 329.468 158.629C329.468 166.523 332.436 173.725 337.316 179.179V199C337.316 206.732 331.048 213 323.316 213H14.3158C6.58381 213 0.315796 206.732 0.315796 199V14C0.315796 6.26801 6.5838 0 14.3158 0H323.316Z" fill="url(#paint2_linear_1283_45749)"/>
<path d="M337.316 138.079L338.237 138.904L338.552 138.552V138.079H337.316ZM337.316 179.179H338.552V178.706L338.237 178.354L337.316 179.179ZM338.552 14C338.552 5.58514 331.731 -1.23646 323.316 -1.23646V1.23646C330.365 1.23646 336.079 6.95089 336.079 14H338.552ZM338.552 138.079V14H336.079V138.079H338.552ZM330.705 158.629C330.705 151.05 333.552 144.14 338.237 138.904L336.394 137.255C331.319 142.927 328.232 150.419 328.232 158.629H330.705ZM338.237 178.354C333.552 173.118 330.705 166.208 330.705 158.629H328.232C328.232 166.839 331.319 174.331 336.394 180.003L338.237 178.354ZM338.552 199V179.179H336.079V199H338.552ZM323.316 214.236C331.731 214.236 338.552 207.415 338.552 199H336.079C336.079 206.049 330.365 211.764 323.316 211.764V214.236ZM14.3158 214.236H323.316V211.764H14.3158V214.236ZM-0.920659 199C-0.920659 207.415 5.90093 214.236 14.3158 214.236V211.764C7.26669 211.764 1.55225 206.049 1.55225 199H-0.920659ZM-0.920659 14V199H1.55225V14H-0.920659ZM14.3158 -1.23646C5.90093 -1.23646 -0.920659 5.58514 -0.920659 14H1.55225C1.55225 6.95089 7.26668 1.23646 14.3158 1.23646V-1.23646ZM323.316 -1.23646H14.3158V1.23646H323.316V-1.23646Z" fill="url(#paint3_linear_1283_45749)" fill-opacity="0.4" mask="url(#path-3-inside-2_1283_45749)"/>
</mask>
<g mask="url(#mask0_1283_45749)">
<g style="mix-blend-mode:screen" opacity="0.45" filter="url(#filter0_f_1283_45749)">
<path d="M-96.5664 197.552C-69.6061 211.291 -29.4057 225.98 12.1754 214.734C61.2325 201.471 65.0327 164.87 109.866 155.95C168.385 144.303 189.94 201.061 250.801 190.614C303.092 181.638 312.405 135.41 354.847 140.974C386.848 145.172 394.085 173.091 431.828 178.798C459.394 182.966 484.047 172.393 500.686 162.697" stroke="url(#paint4_linear_1283_45749)" stroke-width="0.560526" stroke-miterlimit="10"/>
<path d="M498.983 160.4C482.115 169.487 457.106 179.381 429.192 175.53C391.154 170.207 383.945 143.855 351.622 139.912C308.773 134.678 299.247 178.367 246.731 187.291C186.067 197.626 164.738 143.365 106.626 154.527C62.1096 163.082 58.2717 198.097 9.49896 210.845C-31.7391 221.665 -71.572 207.553 -98.2922 194.363" stroke="url(#paint5_linear_1283_45749)" stroke-width="0.560526" stroke-miterlimit="10"/>
<path d="M497.278 158.098C480.177 166.572 454.815 175.793 426.543 172.251C388.211 167.324 381.031 142.532 348.387 138.844C305.133 133.945 295.391 175.09 242.654 183.954C182.188 194.172 161.093 142.408 103.378 153.09C59.1831 161.278 55.2984 194.712 6.81683 206.936C-34.0729 217.35 -73.5405 203.822 -100.026 191.173" stroke="url(#paint6_linear_1283_45749)" stroke-width="0.560526" stroke-miterlimit="10"/>
<path d="M495.57 155.799C478.244 163.661 452.516 172.274 423.893 168.979C385.257 164.529 378.119 141.22 345.148 137.778C301.483 133.211 291.533 171.815 238.571 180.626C178.301 190.733 157.437 141.463 100.126 151.663C56.2514 159.483 52.3245 191.333 4.12722 203.043C-36.4028 213.039 -75.51 200.086 -101.755 187.986" stroke="url(#paint7_linear_1283_45749)" stroke-width="0.560526" stroke-miterlimit="10"/>
<path d="M493.867 153.502C476.311 160.756 450.228 168.714 421.249 165.71C382.319 161.679 375.211 139.905 341.917 136.719C297.846 132.482 287.682 168.548 234.501 177.304C174.432 187.297 153.795 140.523 96.8853 150.24C53.3323 157.693 49.3414 187.853 1.45237 199.148C-38.7557 208.633 -77.4741 196.352 -103.482 184.798" stroke="url(#paint8_linear_1283_45749)" stroke-width="0.560526" stroke-miterlimit="10"/>
<path d="M492.163 151.2C474.374 157.84 447.936 165.143 418.599 162.438C379.372 158.821 372.295 138.589 338.676 135.66C294.2 131.757 283.821 165.28 230.419 173.981C170.545 183.859 150.14 139.583 93.6384 148.815C50.4066 155.9 46.3658 184.451 -1.23119 195.257C-41.094 204.308 -79.4422 192.621 -105.21 181.617" stroke="url(#paint9_linear_1283_45749)" stroke-width="0.560526" stroke-miterlimit="10"/>
<path d="M490.459 148.898C472.441 154.93 445.644 161.574 415.954 159.164C376.435 155.958 369.39 137.268 335.442 134.591C290.559 131.019 279.967 162.003 226.341 170.651C166.668 180.416 146.494 138.634 90.3902 147.386C47.4795 154.103 43.3912 181.049 -3.914 191.355C-43.4295 199.965 -81.4117 188.885 -106.942 178.426" stroke="url(#paint10_linear_1283_45749)" stroke-width="0.560526" stroke-miterlimit="10"/>
<path d="M488.757 146.601C470.506 152.019 443.359 158.006 413.31 155.895C373.497 153.095 366.482 135.953 332.211 133.532C286.92 130.297 276.117 158.735 222.269 167.323C162.79 176.973 142.849 137.689 87.1477 145.958C44.5559 152.314 40.427 177.648 -6.59325 187.462C-45.7635 195.638 -83.3755 185.151 -108.673 175.24" stroke="url(#paint11_linear_1283_45749)" stroke-width="0.560526" stroke-miterlimit="10"/>
<path d="M487.053 144.299C468.572 149.108 441.067 154.436 410.664 152.62C370.557 150.228 363.572 134.634 328.977 132.463C283.279 129.558 272.262 155.458 218.194 163.991C158.917 173.527 139.202 136.739 83.9036 144.526C41.633 150.514 37.4565 174.243 -9.26944 183.562C-48.0945 191.303 -85.3384 181.418 -110.393 172.049" stroke="url(#paint12_linear_1283_45749)" stroke-width="0.560526" stroke-miterlimit="10"/>
<path d="M485.348 141.998C466.638 146.198 438.777 150.859 408.019 149.346C367.622 147.359 360.664 133.32 325.745 131.4C279.64 128.825 268.408 152.181 214.118 160.666C155.037 170.091 135.553 135.797 80.657 143.101C38.7075 148.722 34.4882 170.845 -11.9552 179.667C-50.428 186.977 -87.3087 177.682 -112.128 168.866" stroke="url(#paint13_linear_1283_45749)" stroke-width="0.560526" stroke-miterlimit="10"/>
<path d="M483.646 139.7C464.709 143.285 436.494 147.284 405.371 146.079C364.684 144.495 357.751 132.008 322.51 130.342C276.002 128.102 264.553 148.915 210.044 157.345C151.161 166.652 131.911 134.856 77.415 141.673C35.7867 146.927 31.5224 167.449 -14.6292 175.771C-52.7568 182.647 -89.2719 173.948 -113.849 165.675" stroke="url(#paint14_linear_1283_45749)" stroke-width="0.560526" stroke-miterlimit="10"/>
<path d="M481.942 137.399C462.774 140.375 434.204 143.707 402.722 142.8C361.739 141.619 354.838 130.684 319.273 129.27C272.358 127.359 260.696 145.634 205.962 154.011C147.276 163.207 128.257 133.905 74.1632 140.239C32.8561 145.125 28.5489 164.041 -17.3156 171.865C-55.0909 178.308 -91.2404 170.205 -115.585 162.48" stroke="url(#paint15_linear_1283_45749)" stroke-width="0.560526" stroke-miterlimit="10"/>
<path d="M480.232 135.1C460.832 137.462 431.909 140.132 400.072 139.529C358.803 138.749 351.922 129.368 316.036 128.208C268.712 126.635 256.839 142.364 201.883 150.681C143.398 159.764 124.605 132.958 70.9139 138.81C29.9279 143.328 25.5757 160.644 -20.0017 167.97C-57.4293 173.984 -93.2156 166.472 -117.316 159.294" stroke="url(#paint16_linear_1283_45749)" stroke-width="0.560526" stroke-miterlimit="10"/>
<path d="M478.531 132.802C458.901 134.556 429.626 136.557 397.429 136.259C355.866 135.875 349.019 128.051 312.804 127.144C265.073 125.901 252.987 139.091 197.811 147.353C139.525 156.318 120.961 132.013 67.6722 137.382C27.0073 141.532 22.6172 157.251 -22.6779 164.069C-59.7579 169.654 -95.1739 162.736 -119.044 156.101" stroke="url(#paint17_linear_1283_45749)" stroke-width="0.560526" stroke-miterlimit="10"/>
<path d="M476.826 130.501C456.966 131.646 427.338 132.973 394.783 132.985C352.928 133.001 346.109 126.732 309.571 126.08C261.434 125.168 249.115 135.704 193.734 144.028C135.628 152.761 117.316 131.068 64.4253 135.957C24.0816 139.74 19.6465 153.859 -25.3615 160.179C-62.0892 165.332 -97.1467 159.007 -120.772 152.92" stroke="url(#paint18_linear_1283_45749)" stroke-width="0.560526" stroke-miterlimit="10"/>
<path d="M475.122 128.199C455.03 128.73 425.048 129.396 392.132 129.713C349.987 130.121 343.196 125.42 306.329 125.021C257.788 124.443 245.253 132.436 189.653 140.705C131.745 149.32 113.662 130.128 61.1786 134.532C21.156 137.947 16.683 150.469 -28.0404 156.286C-64.4179 161.014 -99.1101 155.273 -122.5 149.738" stroke="url(#paint19_linear_1283_45749)" stroke-width="0.560526" stroke-miterlimit="10"/>
<path d="M473.42 125.901C453.098 125.824 422.763 125.816 389.489 126.443C347.054 127.244 340.288 124.106 303.097 123.957C254.149 123.709 241.404 129.156 185.581 137.377C127.867 145.876 110.018 129.183 57.9369 133.104C18.2355 136.152 13.7199 147.078 -30.7212 152.388C-66.7486 156.691 -101.078 151.542 -124.228 146.545" stroke="url(#paint20_linear_1283_45749)" stroke-width="0.560526" stroke-miterlimit="10"/>
<path d="M471.715 123.6C451.164 122.913 420.472 122.228 386.843 123.169C344.118 124.363 337.377 122.787 299.865 122.893C250.508 122.982 237.549 125.879 181.502 134.048C123.987 142.429 106.366 128.236 54.6876 131.675C15.3027 134.357 10.7516 143.691 -33.4026 148.491C-69.0752 152.367 -103.044 147.804 -125.958 143.359" stroke="url(#paint21_linear_1283_45749)" stroke-width="0.560526" stroke-miterlimit="10"/>
<path d="M470.011 121.299C449.232 119.996 418.189 118.641 384.198 119.896C341.183 121.482 334.467 121.469 296.633 121.83C246.87 122.249 233.697 122.607 177.431 130.72C120.117 138.988 102.726 127.289 51.4462 130.248C12.3824 132.562 7.79348 140.299 -36.0832 144.594C-71.4032 148.05 -105.011 144.073 -127.683 140.171" stroke="url(#paint22_linear_1283_45749)" stroke-width="0.560526" stroke-miterlimit="10"/>
<path d="M468.309 119.001C447.3 117.09 415.901 115.056 381.55 116.628C338.242 118.602 331.554 120.156 293.396 120.768C243.226 121.517 229.838 119.332 173.349 127.397C116.229 135.549 99.0722 126.348 48.1946 128.825C9.45204 130.771 4.82548 136.922 -38.7668 140.702C-73.7367 143.733 -106.979 140.341 -129.419 136.987" stroke="url(#paint23_linear_1283_45749)" stroke-width="0.560526" stroke-miterlimit="10"/>
<path d="M466.6 116.702C445.358 114.177 413.608 111.475 378.899 113.356C335.299 115.719 328.644 118.838 290.159 119.707C239.584 120.791 225.98 116.062 169.272 124.072C112.353 132.111 95.4225 125.406 44.9522 127.398C6.53071 128.977 1.86406 133.537 -41.4485 136.805C-76.0658 139.416 -108.947 136.611 -131.145 133.799" stroke="url(#paint24_linear_1283_45749)" stroke-width="0.560526" stroke-miterlimit="10"/>
<path d="M464.896 114.4C443.425 111.267 411.323 107.884 376.251 110.078C332.364 112.826 325.734 117.519 286.922 118.634C235.936 120.05 222.124 112.781 165.196 120.735C108.474 128.663 91.7736 124.452 41.7058 125.961C3.60553 127.172 -1.09871 130.147 -44.1269 132.9C-78.3916 135.091 -110.915 132.868 -132.875 130.602" stroke="url(#paint25_linear_1283_45749)" stroke-width="0.560526" stroke-miterlimit="10"/>
<path d="M463.193 112.103C441.492 108.361 409.035 104.3 373.607 106.808C329.425 109.94 322.825 116.205 283.691 117.575C232.302 119.326 218.273 109.513 161.119 117.41C104.595 125.22 88.1283 123.507 38.4585 124.536C0.67929 125.38 -4.06255 126.769 -46.8088 129.003C-80.7184 130.778 -112.882 129.13 -134.601 127.413" stroke="url(#paint26_linear_1283_45749)" stroke-width="0.560526" stroke-miterlimit="10"/>
<path d="M461.489 109.801C439.556 105.446 406.747 100.704 370.962 103.534C326.492 107.051 319.915 114.885 280.46 116.51C228.663 118.592 214.422 106.24 157.047 114.082C100.72 121.781 84.4845 122.562 35.2173 123.109C-2.24072 123.584 -7.02479 123.39 -49.4867 125.11C-83.0459 126.472 -114.846 125.403 -136.328 124.232" stroke="url(#paint27_linear_1283_45749)" stroke-width="0.560526" stroke-miterlimit="10"/>
<path d="M459.785 107.499C437.622 102.535 404.457 97.1149 368.311 100.262C323.546 104.162 317 113.569 277.22 115.444C225.017 117.855 210.563 102.965 152.963 110.755C95.3644 118.544 80.828 121.617 31.9633 121.681C-5.17356 121.789 -9.99276 120.014 -52.1728 121.214C-85.3769 122.161 -116.817 121.667 -138.061 121.041" stroke="url(#paint28_linear_1283_45749)" stroke-width="0.560526" stroke-miterlimit="10"/>
<path d="M458.083 105.203C435.692 99.6219 402.171 93.5238 365.668 96.9926C320.613 101.274 314.092 112.254 273.986 114.388C221.378 117.133 206.71 99.7047 148.889 107.434C92.9623 114.914 77.181 120.679 28.7189 120.261C-8.09684 120.001 -12.9558 116.648 -54.8564 117.324C-87.71 117.858 -118.787 117.943 -139.794 117.862" stroke="url(#paint29_linear_1283_45749)" stroke-width="0.560526" stroke-miterlimit="10"/>
<path d="M456.378 102.901C433.757 96.7114 399.882 89.928 363.022 93.7185C317.674 98.3762 311.186 110.933 270.751 113.319C217.732 116.397 202.856 96.4276 144.815 104.102C86.7737 111.777 73.5387 119.727 25.4792 118.827C-11.0154 118.199 -15.9095 113.264 -57.5282 113.422C-90.0267 113.54 -120.743 114.2 -141.511 114.669" stroke="url(#paint30_linear_1283_45749)" stroke-width="0.560526" stroke-miterlimit="10"/>
<path d="M454.674 100.599C431.823 93.8008 397.59 86.3344 360.376 90.4442C314.738 95.4828 308.278 109.619 267.519 112.255C214.096 115.668 199.006 93.1597 140.736 100.772C85.2067 108.027 69.887 118.78 22.2301 117.397C-13.948 116.404 -18.8747 109.893 -60.2165 109.522C-92.3621 109.232 -122.721 110.462 -143.251 111.476" stroke="url(#paint31_linear_1283_45749)" stroke-width="0.560526" stroke-miterlimit="10"/>
<path d="M452.972 98.3019C429.889 90.8902 395.304 82.7432 357.733 87.1746C311.798 92.592 305.37 108.304 264.289 111.196C210.459 114.939 195.167 90.0112 136.666 97.4491C81.3487 104.711 66.2425 117.835 18.9907 115.974C-16.8662 114.614 -21.8349 106.531 -62.888 105.631C-94.6807 104.932 -124.674 106.735 -144.967 108.295" stroke="url(#paint32_linear_1283_45749)" stroke-width="0.560526" stroke-miterlimit="10"/>
<path d="M451.263 96.0029C427.95 87.9824 393.012 79.15 355.079 83.9057C308.85 89.6994 302.45 106.991 261.045 110.132C206.809 114.206 191.303 86.7393 132.583 94.122C77.4641 101.265 62.5865 116.891 15.7373 114.547C-19.7985 112.819 -24.8045 103.163 -65.5806 101.734C-97.0179 100.632 -126.656 102.999 -146.708 105.109" stroke="url(#paint33_linear_1283_45749)" stroke-width="0.560526" stroke-miterlimit="10"/>
<path d="M449.558 93.7006C426.013 85.0666 390.72 75.5489 352.432 80.6309C305.911 86.801 299.539 105.671 257.812 109.068C203.167 113.478 187.45 83.4662 128.506 90.7962C73.5835 97.8288 58.9414 115.945 12.4901 113.122C-22.7245 111.026 -27.7699 99.8024 -68.2598 97.8405C-99.3488 96.332 -128.617 99.2698 -148.435 101.92" stroke="url(#paint34_linear_1283_45749)" stroke-width="0.560526" stroke-miterlimit="10"/>
<path d="M447.856 91.4035C424.082 82.1607 388.432 71.953 349.787 77.3567C302.973 83.9031 296.629 104.352 254.578 107.999C199.526 112.74 183.596 80.189 124.432 87.4639C69.708 94.3785 55.2945 114.996 9.25042 111.687C-25.643 109.224 -30.7279 96.4333 -70.9341 93.9334C-101.672 92.0235 -130.581 95.5244 -150.158 98.7248" stroke="url(#paint35_linear_1283_45749)" stroke-width="0.560526" stroke-miterlimit="10"/>
<path d="M446.152 89.102C422.152 79.2478 386.141 68.3527 347.141 74.0828C300.031 81.0008 293.721 103.038 251.345 106.936C195.889 112.011 179.743 76.9168 120.352 84.1343C65.8299 90.9356 51.6426 114.049 6.00107 110.258C-28.5712 107.427 -33.6931 93.074 -73.6201 90.0385C-104.003 87.7248 -132.552 91.7889 -151.889 95.5391" stroke="url(#paint36_linear_1283_45749)" stroke-width="0.560526" stroke-miterlimit="10"/>
<path d="M444.447 86.8005C420.215 76.3329 383.846 64.7549 344.49 70.8113C297.088 78.1057 290.81 101.719 248.108 105.875C192.246 111.28 175.886 73.6469 116.275 80.8093C61.9496 87.4998 47.9978 113.104 2.75421 108.833C-31.497 105.634 -36.6604 89.7218 -76.2991 86.1457C-106.333 83.4378 -134.517 88.0625 -153.619 92.3534" stroke="url(#paint37_linear_1283_45749)" stroke-width="0.560526" stroke-miterlimit="10"/>
<path d="M442.746 84.5031C418.283 73.4267 381.558 61.1587 341.847 67.5415C294.15 75.2076 287.902 100.405 244.876 104.81C188.607 110.546 172.035 70.3742 112.204 77.4814C58.0767 84.0538 44.3535 112.159 -0.489915 107.4C-34.4199 103.834 -39.625 86.3619 -78.9824 82.2432C-108.663 79.1386 -136.485 84.3193 -155.347 89.1601" stroke="url(#paint38_linear_1283_45749)" stroke-width="0.560526" stroke-miterlimit="10"/>
<path d="M441.041 82.2014C416.349 70.5161 379.267 57.5582 339.201 64.2673C291.209 72.3051 284.992 99.0858 241.639 103.749C184.961 109.821 168.178 67.1041 108.123 74.1586C54.192 80.6202 40.6997 111.219 -3.74121 105.978C-37.3501 102.044 -42.5989 83.019 -81.6658 78.3527C-111.001 74.8492 -138.455 80.5952 -157.08 85.9812" stroke="url(#paint39_linear_1283_45749)" stroke-width="0.560526" stroke-miterlimit="10"/>
<path d="M439.337 79.8999C414.413 67.6012 376.975 53.9533 336.556 60.9933C288.268 69.4028 282.082 97.7671 238.407 102.685C181.323 109.088 164.326 63.8318 104.051 70.8312C50.3216 77.1794 37.0555 110.274 -6.97819 104.548C-40.2659 100.247 -45.5539 79.6665 -84.342 74.4529C-113.326 70.5598 -140.416 76.8547 -158.803 82.786" stroke="url(#paint40_linear_1283_45749)" stroke-width="0.560526" stroke-miterlimit="10"/>
<path d="M437.63 77.6053C412.476 64.6977 374.668 50.2898 333.907 57.7263C285.308 66.421 279.169 96.4552 235.17 101.624C177.681 108.361 160.468 60.5618 99.9714 67.5014C46.4361 73.7341 33.4079 109.325 -10.2278 103.119C-43.1919 98.4538 -48.5308 76.319 -87.0237 70.5553C-115.659 66.268 -142.387 73.1189 -160.534 79.6" stroke="url(#paint41_linear_1283_45749)" stroke-width="0.560526" stroke-miterlimit="10"/>
<path d="M435.926 75.3032C410.539 61.7822 372.377 46.7007 331.257 54.4542C282.363 63.5441 276.256 95.1431 231.933 100.562C174.038 107.629 156.612 57.2914 95.8904 64.1783C42.5563 70.2977 29.7543 108.385 -13.4789 101.696C-46.1265 96.6657 -51.5066 72.9828 -89.7139 66.6623C-118.003 61.9879 -144.359 69.3898 -162.273 76.4187" stroke="url(#paint42_linear_1283_45749)" stroke-width="0.560526" stroke-miterlimit="10"/>
<path d="M434.221 73.0012C408.609 58.8688 370.086 43.1116 328.611 51.1797C279.424 60.6577 273.345 93.8238 228.698 99.4933C170.391 106.893 152.757 54.014 91.8153 60.8457C38.6752 66.8496 26.1065 107.435 -16.724 100.263C-49.0505 94.8657 -54.4765 69.6372 -92.3912 62.762C-120.336 57.6958 -146.326 65.6513 -163.997 73.223" stroke="url(#paint43_linear_1283_45749)" stroke-width="0.560526" stroke-miterlimit="10"/>
<path d="M432.519 70.7043C406.678 55.9632 367.799 39.5277 325.966 47.9058C276.487 57.7718 270.44 92.5027 225.466 98.4296C166.755 106.164 148.905 50.7417 87.7396 57.5207C34.8007 63.4113 22.4582 106.492 -19.9697 98.8387C-51.975 93.0733 -57.4575 66.3464 -95.0736 58.8718C-122.678 53.4514 -148.29 61.9249 -165.729 70.0443" stroke="url(#paint44_linear_1283_45749)" stroke-width="0.560526" stroke-miterlimit="10"/>
<path d="M430.814 68.4028C404.74 53.0482 365.511 35.9437 323.319 44.6319C273.548 54.8859 267.529 91.184 222.233 97.366C163.116 105.431 145.05 47.4648 83.6668 54.1933C30.9245 59.973 18.8174 105.545 -23.2079 97.409C-54.8921 91.2759 -60.4168 62.9658 -97.7463 54.9695C-125.003 49.1314 -150.252 58.1844 -167.454 66.8491" stroke="url(#paint45_linear_1283_45749)" stroke-width="0.560526" stroke-miterlimit="10"/>
</g>
<g style="mix-blend-mode:color-dodge" opacity="0.2" filter="url(#filter1_f_1283_45749)">
<path d="M519.466 188.53C497.017 208.82 462.033 233.476 418.957 233.452C368.139 233.429 354.934 199.083 309.325 202.152C249.792 206.155 243.771 266.568 182.29 272.34C129.466 277.298 108.43 235.094 68.9033 251.524C39.1013 263.915 39.3887 292.756 4.43645 308.099C-21.0918 319.305 -47.6472 315.521 -66.2378 310.495" stroke="url(#paint46_linear_1283_45749)" stroke-width="0.45447" stroke-miterlimit="10"/>
<path d="M-65.1938 307.834C-46.54 312.212 -19.8175 315.248 6.12959 304.257C41.4664 289.207 41.5606 261.887 71.7398 249.659C111.745 233.441 132.326 273.139 185.352 268.071C246.614 262.243 253.068 204.299 312.081 199.934C357.289 196.595 370.118 229.4 420.527 229C463.16 228.701 497.94 204.698 520.301 185.002" stroke="url(#paint47_linear_1283_45749)" stroke-width="0.45447" stroke-miterlimit="10"/>
<path d="M-64.1473 305.168C-45.4291 308.893 -18.5407 311.187 7.83271 300.402C43.5569 285.657 44.0288 259.85 74.5851 247.785C115.068 231.784 135.194 268.971 188.419 263.787C249.459 257.898 256.338 202.426 314.842 197.701C359.644 194.091 372.106 225.358 422.098 224.527C464.289 223.928 498.869 200.583 521.143 181.47" stroke="url(#paint48_linear_1283_45749)" stroke-width="0.45447" stroke-miterlimit="10"/>
<path d="M-63.0964 302.503C-44.32 305.58 -17.2366 307.191 9.53904 296.553C45.6813 282.189 46.499 257.825 77.4348 245.911C118.401 230.125 138.067 264.804 191.495 259.511C252.316 253.565 259.622 200.561 317.612 195.475C362.008 191.594 374.098 221.321 423.682 220.068C465.416 219.159 499.797 196.463 521.984 177.944" stroke="url(#paint49_linear_1283_45749)" stroke-width="0.45447" stroke-miterlimit="10"/>
<path d="M-62.052 299.841C-43.2123 302.271 -15.9564 303.158 11.2389 292.707C47.7741 278.672 48.9639 255.798 80.2768 244.047C121.722 228.474 140.932 260.646 194.558 255.242C255.155 249.24 262.893 198.704 320.368 193.258C364.359 189.105 376.07 217.183 425.248 215.611C466.539 214.292 500.72 192.347 522.819 174.416" stroke="url(#paint50_linear_1283_45749)" stroke-width="0.45447" stroke-miterlimit="10"/>
<path d="M-61.0062 297.175C-42.1021 298.951 -14.6736 299.114 12.9453 288.858C49.8745 275.145 51.4352 253.768 83.1304 242.18C125.053 226.824 143.808 256.484 197.632 250.971C258.012 244.907 266.176 196.845 323.132 191.036C366.716 186.611 378.056 213.124 426.825 211.155C467.669 209.507 501.648 188.232 523.658 170.894" stroke="url(#paint51_linear_1283_45749)" stroke-width="0.45447" stroke-miterlimit="10"/>
<path d="M-59.9605 294.509C-40.993 295.638 -13.3908 295.07 14.6465 285.008C51.9647 271.616 53.8964 251.735 85.975 240.306C128.376 225.163 146.676 252.317 200.703 246.694C260.859 240.573 269.449 194.978 325.896 188.809C369.075 184.114 380.043 209.065 428.399 206.689C468.793 204.705 502.576 184.112 524.5 167.362" stroke="url(#paint52_linear_1283_45749)" stroke-width="0.45447" stroke-miterlimit="10"/>
<path d="M-58.9147 291.847C-39.8829 292.323 -12.1131 291.03 16.3477 281.162C54.056 268.086 56.3626 249.708 88.8183 238.441C131.702 223.517 149.542 248.158 203.768 242.419C263.707 236.238 272.723 193.116 328.655 186.586C371.432 181.625 382.019 205.008 429.972 202.232C469.92 199.919 503.5 179.995 525.341 163.835" stroke="url(#paint53_linear_1283_45749)" stroke-width="0.45447" stroke-miterlimit="10"/>
<path d="M-57.8695 289.181C-38.7743 289.01 -10.8308 286.986 18.0484 277.312C56.1469 264.552 58.8283 247.677 91.6624 236.567C135.025 221.856 152.409 243.99 206.833 238.141C266.548 231.902 275.996 191.249 331.414 184.358C373.785 179.126 384 200.948 431.539 197.77C471.041 195.128 504.422 175.879 526.171 160.307" stroke="url(#paint54_linear_1283_45749)" stroke-width="0.45447" stroke-miterlimit="10"/>
<path d="M-56.8238 286.515C-37.6654 285.695 -9.55209 282.936 19.7495 273.461C58.233 261.017 61.2933 245.65 94.5057 234.698C138.347 220.199 155.277 239.822 209.902 233.868C269.398 227.574 279.273 189.388 334.177 182.137C376.142 176.633 385.979 196.892 433.117 193.309C472.166 190.342 505.351 171.759 527.016 156.781" stroke="url(#paint55_linear_1283_45749)" stroke-width="0.45447" stroke-miterlimit="10"/>
<path d="M-55.7785 283.853C-36.5608 282.38 -8.27877 278.889 21.4555 269.617C60.3239 257.487 63.7642 243.624 97.3537 232.834C141.672 218.553 158.148 235.665 212.971 229.601C272.245 223.244 282.545 187.531 336.936 179.913C378.495 174.139 387.959 192.842 434.685 188.851C473.287 185.555 506.274 167.643 527.847 153.251" stroke="url(#paint56_linear_1283_45749)" stroke-width="0.45447" stroke-miterlimit="10"/>
<path d="M-54.7327 281.187C-35.4517 279.066 -6.99988 274.839 23.1579 265.761C62.4177 253.943 66.2316 241.588 100.199 230.955C144.996 216.887 161.017 231.491 216.043 225.318C275.098 218.906 285.825 185.66 339.701 177.682C380.854 171.636 389.941 188.776 436.26 184.38C474.41 180.758 507.199 163.516 528.69 149.715" stroke="url(#paint57_linear_1283_45749)" stroke-width="0.45447" stroke-miterlimit="10"/>
<path d="M-53.6819 278.522C-34.3365 275.748 -5.71597 270.791 24.8642 261.912C64.5038 250.408 68.7029 239.557 103.048 229.087C148.327 215.238 163.888 227.33 219.113 221.041C277.944 214.572 289.104 183.795 342.465 175.455C383.213 169.138 391.927 184.722 437.838 179.92C475.54 175.974 508.133 159.398 529.531 146.188" stroke="url(#paint58_linear_1283_45749)" stroke-width="0.45447" stroke-miterlimit="10"/>
<path d="M-52.6376 275.861C-33.2289 272.439 -4.44377 266.744 26.5638 258.067C66.5909 246.867 71.1625 237.529 105.891 227.218C151.649 213.581 166.754 223.166 222.177 216.767C280.786 210.236 292.376 181.933 345.223 173.232C385.565 166.644 393.899 180.676 439.406 175.457C476.66 171.187 509.05 155.28 530.367 142.655" stroke="url(#paint59_linear_1283_45749)" stroke-width="0.45447" stroke-miterlimit="10"/>
<path d="M-51.5917 273.195C-32.1198 269.125 -3.1687 262.688 28.2652 254.217C68.6785 243.326 73.6289 235.498 108.734 225.348C154.971 211.925 169.61 218.888 225.247 212.494C283.621 205.785 295.649 180.071 347.986 171.011C387.922 164.151 395.883 176.627 440.983 171.001C477.785 166.407 509.983 151.166 531.206 139.134" stroke="url(#paint60_linear_1283_45749)" stroke-width="0.45447" stroke-miterlimit="10"/>
<path d="M-50.5461 270.528C-31.0097 265.806 -1.88994 258.637 29.9715 250.367C70.767 239.78 76.099 233.472 111.588 223.481C158.302 210.275 172.486 214.727 228.321 208.223C286.473 201.452 298.931 178.211 350.749 168.789C390.279 161.658 397.86 172.582 442.554 166.545C478.907 161.631 510.906 147.05 532.045 135.612" stroke="url(#paint61_linear_1283_45749)" stroke-width="0.45447" stroke-miterlimit="10"/>
<path d="M-49.5016 267.867C-29.902 262.497 -0.616369 254.586 31.6713 246.521C72.8491 236.238 78.5638 231.445 114.431 221.612C161.624 208.618 175.349 210.557 231.385 203.949C289.32 197.117 302.203 176.349 353.507 166.566C392.631 159.163 399.838 168.536 444.127 162.083C480.032 156.851 511.833 142.935 532.882 132.078" stroke="url(#paint62_linear_1283_45749)" stroke-width="0.45447" stroke-miterlimit="10"/>
<path d="M-48.456 265.201C-28.7931 259.183 0.659583 250.524 33.3724 242.671C74.9325 232.692 81.03 229.414 117.274 219.743C164.95 206.968 178.216 206.389 234.455 199.672C292.168 192.777 305.482 174.483 356.271 164.339C394.995 156.667 401.82 164.493 445.7 157.622C481.151 152.069 512.757 138.814 533.722 128.552" stroke="url(#paint63_linear_1283_45749)" stroke-width="0.45447" stroke-miterlimit="10"/>
<path d="M-47.4095 262.535C-27.6873 255.863 1.93011 246.467 35.0744 238.821C77.0167 229.145 83.4969 227.382 120.119 217.873C168.272 205.312 181.083 202.226 237.52 195.398C295.009 188.447 308.75 172.621 359.03 162.117C397.347 154.173 403.794 160.446 447.274 153.16C482.274 147.294 513.685 134.699 534.558 125.024" stroke="url(#paint64_linear_1283_45749)" stroke-width="0.45447" stroke-miterlimit="10"/>
<path d="M-46.3644 259.873C-26.5789 252.554 3.20558 242.41 36.78 234.977C79.1058 225.599 85.9676 225.357 122.968 216.005C171.6 203.656 183.956 198.058 240.595 191.127C297.866 184.114 312.033 170.761 361.799 159.896C399.71 151.68 405.78 156.414 448.851 148.705C483.403 142.52 514.613 130.583 535.404 121.498" stroke="url(#paint65_linear_1283_45749)" stroke-width="0.45447" stroke-miterlimit="10"/>
<path d="M-45.314 257.208C-25.464 249.236 4.48518 238.355 38.486 231.128C81.1952 222.048 88.4334 223.325 125.816 214.137C174.926 202.006 186.827 193.897 243.664 186.854C300.711 179.785 315.31 168.9 364.556 157.673C402.062 149.186 407.756 152.374 450.424 144.243C484.526 137.745 515.541 126.469 536.239 117.971" stroke="url(#paint66_linear_1283_45749)" stroke-width="0.45447" stroke-miterlimit="10"/>
<path d="M-44.2685 254.541C-24.3553 245.922 5.75588 234.292 40.1881 227.271C83.2756 218.49 90.8994 221.293 128.661 212.257C178.255 200.34 189.696 189.723 246.73 182.57C303.559 175.445 318.585 167.028 367.316 155.439C404.416 146.682 409.733 148.328 451.993 139.775C485.645 132.963 516.465 122.342 537.076 114.432" stroke="url(#paint67_linear_1283_45749)" stroke-width="0.45447" stroke-miterlimit="10"/>
<path d="M-43.2232 251.881C-23.2467 242.614 7.03155 230.236 41.8889 223.427C85.361 214.938 93.3652 219.267 131.504 210.393C181.575 198.694 192.562 185.565 249.8 178.298C306.406 171.111 321.858 165.166 370.08 153.218C406.774 144.189 411.714 144.295 453.566 135.314C486.767 128.193 517.39 118.221 537.912 110.905" stroke="url(#paint68_linear_1283_45749)" stroke-width="0.45447" stroke-miterlimit="10"/>
<path d="M-42.1775 249.214C-22.1366 239.294 8.30355 226.168 43.5899 219.576C87.4404 211.385 95.8313 217.235 134.347 208.524C184.897 197.037 195.428 181.402 252.864 174.024C309.252 166.781 325.13 163.304 372.838 150.995C409.126 141.695 413.695 140.261 455.138 130.858C487.893 123.429 518.316 114.111 538.751 107.383" stroke="url(#paint69_linear_1283_45749)" stroke-width="0.45447" stroke-miterlimit="10"/>
<path d="M-41.1317 246.548C-21.0275 235.98 9.57978 222.106 45.2964 215.727C89.5315 207.829 98.3027 215.204 137.197 206.65C188.225 195.377 198.301 177.235 255.94 169.747C313.579 162.26 328.414 161.439 375.608 148.769C411.49 139.198 415.68 136.228 456.716 126.397C489.02 118.66 519.245 109.99 539.593 103.851" stroke="url(#paint70_linear_1283_45749)" stroke-width="0.45447" stroke-miterlimit="10"/>
<path d="M-40.0877 243.887C-19.9241 232.665 10.8502 218.043 46.9959 211.881C91.6105 204.276 100.767 213.178 140.044 204.787C191.549 193.731 201.17 173.083 259.008 165.48C314.952 158.129 331.69 159.584 378.369 146.553C413.846 136.71 417.663 132.206 458.293 121.942C490.15 113.897 520.176 105.882 540.437 100.33" stroke="url(#paint71_linear_1283_45749)" stroke-width="0.45447" stroke-miterlimit="10"/>
<path d="M-39.0407 241.22C-18.814 229.351 12.1235 213.975 48.6982 208.031C93.6935 200.712 103.23 211.145 142.89 202.913C194.879 192.071 204.038 168.915 262.074 161.201C320.11 153.488 334.96 157.716 381.124 144.324C416.195 134.209 419.634 128.17 459.856 117.478C491.263 109.124 521.091 101.758 541.263 96.8003" stroke="url(#paint72_linear_1283_45749)" stroke-width="0.45447" stroke-miterlimit="10"/>
<path d="M-37.9957 238.554C-17.7057 226.037 13.4 209.909 50.3987 204.181C95.7735 197.154 105.694 209.118 145.732 201.044C198.199 190.42 206.903 164.757 265.144 156.924C320.645 149.46 338.238 155.85 383.888 142.097C418.558 131.713 421.618 124.143 461.435 113.013C492.395 104.357 522.025 97.6341 542.11 93.2647" stroke="url(#paint73_linear_1283_45749)" stroke-width="0.45447" stroke-miterlimit="10"/>
<path d="M-36.9505 235.893C-16.5961 222.723 14.6716 205.846 52.0993 200.335C97.8599 193.597 108.159 207.091 148.575 199.179C201.52 188.768 209.79 160.716 268.208 152.655C323.506 145.252 341.511 153.988 386.645 139.879C420.909 129.223 423.6 120.125 463.001 108.56C493.513 99.6014 522.941 93.5266 542.939 89.7455" stroke="url(#paint74_linear_1283_45749)" stroke-width="0.45447" stroke-miterlimit="10"/>
<path d="M-35.9001 233.228C-15.4824 219.41 15.9485 201.779 53.8104 196.487C99.9517 190.036 110.635 205.062 151.429 197.307C204.853 187.109 212.667 156.551 271.283 148.379C326.359 140.914 344.794 152.123 389.414 137.654C423.272 126.727 425.589 116.099 464.585 104.096C494.649 94.8402 523.881 89.4039 543.79 86.2162" stroke="url(#paint75_linear_1283_45749)" stroke-width="0.45447" stroke-miterlimit="10"/>
<path d="M-34.8535 230.561C-14.3714 216.091 17.2226 197.706 55.5124 192.637C102.034 186.472 113.103 203.03 154.273 195.438C208.18 185.458 215.534 152.387 274.353 144.106C329.21 136.586 348.067 150.261 392.178 135.432C425.63 124.233 427.577 112.083 466.157 99.6391C495.78 90.0824 524.803 85.2926 544.626 82.6882" stroke="url(#paint76_linear_1283_45749)" stroke-width="0.45447" stroke-miterlimit="10"/>
<path d="M-33.8097 227.9C-13.2643 212.782 18.494 193.638 57.2128 188.786C104.116 182.909 115.568 200.998 157.117 193.563C211.502 183.796 218.401 148.219 277.417 139.827C332.053 132.244 351.34 148.394 394.932 133.203C427.978 121.733 429.555 108.059 467.721 95.1698C496.9 85.317 525.722 81.1648 545.457 79.1537" stroke="url(#paint77_linear_1283_45749)" stroke-width="0.45447" stroke-miterlimit="10"/>
<path d="M-32.7639 225.234C-12.1603 209.467 19.7674 189.565 58.9141 184.936C106.199 179.34 118.033 198.972 159.961 191.694C214.823 182.145 221.268 144.056 280.488 135.55C334.899 127.91 354.619 146.529 397.696 130.976C430.336 119.235 431.542 104.044 469.299 90.7098C498.029 80.5597 526.651 77.045 546.297 75.6273" stroke="url(#paint78_linear_1283_45749)" stroke-width="0.45447" stroke-miterlimit="10"/>
<path d="M-31.7171 222.567C-11.049 206.147 21.047 185.493 60.6215 181.086C108.287 175.778 120.5 196.94 162.81 189.826C218.151 180.489 224.14 139.894 283.558 131.277C337.751 123.581 357.892 144.666 400.46 128.754C432.695 116.742 433.534 100.034 470.872 86.253C499.163 75.8131 527.578 72.9347 547.139 72.1003" stroke="url(#paint79_linear_1283_45749)" stroke-width="0.45447" stroke-miterlimit="10"/>
<path d="M-30.6728 219.906C-9.94146 202.839 22.3189 181.426 62.3213 177.241C110.368 172.215 122.965 194.914 165.653 187.957C221.473 178.833 227.006 135.731 286.622 127.003C340.592 119.246 361.164 142.805 403.219 126.526C435.048 114.243 435.521 96.0177 472.446 81.7866C500.293 71.0557 528.503 68.8085 547.975 68.5675" stroke="url(#paint80_linear_1283_45749)" stroke-width="0.45447" stroke-miterlimit="10"/>
<path d="M-29.6266 217.24C-8.83205 199.524 23.5926 177.352 64.0229 173.39C112.452 168.646 125.432 192.882 168.502 186.088C224.805 177.183 229.878 131.568 289.697 122.732C343.448 114.918 364.447 140.945 405.988 124.305C437.411 111.75 437.521 92.0151 474.023 77.331C501.432 66.3052 529.435 64.6994 548.82 65.0467" stroke="url(#paint81_linear_1283_45749)" stroke-width="0.45447" stroke-miterlimit="10"/>
<path d="M-28.5812 214.574C-7.72224 196.206 24.8667 173.275 65.7237 169.54C114.535 165.078 127.898 190.85 171.345 184.219C228.126 175.527 232.744 127.406 292.761 118.458C346.289 110.588 367.719 139.083 408.74 122.082C439.757 109.255 439.5 88.0085 475.59 72.8686C502.559 61.5582 530.353 60.5772 549.651 61.5128" stroke="url(#paint82_linear_1283_45749)" stroke-width="0.45447" stroke-miterlimit="10"/>
<path d="M-27.5317 211.913C-6.60948 192.898 26.1387 169.136 67.4287 165.696C116.615 161.427 130.368 188.825 174.193 182.351C231.452 173.876 235.616 123.243 295.831 114.18C349.141 106.249 370.993 137.216 411.504 119.855C442.114 106.762 441.502 84.0008 477.163 68.4067C503.692 56.8065 531.282 56.4567 550.491 57.9858" stroke="url(#paint83_linear_1283_45749)" stroke-width="0.45447" stroke-miterlimit="10"/>
<path d="M-26.4855 209.247C-5.49881 189.579 27.4153 165.075 69.1355 161.847C118.709 157.883 132.838 186.799 177.042 180.483C234.779 172.221 238.488 119.082 298.906 109.909C351.992 101.921 374.276 135.357 414.273 117.634C444.482 104.272 443.506 80.005 478.747 63.9478C504.84 52.0641 532.215 52.3431 551.342 54.4616" stroke="url(#paint84_linear_1283_45749)" stroke-width="0.45447" stroke-miterlimit="10"/>
<path d="M-25.4403 206.581C-4.39545 186.263 28.6908 161.013 70.8361 157.996C120.793 154.331 135.304 184.768 179.886 178.608C238.107 170.56 241.355 114.913 301.971 105.63C354.84 97.5811 377.549 133.49 417.032 115.406C446.835 101.772 445.5 76.0015 480.314 59.4849C505.974 47.3126 533.138 48.2216 552.173 50.9273" stroke="url(#paint85_linear_1283_45749)" stroke-width="0.45447" stroke-miterlimit="10"/>
<path d="M-24.3953 203.92C-3.28713 182.955 29.9662 156.957 72.5378 154.146C122.878 150.779 137.766 182.735 182.73 176.739C241.428 168.909 244.222 110.75 305.041 101.358C357.686 93.2517 380.827 131.629 419.795 113.185C449.193 99.2794 447.522 72.0472 481.891 55.0297C507.13 42.6041 534.065 44.1117 553.018 47.4069" stroke="url(#paint86_linear_1283_45749)" stroke-width="0.45447" stroke-miterlimit="10"/>
<path d="M-23.3494 201.253C-2.1768 179.636 31.2412 152.9 74.2392 150.295C124.963 147.227 140.232 180.703 185.574 174.87C244.751 167.252 247.089 106.582 308.105 97.0843C360.532 88.9222 384.094 129.766 422.548 110.961C451.54 96.7841 449.498 68.0124 483.454 50.5659C508.248 37.8277 534.984 39.9893 553.849 43.8728" stroke="url(#paint87_linear_1283_45749)" stroke-width="0.45447" stroke-miterlimit="10"/>
</g>
</g>
<defs>
<filter id="filter0_f_1283_45749" x="-170.943" y="38.6401" width="675.133" height="183.729" filterUnits="userSpaceOnUse" color-interpolation-filters="sRGB">
<feFlood flood-opacity="0" result="BackgroundImageFix"/>
<feBlend mode="normal" in="SourceGraphic" in2="BackgroundImageFix" result="shape"/>
<feGaussianBlur stdDeviation="1.68158" result="effect1_foregroundBlur_1283_45749"/>
</filter>
<filter id="filter1_f_1283_45749" x="-69.6603" y="37.2755" width="626.918" height="281.71" filterUnits="userSpaceOnUse" color-interpolation-filters="sRGB">
<feFlood flood-opacity="0" result="BackgroundImageFix"/>
<feBlend mode="normal" in="SourceGraphic" in2="BackgroundImageFix" result="shape"/>
<feGaussianBlur stdDeviation="1.68158" result="effect1_foregroundBlur_1283_45749"/>
</filter>
<linearGradient id="paint0_linear_1283_45749" x1="1" y1="-3.6011e-06" x2="321.349" y2="241.626" gradientUnits="userSpaceOnUse">
<stop stop-color="#005788"/>
<stop offset="1" stop-color="#00828A"/>
</linearGradient>
<linearGradient id="paint1_linear_1283_45749" x1="15.9076" y1="-2.57432e-05" x2="357.159" y2="154.575" gradientUnits="userSpaceOnUse">
<stop stop-color="white" stop-opacity="0.87"/>
<stop offset="0.515625" stop-color="white" stop-opacity="0"/>
<stop offset="1" stop-color="white"/>
</linearGradient>
<linearGradient id="paint2_linear_1283_45749" x1="324.959" y1="1.93631e-05" x2="-11.9352" y2="166.325" gradientUnits="userSpaceOnUse">
<stop stop-color="#005788"/>
<stop offset="1" stop-color="#00828A"/>
</linearGradient>
<linearGradient id="paint3_linear_1283_45749" x1="17.0287" y1="-2.39674e-05" x2="358.28" y2="154.575" gradientUnits="userSpaceOnUse">
<stop stop-color="white" stop-opacity="0.87"/>
<stop offset="0.515625" stop-color="white" stop-opacity="0"/>
<stop offset="1" stop-color="white"/>
</linearGradient>
<linearGradient id="paint4_linear_1283_45749" x1="-36.7991" y1="308.739" x2="439.735" y2="52.3193" gradientUnits="userSpaceOnUse">
<stop stop-color="#06CFE6"/>
<stop offset="1" stop-color="#0343B6"/>
</linearGradient>
<linearGradient id="paint5_linear_1283_45749" x1="-38.3629" y1="305.855" x2="437.824" y2="49.6287" gradientUnits="userSpaceOnUse">
<stop stop-color="#06CFE6"/>
<stop offset="1" stop-color="#0343B6"/>
</linearGradient>
<linearGradient id="paint6_linear_1283_45749" x1="-39.9078" y1="303.019" x2="435.937" y2="46.9841" gradientUnits="userSpaceOnUse">
<stop stop-color="#06CFE6"/>
<stop offset="1" stop-color="#0343B6"/>
</linearGradient>
<linearGradient id="paint7_linear_1283_45749" x1="-41.4496" y1="300.185" x2="434.049" y2="44.3443" gradientUnits="userSpaceOnUse">
<stop stop-color="#06CFE6"/>
<stop offset="1" stop-color="#0343B6"/>
</linearGradient>
<linearGradient id="paint8_linear_1283_45749" x1="-42.9872" y1="297.351" x2="432.165" y2="41.7049" gradientUnits="userSpaceOnUse">
<stop stop-color="#06CFE6"/>
<stop offset="1" stop-color="#0343B6"/>
</linearGradient>
<linearGradient id="paint9_linear_1283_45749" x1="-44.5289" y1="294.519" x2="430.281" y2="39.0649" gradientUnits="userSpaceOnUse">
<stop stop-color="#06CFE6"/>
<stop offset="1" stop-color="#0343B6"/>
</linearGradient>
<linearGradient id="paint10_linear_1283_45749" x1="-46.0719" y1="291.683" x2="428.397" y2="36.4207" gradientUnits="userSpaceOnUse">
<stop stop-color="#06CFE6"/>
<stop offset="1" stop-color="#0343B6"/>
</linearGradient>
<linearGradient id="paint11_linear_1283_45749" x1="-47.6139" y1="288.852" x2="426.513" y2="33.7808" gradientUnits="userSpaceOnUse">
<stop stop-color="#06CFE6"/>
<stop offset="1" stop-color="#0343B6"/>
</linearGradient>
<linearGradient id="paint12_linear_1283_45749" x1="-49.147" y1="286.013" x2="424.628" y2="31.1383" gradientUnits="userSpaceOnUse">
<stop stop-color="#06CFE6"/>
<stop offset="1" stop-color="#0343B6"/>
</linearGradient>
<linearGradient id="paint13_linear_1283_45749" x1="-50.6943" y1="283.182" x2="422.744" y2="28.4966" gradientUnits="userSpaceOnUse">
<stop stop-color="#06CFE6"/>
<stop offset="1" stop-color="#0343B6"/>
</linearGradient>
<linearGradient id="paint14_linear_1283_45749" x1="-52.2264" y1="280.345" x2="420.86" y2="25.8561" gradientUnits="userSpaceOnUse">
<stop stop-color="#06CFE6"/>
<stop offset="1" stop-color="#0343B6"/>
</linearGradient>
<linearGradient id="paint15_linear_1283_45749" x1="-53.7718" y1="277.507" x2="418.973" y2="23.2095" gradientUnits="userSpaceOnUse">
<stop stop-color="#06CFE6"/>
<stop offset="1" stop-color="#0343B6"/>
</linearGradient>
<linearGradient id="paint16_linear_1283_45749" x1="-55.3147" y1="274.674" x2="417.083" y2="20.5698" gradientUnits="userSpaceOnUse">
<stop stop-color="#06CFE6"/>
<stop offset="1" stop-color="#0343B6"/>
</linearGradient>
<linearGradient id="paint17_linear_1283_45749" x1="-56.8524" y1="271.837" x2="415.199" y2="17.9273" gradientUnits="userSpaceOnUse">
<stop stop-color="#06CFE6"/>
<stop offset="1" stop-color="#0343B6"/>
</linearGradient>
<linearGradient id="paint18_linear_1283_45749" x1="-58.3941" y1="269.006" x2="413.315" y2="15.2873" gradientUnits="userSpaceOnUse">
<stop stop-color="#06CFE6"/>
<stop offset="1" stop-color="#0343B6"/>
</linearGradient>
<linearGradient id="paint19_linear_1283_45749" x1="-59.9357" y1="266.174" x2="411.431" y2="12.6467" gradientUnits="userSpaceOnUse">
<stop stop-color="#06CFE6"/>
<stop offset="1" stop-color="#0343B6"/>
</linearGradient>
<linearGradient id="paint20_linear_1283_45749" x1="-61.4734" y1="263.338" x2="409.547" y2="10.0039" gradientUnits="userSpaceOnUse">
<stop stop-color="#06CFE6"/>
<stop offset="1" stop-color="#0343B6"/>
</linearGradient>
<linearGradient id="paint21_linear_1283_45749" x1="-63.0163" y1="260.504" x2="407.662" y2="7.36153" gradientUnits="userSpaceOnUse">
<stop stop-color="#06CFE6"/>
<stop offset="1" stop-color="#0343B6"/>
</linearGradient>
<linearGradient id="paint22_linear_1283_45749" x1="-64.5538" y1="257.668" x2="405.778" y2="4.71943" gradientUnits="userSpaceOnUse">
<stop stop-color="#06CFE6"/>
<stop offset="1" stop-color="#0343B6"/>
</linearGradient>
<linearGradient id="paint23_linear_1283_45749" x1="-66.1001" y1="254.839" x2="403.894" y2="2.07828" gradientUnits="userSpaceOnUse">
<stop stop-color="#06CFE6"/>
<stop offset="1" stop-color="#0343B6"/>
</linearGradient>
<linearGradient id="paint24_linear_1283_45749" x1="-67.6387" y1="252.003" x2="402.004" y2="-0.561453" gradientUnits="userSpaceOnUse">
<stop stop-color="#06CFE6"/>
<stop offset="1" stop-color="#0343B6"/>
</linearGradient>
<linearGradient id="paint25_linear_1283_45749" x1="-69.1786" y1="249.162" x2="400.117" y2="-3.20877" gradientUnits="userSpaceOnUse">
<stop stop-color="#06CFE6"/>
<stop offset="1" stop-color="#0343B6"/>
</linearGradient>
<linearGradient id="paint26_linear_1283_45749" x1="-70.7162" y1="246.328" x2="398.232" y2="-5.8489" gradientUnits="userSpaceOnUse">
<stop stop-color="#06CFE6"/>
<stop offset="1" stop-color="#0343B6"/>
</linearGradient>
<linearGradient id="paint27_linear_1283_45749" x1="-72.2568" y1="243.497" x2="396.349" y2="-8.48982" gradientUnits="userSpaceOnUse">
<stop stop-color="#06CFE6"/>
<stop offset="1" stop-color="#0343B6"/>
</linearGradient>
<linearGradient id="paint28_linear_1283_45749" x1="-73.8009" y1="240.66" x2="394.463" y2="-11.1353" gradientUnits="userSpaceOnUse">
<stop stop-color="#06CFE6"/>
<stop offset="1" stop-color="#0343B6"/>
</linearGradient>
<linearGradient id="paint29_linear_1283_45749" x1="-75.3461" y1="237.834" x2="392.58" y2="-13.7734" gradientUnits="userSpaceOnUse">
<stop stop-color="#06CFE6"/>
<stop offset="1" stop-color="#0343B6"/>
</linearGradient>
<linearGradient id="paint30_linear_1283_45749" x1="-76.8747" y1="234.993" x2="390.695" y2="-16.4162" gradientUnits="userSpaceOnUse">
<stop stop-color="#06CFE6"/>
<stop offset="1" stop-color="#0343B6"/>
</linearGradient>
<linearGradient id="paint31_linear_1283_45749" x1="-78.4245" y1="232.157" x2="388.808" y2="-19.0639" gradientUnits="userSpaceOnUse">
<stop stop-color="#06CFE6"/>
<stop offset="1" stop-color="#0343B6"/>
</linearGradient>
<linearGradient id="paint32_linear_1283_45749" x1="-79.9541" y1="229.325" x2="386.926" y2="-21.7" gradientUnits="userSpaceOnUse">
<stop stop-color="#06CFE6"/>
<stop offset="1" stop-color="#0343B6"/>
</linearGradient>
<linearGradient id="paint33_linear_1283_45749" x1="-81.507" y1="226.494" x2="385.036" y2="-24.3426" gradientUnits="userSpaceOnUse">
<stop stop-color="#06CFE6"/>
<stop offset="1" stop-color="#0343B6"/>
</linearGradient>
<linearGradient id="paint34_linear_1283_45749" x1="-83.0455" y1="223.657" x2="383.15" y2="-26.9863" gradientUnits="userSpaceOnUse">
<stop stop-color="#06CFE6"/>
<stop offset="1" stop-color="#0343B6"/>
</linearGradient>
<linearGradient id="paint35_linear_1283_45749" x1="-84.5788" y1="220.818" x2="381.265" y2="-29.6293" gradientUnits="userSpaceOnUse">
<stop stop-color="#06CFE6"/>
<stop offset="1" stop-color="#0343B6"/>
</linearGradient>
<linearGradient id="paint36_linear_1283_45749" x1="-86.1217" y1="217.985" x2="379.38" y2="-32.2723" gradientUnits="userSpaceOnUse">
<stop stop-color="#06CFE6"/>
<stop offset="1" stop-color="#0343B6"/>
</linearGradient>
<linearGradient id="paint37_linear_1283_45749" x1="-87.6647" y1="215.151" x2="377.494" y2="-34.9153" gradientUnits="userSpaceOnUse">
<stop stop-color="#06CFE6"/>
<stop offset="1" stop-color="#0343B6"/>
</linearGradient>
<linearGradient id="paint38_linear_1283_45749" x1="-89.2024" y1="212.315" x2="375.609" y2="-37.5587" gradientUnits="userSpaceOnUse">
<stop stop-color="#06CFE6"/>
<stop offset="1" stop-color="#0343B6"/>
</linearGradient>
<linearGradient id="paint39_linear_1283_45749" x1="-90.7485" y1="209.486" x2="373.725" y2="-40.1998" gradientUnits="userSpaceOnUse">
<stop stop-color="#06CFE6"/>
<stop offset="1" stop-color="#0343B6"/>
</linearGradient>
<linearGradient id="paint40_linear_1283_45749" x1="-92.2828" y1="206.645" x2="371.839" y2="-42.8451" gradientUnits="userSpaceOnUse">
<stop stop-color="#06CFE6"/>
<stop offset="1" stop-color="#0343B6"/>
</linearGradient>
<linearGradient id="paint41_linear_1283_45749" x1="-93.8247" y1="203.814" x2="369.95" y2="-45.4836" gradientUnits="userSpaceOnUse">
<stop stop-color="#06CFE6"/>
<stop offset="1" stop-color="#0343B6"/>
</linearGradient>
<linearGradient id="paint42_linear_1283_45749" x1="-95.3765" y1="200.984" x2="368.065" y2="-48.1274" gradientUnits="userSpaceOnUse">
<stop stop-color="#06CFE6"/>
<stop offset="1" stop-color="#0343B6"/>
</linearGradient>
<linearGradient id="paint43_linear_1283_45749" x1="-96.9118" y1="198.143" x2="366.178" y2="-50.7734" gradientUnits="userSpaceOnUse">
<stop stop-color="#06CFE6"/>
<stop offset="1" stop-color="#0343B6"/>
</linearGradient>
<linearGradient id="paint44_linear_1283_45749" x1="-98.4557" y1="195.317" x2="364.296" y2="-53.412" gradientUnits="userSpaceOnUse">
<stop stop-color="#06CFE6"/>
<stop offset="1" stop-color="#0343B6"/>
</linearGradient>
<linearGradient id="paint45_linear_1283_45749" x1="-99.9912" y1="192.476" x2="362.408" y2="-56.0575" gradientUnits="userSpaceOnUse">
<stop stop-color="#06CFE6"/>
<stop offset="1" stop-color="#0343B6"/>
</linearGradient>
<linearGradient id="paint46_linear_1283_45749" x1="490.734" y1="311.45" x2="-36.1513" y2="188.049" gradientUnits="userSpaceOnUse">
<stop stop-color="#06CFE6"/>
<stop offset="1" stop-color="#0343B6"/>
</linearGradient>
<linearGradient id="paint47_linear_1283_45749" x1="491.491" y1="308.258" x2="-35.0086" y2="184.954" gradientUnits="userSpaceOnUse">
<stop stop-color="#06CFE6"/>
<stop offset="1" stop-color="#0343B6"/>
</linearGradient>
<linearGradient id="paint48_linear_1283_45749" x1="492.244" y1="305.117" x2="-33.8762" y2="181.909" gradientUnits="userSpaceOnUse">
<stop stop-color="#06CFE6"/>
<stop offset="1" stop-color="#0343B6"/>
</linearGradient>
<linearGradient id="paint49_linear_1283_45749" x1="492.995" y1="301.979" x2="-32.7401" y2="178.869" gradientUnits="userSpaceOnUse">
<stop stop-color="#06CFE6"/>
<stop offset="1" stop-color="#0343B6"/>
</linearGradient>
<linearGradient id="paint50_linear_1283_45749" x1="493.74" y1="298.843" x2="-31.6099" y2="175.83" gradientUnits="userSpaceOnUse">
<stop stop-color="#06CFE6"/>
<stop offset="1" stop-color="#0343B6"/>
</linearGradient>
<linearGradient id="paint51_linear_1283_45749" x1="494.49" y1="295.707" x2="-30.4794" y2="172.79" gradientUnits="userSpaceOnUse">
<stop stop-color="#06CFE6"/>
<stop offset="1" stop-color="#0343B6"/>
</linearGradient>
<linearGradient id="paint52_linear_1283_45749" x1="495.242" y1="292.567" x2="-29.3478" y2="169.746" gradientUnits="userSpaceOnUse">
<stop stop-color="#06CFE6"/>
<stop offset="1" stop-color="#0343B6"/>
</linearGradient>
<linearGradient id="paint53_linear_1283_45749" x1="495.993" y1="289.432" x2="-28.2162" y2="166.706" gradientUnits="userSpaceOnUse">
<stop stop-color="#06CFE6"/>
<stop offset="1" stop-color="#0343B6"/>
</linearGradient>
<linearGradient id="paint54_linear_1283_45749" x1="496.734" y1="286.292" x2="-27.0857" y2="163.664" gradientUnits="userSpaceOnUse">
<stop stop-color="#06CFE6"/>
<stop offset="1" stop-color="#0343B6"/>
</linearGradient>
<linearGradient id="paint55_linear_1283_45749" x1="497.49" y1="283.155" x2="-25.9547" y2="160.622" gradientUnits="userSpaceOnUse">
<stop stop-color="#06CFE6"/>
<stop offset="1" stop-color="#0343B6"/>
</linearGradient>
<linearGradient id="paint56_linear_1283_45749" x1="498.23" y1="280.017" x2="-24.8236" y2="157.582" gradientUnits="userSpaceOnUse">
<stop stop-color="#06CFE6"/>
<stop offset="1" stop-color="#0343B6"/>
</linearGradient>
<linearGradient id="paint57_linear_1283_45749" x1="498.983" y1="276.875" x2="-23.6913" y2="154.536" gradientUnits="userSpaceOnUse">
<stop stop-color="#06CFE6"/>
<stop offset="1" stop-color="#0343B6"/>
</linearGradient>
<linearGradient id="paint58_linear_1283_45749" x1="499.734" y1="273.737" x2="-22.5552" y2="151.495" gradientUnits="userSpaceOnUse">
<stop stop-color="#06CFE6"/>
<stop offset="1" stop-color="#0343B6"/>
</linearGradient>
<linearGradient id="paint59_linear_1283_45749" x1="500.479" y1="270.598" x2="-21.4244" y2="148.453" gradientUnits="userSpaceOnUse">
<stop stop-color="#06CFE6"/>
<stop offset="1" stop-color="#0343B6"/>
</linearGradient>
<linearGradient id="paint60_linear_1283_45749" x1="501.23" y1="267.463" x2="-20.2937" y2="145.413" gradientUnits="userSpaceOnUse">
<stop stop-color="#06CFE6"/>
<stop offset="1" stop-color="#0343B6"/>
</linearGradient>
<linearGradient id="paint61_linear_1283_45749" x1="501.98" y1="264.327" x2="-19.1633" y2="142.373" gradientUnits="userSpaceOnUse">
<stop stop-color="#06CFE6"/>
<stop offset="1" stop-color="#0343B6"/>
</linearGradient>
<linearGradient id="paint62_linear_1283_45749" x1="502.726" y1="261.188" x2="-18.0323" y2="139.33" gradientUnits="userSpaceOnUse">
<stop stop-color="#06CFE6"/>
<stop offset="1" stop-color="#0343B6"/>
</linearGradient>
<linearGradient id="paint63_linear_1283_45749" x1="503.476" y1="258.05" x2="-16.9013" y2="136.288" gradientUnits="userSpaceOnUse">
<stop stop-color="#06CFE6"/>
<stop offset="1" stop-color="#0343B6"/>
</linearGradient>
<linearGradient id="paint64_linear_1283_45749" x1="504.223" y1="254.911" x2="-15.7695" y2="133.246" gradientUnits="userSpaceOnUse">
<stop stop-color="#06CFE6"/>
<stop offset="1" stop-color="#0343B6"/>
</linearGradient>
<linearGradient id="paint65_linear_1283_45749" x1="504.979" y1="251.777" x2="-14.6383" y2="130.206" gradientUnits="userSpaceOnUse">
<stop stop-color="#06CFE6"/>
<stop offset="1" stop-color="#0343B6"/>
</linearGradient>
<linearGradient id="paint66_linear_1283_45749" x1="505.725" y1="248.638" x2="-13.5025" y2="127.164" gradientUnits="userSpaceOnUse">
<stop stop-color="#06CFE6"/>
<stop offset="1" stop-color="#0343B6"/>
</linearGradient>
<linearGradient id="paint67_linear_1283_45749" x1="506.471" y1="245.494" x2="-12.3705" y2="124.116" gradientUnits="userSpaceOnUse">
<stop stop-color="#06CFE6"/>
<stop offset="1" stop-color="#0343B6"/>
</linearGradient>
<linearGradient id="paint68_linear_1283_45749" x1="507.217" y1="242.358" x2="-11.2391" y2="121.077" gradientUnits="userSpaceOnUse">
<stop stop-color="#06CFE6"/>
<stop offset="1" stop-color="#0343B6"/>
</linearGradient>
<linearGradient id="paint69_linear_1283_45749" x1="507.967" y1="239.222" x2="-10.1086" y2="118.037" gradientUnits="userSpaceOnUse">
<stop stop-color="#06CFE6"/>
<stop offset="1" stop-color="#0343B6"/>
</linearGradient>
<linearGradient id="paint70_linear_1283_45749" x1="508.719" y1="236.082" x2="-8.97669" y2="114.991" gradientUnits="userSpaceOnUse">
<stop stop-color="#06CFE6"/>
<stop offset="1" stop-color="#0343B6"/>
</linearGradient>
<linearGradient id="paint71_linear_1283_45749" x1="509.474" y1="232.95" x2="-7.84717" y2="111.953" gradientUnits="userSpaceOnUse">
<stop stop-color="#06CFE6"/>
<stop offset="1" stop-color="#0343B6"/>
</linearGradient>
<linearGradient id="paint72_linear_1283_45749" x1="510.21" y1="229.809" x2="-6.71486" y2="108.911" gradientUnits="userSpaceOnUse">
<stop stop-color="#06CFE6"/>
<stop offset="1" stop-color="#0343B6"/>
</linearGradient>
<linearGradient id="paint73_linear_1283_45749" x1="510.967" y1="226.667" x2="-5.58318" y2="105.863" gradientUnits="userSpaceOnUse">
<stop stop-color="#06CFE6"/>
<stop offset="1" stop-color="#0343B6"/>
</linearGradient>
<linearGradient id="paint74_linear_1283_45749" x1="511.706" y1="223.534" x2="-4.45309" y2="102.827" gradientUnits="userSpaceOnUse">
<stop stop-color="#06CFE6"/>
<stop offset="1" stop-color="#0343B6"/>
</linearGradient>
<linearGradient id="paint75_linear_1283_45749" x1="512.468" y1="220.397" x2="-3.31654" y2="99.7833" gradientUnits="userSpaceOnUse">
<stop stop-color="#06CFE6"/>
<stop offset="1" stop-color="#0343B6"/>
</linearGradient>
<linearGradient id="paint76_linear_1283_45749" x1="513.214" y1="217.257" x2="-2.18448" y2="96.7402" gradientUnits="userSpaceOnUse">
<stop stop-color="#06CFE6"/>
<stop offset="1" stop-color="#0343B6"/>
</linearGradient>
<linearGradient id="paint77_linear_1283_45749" x1="513.954" y1="214.117" x2="-1.05397" y2="93.697" gradientUnits="userSpaceOnUse">
<stop stop-color="#06CFE6"/>
<stop offset="1" stop-color="#0343B6"/>
</linearGradient>
<linearGradient id="paint78_linear_1283_45749" x1="514.705" y1="210.98" x2="0.077356" y2="90.6543" gradientUnits="userSpaceOnUse">
<stop stop-color="#06CFE6"/>
<stop offset="1" stop-color="#0343B6"/>
</linearGradient>
<linearGradient id="paint79_linear_1283_45749" x1="515.458" y1="207.841" x2="1.20979" y2="87.6108" gradientUnits="userSpaceOnUse">
<stop stop-color="#06CFE6"/>
<stop offset="1" stop-color="#0343B6"/>
</linearGradient>
<linearGradient id="paint80_linear_1283_45749" x1="516.203" y1="204.703" x2="2.3408" y2="84.568" gradientUnits="userSpaceOnUse">
<stop stop-color="#06CFE6"/>
<stop offset="1" stop-color="#0343B6"/>
</linearGradient>
<linearGradient id="paint81_linear_1283_45749" x1="516.959" y1="201.568" x2="3.47197" y2="81.527" gradientUnits="userSpaceOnUse">
<stop stop-color="#06CFE6"/>
<stop offset="1" stop-color="#0343B6"/>
</linearGradient>
<linearGradient id="paint82_linear_1283_45749" x1="517.7" y1="198.426" x2="4.60348" y2="78.4816" gradientUnits="userSpaceOnUse">
<stop stop-color="#06CFE6"/>
<stop offset="1" stop-color="#0343B6"/>
</linearGradient>
<linearGradient id="paint83_linear_1283_45749" x1="518.45" y1="195.29" x2="5.73912" y2="75.4418" gradientUnits="userSpaceOnUse">
<stop stop-color="#06CFE6"/>
<stop offset="1" stop-color="#0343B6"/>
</linearGradient>
<linearGradient id="paint84_linear_1283_45749" x1="519.212" y1="192.155" x2="6.871" y2="72.3987" gradientUnits="userSpaceOnUse">
<stop stop-color="#06CFE6"/>
<stop offset="1" stop-color="#0343B6"/>
</linearGradient>
<linearGradient id="paint85_linear_1283_45749" x1="519.953" y1="189.012" x2="8.00235" y2="69.3527" gradientUnits="userSpaceOnUse">
<stop stop-color="#06CFE6"/>
<stop offset="1" stop-color="#0343B6"/>
</linearGradient>
<linearGradient id="paint86_linear_1283_45749" x1="520.708" y1="185.881" x2="9.13306" y2="66.3145" gradientUnits="userSpaceOnUse">
<stop stop-color="#06CFE6"/>
<stop offset="1" stop-color="#0343B6"/>
</linearGradient>
<linearGradient id="paint87_linear_1283_45749" x1="521.45" y1="182.738" x2="10.2651" y2="63.2687" gradientUnits="userSpaceOnUse">
<stop stop-color="#06CFE6"/>
<stop offset="1" stop-color="#0343B6"/>
</linearGradient>
</defs>
</svg>
