<svg width="337" height="213" viewBox="0 0 337 213" fill="none" xmlns="http://www.w3.org/2000/svg">
<mask id="path-1-inside-1_2807_4953" fill="white">
<path d="M337 14C337 6.26802 330.732 0 323 0H14C6.26801 0 0 6.26801 0 14V199C0 206.732 6.26801 213 14 213H323C330.732 213 337 206.732 337 199V14Z"/>
</mask>
<path d="M337 14C337 6.26802 330.732 0 323 0H14C6.26801 0 0 6.26801 0 14V199C0 206.732 6.26801 213 14 213H323C330.732 213 337 206.732 337 199V14Z" fill="url(#paint0_linear_2807_4953)"/>
<path d="M323 -1.23646H14V1.23646H323V-1.23646ZM-1.23646 14V199H1.23646V14H-1.23646ZM14 214.236H323V211.764H14V214.236ZM338.236 199V14H335.764V199H338.236ZM323 214.236C331.415 214.236 338.236 207.415 338.236 199H335.764C335.764 206.049 330.049 211.764 323 211.764V214.236ZM-1.23646 199C-1.23646 207.415 5.58514 214.236 14 214.236V211.764C6.95089 211.764 1.23646 206.049 1.23646 199H-1.23646ZM14 -1.23646C5.58513 -1.23646 -1.23646 5.58514 -1.23646 14H1.23646C1.23646 6.95089 6.95088 1.23646 14 1.23646V-1.23646ZM323 1.23646C330.049 1.23646 335.764 6.95089 335.764 14H338.236C338.236 5.58514 331.415 -1.23646 323 -1.23646V1.23646Z" fill="url(#paint1_linear_2807_4953)" fill-opacity="0.4" mask="url(#path-1-inside-1_2807_4953)"/>
<mask id="mask0_2807_4953" style="mask-type:alpha" maskUnits="userSpaceOnUse" x="0" y="0" width="337" height="213">
<mask id="path-3-inside-2_2807_4953" fill="white">
<path d="M337 14C337 6.26802 330.732 0 323 0H14C6.26801 0 0 6.26801 0 14V199C0 206.732 6.26801 213 14 213H323C330.732 213 337 206.732 337 199V14Z"/>
</mask>
<path d="M337 14C337 6.26802 330.732 0 323 0H14C6.26801 0 0 6.26801 0 14V199C0 206.732 6.26801 213 14 213H323C330.732 213 337 206.732 337 199V14Z" fill="url(#paint2_linear_2807_4953)"/>
<path d="M323 -1.23646H14V1.23646H323V-1.23646ZM-1.23646 14V199H1.23646V14H-1.23646ZM14 214.236H323V211.764H14V214.236ZM338.236 199V14H335.764V199H338.236ZM323 214.236C331.415 214.236 338.236 207.415 338.236 199H335.764C335.764 206.049 330.049 211.764 323 211.764V214.236ZM-1.23646 199C-1.23646 207.415 5.58514 214.236 14 214.236V211.764C6.95089 211.764 1.23646 206.049 1.23646 199H-1.23646ZM14 -1.23646C5.58513 -1.23646 -1.23646 5.58514 -1.23646 14H1.23646C1.23646 6.95089 6.95088 1.23646 14 1.23646V-1.23646ZM323 1.23646C330.049 1.23646 335.764 6.95089 335.764 14H338.236C338.236 5.58514 331.415 -1.23646 323 -1.23646V1.23646Z" fill="url(#paint3_linear_2807_4953)" fill-opacity="0.4" mask="url(#path-3-inside-2_2807_4953)"/>
</mask>
<g mask="url(#mask0_2807_4953)">
<g style="mix-blend-mode:screen" opacity="0.45" filter="url(#filter0_f_2807_4953)">
<path d="M-96.8822 197.552C-69.9219 211.291 -29.7215 225.98 11.8596 214.734C60.9167 201.471 64.7169 164.87 109.55 155.95C168.069 144.303 189.624 201.061 250.485 190.614C302.776 181.638 312.089 135.41 354.532 140.974C386.533 145.172 393.77 173.091 431.512 178.798C459.079 182.966 483.731 172.393 500.37 162.697" stroke="url(#paint4_linear_2807_4953)" stroke-width="0.560526" stroke-miterlimit="10"/>
<path d="M498.668 160.399C481.799 169.487 456.791 179.381 428.876 175.53C390.839 170.207 383.629 143.855 351.306 139.912C308.457 134.678 298.931 178.367 246.416 187.291C185.751 197.626 164.423 143.365 106.31 154.527C61.794 163.082 57.9562 198.097 9.18341 210.845C-32.0546 221.665 -71.8875 207.553 -98.6078 194.363" stroke="url(#paint5_linear_2807_4953)" stroke-width="0.560526" stroke-miterlimit="10"/>
<path d="M496.963 158.098C479.862 166.572 454.5 175.793 426.227 172.251C387.895 167.324 380.715 142.532 348.071 138.844C304.817 133.945 295.076 175.09 242.338 183.954C181.872 194.172 160.777 142.408 103.063 153.09C58.8675 161.278 54.9828 194.712 6.50115 206.936C-34.3886 217.35 -73.8562 203.822 -100.341 191.173" stroke="url(#paint6_linear_2807_4953)" stroke-width="0.560526" stroke-miterlimit="10"/>
<path d="M495.254 155.798C477.928 163.661 452.2 172.274 423.578 168.979C384.941 164.529 377.804 141.219 344.832 137.778C301.168 133.211 291.217 171.815 238.255 180.626C177.986 190.733 157.122 141.463 99.8099 151.663C55.9357 159.483 52.0088 191.333 3.81155 203.043C-36.7185 213.039 -75.8257 200.086 -102.071 187.986" stroke="url(#paint7_linear_2807_4953)" stroke-width="0.560526" stroke-miterlimit="10"/>
<path d="M493.552 153.502C475.996 160.756 449.912 168.714 420.933 165.71C382.003 161.679 374.895 139.905 341.602 136.719C297.53 132.482 287.366 168.548 234.185 177.304C174.117 187.297 153.479 140.523 96.5695 150.24C53.0165 157.692 49.0256 187.853 1.13657 199.148C-39.0715 208.633 -77.7898 196.352 -103.798 184.798" stroke="url(#paint8_linear_2807_4953)" stroke-width="0.560526" stroke-miterlimit="10"/>
<path d="M491.847 151.2C474.059 157.84 447.62 165.143 418.283 162.438C379.056 158.821 371.98 138.589 338.36 135.66C293.884 131.757 283.505 165.28 230.103 173.981C170.229 183.859 149.825 139.583 93.3228 148.815C50.0909 155.9 46.0501 184.451 -1.54687 195.257C-41.4097 204.308 -79.7578 192.621 -105.526 181.617" stroke="url(#paint9_linear_2807_4953)" stroke-width="0.560526" stroke-miterlimit="10"/>
<path d="M490.144 148.898C472.125 154.93 445.329 161.574 415.638 159.164C376.119 155.958 369.075 137.267 335.126 134.591C290.244 131.019 279.651 162.003 226.025 170.651C166.352 180.416 146.179 138.634 90.0745 147.386C47.1638 154.103 43.0755 181.049 -4.22967 191.355C-43.7452 199.965 -81.7274 188.885 -107.258 178.426" stroke="url(#paint10_linear_2807_4953)" stroke-width="0.560526" stroke-miterlimit="10"/>
<path d="M488.441 146.601C470.191 152.019 443.043 158.006 412.994 155.895C373.181 153.095 366.166 135.953 331.896 133.532C286.605 130.297 275.801 158.735 221.953 167.323C162.474 176.973 142.534 137.689 86.8321 145.958C44.2404 152.314 40.1114 177.648 -6.9088 187.462C-46.0791 195.638 -83.691 185.151 -108.988 175.24" stroke="url(#paint11_linear_2807_4953)" stroke-width="0.560526" stroke-miterlimit="10"/>
<path d="M486.737 144.299C468.257 149.108 440.751 154.436 410.349 152.62C370.242 150.228 363.256 134.634 328.661 132.463C282.963 129.558 271.946 155.458 217.879 163.991C158.601 173.527 138.887 136.739 83.5878 144.526C41.3172 150.514 37.1407 174.243 -9.58524 183.562C-48.4103 191.303 -85.6542 181.418 -110.709 172.049" stroke="url(#paint12_linear_2807_4953)" stroke-width="0.560526" stroke-miterlimit="10"/>
<path d="M485.033 141.998C466.322 146.198 438.461 150.859 407.703 149.346C367.306 147.359 360.348 133.32 325.429 131.4C279.325 128.825 268.092 152.181 213.802 160.666C154.721 170.091 135.238 135.797 80.3413 143.101C38.3918 148.722 34.1725 170.844 -12.2709 179.667C-50.7437 186.977 -87.6244 177.682 -112.444 168.866" stroke="url(#paint13_linear_2807_4953)" stroke-width="0.560526" stroke-miterlimit="10"/>
<path d="M483.331 139.7C464.393 143.285 436.178 147.284 405.055 146.079C364.369 144.495 357.435 132.008 322.195 130.342C275.686 128.102 264.238 148.915 209.728 157.345C150.846 166.652 131.596 134.856 77.0993 141.673C35.471 146.926 31.2067 167.449 -14.9449 175.771C-53.0725 182.647 -89.5876 173.948 -114.165 165.675" stroke="url(#paint14_linear_2807_4953)" stroke-width="0.560526" stroke-miterlimit="10"/>
<path d="M481.626 137.399C462.458 140.375 433.888 143.707 402.407 142.8C361.424 141.619 354.522 130.684 318.957 129.269C272.042 127.359 260.38 145.633 205.646 154.011C146.961 163.207 127.941 133.905 73.8477 140.239C32.5405 145.125 28.2333 164.041 -17.6312 171.865C-55.4065 178.308 -91.5559 170.205 -115.901 162.48" stroke="url(#paint15_linear_2807_4953)" stroke-width="0.560526" stroke-miterlimit="10"/>
<path d="M479.917 135.1C460.517 137.462 431.593 140.132 399.756 139.529C358.488 138.749 351.607 129.368 315.72 128.208C268.396 126.635 256.523 142.364 201.567 150.681C143.082 159.764 124.289 132.958 70.5982 138.81C29.6122 143.328 25.26 160.644 -20.3174 167.97C-57.745 173.984 -93.5313 166.472 -117.631 159.294" stroke="url(#paint16_linear_2807_4953)" stroke-width="0.560526" stroke-miterlimit="10"/>
<path d="M478.215 132.802C458.585 134.556 429.31 136.557 397.113 136.259C355.55 135.875 348.704 128.051 312.488 127.144C264.757 125.901 252.671 139.091 197.495 147.353C139.209 156.318 120.645 132.013 67.3565 137.382C26.6917 141.532 22.3016 157.251 -22.9936 164.069C-60.0735 169.654 -95.4896 162.736 -119.359 156.101" stroke="url(#paint17_linear_2807_4953)" stroke-width="0.560526" stroke-miterlimit="10"/>
<path d="M476.51 130.501C456.651 131.645 427.022 132.973 394.467 132.985C352.612 133.001 345.793 126.732 309.255 126.08C261.118 125.168 248.8 135.704 193.419 144.028C135.312 152.761 117 131.068 64.1098 135.957C23.7661 139.74 19.3309 153.859 -25.677 160.179C-62.4047 165.332 -97.4622 159.007 -121.087 152.92" stroke="url(#paint18_linear_2807_4953)" stroke-width="0.560526" stroke-miterlimit="10"/>
<path d="M474.806 128.199C454.714 128.73 424.732 129.396 391.816 129.713C349.671 130.121 342.88 125.42 306.014 125.021C257.472 124.443 244.938 132.436 189.337 140.705C131.429 149.32 113.346 130.128 60.8628 134.532C20.8402 137.947 16.3672 150.469 -28.3561 156.286C-64.7337 161.014 -99.4259 155.273 -122.816 149.738" stroke="url(#paint19_linear_2807_4953)" stroke-width="0.560526" stroke-miterlimit="10"/>
<path d="M473.104 125.901C452.782 125.824 422.447 125.816 389.173 126.443C346.738 127.244 339.972 124.106 302.782 123.957C253.834 123.709 241.088 129.156 185.266 137.377C127.552 145.876 109.702 129.183 57.6211 133.104C17.9197 136.151 13.4041 147.078 -31.037 152.388C-67.0644 156.691 -101.393 151.542 -124.543 146.545" stroke="url(#paint20_linear_2807_4953)" stroke-width="0.560526" stroke-miterlimit="10"/>
<path d="M471.4 123.6C450.848 122.913 420.156 122.228 386.527 123.169C343.803 124.363 337.062 122.787 299.549 122.893C250.192 122.982 237.233 125.879 181.186 134.048C123.671 142.429 106.05 128.236 54.3719 131.675C14.987 134.357 10.436 143.691 -33.7183 148.491C-69.3909 152.367 -103.359 147.804 -126.274 143.359" stroke="url(#paint21_linear_2807_4953)" stroke-width="0.560526" stroke-miterlimit="10"/>
<path d="M469.696 121.299C448.916 119.996 417.874 118.641 383.882 119.896C340.868 121.482 334.152 121.469 296.318 121.83C246.554 122.249 233.382 122.607 177.115 130.72C119.801 138.988 102.411 127.289 51.1305 130.248C12.0668 132.562 7.47781 140.299 -36.3989 144.594C-71.7189 148.05 -105.327 144.073 -127.999 140.171" stroke="url(#paint22_linear_2807_4953)" stroke-width="0.560526" stroke-miterlimit="10"/>
<path d="M467.993 119.001C446.984 117.09 415.585 115.056 381.234 116.628C337.927 118.602 331.239 120.156 293.08 120.768C242.91 121.517 229.522 119.332 173.033 127.397C115.913 135.549 98.7564 126.348 47.8789 128.825C9.13625 130.771 4.50969 136.922 -39.0826 140.702C-74.0525 143.733 -107.295 140.341 -129.734 136.987" stroke="url(#paint23_linear_2807_4953)" stroke-width="0.560526" stroke-miterlimit="10"/>
<path d="M466.284 116.702C445.043 114.177 413.293 111.475 378.583 113.356C334.984 115.719 328.328 118.837 289.843 119.707C239.269 120.791 225.665 116.062 168.956 124.072C112.038 132.111 95.1069 125.406 44.6365 127.398C6.21503 128.977 1.54839 133.537 -41.7642 136.805C-76.3815 139.416 -109.263 136.611 -131.46 133.799" stroke="url(#paint24_linear_2807_4953)" stroke-width="0.560526" stroke-miterlimit="10"/>
<path d="M464.58 114.4C443.109 111.267 411.007 107.884 375.935 110.078C332.048 112.826 325.418 117.519 286.606 118.634C235.621 120.05 221.808 112.781 164.88 120.735C108.158 128.663 91.4579 124.452 41.3902 125.961C3.28986 127.172 -1.41439 130.147 -44.4426 132.9C-78.7073 135.091 -111.231 132.868 -133.191 130.602" stroke="url(#paint25_linear_2807_4953)" stroke-width="0.560526" stroke-miterlimit="10"/>
<path d="M462.877 112.103C441.176 108.361 408.719 104.3 373.291 106.808C329.109 109.94 322.509 116.204 283.376 117.575C231.986 119.326 217.958 109.513 160.803 117.41C104.279 125.22 87.8125 123.507 38.1427 124.536C0.363494 125.38 -4.37834 126.769 -47.1246 129.003C-81.0342 130.778 -113.197 129.13 -134.917 127.413" stroke="url(#paint26_linear_2807_4953)" stroke-width="0.560526" stroke-miterlimit="10"/>
<path d="M461.174 109.801C439.24 105.446 406.432 100.704 370.647 103.534C326.176 107.051 319.6 114.885 280.144 116.51C228.348 118.592 214.106 106.24 156.732 114.082C100.405 121.781 84.169 122.562 34.9017 123.109C-2.55627 123.584 -7.34034 123.39 -49.8023 125.11C-83.3614 126.472 -115.162 125.403 -136.644 124.232" stroke="url(#paint27_linear_2807_4953)" stroke-width="0.560526" stroke-miterlimit="10"/>
<path d="M459.469 107.499C437.306 102.535 404.141 97.1148 367.996 100.262C323.231 104.162 316.684 113.568 276.905 115.444C224.701 117.855 210.247 102.965 152.648 110.755C95.0487 118.544 80.5123 121.617 31.6476 121.681C-5.48923 121.789 -10.3084 120.014 -52.4885 121.214C-85.6925 122.161 -117.132 121.667 -138.377 121.041" stroke="url(#paint28_linear_2807_4953)" stroke-width="0.560526" stroke-miterlimit="10"/>
<path d="M457.767 105.202C435.376 99.6219 401.855 93.5238 365.352 96.9925C320.297 101.274 313.776 112.254 273.67 114.387C221.063 117.133 206.395 99.7047 148.573 107.434C92.6467 114.914 76.8654 120.679 28.4033 120.261C-8.41239 120.001 -13.2714 116.648 -55.172 117.324C-88.0256 117.858 -119.103 117.943 -140.11 117.862" stroke="url(#paint29_linear_2807_4953)" stroke-width="0.560526" stroke-miterlimit="10"/>
<path d="M456.063 102.901C433.442 96.7114 399.567 89.9279 362.707 93.7184C317.359 98.3761 310.87 110.933 270.435 113.319C217.417 116.397 202.54 96.4276 144.499 104.102C86.4582 111.776 73.2231 119.727 25.1637 118.826C-11.3309 118.199 -16.225 113.264 -57.8438 113.422C-90.3423 113.54 -121.059 114.2 -141.826 114.669" stroke="url(#paint30_linear_2807_4953)" stroke-width="0.560526" stroke-miterlimit="10"/>
<path d="M454.358 100.599C431.508 93.8007 397.274 86.3344 360.061 90.4441C314.422 95.4828 307.962 109.619 267.203 112.255C213.78 115.668 198.69 93.1596 140.42 100.772C84.891 108.027 69.5713 118.78 21.9144 117.397C-14.2637 116.404 -19.1904 109.893 -60.5322 109.522C-92.6778 109.232 -123.037 110.462 -143.566 111.476" stroke="url(#paint31_linear_2807_4953)" stroke-width="0.560526" stroke-miterlimit="10"/>
<path d="M452.656 98.3019C429.573 90.8902 394.988 82.7432 357.418 87.1746C311.482 92.592 305.054 108.304 263.973 111.196C210.144 114.939 194.851 90.0112 136.351 97.4491C81.033 104.711 65.9268 117.835 18.675 115.974C-17.1819 114.614 -22.1506 106.531 -63.2037 105.631C-94.9964 104.932 -124.99 106.735 -145.282 108.295" stroke="url(#paint32_linear_2807_4953)" stroke-width="0.560526" stroke-miterlimit="10"/>
<path d="M450.948 96.0029C427.635 87.9823 392.696 79.15 354.763 83.9056C308.534 89.6994 302.135 106.991 260.729 110.132C206.493 114.206 190.987 86.7392 132.267 94.122C77.1484 101.265 62.2709 116.891 15.4216 114.547C-20.1142 112.819 -25.1201 103.163 -65.8963 101.734C-97.3335 100.631 -126.972 102.999 -147.024 105.109" stroke="url(#paint33_linear_2807_4953)" stroke-width="0.560526" stroke-miterlimit="10"/>
<path d="M449.242 93.7006C425.697 85.0666 390.405 75.5489 352.116 80.6309C305.595 86.801 299.224 105.671 257.496 109.068C202.852 113.478 187.135 83.4662 128.19 90.7962C73.2677 97.8288 58.6257 115.945 12.1743 113.121C-23.0403 111.026 -28.0857 99.8024 -68.5756 97.8405C-99.6646 96.332 -128.933 99.2698 -148.75 101.92" stroke="url(#paint34_linear_2807_4953)" stroke-width="0.560526" stroke-miterlimit="10"/>
<path d="M447.541 91.4035C423.766 82.1606 388.117 71.953 349.471 77.3567C302.657 83.9031 296.313 104.352 254.262 107.999C199.21 112.74 183.28 80.189 124.116 87.4639C69.3922 94.3785 54.9787 114.996 8.93462 111.687C-25.9588 109.224 -31.0437 96.4333 -71.2499 93.9333C-101.988 92.0235 -130.897 95.5244 -150.474 98.7248" stroke="url(#paint35_linear_2807_4953)" stroke-width="0.560526" stroke-miterlimit="10"/>
<path d="M445.836 89.102C421.836 79.2478 385.826 68.3527 346.825 74.0827C299.716 81.0008 293.405 103.038 251.029 106.936C195.574 112.011 179.428 76.9167 120.037 84.1343C65.5142 90.9356 51.3269 114.049 5.6854 110.258C-28.8869 107.427 -34.0088 93.074 -73.9358 90.0385C-104.319 87.7248 -132.867 91.7888 -152.204 95.5391" stroke="url(#paint36_linear_2807_4953)" stroke-width="0.560526" stroke-miterlimit="10"/>
<path d="M444.131 86.8005C419.899 76.3329 383.53 64.7549 344.174 70.8113C296.772 78.1057 290.494 101.719 247.792 105.875C191.93 111.28 175.571 73.6469 115.96 80.8093C61.6338 87.4997 47.682 113.104 2.43841 108.833C-31.8128 105.634 -36.9762 89.7217 -76.6149 86.1457C-106.649 83.4378 -134.833 88.0625 -153.935 92.3534" stroke="url(#paint37_linear_2807_4953)" stroke-width="0.560526" stroke-miterlimit="10"/>
<path d="M442.43 84.5031C417.967 73.4267 381.242 61.1587 341.531 67.5414C293.834 75.2075 287.587 100.405 244.56 104.81C188.291 110.546 171.719 70.3741 111.888 77.4813C57.7609 84.0538 44.0377 112.159 -0.805711 107.4C-34.7357 103.834 -39.9408 86.3619 -79.2982 82.2432C-108.979 79.1386 -136.801 84.3193 -155.663 89.1601" stroke="url(#paint38_linear_2807_4953)" stroke-width="0.560526" stroke-miterlimit="10"/>
<path d="M440.725 82.2013C416.033 70.5161 378.952 57.5582 338.885 64.2672C290.893 72.305 284.676 99.0858 241.323 103.749C184.646 109.821 167.862 67.1041 107.807 74.1586C53.8763 80.6202 40.384 111.219 -4.05689 105.978C-37.6658 102.044 -42.9146 83.019 -81.9815 78.3527C-111.316 74.8492 -138.771 80.5952 -157.395 85.9812" stroke="url(#paint39_linear_2807_4953)" stroke-width="0.560526" stroke-miterlimit="10"/>
<path d="M439.021 79.8999C414.097 67.6011 376.659 53.9533 336.24 60.9933C287.952 69.4028 281.766 97.7671 238.091 102.685C181.007 109.088 164.01 63.8318 103.735 70.8312C50.0059 77.1794 36.7398 110.274 -7.29387 104.548C-40.5816 100.247 -45.8696 79.6665 -84.6576 74.4529C-113.641 70.5598 -140.732 76.8547 -159.119 82.786" stroke="url(#paint40_linear_2807_4953)" stroke-width="0.560526" stroke-miterlimit="10"/>
<path d="M437.314 77.6052C412.16 64.6976 374.352 50.2898 333.592 57.7262C284.993 66.421 278.853 96.4552 234.854 101.624C177.365 108.361 160.153 60.5618 99.6559 67.5013C46.1205 73.7341 33.0923 109.325 -10.5434 103.119C-43.5075 98.4538 -48.8463 76.3189 -87.3392 70.5553C-115.974 66.2679 -142.702 73.1188 -160.849 79.6" stroke="url(#paint41_linear_2807_4953)" stroke-width="0.560526" stroke-miterlimit="10"/>
<path d="M435.61 75.3032C410.223 61.7821 372.062 46.7006 330.941 54.4542C282.048 63.5441 275.94 95.143 231.617 100.562C173.722 107.629 156.296 57.2914 95.5747 64.1782C42.2406 70.2977 29.4386 108.384 -13.7945 101.696C-46.4421 96.6657 -51.8223 72.9828 -90.0296 66.6623C-118.318 61.9878 -144.675 69.3898 -162.589 76.4187" stroke="url(#paint42_linear_2807_4953)" stroke-width="0.560526" stroke-miterlimit="10"/>
<path d="M433.905 73.0011C408.293 58.8688 369.771 43.1115 328.295 51.1797C279.109 60.6576 273.029 93.8238 228.382 99.4932C170.075 106.893 152.441 54.0139 91.4998 60.8456C38.3597 66.8496 25.791 107.435 -17.0396 100.263C-49.366 94.8657 -54.7921 69.6372 -92.7067 62.762C-120.651 57.6957 -146.641 65.6512 -164.313 73.2229" stroke="url(#paint43_linear_2807_4953)" stroke-width="0.560526" stroke-miterlimit="10"/>
<path d="M432.204 70.7043C406.362 55.9631 367.484 39.5277 325.65 47.9058C276.171 57.7718 270.124 92.5027 225.15 98.4296C166.44 106.164 148.59 50.7417 87.4239 57.5207C34.4851 63.4113 22.1425 106.492 -20.2854 98.8386C-52.2907 93.0733 -57.7732 66.3464 -95.3893 58.8717C-122.994 53.4514 -148.606 61.9249 -166.045 70.0443" stroke="url(#paint44_linear_2807_4953)" stroke-width="0.560526" stroke-miterlimit="10"/>
<path d="M430.499 68.4028C404.425 53.0482 365.195 35.9437 323.004 44.6318C273.232 54.8859 267.213 91.184 221.917 97.3659C162.8 105.431 144.734 47.4648 83.3512 54.1933C30.6088 59.973 18.5018 105.545 -23.5236 97.4089C-55.2078 91.2759 -60.7324 62.9658 -98.062 54.9695C-125.319 49.1314 -150.568 58.1844 -167.769 66.8491" stroke="url(#paint45_linear_2807_4953)" stroke-width="0.560526" stroke-miterlimit="10"/>
</g>
<g style="mix-blend-mode:color-dodge" opacity="0.2" filter="url(#filter1_f_2807_4953)">
<path d="M519.151 188.53C496.701 208.82 461.717 233.476 418.642 233.452C367.823 233.429 354.618 199.083 309.009 202.152C249.476 206.155 243.455 266.568 181.974 272.34C129.15 277.298 108.114 235.094 68.5875 251.524C38.7855 263.915 39.0729 292.756 4.12066 308.099C-21.4076 319.305 -47.963 315.521 -66.5536 310.495" stroke="url(#paint46_linear_2807_4953)" stroke-width="0.45447" stroke-miterlimit="10"/>
<path d="M-65.5096 307.834C-46.8558 312.212 -20.1333 315.248 5.81379 304.257C41.1506 289.207 41.2448 261.887 71.424 249.659C111.429 233.441 132.01 273.139 185.036 268.071C246.299 262.243 252.752 204.299 311.765 199.934C356.973 196.595 369.802 229.4 420.212 229C462.844 228.701 497.624 204.698 519.985 185.002" stroke="url(#paint47_linear_2807_4953)" stroke-width="0.45447" stroke-miterlimit="10"/>
<path d="M-64.4631 305.168C-45.7449 308.894 -18.8565 311.187 7.51691 300.402C43.2411 285.657 43.713 259.85 74.2693 247.785C114.752 231.784 134.878 268.971 188.104 263.787C249.143 257.898 256.022 202.426 314.526 197.701C359.329 194.091 371.79 225.358 421.782 224.527C463.973 223.928 498.553 200.583 520.827 181.47" stroke="url(#paint48_linear_2807_4953)" stroke-width="0.45447" stroke-miterlimit="10"/>
<path d="M-63.4122 302.503C-44.6358 305.58 -17.5524 307.191 9.22325 296.553C45.3655 282.189 46.1832 257.825 77.119 245.911C118.086 230.125 137.751 264.804 191.179 259.511C252 253.565 259.306 200.561 317.296 195.475C361.692 191.594 373.782 221.321 423.366 220.068C465.1 219.159 499.482 196.463 521.668 177.944" stroke="url(#paint49_linear_2807_4953)" stroke-width="0.45447" stroke-miterlimit="10"/>
<path d="M-62.3678 299.841C-43.5281 302.271 -16.2722 303.158 10.9231 292.707C47.4583 278.672 48.6481 255.798 79.961 244.047C121.406 228.474 140.616 260.646 194.242 255.242C254.839 249.24 262.577 198.704 320.053 193.258C364.043 189.105 375.754 217.183 424.932 215.611C466.223 214.292 500.404 192.347 522.503 174.416" stroke="url(#paint50_linear_2807_4953)" stroke-width="0.45447" stroke-miterlimit="10"/>
<path d="M-61.322 297.175C-42.4179 298.951 -14.9894 299.114 12.6295 288.858C49.5587 275.145 51.1194 253.768 82.8146 242.18C124.737 226.824 143.493 256.485 197.316 250.971C257.696 244.907 265.86 196.845 322.816 191.036C366.4 186.612 377.741 213.124 426.509 211.155C467.353 209.507 501.332 188.232 523.342 170.894" stroke="url(#paint51_linear_2807_4953)" stroke-width="0.45447" stroke-miterlimit="10"/>
<path d="M-60.2763 294.509C-41.3088 295.638 -13.7066 295.07 14.3307 285.008C51.6489 271.616 53.5806 251.735 85.6592 240.306C128.06 225.163 146.36 252.317 200.387 246.694C260.543 240.573 269.134 194.978 325.58 188.809C368.759 184.114 379.727 209.065 428.083 206.689C468.477 204.705 502.261 184.112 524.184 167.363" stroke="url(#paint52_linear_2807_4953)" stroke-width="0.45447" stroke-miterlimit="10"/>
<path d="M-59.2305 291.847C-40.1987 292.323 -12.4289 291.03 16.0319 281.162C53.7402 268.086 56.0468 249.708 88.5025 238.441C131.386 223.517 149.226 248.158 203.452 242.419C263.391 236.238 272.407 193.116 328.339 186.586C371.116 181.625 381.703 205.008 429.656 202.232C469.604 199.919 503.184 179.995 525.026 163.835" stroke="url(#paint53_linear_2807_4953)" stroke-width="0.45447" stroke-miterlimit="10"/>
<path d="M-58.1853 289.181C-39.0901 289.01 -11.1466 286.986 17.7326 277.312C55.8311 264.552 58.5125 247.677 91.3466 236.567C134.709 221.856 152.094 243.99 206.517 238.141C266.232 231.903 275.68 191.249 331.098 184.358C373.469 179.126 383.684 200.948 431.224 197.77C470.725 195.128 504.106 175.879 525.855 160.307" stroke="url(#paint54_linear_2807_4953)" stroke-width="0.45447" stroke-miterlimit="10"/>
<path d="M-57.1396 286.515C-37.9812 285.696 -9.86789 282.936 19.4337 273.461C57.9172 261.017 60.9775 245.65 94.1899 234.698C138.031 220.199 154.961 239.822 209.586 233.869C269.083 227.574 278.958 189.388 333.861 182.137C375.826 176.634 385.664 196.892 432.802 193.309C471.85 190.342 505.035 171.759 526.701 156.781" stroke="url(#paint55_linear_2807_4953)" stroke-width="0.45447" stroke-miterlimit="10"/>
<path d="M-56.0943 283.853C-36.8766 282.38 -8.59456 278.889 21.1397 269.617C60.0081 257.487 63.4484 243.624 97.0379 232.834C141.356 218.553 157.832 235.665 212.655 229.601C271.929 223.244 282.23 187.531 336.62 179.913C378.179 174.139 387.643 192.842 434.369 188.851C472.971 185.555 505.958 167.643 527.532 153.251" stroke="url(#paint56_linear_2807_4953)" stroke-width="0.45447" stroke-miterlimit="10"/>
<path d="M-55.0485 281.187C-35.7675 279.066 -7.31568 274.839 22.8421 265.761C62.1019 253.943 65.9158 241.588 99.8837 230.955C144.681 216.887 160.701 231.491 215.727 225.318C274.782 218.906 285.51 185.66 339.385 177.682C380.539 171.636 389.626 188.776 435.944 184.38C474.094 180.758 506.883 163.516 528.374 149.715" stroke="url(#paint57_linear_2807_4953)" stroke-width="0.45447" stroke-miterlimit="10"/>
<path d="M-53.9977 278.522C-34.6523 275.749 -6.03177 270.791 24.5484 261.913C64.1881 250.408 68.3871 239.557 102.732 229.087C148.012 215.238 163.572 227.33 218.797 221.041C277.629 214.572 288.788 183.795 342.15 175.455C382.897 169.138 391.611 184.722 437.522 179.92C475.224 175.974 507.817 159.398 529.215 146.188" stroke="url(#paint58_linear_2807_4953)" stroke-width="0.45447" stroke-miterlimit="10"/>
<path d="M-52.9534 275.861C-33.5447 272.439 -4.75957 266.744 26.2481 258.067C66.2751 246.867 70.8467 237.529 105.575 227.218C151.333 213.581 166.438 223.166 221.861 216.767C280.47 210.236 292.06 181.933 344.907 173.232C385.249 166.644 393.583 180.676 439.09 175.457C476.344 171.187 508.734 155.28 530.051 142.655" stroke="url(#paint59_linear_2807_4953)" stroke-width="0.45447" stroke-miterlimit="10"/>
<path d="M-51.9075 273.195C-32.4356 269.125 -3.4845 262.688 27.9494 254.217C68.3627 243.326 73.3131 235.498 108.419 225.348C154.655 211.925 169.294 218.888 224.931 212.495C283.306 205.785 295.333 180.071 347.67 171.011C387.606 164.151 395.567 176.627 440.667 171.001C477.469 166.407 509.667 151.166 530.89 139.134" stroke="url(#paint60_linear_2807_4953)" stroke-width="0.45447" stroke-miterlimit="10"/>
<path d="M-50.8619 270.528C-31.3255 265.806 -2.20573 258.637 29.6557 250.367C70.4512 239.78 75.7832 233.472 111.272 223.481C157.986 210.275 172.17 214.727 228.005 208.223C286.157 201.452 298.615 178.211 350.433 168.789C389.963 161.658 397.545 172.582 442.239 166.545C478.592 161.632 510.59 147.05 531.729 135.612" stroke="url(#paint61_linear_2807_4953)" stroke-width="0.45447" stroke-miterlimit="10"/>
<path d="M-49.8174 267.867C-30.2178 262.497 -0.932165 254.586 31.3555 246.521C72.5333 236.238 78.2481 231.445 114.115 221.612C161.308 208.618 175.033 210.557 231.069 203.949C289.004 197.117 301.888 176.349 353.191 166.566C392.315 159.163 399.522 168.536 443.812 162.083C479.716 156.851 511.517 142.935 532.566 132.078" stroke="url(#paint62_linear_2807_4953)" stroke-width="0.45447" stroke-miterlimit="10"/>
<path d="M-48.7718 265.201C-29.1089 259.183 0.343787 250.524 33.0566 242.671C74.6167 232.692 80.7142 229.414 116.959 219.743C164.634 206.968 177.9 206.389 234.139 199.672C291.852 192.777 305.166 174.484 355.955 164.339C394.679 156.667 401.505 164.493 445.384 157.622C480.835 152.069 512.441 138.814 533.406 128.552" stroke="url(#paint63_linear_2807_4953)" stroke-width="0.45447" stroke-miterlimit="10"/>
<path d="M-47.7253 262.535C-28.0031 255.863 1.61432 246.467 34.7586 238.821C76.7009 229.145 83.1811 227.382 119.803 217.873C167.957 205.312 180.767 202.226 237.204 195.398C294.693 188.447 308.434 172.621 358.714 162.117C397.032 154.173 403.478 160.446 446.958 153.16C481.959 147.294 513.369 134.699 534.242 125.024" stroke="url(#paint64_linear_2807_4953)" stroke-width="0.45447" stroke-miterlimit="10"/>
<path d="M-46.6802 259.873C-26.8947 252.554 2.88978 242.41 36.4643 234.977C78.79 225.599 85.6518 225.357 122.652 216.005C171.284 203.656 183.641 198.058 240.279 191.127C297.55 184.114 311.717 170.761 361.483 159.896C399.395 151.68 405.464 156.414 448.535 148.705C483.087 142.52 514.298 130.583 535.088 121.498" stroke="url(#paint65_linear_2807_4953)" stroke-width="0.45447" stroke-miterlimit="10"/>
<path d="M-45.6298 257.208C-25.7798 249.236 4.16939 238.355 38.1702 231.128C80.8794 222.048 88.1176 223.325 125.5 214.137C174.61 202.006 186.512 193.897 243.348 186.854C300.396 179.785 314.995 168.9 364.241 157.673C401.746 149.187 407.44 152.374 450.108 144.244C484.21 137.745 515.225 126.469 535.923 117.971" stroke="url(#paint66_linear_2807_4953)" stroke-width="0.45447" stroke-miterlimit="10"/>
<path d="M-44.5843 254.541C-24.6711 245.922 5.44008 234.292 39.8723 227.271C82.9598 218.49 90.5836 221.293 128.345 212.257C177.939 200.34 189.38 189.723 246.414 182.57C303.243 175.445 318.269 167.028 367.001 155.439C404.101 146.682 409.417 148.328 451.677 139.775C485.329 132.963 516.149 122.342 536.76 114.432" stroke="url(#paint67_linear_2807_4953)" stroke-width="0.45447" stroke-miterlimit="10"/>
<path d="M-43.539 251.881C-23.5625 242.614 6.71575 230.236 41.5731 223.427C85.0452 214.938 93.0494 219.267 131.188 210.393C181.259 198.694 192.246 185.565 249.485 178.298C306.091 171.111 321.542 165.166 369.765 153.219C406.459 144.189 411.399 144.295 453.251 135.314C486.451 128.193 517.074 118.221 537.596 110.905" stroke="url(#paint68_linear_2807_4953)" stroke-width="0.45447" stroke-miterlimit="10"/>
<path d="M-42.4933 249.215C-22.4524 239.294 7.98776 226.168 43.2741 219.576C87.1246 211.385 95.5155 217.235 134.031 208.524C184.581 197.037 195.112 181.402 252.549 174.024C308.936 166.781 324.814 163.304 372.522 150.995C408.811 141.695 413.379 140.261 454.822 130.858C487.577 123.429 518 114.111 538.435 107.383" stroke="url(#paint69_linear_2807_4953)" stroke-width="0.45447" stroke-miterlimit="10"/>
<path d="M-41.4475 246.548C-21.3433 235.98 9.26398 222.106 44.9806 215.727C89.2157 207.829 97.9869 215.204 136.881 206.65C187.909 195.377 197.985 177.235 255.624 169.747C313.263 162.26 328.098 161.439 375.292 148.769C411.174 139.198 415.364 136.228 456.4 126.397C488.704 118.66 518.929 109.99 539.277 103.851" stroke="url(#paint70_linear_2807_4953)" stroke-width="0.45447" stroke-miterlimit="10"/>
<path d="M-40.4034 243.887C-20.2399 232.665 10.5344 218.043 46.6801 211.881C91.2947 204.276 100.451 213.178 139.728 204.787C191.234 193.731 200.854 173.083 258.692 165.48C314.636 158.129 331.374 159.584 378.053 146.553C413.53 136.71 417.347 132.206 457.977 121.942C489.835 113.897 519.86 105.882 540.121 100.331" stroke="url(#paint71_linear_2807_4953)" stroke-width="0.45447" stroke-miterlimit="10"/>
<path d="M-39.3565 241.22C-19.1298 229.351 11.8077 213.975 48.3824 208.031C93.3777 200.712 102.914 211.145 142.574 202.913C194.563 192.071 203.722 168.915 261.758 161.201C319.794 153.488 334.644 157.716 380.809 144.324C415.879 134.209 419.318 128.17 459.541 117.478C490.947 109.124 520.775 101.758 540.947 96.8003" stroke="url(#paint72_linear_2807_4953)" stroke-width="0.45447" stroke-miterlimit="10"/>
<path d="M-38.3115 238.554C-18.0215 226.037 13.0842 209.909 50.0829 204.181C95.4577 197.154 105.378 209.118 145.416 201.044C197.883 190.42 206.587 164.757 264.828 156.924C320.33 149.46 337.922 155.85 383.572 142.097C418.242 131.713 421.302 124.143 461.119 113.013C492.079 104.357 521.709 97.6341 541.794 93.2647" stroke="url(#paint73_linear_2807_4953)" stroke-width="0.45447" stroke-miterlimit="10"/>
<path d="M-37.2663 235.893C-16.9119 222.723 14.3558 205.846 51.7835 200.335C97.5441 193.597 107.844 207.091 148.259 199.179C201.205 188.768 209.474 160.716 267.892 152.655C323.191 145.252 341.195 153.988 386.33 139.879C420.594 129.223 423.285 120.125 462.685 108.56C493.198 99.6015 522.625 93.5266 542.623 89.7455" stroke="url(#paint74_linear_2807_4953)" stroke-width="0.45447" stroke-miterlimit="10"/>
<path d="M-36.2159 233.228C-15.7982 219.41 15.6327 201.779 53.4946 196.487C99.6359 190.036 110.32 205.062 151.113 197.307C204.537 187.109 212.351 156.551 270.967 148.379C326.043 140.914 344.478 152.123 389.099 137.654C422.957 126.727 425.274 116.099 464.269 104.096C494.333 94.8402 523.565 89.4039 543.474 86.2162" stroke="url(#paint75_linear_2807_4953)" stroke-width="0.45447" stroke-miterlimit="10"/>
<path d="M-35.1693 230.561C-14.6872 216.091 16.9068 197.706 55.1966 192.637C101.719 186.472 112.787 203.03 153.958 195.438C207.864 185.458 215.219 152.387 274.037 144.106C328.895 136.586 347.751 150.261 391.862 135.432C425.315 124.233 427.261 112.083 465.842 99.6391C495.464 90.0824 524.487 85.2926 544.31 82.6882" stroke="url(#paint76_linear_2807_4953)" stroke-width="0.45447" stroke-miterlimit="10"/>
<path d="M-34.1255 227.9C-13.5801 212.782 18.1782 193.638 56.897 188.786C103.8 182.909 115.252 200.999 156.801 193.563C211.187 183.796 218.085 148.219 277.102 139.827C331.737 132.244 351.024 148.394 394.616 133.203C427.662 121.733 429.239 108.059 467.405 95.1698C496.584 85.317 525.406 81.1648 545.141 79.1537" stroke="url(#paint77_linear_2807_4953)" stroke-width="0.45447" stroke-miterlimit="10"/>
<path d="M-33.0797 225.234C-12.4761 209.467 19.4516 189.565 58.5983 184.936C105.883 179.34 117.717 198.972 159.645 191.694C214.507 182.145 220.952 144.056 280.172 135.55C334.583 127.91 354.303 146.529 397.38 130.976C430.021 119.235 431.226 104.044 468.983 90.7098C497.714 80.5597 526.335 77.045 545.981 75.6273" stroke="url(#paint78_linear_2807_4953)" stroke-width="0.45447" stroke-miterlimit="10"/>
<path d="M-32.0329 222.567C-11.3648 206.147 20.7312 185.493 60.3057 181.086C107.971 175.778 120.185 196.94 162.494 189.826C217.836 180.489 223.824 139.894 283.243 131.277C337.435 123.581 357.576 144.666 400.144 128.754C432.379 116.742 433.218 100.034 470.556 86.2531C498.847 75.8132 527.263 72.9347 546.823 72.1003" stroke="url(#paint79_linear_2807_4953)" stroke-width="0.45447" stroke-miterlimit="10"/>
<path d="M-30.9886 219.906C-10.2573 202.839 22.0031 181.426 62.0055 177.241C110.053 172.215 122.649 194.914 165.338 187.957C221.157 178.833 226.691 135.731 286.306 127.003C340.277 119.246 360.849 142.805 402.903 126.526C434.732 114.243 435.205 96.0178 472.13 81.7866C499.977 71.0558 528.187 68.8085 547.659 68.5675" stroke="url(#paint80_linear_2807_4953)" stroke-width="0.45447" stroke-miterlimit="10"/>
<path d="M-29.9423 217.24C-9.14778 199.524 23.2769 177.352 63.7072 173.39C112.136 168.646 125.116 192.882 168.186 186.088C224.489 177.183 229.563 131.568 289.381 122.732C343.133 114.918 364.132 140.945 405.672 124.306C437.095 111.75 437.205 92.0152 473.707 77.331C501.116 66.3053 529.119 64.6994 548.504 65.0467" stroke="url(#paint81_linear_2807_4953)" stroke-width="0.45447" stroke-miterlimit="10"/>
<path d="M-28.8971 214.574C-8.0381 196.206 24.5509 173.275 65.4079 169.54C114.219 165.078 127.582 190.85 171.029 184.219C227.81 175.527 232.428 127.406 292.445 118.458C345.973 110.588 367.404 139.083 408.424 122.082C439.441 109.255 439.185 88.0085 475.274 72.8686C502.243 61.5582 530.037 60.5772 549.335 61.5128" stroke="url(#paint82_linear_2807_4953)" stroke-width="0.45447" stroke-miterlimit="10"/>
<path d="M-27.8475 211.913C-6.92528 192.898 25.8229 169.136 67.1129 165.696C116.299 161.428 130.052 188.825 173.878 182.351C231.136 173.876 235.3 123.243 295.515 114.18C348.826 106.249 370.677 137.216 411.188 119.855C441.799 106.762 441.186 84.0008 476.847 68.4068C503.376 56.8065 530.966 56.4568 550.175 57.9858" stroke="url(#paint83_linear_2807_4953)" stroke-width="0.45447" stroke-miterlimit="10"/>
<path d="M-26.8013 209.247C-5.81455 189.579 27.0995 165.075 68.8197 161.847C118.393 157.883 132.523 186.799 176.727 180.483C234.464 172.221 238.172 119.082 298.59 109.909C351.677 101.921 373.96 135.357 413.957 117.634C444.167 104.272 443.19 80.0051 478.431 63.9478C504.525 52.0641 531.899 52.3431 551.026 54.4616" stroke="url(#paint84_linear_2807_4953)" stroke-width="0.45447" stroke-miterlimit="10"/>
<path d="M-25.756 206.581C-4.71118 186.263 28.3751 161.013 70.5204 157.996C120.477 154.331 134.988 184.768 179.571 178.608C237.791 170.56 241.039 114.913 301.655 105.63C354.524 97.5812 377.233 133.49 416.716 115.406C446.519 101.772 445.185 76.0015 479.998 59.485C505.658 47.3126 532.823 48.2217 551.857 50.9273" stroke="url(#paint85_linear_2807_4953)" stroke-width="0.45447" stroke-miterlimit="10"/>
<path d="M-24.711 203.92C-3.60292 182.955 29.6504 156.957 72.222 154.146C122.562 150.779 137.45 182.735 182.415 176.739C241.113 168.909 243.906 110.75 304.725 101.358C357.37 93.2517 380.511 131.629 419.479 113.185C448.877 99.2794 447.206 72.0472 481.576 55.0297C506.814 42.6042 533.75 44.1118 552.702 47.4069" stroke="url(#paint86_linear_2807_4953)" stroke-width="0.45447" stroke-miterlimit="10"/>
<path d="M-23.6651 201.253C-2.49253 179.636 30.9255 152.9 73.9234 150.295C124.647 147.227 139.916 180.703 185.258 174.87C244.435 167.252 246.774 106.582 307.789 97.0843C360.216 88.9222 383.779 129.766 422.233 110.961C451.224 96.7841 449.182 68.0124 483.139 50.5659C507.933 37.8278 534.668 39.9893 553.533 43.8728" stroke="url(#paint87_linear_2807_4953)" stroke-width="0.45447" stroke-miterlimit="10"/>
</g>
</g>
<defs>
<filter id="filter0_f_2807_4953" x="-171.258" y="38.64" width="675.133" height="183.729" filterUnits="userSpaceOnUse" color-interpolation-filters="sRGB">
<feFlood flood-opacity="0" result="BackgroundImageFix"/>
<feBlend mode="normal" in="SourceGraphic" in2="BackgroundImageFix" result="shape"/>
<feGaussianBlur stdDeviation="1.68158" result="effect1_foregroundBlur_2807_4953"/>
</filter>
<filter id="filter1_f_2807_4953" x="-69.9762" y="37.2755" width="626.919" height="281.71" filterUnits="userSpaceOnUse" color-interpolation-filters="sRGB">
<feFlood flood-opacity="0" result="BackgroundImageFix"/>
<feBlend mode="normal" in="SourceGraphic" in2="BackgroundImageFix" result="shape"/>
<feGaussianBlur stdDeviation="1.68158" result="effect1_foregroundBlur_2807_4953"/>
</filter>
<linearGradient id="paint0_linear_2807_4953" x1="0.684207" y1="-3.6011e-06" x2="321.033" y2="241.626" gradientUnits="userSpaceOnUse">
<stop stop-color="#005788"/>
<stop offset="1" stop-color="#00828A"/>
</linearGradient>
<linearGradient id="paint1_linear_2807_4953" x1="15.5918" y1="-2.57432e-05" x2="356.843" y2="154.575" gradientUnits="userSpaceOnUse">
<stop stop-color="white" stop-opacity="0.87"/>
<stop offset="0.515625" stop-color="white" stop-opacity="0"/>
<stop offset="1" stop-color="white"/>
</linearGradient>
<linearGradient id="paint2_linear_2807_4953" x1="324.643" y1="1.93631e-05" x2="-12.251" y2="166.325" gradientUnits="userSpaceOnUse">
<stop stop-color="#005788"/>
<stop offset="1" stop-color="#00828A"/>
</linearGradient>
<linearGradient id="paint3_linear_2807_4953" x1="16.7129" y1="-2.39674e-05" x2="357.964" y2="154.575" gradientUnits="userSpaceOnUse">
<stop stop-color="white" stop-opacity="0.87"/>
<stop offset="0.515625" stop-color="white" stop-opacity="0"/>
<stop offset="1" stop-color="white"/>
</linearGradient>
<linearGradient id="paint4_linear_2807_4953" x1="-37.1149" y1="308.739" x2="439.419" y2="52.3193" gradientUnits="userSpaceOnUse">
<stop stop-color="#06CFE6"/>
<stop offset="1" stop-color="#0343B6"/>
</linearGradient>
<linearGradient id="paint5_linear_2807_4953" x1="-38.6785" y1="305.855" x2="437.509" y2="49.6287" gradientUnits="userSpaceOnUse">
<stop stop-color="#06CFE6"/>
<stop offset="1" stop-color="#0343B6"/>
</linearGradient>
<linearGradient id="paint6_linear_2807_4953" x1="-40.2234" y1="303.019" x2="435.622" y2="46.9841" gradientUnits="userSpaceOnUse">
<stop stop-color="#06CFE6"/>
<stop offset="1" stop-color="#0343B6"/>
</linearGradient>
<linearGradient id="paint7_linear_2807_4953" x1="-41.7653" y1="300.185" x2="433.733" y2="44.3443" gradientUnits="userSpaceOnUse">
<stop stop-color="#06CFE6"/>
<stop offset="1" stop-color="#0343B6"/>
</linearGradient>
<linearGradient id="paint8_linear_2807_4953" x1="-43.303" y1="297.351" x2="431.849" y2="41.7049" gradientUnits="userSpaceOnUse">
<stop stop-color="#06CFE6"/>
<stop offset="1" stop-color="#0343B6"/>
</linearGradient>
<linearGradient id="paint9_linear_2807_4953" x1="-44.8445" y1="294.519" x2="429.966" y2="39.0648" gradientUnits="userSpaceOnUse">
<stop stop-color="#06CFE6"/>
<stop offset="1" stop-color="#0343B6"/>
</linearGradient>
<linearGradient id="paint10_linear_2807_4953" x1="-46.3876" y1="291.683" x2="428.081" y2="36.4206" gradientUnits="userSpaceOnUse">
<stop stop-color="#06CFE6"/>
<stop offset="1" stop-color="#0343B6"/>
</linearGradient>
<linearGradient id="paint11_linear_2807_4953" x1="-47.9295" y1="288.852" x2="426.197" y2="33.7808" gradientUnits="userSpaceOnUse">
<stop stop-color="#06CFE6"/>
<stop offset="1" stop-color="#0343B6"/>
</linearGradient>
<linearGradient id="paint12_linear_2807_4953" x1="-49.4628" y1="286.013" x2="424.313" y2="31.1383" gradientUnits="userSpaceOnUse">
<stop stop-color="#06CFE6"/>
<stop offset="1" stop-color="#0343B6"/>
</linearGradient>
<linearGradient id="paint13_linear_2807_4953" x1="-51.01" y1="283.182" x2="422.428" y2="28.4966" gradientUnits="userSpaceOnUse">
<stop stop-color="#06CFE6"/>
<stop offset="1" stop-color="#0343B6"/>
</linearGradient>
<linearGradient id="paint14_linear_2807_4953" x1="-52.5421" y1="280.345" x2="420.545" y2="25.8561" gradientUnits="userSpaceOnUse">
<stop stop-color="#06CFE6"/>
<stop offset="1" stop-color="#0343B6"/>
</linearGradient>
<linearGradient id="paint15_linear_2807_4953" x1="-54.0873" y1="277.507" x2="418.657" y2="23.2095" gradientUnits="userSpaceOnUse">
<stop stop-color="#06CFE6"/>
<stop offset="1" stop-color="#0343B6"/>
</linearGradient>
<linearGradient id="paint16_linear_2807_4953" x1="-55.6304" y1="274.674" x2="416.768" y2="20.5698" gradientUnits="userSpaceOnUse">
<stop stop-color="#06CFE6"/>
<stop offset="1" stop-color="#0343B6"/>
</linearGradient>
<linearGradient id="paint17_linear_2807_4953" x1="-57.1681" y1="271.837" x2="414.883" y2="17.9272" gradientUnits="userSpaceOnUse">
<stop stop-color="#06CFE6"/>
<stop offset="1" stop-color="#0343B6"/>
</linearGradient>
<linearGradient id="paint18_linear_2807_4953" x1="-58.7097" y1="269.006" x2="413" y2="15.2872" gradientUnits="userSpaceOnUse">
<stop stop-color="#06CFE6"/>
<stop offset="1" stop-color="#0343B6"/>
</linearGradient>
<linearGradient id="paint19_linear_2807_4953" x1="-60.2515" y1="266.174" x2="411.116" y2="12.6466" gradientUnits="userSpaceOnUse">
<stop stop-color="#06CFE6"/>
<stop offset="1" stop-color="#0343B6"/>
</linearGradient>
<linearGradient id="paint20_linear_2807_4953" x1="-61.7892" y1="263.338" x2="409.231" y2="10.0039" gradientUnits="userSpaceOnUse">
<stop stop-color="#06CFE6"/>
<stop offset="1" stop-color="#0343B6"/>
</linearGradient>
<linearGradient id="paint21_linear_2807_4953" x1="-63.332" y1="260.504" x2="407.346" y2="7.36153" gradientUnits="userSpaceOnUse">
<stop stop-color="#06CFE6"/>
<stop offset="1" stop-color="#0343B6"/>
</linearGradient>
<linearGradient id="paint22_linear_2807_4953" x1="-64.8695" y1="257.668" x2="405.462" y2="4.7194" gradientUnits="userSpaceOnUse">
<stop stop-color="#06CFE6"/>
<stop offset="1" stop-color="#0343B6"/>
</linearGradient>
<linearGradient id="paint23_linear_2807_4953" x1="-66.4159" y1="254.839" x2="403.578" y2="2.07826" gradientUnits="userSpaceOnUse">
<stop stop-color="#06CFE6"/>
<stop offset="1" stop-color="#0343B6"/>
</linearGradient>
<linearGradient id="paint24_linear_2807_4953" x1="-67.9544" y1="252.003" x2="401.688" y2="-0.561498" gradientUnits="userSpaceOnUse">
<stop stop-color="#06CFE6"/>
<stop offset="1" stop-color="#0343B6"/>
</linearGradient>
<linearGradient id="paint25_linear_2807_4953" x1="-69.4943" y1="249.162" x2="399.801" y2="-3.20878" gradientUnits="userSpaceOnUse">
<stop stop-color="#06CFE6"/>
<stop offset="1" stop-color="#0343B6"/>
</linearGradient>
<linearGradient id="paint26_linear_2807_4953" x1="-71.0319" y1="246.328" x2="397.917" y2="-5.84895" gradientUnits="userSpaceOnUse">
<stop stop-color="#06CFE6"/>
<stop offset="1" stop-color="#0343B6"/>
</linearGradient>
<linearGradient id="paint27_linear_2807_4953" x1="-72.5723" y1="243.497" x2="396.034" y2="-8.48984" gradientUnits="userSpaceOnUse">
<stop stop-color="#06CFE6"/>
<stop offset="1" stop-color="#0343B6"/>
</linearGradient>
<linearGradient id="paint28_linear_2807_4953" x1="-74.1166" y1="240.66" x2="394.147" y2="-11.1353" gradientUnits="userSpaceOnUse">
<stop stop-color="#06CFE6"/>
<stop offset="1" stop-color="#0343B6"/>
</linearGradient>
<linearGradient id="paint29_linear_2807_4953" x1="-75.6616" y1="237.834" x2="392.265" y2="-13.7734" gradientUnits="userSpaceOnUse">
<stop stop-color="#06CFE6"/>
<stop offset="1" stop-color="#0343B6"/>
</linearGradient>
<linearGradient id="paint30_linear_2807_4953" x1="-77.1903" y1="234.993" x2="390.38" y2="-16.4163" gradientUnits="userSpaceOnUse">
<stop stop-color="#06CFE6"/>
<stop offset="1" stop-color="#0343B6"/>
</linearGradient>
<linearGradient id="paint31_linear_2807_4953" x1="-78.7402" y1="232.157" x2="388.492" y2="-19.0639" gradientUnits="userSpaceOnUse">
<stop stop-color="#06CFE6"/>
<stop offset="1" stop-color="#0343B6"/>
</linearGradient>
<linearGradient id="paint32_linear_2807_4953" x1="-80.2698" y1="229.325" x2="386.611" y2="-21.7" gradientUnits="userSpaceOnUse">
<stop stop-color="#06CFE6"/>
<stop offset="1" stop-color="#0343B6"/>
</linearGradient>
<linearGradient id="paint33_linear_2807_4953" x1="-81.8226" y1="226.494" x2="384.72" y2="-24.3427" gradientUnits="userSpaceOnUse">
<stop stop-color="#06CFE6"/>
<stop offset="1" stop-color="#0343B6"/>
</linearGradient>
<linearGradient id="paint34_linear_2807_4953" x1="-83.3613" y1="223.657" x2="382.834" y2="-26.9863" gradientUnits="userSpaceOnUse">
<stop stop-color="#06CFE6"/>
<stop offset="1" stop-color="#0343B6"/>
</linearGradient>
<linearGradient id="paint35_linear_2807_4953" x1="-84.8946" y1="220.818" x2="380.949" y2="-29.6294" gradientUnits="userSpaceOnUse">
<stop stop-color="#06CFE6"/>
<stop offset="1" stop-color="#0343B6"/>
</linearGradient>
<linearGradient id="paint36_linear_2807_4953" x1="-86.4374" y1="217.985" x2="379.064" y2="-32.2723" gradientUnits="userSpaceOnUse">
<stop stop-color="#06CFE6"/>
<stop offset="1" stop-color="#0343B6"/>
</linearGradient>
<linearGradient id="paint37_linear_2807_4953" x1="-87.9805" y1="215.151" x2="377.178" y2="-34.9153" gradientUnits="userSpaceOnUse">
<stop stop-color="#06CFE6"/>
<stop offset="1" stop-color="#0343B6"/>
</linearGradient>
<linearGradient id="paint38_linear_2807_4953" x1="-89.5182" y1="212.315" x2="375.294" y2="-37.5588" gradientUnits="userSpaceOnUse">
<stop stop-color="#06CFE6"/>
<stop offset="1" stop-color="#0343B6"/>
</linearGradient>
<linearGradient id="paint39_linear_2807_4953" x1="-91.0642" y1="209.486" x2="373.41" y2="-40.1998" gradientUnits="userSpaceOnUse">
<stop stop-color="#06CFE6"/>
<stop offset="1" stop-color="#0343B6"/>
</linearGradient>
<linearGradient id="paint40_linear_2807_4953" x1="-92.5984" y1="206.645" x2="371.524" y2="-42.8451" gradientUnits="userSpaceOnUse">
<stop stop-color="#06CFE6"/>
<stop offset="1" stop-color="#0343B6"/>
</linearGradient>
<linearGradient id="paint41_linear_2807_4953" x1="-94.1403" y1="203.814" x2="369.635" y2="-45.4837" gradientUnits="userSpaceOnUse">
<stop stop-color="#06CFE6"/>
<stop offset="1" stop-color="#0343B6"/>
</linearGradient>
<linearGradient id="paint42_linear_2807_4953" x1="-95.6921" y1="200.984" x2="367.749" y2="-48.1274" gradientUnits="userSpaceOnUse">
<stop stop-color="#06CFE6"/>
<stop offset="1" stop-color="#0343B6"/>
</linearGradient>
<linearGradient id="paint43_linear_2807_4953" x1="-97.2274" y1="198.143" x2="365.862" y2="-50.7734" gradientUnits="userSpaceOnUse">
<stop stop-color="#06CFE6"/>
<stop offset="1" stop-color="#0343B6"/>
</linearGradient>
<linearGradient id="paint44_linear_2807_4953" x1="-98.7714" y1="195.317" x2="363.98" y2="-53.412" gradientUnits="userSpaceOnUse">
<stop stop-color="#06CFE6"/>
<stop offset="1" stop-color="#0343B6"/>
</linearGradient>
<linearGradient id="paint45_linear_2807_4953" x1="-100.307" y1="192.476" x2="362.093" y2="-56.0575" gradientUnits="userSpaceOnUse">
<stop stop-color="#06CFE6"/>
<stop offset="1" stop-color="#0343B6"/>
</linearGradient>
<linearGradient id="paint46_linear_2807_4953" x1="490.418" y1="311.45" x2="-36.4671" y2="188.049" gradientUnits="userSpaceOnUse">
<stop stop-color="#06CFE6"/>
<stop offset="1" stop-color="#0343B6"/>
</linearGradient>
<linearGradient id="paint47_linear_2807_4953" x1="491.175" y1="308.258" x2="-35.3244" y2="184.954" gradientUnits="userSpaceOnUse">
<stop stop-color="#06CFE6"/>
<stop offset="1" stop-color="#0343B6"/>
</linearGradient>
<linearGradient id="paint48_linear_2807_4953" x1="491.928" y1="305.117" x2="-34.192" y2="181.909" gradientUnits="userSpaceOnUse">
<stop stop-color="#06CFE6"/>
<stop offset="1" stop-color="#0343B6"/>
</linearGradient>
<linearGradient id="paint49_linear_2807_4953" x1="492.679" y1="301.979" x2="-33.0559" y2="178.869" gradientUnits="userSpaceOnUse">
<stop stop-color="#06CFE6"/>
<stop offset="1" stop-color="#0343B6"/>
</linearGradient>
<linearGradient id="paint50_linear_2807_4953" x1="493.424" y1="298.843" x2="-31.9257" y2="175.83" gradientUnits="userSpaceOnUse">
<stop stop-color="#06CFE6"/>
<stop offset="1" stop-color="#0343B6"/>
</linearGradient>
<linearGradient id="paint51_linear_2807_4953" x1="494.174" y1="295.708" x2="-30.7952" y2="172.79" gradientUnits="userSpaceOnUse">
<stop stop-color="#06CFE6"/>
<stop offset="1" stop-color="#0343B6"/>
</linearGradient>
<linearGradient id="paint52_linear_2807_4953" x1="494.926" y1="292.567" x2="-29.6636" y2="169.746" gradientUnits="userSpaceOnUse">
<stop stop-color="#06CFE6"/>
<stop offset="1" stop-color="#0343B6"/>
</linearGradient>
<linearGradient id="paint53_linear_2807_4953" x1="495.678" y1="289.432" x2="-28.532" y2="166.706" gradientUnits="userSpaceOnUse">
<stop stop-color="#06CFE6"/>
<stop offset="1" stop-color="#0343B6"/>
</linearGradient>
<linearGradient id="paint54_linear_2807_4953" x1="496.418" y1="286.292" x2="-27.4015" y2="163.664" gradientUnits="userSpaceOnUse">
<stop stop-color="#06CFE6"/>
<stop offset="1" stop-color="#0343B6"/>
</linearGradient>
<linearGradient id="paint55_linear_2807_4953" x1="497.174" y1="283.155" x2="-26.2705" y2="160.622" gradientUnits="userSpaceOnUse">
<stop stop-color="#06CFE6"/>
<stop offset="1" stop-color="#0343B6"/>
</linearGradient>
<linearGradient id="paint56_linear_2807_4953" x1="497.915" y1="280.017" x2="-25.1394" y2="157.582" gradientUnits="userSpaceOnUse">
<stop stop-color="#06CFE6"/>
<stop offset="1" stop-color="#0343B6"/>
</linearGradient>
<linearGradient id="paint57_linear_2807_4953" x1="498.667" y1="276.875" x2="-24.0071" y2="154.536" gradientUnits="userSpaceOnUse">
<stop stop-color="#06CFE6"/>
<stop offset="1" stop-color="#0343B6"/>
</linearGradient>
<linearGradient id="paint58_linear_2807_4953" x1="499.418" y1="273.737" x2="-22.871" y2="151.495" gradientUnits="userSpaceOnUse">
<stop stop-color="#06CFE6"/>
<stop offset="1" stop-color="#0343B6"/>
</linearGradient>
<linearGradient id="paint59_linear_2807_4953" x1="500.163" y1="270.598" x2="-21.7402" y2="148.453" gradientUnits="userSpaceOnUse">
<stop stop-color="#06CFE6"/>
<stop offset="1" stop-color="#0343B6"/>
</linearGradient>
<linearGradient id="paint60_linear_2807_4953" x1="500.914" y1="267.463" x2="-20.6095" y2="145.413" gradientUnits="userSpaceOnUse">
<stop stop-color="#06CFE6"/>
<stop offset="1" stop-color="#0343B6"/>
</linearGradient>
<linearGradient id="paint61_linear_2807_4953" x1="501.664" y1="264.327" x2="-19.4791" y2="142.373" gradientUnits="userSpaceOnUse">
<stop stop-color="#06CFE6"/>
<stop offset="1" stop-color="#0343B6"/>
</linearGradient>
<linearGradient id="paint62_linear_2807_4953" x1="502.41" y1="261.188" x2="-18.3481" y2="139.33" gradientUnits="userSpaceOnUse">
<stop stop-color="#06CFE6"/>
<stop offset="1" stop-color="#0343B6"/>
</linearGradient>
<linearGradient id="paint63_linear_2807_4953" x1="503.161" y1="258.05" x2="-17.2171" y2="136.288" gradientUnits="userSpaceOnUse">
<stop stop-color="#06CFE6"/>
<stop offset="1" stop-color="#0343B6"/>
</linearGradient>
<linearGradient id="paint64_linear_2807_4953" x1="503.907" y1="254.911" x2="-16.0852" y2="133.246" gradientUnits="userSpaceOnUse">
<stop stop-color="#06CFE6"/>
<stop offset="1" stop-color="#0343B6"/>
</linearGradient>
<linearGradient id="paint65_linear_2807_4953" x1="504.663" y1="251.777" x2="-14.9541" y2="130.206" gradientUnits="userSpaceOnUse">
<stop stop-color="#06CFE6"/>
<stop offset="1" stop-color="#0343B6"/>
</linearGradient>
<linearGradient id="paint66_linear_2807_4953" x1="505.409" y1="248.638" x2="-13.8183" y2="127.164" gradientUnits="userSpaceOnUse">
<stop stop-color="#06CFE6"/>
<stop offset="1" stop-color="#0343B6"/>
</linearGradient>
<linearGradient id="paint67_linear_2807_4953" x1="506.155" y1="245.494" x2="-12.6863" y2="124.116" gradientUnits="userSpaceOnUse">
<stop stop-color="#06CFE6"/>
<stop offset="1" stop-color="#0343B6"/>
</linearGradient>
<linearGradient id="paint68_linear_2807_4953" x1="506.902" y1="242.358" x2="-11.5549" y2="121.077" gradientUnits="userSpaceOnUse">
<stop stop-color="#06CFE6"/>
<stop offset="1" stop-color="#0343B6"/>
</linearGradient>
<linearGradient id="paint69_linear_2807_4953" x1="507.652" y1="239.222" x2="-10.4244" y2="118.037" gradientUnits="userSpaceOnUse">
<stop stop-color="#06CFE6"/>
<stop offset="1" stop-color="#0343B6"/>
</linearGradient>
<linearGradient id="paint70_linear_2807_4953" x1="508.403" y1="236.082" x2="-9.29249" y2="114.991" gradientUnits="userSpaceOnUse">
<stop stop-color="#06CFE6"/>
<stop offset="1" stop-color="#0343B6"/>
</linearGradient>
<linearGradient id="paint71_linear_2807_4953" x1="509.158" y1="232.95" x2="-8.16296" y2="111.953" gradientUnits="userSpaceOnUse">
<stop stop-color="#06CFE6"/>
<stop offset="1" stop-color="#0343B6"/>
</linearGradient>
<linearGradient id="paint72_linear_2807_4953" x1="509.895" y1="229.809" x2="-7.03065" y2="108.911" gradientUnits="userSpaceOnUse">
<stop stop-color="#06CFE6"/>
<stop offset="1" stop-color="#0343B6"/>
</linearGradient>
<linearGradient id="paint73_linear_2807_4953" x1="510.651" y1="226.667" x2="-5.89897" y2="105.863" gradientUnits="userSpaceOnUse">
<stop stop-color="#06CFE6"/>
<stop offset="1" stop-color="#0343B6"/>
</linearGradient>
<linearGradient id="paint74_linear_2807_4953" x1="511.391" y1="223.534" x2="-4.76889" y2="102.827" gradientUnits="userSpaceOnUse">
<stop stop-color="#06CFE6"/>
<stop offset="1" stop-color="#0343B6"/>
</linearGradient>
<linearGradient id="paint75_linear_2807_4953" x1="512.152" y1="220.397" x2="-3.63234" y2="99.7833" gradientUnits="userSpaceOnUse">
<stop stop-color="#06CFE6"/>
<stop offset="1" stop-color="#0343B6"/>
</linearGradient>
<linearGradient id="paint76_linear_2807_4953" x1="512.899" y1="217.258" x2="-2.50027" y2="96.7402" gradientUnits="userSpaceOnUse">
<stop stop-color="#06CFE6"/>
<stop offset="1" stop-color="#0343B6"/>
</linearGradient>
<linearGradient id="paint77_linear_2807_4953" x1="513.639" y1="214.117" x2="-1.36976" y2="93.697" gradientUnits="userSpaceOnUse">
<stop stop-color="#06CFE6"/>
<stop offset="1" stop-color="#0343B6"/>
</linearGradient>
<linearGradient id="paint78_linear_2807_4953" x1="514.39" y1="210.98" x2="-0.23844" y2="90.6543" gradientUnits="userSpaceOnUse">
<stop stop-color="#06CFE6"/>
<stop offset="1" stop-color="#0343B6"/>
</linearGradient>
<linearGradient id="paint79_linear_2807_4953" x1="515.142" y1="207.841" x2="0.893998" y2="87.6109" gradientUnits="userSpaceOnUse">
<stop stop-color="#06CFE6"/>
<stop offset="1" stop-color="#0343B6"/>
</linearGradient>
<linearGradient id="paint80_linear_2807_4953" x1="515.887" y1="204.703" x2="2.025" y2="84.5681" gradientUnits="userSpaceOnUse">
<stop stop-color="#06CFE6"/>
<stop offset="1" stop-color="#0343B6"/>
</linearGradient>
<linearGradient id="paint81_linear_2807_4953" x1="516.643" y1="201.568" x2="3.15624" y2="81.527" gradientUnits="userSpaceOnUse">
<stop stop-color="#06CFE6"/>
<stop offset="1" stop-color="#0343B6"/>
</linearGradient>
<linearGradient id="paint82_linear_2807_4953" x1="517.384" y1="198.426" x2="4.28762" y2="78.4816" gradientUnits="userSpaceOnUse">
<stop stop-color="#06CFE6"/>
<stop offset="1" stop-color="#0343B6"/>
</linearGradient>
<linearGradient id="paint83_linear_2807_4953" x1="518.134" y1="195.29" x2="5.42332" y2="75.4419" gradientUnits="userSpaceOnUse">
<stop stop-color="#06CFE6"/>
<stop offset="1" stop-color="#0343B6"/>
</linearGradient>
<linearGradient id="paint84_linear_2807_4953" x1="518.896" y1="192.155" x2="6.55527" y2="72.3987" gradientUnits="userSpaceOnUse">
<stop stop-color="#06CFE6"/>
<stop offset="1" stop-color="#0343B6"/>
</linearGradient>
<linearGradient id="paint85_linear_2807_4953" x1="519.637" y1="189.012" x2="7.68662" y2="69.3528" gradientUnits="userSpaceOnUse">
<stop stop-color="#06CFE6"/>
<stop offset="1" stop-color="#0343B6"/>
</linearGradient>
<linearGradient id="paint86_linear_2807_4953" x1="520.392" y1="185.881" x2="8.81726" y2="66.3145" gradientUnits="userSpaceOnUse">
<stop stop-color="#06CFE6"/>
<stop offset="1" stop-color="#0343B6"/>
</linearGradient>
<linearGradient id="paint87_linear_2807_4953" x1="521.134" y1="182.738" x2="9.94936" y2="63.2687" gradientUnits="userSpaceOnUse">
<stop stop-color="#06CFE6"/>
<stop offset="1" stop-color="#0343B6"/>
</linearGradient>
</defs>
</svg>
