<svg width="337" height="213" viewBox="0 0 337 213" fill="none" xmlns="http://www.w3.org/2000/svg">
<rect width="336.75" height="213" rx="14.0921" transform="matrix(-1 0 0 1 337 0)" fill="url(#paint0_linear_991_36316)"/>
<rect x="-0.596001" y="0.596001" width="335.558" height="211.808" rx="13.4961" transform="matrix(-1 0 0 1 335.808 0)" stroke="url(#paint1_linear_991_36316)" stroke-opacity="0.4" stroke-width="1.192"/>
<mask id="mask0_991_36316" style="mask-type:alpha" maskUnits="userSpaceOnUse" x="-1" y="0" width="338" height="213">
<rect width="337" height="213" rx="14.0921" transform="matrix(-1 0 0 1 337 0)" fill="white"/>
</mask>
<g mask="url(#mask0_991_36316)">
<g style="mix-blend-mode:color-dodge" opacity="0.6" filter="url(#filter0_f_991_36316)">
<path opacity="0.6" d="M513.063 -92.9701C481.076 -103.665 434.334 -113.232 390.334 -94.0321C338.422 -71.387 340.251 -30.488 292.283 -13.3144C229.671 9.10544 196.571 -49.8141 131.18 -28.3309C74.998 -9.87202 72.3309 42.5257 24.6166 43.3677C-11.3595 44.0002 -23.9306 14.4651 -66.4857 14.3797C-97.5671 14.3171 -123.011 29.9964 -139.764 43.3971" stroke="url(#paint2_linear_991_36316)" stroke-width="0.483313" stroke-miterlimit="10"/>
<path opacity="0.6" d="M512.82 -94.6975C480.833 -105.392 434.091 -114.959 390.091 -95.7595C338.179 -73.1144 340.007 -32.2154 292.039 -15.0418C229.428 7.37804 196.327 -51.5415 130.937 -30.0583C74.7544 -11.5994 72.0873 40.7983 24.373 41.6403C-11.6031 42.2728 -24.1742 12.7377 -66.7293 12.6523C-97.8107 12.5897 -123.255 28.269 -140.007 41.6697" stroke="url(#paint3_linear_991_36316)" stroke-width="0.483313" stroke-miterlimit="10"/>
<path opacity="0.6" d="M512.578 -96.4252C480.591 -107.12 433.849 -116.687 389.849 -97.4873C337.937 -74.8421 339.765 -33.9431 291.797 -16.7695C229.186 5.65033 196.086 -53.2692 130.695 -31.786C74.5125 -13.3271 71.8454 39.0706 24.131 39.9126C-11.8451 40.5451 -24.4161 11.01 -66.9713 10.9246C-98.0527 10.862 -123.497 26.5413 -140.249 39.942" stroke="url(#paint4_linear_991_36316)" stroke-width="0.483313" stroke-miterlimit="10"/>
<path opacity="0.6" d="M512.335 -98.1523C480.348 -108.847 433.606 -118.414 389.606 -99.2144C337.694 -76.5692 339.523 -35.6702 291.554 -18.4966C228.943 3.9232 195.843 -54.9963 130.452 -33.5131C74.27 -15.0543 71.6029 37.3435 23.8886 38.1854C-12.0876 38.818 -24.6586 9.28288 -67.2138 9.19751C-98.2952 9.13484 -123.74 24.8142 -140.492 38.2148" stroke="url(#paint5_linear_991_36316)" stroke-width="0.483313" stroke-miterlimit="10"/>
<path opacity="0.6" d="M512.092 -99.8803C480.105 -110.575 433.363 -120.142 389.363 -100.942C337.451 -78.2972 339.279 -37.3982 291.311 -20.2245C228.7 2.19525 195.6 -56.7243 130.209 -35.2411C74.0264 -16.7822 71.3593 35.6155 23.645 36.4575C-12.3311 37.09 -24.9021 7.55493 -67.4573 7.46956C-98.5387 7.40689 -123.983 23.0862 -140.735 36.4869" stroke="url(#paint6_linear_991_36316)" stroke-width="0.483313" stroke-miterlimit="10"/>
<path opacity="0.6" d="M511.849 -101.608C479.862 -112.303 433.12 -121.87 389.12 -102.67C337.208 -80.0248 339.037 -39.1259 291.068 -21.9522C228.457 0.467562 195.357 -58.452 129.966 -36.9688C73.7839 -18.5099 71.1168 33.8878 23.4025 34.7298C-12.5737 35.3623 -25.1447 5.82724 -67.6999 5.74186C-98.7813 5.6792 -124.226 21.3585 -140.978 34.7592" stroke="url(#paint7_linear_991_36316)" stroke-width="0.483313" stroke-miterlimit="10"/>
<path opacity="0.6" d="M511.607 -103.335C479.62 -114.03 432.878 -123.597 388.878 -104.397C336.966 -81.7523 338.794 -40.8533 290.826 -23.6797C228.215 -1.25985 195.115 -60.1794 129.724 -38.6962C73.5415 -20.2373 70.8743 32.1604 23.16 33.0024C-12.8161 33.6349 -25.3871 4.09982 -67.9423 4.01445C-99.0237 3.95178 -124.468 19.6311 -141.22 33.0318" stroke="url(#paint8_linear_991_36316)" stroke-width="0.483313" stroke-miterlimit="10"/>
<path opacity="0.6" d="M511.363 -105.063C479.376 -115.758 432.634 -125.325 388.634 -106.125C336.722 -83.4797 338.55 -42.5807 290.582 -25.4071C227.971 -2.98729 194.871 -61.9068 129.48 -40.4236C73.2979 -21.9647 70.6308 30.433 22.9164 31.2749C-13.0597 31.9075 -25.6307 2.37239 -68.1859 2.28702C-99.2673 2.22435 -124.712 17.9037 -141.464 31.3043" stroke="url(#paint9_linear_991_36316)" stroke-width="0.483313" stroke-miterlimit="10"/>
<path opacity="0.6" d="M511.121 -106.79C479.134 -117.485 432.391 -127.052 388.391 -107.852C336.48 -85.207 338.308 -44.308 290.34 -27.1343C227.728 -4.71455 194.628 -63.6341 129.238 -42.1509C73.0552 -23.692 70.3881 28.7057 22.6738 29.5477C-13.3024 30.1802 -25.8734 0.645127 -68.4286 0.559751C-99.51 0.497088 -124.954 16.1764 -141.707 29.5771" stroke="url(#paint10_linear_991_36316)" stroke-width="0.483313" stroke-miterlimit="10"/>
<path opacity="0.6" d="M-137.509 45.6451C-120.403 32.8767 -94.4549 17.8853 -63.0415 17.5422C-20.2242 17.1573 -7.94148 44.9723 28.3476 44.0063C76.456 42.7344 79.7757 -6.9047 136.214 -25.3424C201.406 -46.6714 233.847 9.53855 296.089 -12.2807C343.768 -29.0005 342.242 -68.1608 393.925 -90.193C437.617 -108.867 483.859 -99.8744 515.491 -89.7453" stroke="url(#paint11_linear_991_36316)" stroke-width="0.483313" stroke-miterlimit="10"/>
<path opacity="0.6" d="M-135.252 47.8987C-117.789 35.7672 -91.3401 21.459 -59.583 20.7161C-16.5059 19.848 -4.51262 45.9512 32.0893 44.6518C80.5883 42.9453 84.5641 -3.9306 141.258 -22.339C206.25 -43.5055 238.022 9.99363 299.904 -11.2321C347.29 -27.4946 346.075 -64.923 397.523 -86.3307C440.898 -104.5 486.641 -96.0909 517.925 -86.5181" stroke="url(#paint12_linear_991_36316)" stroke-width="0.483313" stroke-miterlimit="10"/>
<path opacity="0.6" d="M-132.99 50.1484C-115.178 38.6527 -88.2253 24.953 -56.1226 23.8815C-12.7887 22.4379 -1.08531 46.9169 35.8365 45.2934C84.7344 43.1534 89.358 -0.960361 146.307 -19.3476C211.101 -40.3599 242.209 10.4332 303.727 -10.1955C350.819 -26.0006 349.911 -61.6938 401.13 -82.4886C444.177 -100.139 489.428 -92.3032 520.357 -83.2962" stroke="url(#paint13_linear_991_36316)" stroke-width="0.483313" stroke-miterlimit="10"/>
<path opacity="0.6" d="M-130.735 52.3968C-112.569 41.5333 -85.1172 28.4958 -52.6698 27.0454C-9.0805 25.093 2.33789 47.8858 39.5726 45.9288C88.8646 43.3589 94.1409 2.00374 151.342 -16.3588C215.932 -37.2134 246.38 10.8701 307.533 -9.16153C354.332 -24.5094 353.772 -58.3527 404.72 -78.641C447.496 -95.6767 492.208 -88.517 522.785 -80.0709" stroke="url(#paint14_linear_991_36316)" stroke-width="0.483313" stroke-miterlimit="10"/>
<path opacity="0.6" d="M-128.477 54.6493C-109.955 44.4228 -82.0032 32.0475 -49.2099 30.2101C-5.36177 27.7535 5.76818 48.8556 43.3205 46.5616C93.0031 43.5571 98.9355 4.96518 156.388 -13.3728C220.783 -34.0684 250.563 11.3043 311.347 -8.12682C357.852 -23.0174 357.612 -55.0985 408.318 -74.8008C450.784 -91.3022 494.991 -84.7347 525.213 -76.8543" stroke="url(#paint15_linear_991_36316)" stroke-width="0.483313" stroke-miterlimit="10"/>
<path opacity="0.6" d="M-126.22 56.9028C-107.344 47.3086 -78.8887 35.6001 -45.7542 33.3792C-1.65198 30.4219 9.18957 49.8331 47.0629 47.207C97.1397 43.7725 103.725 7.93915 161.433 -10.3776C225.626 -30.9155 254.741 11.751 315.165 -7.08652C361.376 -21.5198 361.452 -51.8433 411.919 -70.9468C454.075 -86.9058 497.777 -80.9468 527.648 -73.6275" stroke="url(#paint16_linear_991_36316)" stroke-width="0.483313" stroke-miterlimit="10"/>
<path opacity="0.6" d="M-123.964 59.1519C-104.732 50.1946 -75.7816 39.1518 -42.3011 36.5439C2.05863 33.0906 12.6129 50.8028 50.7992 47.8432C101.271 43.9706 108.508 10.904 166.471 -7.38344C230.468 -27.7624 258.916 12.1934 318.975 -6.04714C364.893 -20.0312 365.28 -48.5857 415.513 -67.1019C457.36 -82.5266 500.557 -77.1598 530.081 -70.405" stroke="url(#paint17_linear_991_36316)" stroke-width="0.483313" stroke-miterlimit="10"/>
<path opacity="0.6" d="M-121.706 61.404C-102.12 53.0789 -72.6668 42.703 -38.8451 39.7116C5.77227 35.7623 16.0394 51.7755 54.542 48.4871C105.408 44.1846 113.297 13.8766 171.512 -4.38617C235.306 -24.6074 263.093 12.6388 322.788 -5.00464C368.413 -18.5314 369.116 -45.3284 419.106 -63.2504C460.643 -78.1408 503.336 -73.3743 532.503 -67.1771" stroke="url(#paint18_linear_991_36316)" stroke-width="0.483313" stroke-miterlimit="10"/>
<path opacity="0.6" d="M-119.449 63.6578C-99.5088 55.9649 -69.554 46.2641 -35.3898 42.881C9.48041 38.4391 19.4615 52.7452 58.2806 49.128C109.541 44.3955 118.086 16.8508 176.553 -1.3955C240.149 -21.4625 267.272 13.0776 326.602 -3.96885C371.933 -17.0383 372.948 -42.0743 422.708 -59.4045C463.928 -73.7618 506.122 -69.5863 534.94 -63.9582" stroke="url(#paint19_linear_991_36316)" stroke-width="0.483313" stroke-miterlimit="10"/>
<path opacity="0.6" d="M-117.194 65.9066C-96.9017 58.8542 -66.4484 49.8236 -31.9324 46.0419C13.1907 41.1075 22.8893 53.7112 62.0213 49.7605C113.672 44.5934 122.873 19.812 181.592 1.59034C244.988 -18.3142 271.443 13.515 330.412 -2.92962C375.449 -15.5418 376.777 -38.8249 426.297 -55.5562C467.208 -69.3793 508.902 -65.7994 537.362 -60.7288" stroke="url(#paint20_linear_991_36316)" stroke-width="0.483313" stroke-miterlimit="10"/>
<path opacity="0.6" d="M-114.936 68.159C-94.2903 61.7388 -63.3352 53.3834 -28.4732 49.2147C16.911 43.7889 26.3189 54.6889 65.7672 50.4095C117.812 44.8124 127.666 22.7896 186.641 4.58906C249.838 -15.1612 275.628 13.9619 334.233 -1.88576C378.977 -14.0406 380.616 -35.5627 429.901 -51.6987C470.495 -64.9887 511.687 -62.0044 539.801 -57.4984" stroke="url(#paint21_linear_991_36316)" stroke-width="0.483313" stroke-miterlimit="10"/>
<path opacity="0.6" d="M-112.674 70.409C-91.6707 64.6257 -60.2171 56.9406 -25.0127 52.3802C20.6197 46.4654 29.7498 55.6594 69.511 51.0465C121.951 45.0114 132.456 25.7553 191.686 7.58411C254.68 -12.0084 279.811 14.4051 338.051 -0.845489C382.501 -12.543 384.452 -32.3124 433.503 -47.853C473.784 -60.6133 514.479 -58.22 542.233 -54.2763" stroke="url(#paint22_linear_991_36316)" stroke-width="0.483313" stroke-miterlimit="10"/>
<path opacity="0.6" d="M-110.42 72.6572C-89.0632 67.5062 -57.1125 60.4997 -21.561 55.5441C24.3313 49.1461 33.1672 56.6318 73.2495 51.6867C126.084 45.2216 137.242 28.7241 196.723 10.5776C259.517 -8.85256 283.984 14.8467 341.86 0.193151C386.016 -11.0471 388.272 -29.0648 437.096 -44.0007C477.063 -56.2314 517.252 -54.4303 544.663 -51.0463" stroke="url(#paint23_linear_991_36316)" stroke-width="0.483313" stroke-miterlimit="10"/>
<path opacity="0.6" d="M-108.162 74.9107C-86.4519 70.3919 -54.0004 64.0686 -18.1052 58.7132C28.0434 51.8273 36.5933 57.6059 76.9885 52.3273C130.217 45.4322 142.068 31.8161 201.764 13.5679C264.4 -5.57699 288.158 15.2887 345.674 1.22867C389.537 -9.55426 392.105 -25.8192 440.694 -40.1596C480.344 -51.8573 520.04 -50.6507 547.092 -47.8289" stroke="url(#paint24_linear_991_36316)" stroke-width="0.483313" stroke-miterlimit="10"/>
<path opacity="0.6" d="M-105.903 77.1636C-83.8359 73.2818 -50.886 67.6288 -14.6437 61.8782C31.7601 54.5127 40.0217 58.5712 80.738 52.9604C134.357 45.6307 146.864 34.7779 206.812 16.5543C269.248 -2.42814 292.343 15.7232 349.489 2.26378C393.058 -8.06183 395.931 -22.5751 444.289 -36.3155C483.623 -47.4883 522.82 -46.8644 549.521 -44.6119" stroke="url(#paint25_linear_991_36316)" stroke-width="0.483313" stroke-miterlimit="10"/>
<path opacity="0.6" d="M-103.649 79.4119C-81.2284 76.1624 -47.7779 71.1926 -11.1919 65.0422C35.467 57.1969 43.4438 59.5402 84.4765 53.6006C138.49 45.841 151.648 37.7549 211.849 19.5478C274.089 0.724248 296.516 16.1648 353.298 3.30238C396.574 -6.56593 399.756 -19.3311 447.886 -32.4668C486.904 -43.1146 525.603 -43.0817 551.951 -41.382" stroke="url(#paint26_linear_991_36316)" stroke-width="0.483313" stroke-miterlimit="10"/>
<path opacity="0.6" d="M-101.392 81.6654C-78.6176 79.0481 -44.6629 74.7662 -7.7367 68.2112C39.1774 59.8863 46.8694 60.5142 88.215 54.2412C142.624 46.0435 156.437 40.7288 216.893 22.5429C278.934 3.8818 300.698 16.6081 357.115 4.34271C400.102 -5.07177 403.585 -16.09 451.483 -28.6175C490.18 -38.7369 528.385 -39.2903 554.383 -38.1598" stroke="url(#paint27_linear_991_36316)" stroke-width="0.483313" stroke-miterlimit="10"/>
<path opacity="0.6" d="M-99.1335 83.9176C-76.0071 81.9407 -41.5552 78.3373 -4.28069 71.379C42.8886 62.5744 50.2958 61.487 91.9543 54.8805C146.757 46.2528 161.223 43.6968 221.931 25.5355C283.768 7.03209 304.868 17.0523 360.925 5.38045C403.618 -3.57672 407.406 -12.8434 455.08 -24.7695C493.457 -34.3688 531.169 -35.5084 556.81 -34.9355" stroke="url(#paint28_linear_991_36316)" stroke-width="0.483313" stroke-miterlimit="10"/>
<path opacity="0.6" d="M-96.8792 86.1674C-73.3992 84.8227 -38.4431 81.9072 -0.82374 74.5409C46.6042 65.2613 53.7231 62.4539 95.698 55.5186C150.895 46.461 166.016 46.6683 226.977 28.5235C288.62 10.179 309.051 17.4884 364.744 6.41361C407.143 -2.08625 411.233 -9.61413 458.679 -20.9274C496.74 -30.0017 533.952 -31.7242 559.246 -31.7157" stroke="url(#paint29_linear_991_36316)" stroke-width="0.483313" stroke-miterlimit="10"/>
<path opacity="0.6" d="M-94.6169 88.4166C-70.7799 87.7089 -35.3266 85.4719 2.63643 77.7058C50.323 67.9512 57.149 63.4273 99.4414 56.155C155.029 46.6628 170.807 49.6333 232.019 31.5132C293.458 13.3265 313.23 17.9262 368.553 7.45196C410.659 -0.590586 415.055 -6.37502 462.276 -17.0788C500.017 -25.633 536.735 -27.9417 561.673 -28.4908" stroke="url(#paint30_linear_991_36316)" stroke-width="0.483313" stroke-miterlimit="10"/>
<path opacity="0.6" d="M-92.3586 90.6695C-68.168 90.594 -32.2152 89.0484 6.09614 80.879C54.0366 70.6528 60.5755 64.4008 103.188 56.8044C159.174 46.8788 175.6 52.6114 237.063 34.5159C298.304 16.4834 317.411 18.3771 372.37 8.49986C414.182 0.914625 418.88 -3.13108 465.872 -13.222C503.294 -21.2559 539.521 -24.1462 564.108 -25.2563" stroke="url(#paint31_linear_991_36316)" stroke-width="0.483313" stroke-miterlimit="10"/>
<path opacity="0.6" d="M-90.1048 92.9182C-65.5607 93.475 -29.1038 92.6173 9.54779 84.0433C57.7504 73.3468 63.9976 65.37 106.923 57.4403C163.3 47.08 180.381 55.5758 242.105 37.5062C303.146 19.6361 321.585 18.819 376.184 9.53533C417.702 2.4074 422.702 0.100472 469.469 -9.37282C506.567 -16.8912 542.303 -20.3549 566.535 -22.0308" stroke="url(#paint32_linear_991_36316)" stroke-width="0.483313" stroke-miterlimit="10"/>
<path opacity="0.6" d="M-87.8457 95.171C-62.9446 96.3647 -25.9883 96.1984 13.0047 87.2117C61.4613 76.0438 67.4248 66.3435 110.663 58.0803C167.434 47.29 185.168 58.5445 247.143 40.4994C307.986 22.7837 325.76 19.2604 379.994 10.5738C421.219 3.90319 426.526 3.33151 473.064 -5.52887C509.844 -12.5352 545.084 -16.577 568.964 -18.8139" stroke="url(#paint33_linear_991_36316)" stroke-width="0.483313" stroke-miterlimit="10"/>
<path opacity="0.6" d="M-85.5884 97.4244C-60.3337 99.2504 -22.8732 99.772 16.4646 90.3773C65.1833 78.739 70.8552 67.3141 114.41 58.7221C171.575 47.5019 189.962 61.5149 252.192 43.491C314.423 25.4672 329.946 19.7002 383.816 11.6106C424.747 5.39731 430.353 6.5597 476.665 -1.68307C513.122 -8.17386 547.871 -12.7891 571.399 -15.587" stroke="url(#paint34_linear_991_36316)" stroke-width="0.483313" stroke-miterlimit="10"/>
<path opacity="0.6" d="M-83.3342 99.6727C-57.7272 102.139 -19.7625 103.349 19.9167 93.5412C68.8929 81.4361 74.2776 68.2829 118.15 59.354C175.706 47.6992 194.745 64.4708 257.23 46.4763C317.668 29.0678 334.121 20.1335 387.627 12.641C428.264 6.88498 434.173 9.77797 480.264 2.15748C516.402 -3.82125 550.655 -9.01461 573.832 -12.3735" stroke="url(#paint35_linear_991_36316)" stroke-width="0.483313" stroke-miterlimit="10"/>
<path opacity="0.6" d="M-81.0758 101.926C-55.1153 105.025 -16.6476 106.93 23.373 96.7101C72.6101 84.1428 77.6996 69.2603 121.893 59.9991C179.847 47.9109 199.535 67.4446 262.272 49.4747C325.008 31.5048 338.295 20.5836 391.435 13.6881C431.779 8.3894 437.987 13.0164 483.852 6.01357C519.667 0.550361 553.428 -5.21645 576.25 -9.14108" stroke="url(#paint36_linear_991_36316)" stroke-width="0.483313" stroke-miterlimit="10"/>
<path opacity="0.6" d="M-78.8178 104.179C-52.5037 107.91 -13.5284 110.508 26.8289 99.8785C76.3234 86.8444 81.1224 70.2291 125.632 60.6391C183.977 48.1163 204.317 70.4085 267.317 52.4692C327.353 35.3727 342.477 21.0262 395.253 14.7277C435.308 9.88287 441.811 16.2393 487.458 9.86339C522.951 4.90755 556.224 -1.42798 578.694 -5.91364" stroke="url(#paint37_linear_991_36316)" stroke-width="0.483313" stroke-miterlimit="10"/>
<path opacity="0.6" d="M-76.5636 106.428C-49.8925 110.795 -10.4177 114.085 30.281 103.043C80.0411 89.5431 84.5448 71.1984 129.367 61.275C188.107 48.3222 209.068 73.2433 272.351 55.4583C332.152 38.3898 346.651 21.4681 399.059 15.7621C438.82 11.3745 445.628 19.4534 491.043 13.7067C526.214 9.25823 558.991 2.35277 581.109 -2.69392" stroke="url(#paint38_linear_991_36316)" stroke-width="0.483313" stroke-miterlimit="10"/>
<path opacity="0.6" d="M-74.3017 108.677C-47.2771 113.677 -7.29928 117.662 33.7455 106.204C83.7665 92.2422 87.9796 72.1646 133.118 61.9124C192.252 48.5297 213.866 76.2093 277.4 58.449C337.002 41.5429 350.837 21.907 402.881 16.7979C442.348 12.8677 449.456 22.6724 494.653 17.5527C529.498 13.6069 561.79 6.13746 583.553 0.525061" stroke="url(#paint39_linear_991_36316)" stroke-width="0.483313" stroke-miterlimit="10"/>
<path opacity="0.6" d="M-72.0434 110.93C-44.6617 116.567 -4.18097 121.249 37.2017 109.373C87.4836 94.9493 91.4062 73.1388 136.858 62.5532C196.387 48.7324 218.652 79.1788 282.442 61.4397C341.846 44.6878 355.012 22.3493 406.695 17.8338C445.869 14.3609 453.278 25.8833 498.247 21.3976C532.775 17.9557 564.565 9.91976 585.981 3.75103" stroke="url(#paint40_linear_991_36316)" stroke-width="0.483313" stroke-miterlimit="10"/>
<path opacity="0.6" d="M-69.7887 113.179C-42.0535 119.448 -1.06634 124.831 40.6577 112.542C91.2005 97.6562 94.8326 74.1129 140.601 63.1984C200.524 48.9477 223.442 82.1527 287.483 64.4382C346.687 47.8488 359.189 22.7959 410.504 18.881C449.384 15.8653 457.094 29.1056 501.839 25.2585C536.046 22.3157 567.347 13.7192 588.407 6.98476" stroke="url(#paint41_linear_991_36316)" stroke-width="0.483313" stroke-miterlimit="10"/>
<path opacity="0.6" d="M-67.5304 115.432C-39.4463 122.337 2.05201 128.417 44.1139 115.711C94.9212 100.367 98.2557 75.0817 144.34 63.8385C204.654 49.1531 228.228 85.1214 292.529 67.4327C351.529 51.001 363.372 23.2386 414.322 19.9207C452.909 17.3623 460.917 32.3156 505.441 29.1036C539.323 26.6636 570.134 17.5065 590.839 10.2063" stroke="url(#paint42_linear_991_36316)" stroke-width="0.483313" stroke-miterlimit="10"/>
<path opacity="0.6" d="M-65.273 117.685C-36.8319 125.227 5.17402 131.999 47.5738 118.876C98.642 103.07 101.681 76.0555 148.083 64.4753C208.791 49.36 233.018 88.0869 297.57 70.4228C356.372 54.1454 367.546 23.6803 418.136 20.956C456.429 18.855 464.739 35.5178 509.035 32.9479C542.597 30.9989 572.913 21.2847 593.271 13.4282" stroke="url(#paint43_linear_991_36316)" stroke-width="0.483313" stroke-miterlimit="10"/>
<path opacity="0.6" d="M-63.0192 119.933C-34.2245 128.108 8.2879 135.581 51.0256 122.04C102.358 105.777 105.103 77.0244 151.822 65.1155C212.924 49.5702 237.803 91.0557 302.607 73.4163C361.209 57.3013 371.719 24.1219 421.948 21.9993C459.948 20.3556 468.56 38.728 512.635 36.8015C545.873 35.347 575.699 25.0804 595.701 16.6582" stroke="url(#paint44_linear_991_36316)" stroke-width="0.483313" stroke-miterlimit="10"/>
<path opacity="0.6" d="M-60.761 122.187C-31.6128 130.993 11.4061 139.167 54.4817 125.209C106.079 108.489 108.53 77.9986 155.566 65.7528C217.063 49.7694 242.594 94.0217 307.654 76.4034C366.057 60.4427 375.903 24.5572 425.768 23.0316C463.473 21.8453 472.389 41.919 516.234 40.6428C549.156 39.684 578.484 28.8556 598.134 19.8724" stroke="url(#paint45_linear_991_36316)" stroke-width="0.483313" stroke-miterlimit="10"/>
<path opacity="0.6" d="M-58.503 124.439C-28.9977 133.883 14.5276 142.757 57.9376 128.377C109.799 111.199 111.956 78.9714 159.305 66.3921C221.196 49.9788 247.38 96.9896 312.691 79.396C370.892 63.593 380.077 24.998 429.572 24.0729C466.985 23.3438 476.199 45.1225 519.826 44.4942C552.425 44.0218 581.261 32.6492 600.56 23.105" stroke="url(#paint46_linear_991_36316)" stroke-width="0.483313" stroke-miterlimit="10"/>
<path opacity="0.6" d="M-56.2438 126.684C-26.385 136.76 17.6733 146.41 61.3947 131.538C113.553 113.995 115.384 79.9371 163.049 67.0291C225.331 50.1811 252.17 99.9552 317.736 82.3909C375.742 66.7469 384.255 25.4445 433.39 25.113C470.505 24.8366 480.032 48.3178 523.424 48.3433C555.703 48.3619 584.048 36.4369 602.992 26.3269" stroke="url(#paint47_linear_991_36316)" stroke-width="0.483313" stroke-miterlimit="10"/>
<path opacity="0.6" d="M-53.9859 128.938C-23.7701 139.65 20.7889 149.983 64.8551 134.703C117.273 116.677 118.811 80.9028 166.793 67.666C229.469 50.3881 256.961 102.921 322.783 85.3777C380.585 69.8914 388.438 25.8794 437.209 26.145C474.035 26.3223 483.862 51.5003 527.03 52.1854C558.992 52.6869 586.836 40.2165 605.434 29.542" stroke="url(#paint48_linear_991_36316)" stroke-width="0.483313" stroke-miterlimit="10"/>
<path opacity="0.6" d="M-51.7274 131.192C-21.1628 142.54 23.905 153.558 68.3115 137.873C120.988 119.372 122.238 81.8775 170.536 68.3119C233.611 50.6006 261.751 105.895 327.824 88.3769C385.431 73.0495 392.616 26.3268 441.023 27.1894C477.555 27.8241 487.687 54.6953 530.624 56.0388C562.27 57.0278 589.619 44.0085 607.86 32.7765" stroke="url(#paint49_linear_991_36316)" stroke-width="0.483313" stroke-miterlimit="10"/>
<path opacity="0.6" d="M-49.4742 133.439C-18.556 145.42 27.016 157.125 71.7661 141.041C124.701 122.064 125.658 82.8537 174.274 68.9512C237.739 50.8053 266.535 108.863 332.865 91.366C390.269 76.1963 396.794 26.764 444.836 28.2236C481.074 29.3156 491.515 57.8264 534.221 59.8786C565.55 61.3131 592.398 47.7857 610.292 35.9891" stroke="url(#paint50_linear_991_36316)" stroke-width="0.483313" stroke-miterlimit="10"/>
<path opacity="0.6" d="M-47.2157 135.692C-15.9405 148.31 30.1287 160.694 75.2224 144.21C128.416 124.758 129.085 83.8276 178.013 69.5916C241.873 51.0157 271.325 111.837 337.902 94.3597C395.108 79.3443 400.964 27.2093 448.641 29.266C484.586 30.8153 495.333 61.0613 537.81 63.7345C568.824 65.6858 595.176 51.5803 612.719 39.2227" stroke="url(#paint51_linear_991_36316)" stroke-width="0.483313" stroke-miterlimit="10"/>
</g>
<g style="mix-blend-mode:color-dodge" opacity="0.5" filter="url(#filter1_f_991_36316)">
<path d="M-209.328 313.003C-176.009 326.459 -126.925 339.677 -78.8763 322.122C-22.1886 301.419 -21.4597 257.804 30.6763 242.663C98.7279 222.896 130.078 287.711 201.025 269.12C261.98 253.147 268.242 197.596 319.04 199.807C357.342 201.476 368.78 233.705 414.031 236.566C447.082 238.656 475.166 223.638 493.858 210.477" stroke="url(#paint52_linear_991_36316)" stroke-width="0.513365" stroke-miterlimit="10"/>
<path d="M491.608 207.938C472.582 220.404 444.006 234.658 410.576 232.978C365.015 230.6 353.771 200.219 315.115 198.884C263.869 197.105 257.094 249.68 195.867 265.614C125.142 284.053 94.3165 222.163 26.6968 241.315C-25.1022 255.993 -26.0389 297.738 -82.443 317.805C-130.129 334.82 -178.719 322.246 -211.698 309.415" stroke="url(#paint53_linear_991_36316)" stroke-width="0.513365" stroke-miterlimit="10"/>
<path d="M489.354 205.395C469.989 217.16 440.926 230.655 407.104 229.378C361.235 227.497 350.187 198.956 311.176 197.955C259.487 196.612 252.194 246.205 190.699 262.092C120.197 280.371 89.9042 221.407 22.706 239.952C-28.7508 254.162 -29.9057 294.046 -86.0192 313.464C-133.335 329.963 -181.433 318.042 -214.077 305.825" stroke="url(#paint54_linear_991_36316)" stroke-width="0.513365" stroke-miterlimit="10"/>
<path d="M487.095 202.856C467.401 213.922 437.842 226.737 403.631 225.787C357.451 224.501 346.605 197.706 307.233 197.029C255.091 196.122 247.291 242.735 185.524 258.582C115.243 276.71 85.4803 220.668 18.7088 238.601C-32.4058 252.344 -33.7737 290.362 -89.6036 309.143C-136.537 325.112 -184.149 313.833 -216.453 302.24" stroke="url(#paint55_linear_991_36316)" stroke-width="0.513365" stroke-miterlimit="10"/>
<path d="M484.844 200.318C464.815 210.689 434.768 222.767 400.166 222.197C353.682 221.436 343.028 196.453 303.302 196.11C250.713 195.634 242.398 239.272 180.366 255.076C110.311 273.05 81.0734 219.932 14.7287 237.254C-36.0437 250.53 -37.6613 286.558 -93.1693 304.818C-139.774 320.15 -186.857 309.626 -218.823 298.653" stroke="url(#paint56_linear_991_36316)" stroke-width="0.513365" stroke-miterlimit="10"/>
<path d="M482.591 197.775C462.224 207.445 431.689 218.786 396.694 218.605C349.901 218.363 339.444 195.197 299.358 195.192C246.325 195.153 237.493 235.809 175.195 251.571C105.358 269.388 76.6535 219.197 10.7408 235.904C-39.6895 248.713 -41.5318 282.846 -96.7444 300.499C-142.985 315.283 -189.569 305.421 -221.195 295.073" stroke="url(#paint57_linear_991_36316)" stroke-width="0.513365" stroke-miterlimit="10"/>
<path d="M480.336 195.232C459.635 204.206 428.608 214.806 393.225 215.011C346.129 215.285 335.868 193.935 295.419 194.263C241.939 194.655 232.593 232.335 170.024 248.058C100.414 265.721 72.2391 218.45 6.74789 234.55C-43.3402 246.891 -45.4038 279.135 -100.323 296.166C-146.198 310.394 -192.286 301.212 -223.575 291.483" stroke="url(#paint58_linear_991_36316)" stroke-width="0.513365" stroke-miterlimit="10"/>
<path d="M478.086 192.694C457.047 200.968 425.537 210.827 389.761 211.421C342.359 212.206 332.292 192.682 291.488 193.343C237.559 194.176 227.702 228.871 164.863 244.546C95.471 262.053 67.8295 217.708 2.76498 233.197C-46.9827 245.08 -49.2607 275.422 -103.893 291.844C-149.404 305.523 -194.993 297.004 -225.95 287.898" stroke="url(#paint59_linear_991_36316)" stroke-width="0.513365" stroke-miterlimit="10"/>
<path d="M475.831 190.15C454.457 197.729 422.456 206.846 386.292 207.826C338.584 209.121 328.711 191.423 287.55 192.414C233.173 193.678 222.802 225.397 159.698 241.029C90.5318 258.381 63.415 216.962 -1.22276 231.839C-50.6283 243.255 -53.1276 271.707 -107.463 287.513C-152.61 300.644 -197.702 292.796 -228.316 284.307" stroke="url(#paint60_linear_991_36316)" stroke-width="0.513365" stroke-miterlimit="10"/>
<path d="M473.577 187.607C451.869 194.49 419.378 202.857 382.824 204.231C334.815 206.034 325.135 190.17 283.615 191.489C228.791 193.185 217.903 221.922 154.532 237.521C85.5866 254.722 58.9996 216.224 -5.21141 230.49C-54.2747 241.438 -56.9902 267.997 -111.042 283.189C-155.817 295.774 -200.418 288.587 -230.697 280.725" stroke="url(#paint61_linear_991_36316)" stroke-width="0.513365" stroke-miterlimit="10"/>
<path d="M471.327 185.069C449.285 191.248 416.308 198.87 379.354 200.645C331.044 202.955 321.553 188.92 279.679 190.574C224.411 192.706 213.006 218.462 149.368 234.018C80.6465 251.059 54.5928 215.487 -9.1949 229.137C-57.916 239.618 -60.8495 264.293 -114.607 278.863C-159.019 290.9 -203.126 284.379 -233.062 277.134" stroke="url(#paint62_linear_991_36316)" stroke-width="0.513365" stroke-miterlimit="10"/>
<path d="M464.563 177.448C441.515 181.536 407.077 186.908 368.945 189.863C319.721 193.68 310.813 185.144 267.863 187.794C211.252 191.23 198.308 208.048 133.864 223.475C65.8131 240.051 41.3419 213.254 -21.1656 225.07C-68.8602 234.15 -72.437 253.164 -125.336 265.87C-168.641 276.276 -211.264 271.744 -240.194 266.361" stroke="url(#paint63_linear_991_36316)" stroke-width="0.513365" stroke-miterlimit="10"/>
<path d="M462.31 174.906C438.926 178.298 404.001 182.91 365.477 186.269C315.949 190.588 307.234 183.886 263.929 186.87C206.87 190.738 193.377 204.447 128.698 219.967C60.8349 236.25 36.9319 212.513 -25.1541 223.722C-72.5065 232.334 -76.3013 249.464 -128.912 261.552C-171.844 271.411 -213.982 267.544 -242.566 262.782" stroke="url(#paint64_linear_991_36316)" stroke-width="0.513365" stroke-miterlimit="10"/>
<path d="M460.055 172.362C436.333 175.053 400.922 178.92 362.003 182.677C312.172 187.489 303.651 182.635 259.983 185.951C202.481 190.256 188.471 200.984 123.525 216.461C55.8854 232.585 32.5104 211.777 -29.1437 222.371C-76.1539 230.516 -80.158 245.764 -132.484 257.228C-175.045 266.55 -216.69 263.335 -244.939 259.201" stroke="url(#paint65_linear_991_36316)" stroke-width="0.513365" stroke-miterlimit="10"/>
<path d="M457.805 169.824C433.748 171.82 397.849 174.928 358.539 179.087C308.405 184.393 300.075 181.382 256.049 185.027C198.099 189.763 183.577 197.506 118.365 212.95C50.9423 228.917 28.1006 211.036 -33.1267 221.019C-79.7948 228.696 -84.0134 242.065 -136.057 252.901C-178.248 261.685 -219.403 259.131 -247.312 255.608" stroke="url(#paint66_linear_991_36316)" stroke-width="0.513365" stroke-miterlimit="10"/>
<path d="M455.551 167.281C431.16 168.582 394.77 170.925 355.071 175.492C304.634 181.292 296.495 180.123 252.115 184.103C193.716 189.279 178.679 194.032 113.195 209.437C45.9957 225.244 23.6821 210.293 -37.1185 219.664C-83.4496 226.878 -87.8742 238.369 -139.631 248.574C-181.446 256.817 -222.113 254.918 -249.688 252.023" stroke="url(#paint67_linear_991_36316)" stroke-width="0.513365" stroke-miterlimit="10"/>
<path d="M453.297 164.738C428.573 165.334 391.699 166.924 351.603 171.897C300.864 178.19 292.915 178.865 248.18 183.179C189.334 188.786 173.783 190.563 108.034 205.925C41.0609 221.578 19.2771 209.548 -41.102 218.312C-87.0909 225.058 -91.7248 234.667 -143.205 244.246C-184.646 251.957 -224.826 250.714 -252.058 248.435" stroke="url(#paint68_linear_991_36316)" stroke-width="0.513365" stroke-miterlimit="10"/>
<path d="M451.046 162.2C425.987 162.101 388.621 162.926 348.132 168.311C297.087 175.092 289.332 177.614 244.239 182.258C184.946 188.297 168.878 187.092 102.861 202.42C36.1062 217.917 14.8557 208.813 -45.0966 216.966C-90.7433 223.245 -95.585 230.984 -146.782 239.927C-187.852 247.1 -227.54 246.509 -254.44 244.854" stroke="url(#paint69_linear_991_36316)" stroke-width="0.513365" stroke-miterlimit="10"/>
<path d="M448.787 159.66C423.391 158.861 385.54 158.932 344.659 164.72C293.308 171.99 285.753 176.356 240.3 181.337C180.563 187.813 163.978 183.627 97.6954 198.913C31.1666 214.254 10.4407 208.076 -49.0797 215.613C-94.3842 221.425 -99.437 227.291 -150.356 235.6C-191.052 242.241 -230.252 242.306 -256.81 241.266" stroke="url(#paint70_linear_991_36316)" stroke-width="0.513365" stroke-miterlimit="10"/>
<path d="M446.533 157.117C420.802 155.622 382.466 154.926 341.188 161.12C289.536 168.874 282.173 175.098 236.359 180.402C176.169 187.313 159.076 180.148 92.5272 195.391C26.2197 210.581 6.02371 207.324 -53.07 214.25C-98.0323 219.595 -103.293 223.592 -153.928 231.264C-194.25 237.372 -232.967 238.087 -259.187 237.667" stroke="url(#paint71_linear_991_36316)" stroke-width="0.513365" stroke-miterlimit="10"/>
<path d="M444.284 154.579C418.218 152.389 379.39 150.927 337.724 157.53C285.762 165.767 278.597 173.844 232.429 179.483C171.795 186.831 154.185 176.683 87.3618 191.882C21.2772 206.913 1.61449 206.582 -57.0577 212.9C-101.678 217.778 -107.146 219.906 -157.501 226.936C-197.446 232.517 -235.677 233.874 -261.556 234.079" stroke="url(#paint72_linear_991_36316)" stroke-width="0.513365" stroke-miterlimit="10"/>
<path d="M442.029 152.036C415.625 149.145 376.312 146.916 334.256 153.935C281.993 162.658 275.017 172.585 228.494 178.559C167.413 186.338 149.289 173.215 82.2002 188.371C16.3368 203.251 -2.79603 205.84 -61.0415 211.548C-105.319 215.958 -111.001 216.221 -161.072 222.614C-200.645 227.671 -238.387 229.675 -263.929 230.5" stroke="url(#paint73_linear_991_36316)" stroke-width="0.513365" stroke-miterlimit="10"/>
<path d="M439.774 149.492C413.036 145.906 373.231 142.913 330.782 150.343C278.209 159.549 271.431 171.33 224.55 177.632C163.022 185.843 144.384 169.744 77.0241 184.861C9.66465 199.978 -7.22102 205.1 -65.0397 210.197C-108.976 214.14 -114.861 212.539 -164.653 218.29C-203.848 222.819 -241.104 225.466 -266.309 226.91" stroke="url(#paint74_linear_991_36316)" stroke-width="0.513365" stroke-miterlimit="10"/>
<path d="M437.524 146.955C410.453 142.665 370.157 138.907 327.318 146.754C274.441 156.44 267.855 170.077 220.614 176.717C158.642 185.365 139.49 166.289 71.8616 181.358C6.4492 195.938 -11.6325 204.368 -69.0245 208.853C-112.618 212.329 -118.713 208.868 -168.228 213.972C-207.051 217.977 -243.818 221.271 -268.686 223.334" stroke="url(#paint75_linear_991_36316)" stroke-width="0.513365" stroke-miterlimit="10"/>
<path d="M435.271 144.411C407.865 139.426 367.079 134.895 323.85 143.159C270.666 153.319 264.28 168.815 216.676 175.787C154.252 184.87 134.592 162.814 66.6973 177.841C-1.19702 192.868 -16.0405 203.617 -73.0057 207.491C-116.257 210.5 -122.557 205.175 -171.791 209.637C-210.237 213.115 -246.518 217.05 -271.046 219.739" stroke="url(#paint76_linear_991_36316)" stroke-width="0.513365" stroke-miterlimit="10"/>
<path d="M433.016 141.868C405.275 136.188 363.995 130.887 320.381 139.564C266.892 150.204 260.703 167.562 212.74 174.863C149.873 184.383 129.699 159.351 61.5264 174.328C-3.4384 188.602 -20.4604 202.874 -76.9989 206.137C-119.913 208.682 -126.414 201.499 -175.375 205.308C-213.445 208.268 -249.245 212.84 -273.434 216.147" stroke="url(#paint77_linear_991_36316)" stroke-width="0.513365" stroke-miterlimit="10"/>
<path d="M430.765 139.33C402.686 132.948 360.921 126.88 316.916 135.974C263.115 147.091 257.126 166.307 208.809 173.943C145.494 183.894 124.831 156.026 56.3686 170.821C-8.34541 185.08 -24.8705 202.132 -80.9789 204.789C-123.551 206.867 -130.263 197.832 -178.937 200.987C-216.632 203.428 -251.94 208.638 -275.793 212.565" stroke="url(#paint78_linear_991_36316)" stroke-width="0.513365" stroke-miterlimit="10"/>
<path d="M428.507 136.791C400.093 129.715 357.838 122.874 313.439 132.387C259.329 143.979 253.536 165.057 204.862 173.022C141.099 183.405 119.922 152.561 51.1944 167.313C-13.2966 181.412 -29.2937 201.394 -84.9753 203.439C-127.205 205.05 -134.124 194.16 -182.524 196.662C-219.84 198.59 -254.669 204.432 -278.181 208.984" stroke="url(#paint79_linear_991_36316)" stroke-width="0.513365" stroke-miterlimit="10"/>
<path d="M426.253 134.247C397.501 126.47 354.757 118.856 309.971 128.791C255.554 140.858 249.956 163.797 200.927 172.096C136.716 182.919 115.027 149.09 46.0277 163.803C-18.2421 177.752 -33.704 200.651 -88.9642 202.089C-130.852 203.232 -137.978 190.496 -186.095 192.339C-223.04 193.752 -257.374 200.228 -280.552 205.394" stroke="url(#paint80_linear_991_36316)" stroke-width="0.513365" stroke-miterlimit="10"/>
<path d="M424.002 131.709C394.916 123.236 351.679 114.844 306.503 125.196C251.778 137.737 246.376 162.539 196.989 171.167C132.331 182.421 110.128 145.616 40.8631 160.287C-23.1837 174.075 -38.1176 199.905 -92.9458 200.728C-134.492 201.404 -141.826 186.821 -189.662 187.999C-226.234 188.902 -260.083 196.007 -282.921 201.798" stroke="url(#paint81_linear_991_36316)" stroke-width="0.513365" stroke-miterlimit="10"/>
<path d="M421.748 129.166C392.332 119.995 348.597 110.828 303.034 121.602C247.999 134.612 242.8 161.286 193.054 170.243C127.952 181.934 105.232 142.148 35.693 156.774C-28.1273 170.408 -42.5366 199.162 -96.9381 199.373C-138.142 199.582 -145.68 183.158 -193.242 183.676C-229.434 184.065 -262.799 191.798 -285.296 198.213" stroke="url(#paint82_linear_991_36316)" stroke-width="0.513365" stroke-miterlimit="10"/>
<path d="M419.493 126.623C389.74 116.751 345.51 106.815 299.56 118.011C244.217 131.495 239.219 160.027 189.114 169.322C123.564 181.445 100.331 138.682 30.5258 153.266C-33.0734 166.749 -46.9476 198.42 -100.928 198.024C-141.789 197.766 -149.537 179.504 -196.813 179.354C-232.634 179.242 -265.51 187.599 -287.673 194.629" stroke="url(#paint83_linear_991_36316)" stroke-width="0.513365" stroke-miterlimit="10"/>
<path d="M417.244 124.085C387.155 113.517 342.432 102.802 296.096 114.42C240.442 128.374 235.643 158.773 185.18 168.397C119.183 180.951 95.4359 135.212 25.3653 149.753C-38.0108 163.076 -51.357 197.678 -104.914 196.665C-145.433 195.94 -153.391 175.84 -200.39 175.02C-235.833 174.403 -268.223 183.38 -290.046 191.035" stroke="url(#paint84_linear_991_36316)" stroke-width="0.513365" stroke-miterlimit="10"/>
<path d="M414.99 121.542C384.567 110.279 339.352 98.7863 292.629 110.826C236.663 125.249 232.064 157.516 181.241 167.477C114.795 180.472 90.5358 131.748 20.1943 146.249C-42.9607 159.421 -55.777 196.944 -108.907 195.32C-149.084 194.128 -157.254 172.199 -203.965 170.702C-239.04 169.579 -270.937 179.185 -292.423 187.46" stroke="url(#paint85_linear_991_36316)" stroke-width="0.513365" stroke-miterlimit="10"/>
<path d="M412.735 118.999C381.974 107.035 336.266 94.7641 289.16 107.231C232.883 122.124 228.483 156.257 177.305 166.552C110.412 179.979 85.6393 128.279 15.0321 142.738C-47.8965 155.755 -60.1882 196.202 -112.886 193.964C-152.721 192.304 -161.097 168.543 -207.535 166.371C-242.235 164.751 -273.644 174.969 -294.792 183.863" stroke="url(#paint86_linear_991_36316)" stroke-width="0.513365" stroke-miterlimit="10"/>
<path d="M410.48 116.465C379.384 103.806 333.159 90.6748 285.69 103.645C229.074 118.906 224.901 155.007 173.366 165.632C106.029 179.495 80.7386 124.813 9.86221 139.225C-52.8486 152.086 -64.6017 195.456 -116.878 192.61C-156.367 190.488 -164.964 164.896 -211.109 162.044C-245.437 159.923 -276.361 170.76 -297.168 180.278" stroke="url(#paint87_linear_991_36316)" stroke-width="0.513365" stroke-miterlimit="10"/>
<path d="M408.226 113.921C376.792 100.562 330.08 86.6716 282.217 100.053C225.293 115.812 221.319 153.757 169.426 164.71C101.642 179.005 75.8382 121.348 4.69088 135.719C-57.7935 148.426 -69.022 194.721 -120.872 191.264C-160.024 188.678 -168.829 161.262 -214.693 157.723C-248.651 155.109 -279.078 166.558 -299.554 176.7" stroke="url(#paint88_linear_991_36316)" stroke-width="0.513365" stroke-miterlimit="10"/>
<path d="M405.972 111.377C374.209 97.319 327 82.668 278.749 96.4577C221.519 112.704 217.739 152.497 165.488 163.78C97.2512 178.51 70.939 117.873 -0.474094 132.202C-62.7407 144.753 -73.4359 193.974 -124.859 189.905C-163.669 186.852 -172.687 157.615 -218.263 153.391C-251.853 150.28 -281.79 162.345 -301.923 173.103" stroke="url(#paint89_linear_991_36316)" stroke-width="0.513365" stroke-miterlimit="10"/>
<path d="M403.721 108.839C371.623 94.0856 323.923 78.6703 275.281 92.8628C217.745 109.598 214.164 151.235 161.554 162.856C92.8729 178.022 66.0436 114.404 -5.64047 128.694C-67.6807 141.09 -77.8512 193.236 -128.847 188.556C-167.315 185.035 -176.555 154.035 -221.838 149.072C-255.063 145.507 -284.499 158.146 -304.3 169.526" stroke="url(#paint90_linear_991_36316)" stroke-width="0.513365" stroke-miterlimit="10"/>
<path d="M401.468 106.297C369.032 90.8423 320.847 74.673 271.813 89.2684C213.971 106.492 210.585 149.977 157.619 161.932C88.4916 177.53 61.1451 110.93 -10.8013 125.183C-72.6203 137.428 -82.2557 192.491 -132.825 187.2C-170.951 183.213 -180.403 150.347 -225.402 144.739C-258.257 140.645 -287.204 153.93 -306.668 165.93" stroke="url(#paint91_linear_991_36316)" stroke-width="0.513365" stroke-miterlimit="10"/>
</g>
</g>
<defs>
<filter id="filter0_f_991_36316" x="-145.497" y="-122.75" width="761.995" height="278.769" filterUnits="userSpaceOnUse" color-interpolation-filters="sRGB">
<feFlood flood-opacity="0" result="BackgroundImageFix"/>
<feBlend mode="normal" in="SourceGraphic" in2="BackgroundImageFix" result="shape"/>
<feGaussianBlur stdDeviation="1.81978" result="effect1_foregroundBlur_991_36316"/>
</filter>
<filter id="filter1_f_991_36316" x="-310.602" y="79.4967" width="808.408" height="255.116" filterUnits="userSpaceOnUse" color-interpolation-filters="sRGB">
<feFlood flood-opacity="0" result="BackgroundImageFix"/>
<feBlend mode="normal" in="SourceGraphic" in2="BackgroundImageFix" result="shape"/>
<feGaussianBlur stdDeviation="1.8995" result="effect1_foregroundBlur_991_36316"/>
</filter>
<linearGradient id="paint0_linear_991_36316" x1="32.8391" y1="175.013" x2="303.563" y2="169.517" gradientUnits="userSpaceOnUse">
<stop stop-color="#F55B46"/>
<stop offset="1" stop-color="#E42C66"/>
</linearGradient>
<linearGradient id="paint1_linear_991_36316" x1="321.823" y1="-2.25562e-05" x2="-19.7184" y2="154.907" gradientUnits="userSpaceOnUse">
<stop stop-color="white" stop-opacity="0.88"/>
<stop offset="0.515625" stop-color="white" stop-opacity="0"/>
<stop offset="1" stop-color="white"/>
</linearGradient>
<linearGradient id="paint2_linear_991_36316" x1="428.878" y1="-205.514" x2="-53.7016" y2="155.796" gradientUnits="userSpaceOnUse">
<stop stop-color="white"/>
<stop offset="1" stop-color="#676767"/>
</linearGradient>
<linearGradient id="paint3_linear_991_36316" x1="428.634" y1="-207.242" x2="-53.9452" y2="154.068" gradientUnits="userSpaceOnUse">
<stop stop-color="white"/>
<stop offset="1" stop-color="#676767"/>
</linearGradient>
<linearGradient id="paint4_linear_991_36316" x1="428.392" y1="-208.969" x2="-54.1871" y2="152.341" gradientUnits="userSpaceOnUse">
<stop stop-color="white"/>
<stop offset="1" stop-color="#676767"/>
</linearGradient>
<linearGradient id="paint5_linear_991_36316" x1="428.15" y1="-210.696" x2="-54.4296" y2="150.613" gradientUnits="userSpaceOnUse">
<stop stop-color="white"/>
<stop offset="1" stop-color="#676767"/>
</linearGradient>
<linearGradient id="paint6_linear_991_36316" x1="427.906" y1="-212.424" x2="-54.6732" y2="148.886" gradientUnits="userSpaceOnUse">
<stop stop-color="white"/>
<stop offset="1" stop-color="#676767"/>
</linearGradient>
<linearGradient id="paint7_linear_991_36316" x1="427.663" y1="-214.152" x2="-54.9157" y2="147.158" gradientUnits="userSpaceOnUse">
<stop stop-color="white"/>
<stop offset="1" stop-color="#676767"/>
</linearGradient>
<linearGradient id="paint8_linear_991_36316" x1="427.421" y1="-215.879" x2="-55.1582" y2="145.43" gradientUnits="userSpaceOnUse">
<stop stop-color="white"/>
<stop offset="1" stop-color="#676767"/>
</linearGradient>
<linearGradient id="paint9_linear_991_36316" x1="427.177" y1="-217.607" x2="-55.4017" y2="143.703" gradientUnits="userSpaceOnUse">
<stop stop-color="white"/>
<stop offset="1" stop-color="#676767"/>
</linearGradient>
<linearGradient id="paint10_linear_991_36316" x1="426.935" y1="-219.334" x2="-55.6444" y2="141.976" gradientUnits="userSpaceOnUse">
<stop stop-color="white"/>
<stop offset="1" stop-color="#676767"/>
</linearGradient>
<linearGradient id="paint11_linear_991_36316" x1="431.076" y1="-202.597" x2="-51.1532" y2="158.442" gradientUnits="userSpaceOnUse">
<stop stop-color="white"/>
<stop offset="1" stop-color="#676767"/>
</linearGradient>
<linearGradient id="paint12_linear_991_36316" x1="433.244" y1="-199.729" x2="-48.6399" y2="161.042" gradientUnits="userSpaceOnUse">
<stop stop-color="white"/>
<stop offset="1" stop-color="#676767"/>
</linearGradient>
<linearGradient id="paint13_linear_991_36316" x1="435.411" y1="-196.864" x2="-46.1233" y2="163.636" gradientUnits="userSpaceOnUse">
<stop stop-color="white"/>
<stop offset="1" stop-color="#676767"/>
</linearGradient>
<linearGradient id="paint14_linear_991_36316" x1="437.573" y1="-193.998" x2="-43.6127" y2="166.231" gradientUnits="userSpaceOnUse">
<stop stop-color="white"/>
<stop offset="1" stop-color="#676767"/>
</linearGradient>
<linearGradient id="paint15_linear_991_36316" x1="439.737" y1="-191.135" x2="-41.103" y2="168.826" gradientUnits="userSpaceOnUse">
<stop stop-color="white"/>
<stop offset="1" stop-color="#676767"/>
</linearGradient>
<linearGradient id="paint16_linear_991_36316" x1="441.906" y1="-188.267" x2="-38.5894" y2="171.426" gradientUnits="userSpaceOnUse">
<stop stop-color="white"/>
<stop offset="1" stop-color="#676767"/>
</linearGradient>
<linearGradient id="paint17_linear_991_36316" x1="444.072" y1="-185.404" x2="-36.0783" y2="174.021" gradientUnits="userSpaceOnUse">
<stop stop-color="white"/>
<stop offset="1" stop-color="#676767"/>
</linearGradient>
<linearGradient id="paint18_linear_991_36316" x1="446.23" y1="-182.533" x2="-33.566" y2="176.618" gradientUnits="userSpaceOnUse">
<stop stop-color="white"/>
<stop offset="1" stop-color="#676767"/>
</linearGradient>
<linearGradient id="paint19_linear_991_36316" x1="448.401" y1="-179.671" x2="-31.0544" y2="179.216" gradientUnits="userSpaceOnUse">
<stop stop-color="white"/>
<stop offset="1" stop-color="#676767"/>
</linearGradient>
<linearGradient id="paint20_linear_991_36316" x1="450.557" y1="-176.8" x2="-28.5437" y2="181.812" gradientUnits="userSpaceOnUse">
<stop stop-color="white"/>
<stop offset="1" stop-color="#676767"/>
</linearGradient>
<linearGradient id="paint21_linear_991_36316" x1="452.728" y1="-173.931" x2="-26.0281" y2="184.413" gradientUnits="userSpaceOnUse">
<stop stop-color="white"/>
<stop offset="1" stop-color="#676767"/>
</linearGradient>
<linearGradient id="paint22_linear_991_36316" x1="454.895" y1="-171.066" x2="-23.5112" y2="187.008" gradientUnits="userSpaceOnUse">
<stop stop-color="white"/>
<stop offset="1" stop-color="#676767"/>
</linearGradient>
<linearGradient id="paint23_linear_991_36316" x1="457.057" y1="-168.198" x2="-20.9996" y2="189.605" gradientUnits="userSpaceOnUse">
<stop stop-color="white"/>
<stop offset="1" stop-color="#676767"/>
</linearGradient>
<linearGradient id="paint24_linear_991_36316" x1="459.222" y1="-165.334" x2="-18.4891" y2="192.201" gradientUnits="userSpaceOnUse">
<stop stop-color="white"/>
<stop offset="1" stop-color="#676767"/>
</linearGradient>
<linearGradient id="paint25_linear_991_36316" x1="461.388" y1="-162.472" x2="-15.9774" y2="194.797" gradientUnits="userSpaceOnUse">
<stop stop-color="white"/>
<stop offset="1" stop-color="#676767"/>
</linearGradient>
<linearGradient id="paint26_linear_991_36316" x1="463.55" y1="-159.603" x2="-13.4656" y2="197.394" gradientUnits="userSpaceOnUse">
<stop stop-color="white"/>
<stop offset="1" stop-color="#676767"/>
</linearGradient>
<linearGradient id="paint27_linear_991_36316" x1="465.717" y1="-156.738" x2="-10.9538" y2="199.993" gradientUnits="userSpaceOnUse">
<stop stop-color="white"/>
<stop offset="1" stop-color="#676767"/>
</linearGradient>
<linearGradient id="paint28_linear_991_36316" x1="467.879" y1="-153.87" x2="-8.44123" y2="202.59" gradientUnits="userSpaceOnUse">
<stop stop-color="white"/>
<stop offset="1" stop-color="#676767"/>
</linearGradient>
<linearGradient id="paint29_linear_991_36316" x1="470.049" y1="-151.01" x2="-5.93058" y2="205.187" gradientUnits="userSpaceOnUse">
<stop stop-color="white"/>
<stop offset="1" stop-color="#676767"/>
</linearGradient>
<linearGradient id="paint30_linear_991_36316" x1="472.211" y1="-148.141" x2="-3.41376" y2="207.781" gradientUnits="userSpaceOnUse">
<stop stop-color="white"/>
<stop offset="1" stop-color="#676767"/>
</linearGradient>
<linearGradient id="paint31_linear_991_36316" x1="474.377" y1="-145.268" x2="-0.897448" y2="210.383" gradientUnits="userSpaceOnUse">
<stop stop-color="white"/>
<stop offset="1" stop-color="#676767"/>
</linearGradient>
<linearGradient id="paint32_linear_991_36316" x1="476.537" y1="-142.402" x2="1.61264" y2="212.979" gradientUnits="userSpaceOnUse">
<stop stop-color="white"/>
<stop offset="1" stop-color="#676767"/>
</linearGradient>
<linearGradient id="paint33_linear_991_36316" x1="478.704" y1="-139.539" x2="4.12465" y2="215.575" gradientUnits="userSpaceOnUse">
<stop stop-color="white"/>
<stop offset="1" stop-color="#676767"/>
</linearGradient>
<linearGradient id="paint34_linear_991_36316" x1="480.872" y1="-136.672" x2="6.63846" y2="218.176" gradientUnits="userSpaceOnUse">
<stop stop-color="white"/>
<stop offset="1" stop-color="#676767"/>
</linearGradient>
<linearGradient id="paint35_linear_991_36316" x1="483.04" y1="-133.815" x2="9.14738" y2="220.769" gradientUnits="userSpaceOnUse">
<stop stop-color="white"/>
<stop offset="1" stop-color="#676767"/>
</linearGradient>
<linearGradient id="paint36_linear_991_36316" x1="485.193" y1="-130.939" x2="11.6604" y2="223.367" gradientUnits="userSpaceOnUse">
<stop stop-color="white"/>
<stop offset="1" stop-color="#676767"/>
</linearGradient>
<linearGradient id="paint37_linear_991_36316" x1="487.369" y1="-128.073" x2="14.1767" y2="225.97" gradientUnits="userSpaceOnUse">
<stop stop-color="white"/>
<stop offset="1" stop-color="#676767"/>
</linearGradient>
<linearGradient id="paint38_linear_991_36316" x1="489.521" y1="-125.208" x2="16.684" y2="228.562" gradientUnits="userSpaceOnUse">
<stop stop-color="white"/>
<stop offset="1" stop-color="#676767"/>
</linearGradient>
<linearGradient id="paint39_linear_991_36316" x1="491.699" y1="-122.348" x2="19.2025" y2="231.158" gradientUnits="userSpaceOnUse">
<stop stop-color="white"/>
<stop offset="1" stop-color="#676767"/>
</linearGradient>
<linearGradient id="paint40_linear_991_36316" x1="493.861" y1="-119.479" x2="21.7156" y2="233.757" gradientUnits="userSpaceOnUse">
<stop stop-color="white"/>
<stop offset="1" stop-color="#676767"/>
</linearGradient>
<linearGradient id="paint41_linear_991_36316" x1="496.019" y1="-116.606" x2="24.2285" y2="236.356" gradientUnits="userSpaceOnUse">
<stop stop-color="white"/>
<stop offset="1" stop-color="#676767"/>
</linearGradient>
<linearGradient id="paint42_linear_991_36316" x1="498.187" y1="-113.741" x2="26.7418" y2="238.954" gradientUnits="userSpaceOnUse">
<stop stop-color="white"/>
<stop offset="1" stop-color="#676767"/>
</linearGradient>
<linearGradient id="paint43_linear_991_36316" x1="500.353" y1="-110.876" x2="29.2541" y2="241.553" gradientUnits="userSpaceOnUse">
<stop stop-color="white"/>
<stop offset="1" stop-color="#676767"/>
</linearGradient>
<linearGradient id="paint44_linear_991_36316" x1="502.515" y1="-108.008" x2="31.7664" y2="244.151" gradientUnits="userSpaceOnUse">
<stop stop-color="white"/>
<stop offset="1" stop-color="#676767"/>
</linearGradient>
<linearGradient id="paint45_linear_991_36316" x1="504.685" y1="-105.148" x2="34.2779" y2="246.748" gradientUnits="userSpaceOnUse">
<stop stop-color="white"/>
<stop offset="1" stop-color="#676767"/>
</linearGradient>
<linearGradient id="paint46_linear_991_36316" x1="506.845" y1="-102.274" x2="36.7926" y2="249.348" gradientUnits="userSpaceOnUse">
<stop stop-color="white"/>
<stop offset="1" stop-color="#676767"/>
</linearGradient>
<linearGradient id="paint47_linear_991_36316" x1="509.01" y1="-99.4115" x2="39.3086" y2="251.941" gradientUnits="userSpaceOnUse">
<stop stop-color="white"/>
<stop offset="1" stop-color="#676767"/>
</linearGradient>
<linearGradient id="paint48_linear_991_36316" x1="511.186" y1="-96.5532" x2="41.8217" y2="254.54" gradientUnits="userSpaceOnUse">
<stop stop-color="white"/>
<stop offset="1" stop-color="#676767"/>
</linearGradient>
<linearGradient id="paint49_linear_991_36316" x1="513.346" y1="-93.6778" x2="44.3368" y2="257.142" gradientUnits="userSpaceOnUse">
<stop stop-color="white"/>
<stop offset="1" stop-color="#676767"/>
</linearGradient>
<linearGradient id="paint50_linear_991_36316" x1="515.513" y1="-90.8218" x2="46.8453" y2="259.735" gradientUnits="userSpaceOnUse">
<stop stop-color="white"/>
<stop offset="1" stop-color="#676767"/>
</linearGradient>
<linearGradient id="paint51_linear_991_36316" x1="517.673" y1="-87.9473" x2="49.3606" y2="262.336" gradientUnits="userSpaceOnUse">
<stop stop-color="white"/>
<stop offset="1" stop-color="#676767"/>
</linearGradient>
<linearGradient id="paint52_linear_991_36316" x1="-127.153" y1="438.173" x2="409.709" y2="85.3852" gradientUnits="userSpaceOnUse">
<stop stop-color="white"/>
<stop offset="1" stop-color="#424242"/>
</linearGradient>
<linearGradient id="paint53_linear_991_36316" x1="-129.3" y1="434.927" x2="407.172" y2="82.4047" gradientUnits="userSpaceOnUse">
<stop stop-color="white"/>
<stop offset="1" stop-color="#424242"/>
</linearGradient>
<linearGradient id="paint54_linear_991_36316" x1="-131.42" y1="431.736" x2="404.668" y2="79.4759" gradientUnits="userSpaceOnUse">
<stop stop-color="white"/>
<stop offset="1" stop-color="#424242"/>
</linearGradient>
<linearGradient id="paint55_linear_991_36316" x1="-133.537" y1="428.548" x2="402.161" y2="76.5537" gradientUnits="userSpaceOnUse">
<stop stop-color="white"/>
<stop offset="1" stop-color="#424242"/>
</linearGradient>
<linearGradient id="paint56_linear_991_36316" x1="-135.648" y1="425.359" x2="399.661" y2="73.6309" gradientUnits="userSpaceOnUse">
<stop stop-color="white"/>
<stop offset="1" stop-color="#424242"/>
</linearGradient>
<linearGradient id="paint57_linear_991_36316" x1="-137.763" y1="422.173" x2="397.162" y2="70.7072" gradientUnits="userSpaceOnUse">
<stop stop-color="white"/>
<stop offset="1" stop-color="#424242"/>
</linearGradient>
<linearGradient id="paint58_linear_991_36316" x1="-139.882" y1="418.983" x2="394.658" y2="67.779" gradientUnits="userSpaceOnUse">
<stop stop-color="white"/>
<stop offset="1" stop-color="#424242"/>
</linearGradient>
<linearGradient id="paint59_linear_991_36316" x1="-141.997" y1="415.797" x2="392.158" y2="64.8554" gradientUnits="userSpaceOnUse">
<stop stop-color="white"/>
<stop offset="1" stop-color="#424242"/>
</linearGradient>
<linearGradient id="paint60_linear_991_36316" x1="-144.105" y1="412.602" x2="389.656" y2="61.9294" gradientUnits="userSpaceOnUse">
<stop stop-color="white"/>
<stop offset="1" stop-color="#424242"/>
</linearGradient>
<linearGradient id="paint61_linear_991_36316" x1="-146.228" y1="409.417" x2="387.154" y2="59.0032" gradientUnits="userSpaceOnUse">
<stop stop-color="white"/>
<stop offset="1" stop-color="#424242"/>
</linearGradient>
<linearGradient id="paint62_linear_991_36316" x1="-148.333" y1="406.225" x2="384.654" y2="56.0797" gradientUnits="userSpaceOnUse">
<stop stop-color="white"/>
<stop offset="1" stop-color="#424242"/>
</linearGradient>
<linearGradient id="paint63_linear_991_36316" x1="-154.683" y1="396.652" x2="377.14" y2="47.2996" gradientUnits="userSpaceOnUse">
<stop stop-color="white"/>
<stop offset="1" stop-color="#424242"/>
</linearGradient>
<linearGradient id="paint64_linear_991_36316" x1="-156.798" y1="393.467" x2="374.64" y2="44.3765" gradientUnits="userSpaceOnUse">
<stop stop-color="white"/>
<stop offset="1" stop-color="#424242"/>
</linearGradient>
<linearGradient id="paint65_linear_991_36316" x1="-158.915" y1="390.281" x2="372.139" y2="41.4515" gradientUnits="userSpaceOnUse">
<stop stop-color="white"/>
<stop offset="1" stop-color="#424242"/>
</linearGradient>
<linearGradient id="paint66_linear_991_36316" x1="-161.026" y1="387.089" x2="369.637" y2="38.5254" gradientUnits="userSpaceOnUse">
<stop stop-color="white"/>
<stop offset="1" stop-color="#424242"/>
</linearGradient>
<linearGradient id="paint67_linear_991_36316" x1="-163.143" y1="383.901" x2="367.135" y2="35.5989" gradientUnits="userSpaceOnUse">
<stop stop-color="white"/>
<stop offset="1" stop-color="#424242"/>
</linearGradient>
<linearGradient id="paint68_linear_991_36316" x1="-165.255" y1="380.71" x2="364.633" y2="32.6725" gradientUnits="userSpaceOnUse">
<stop stop-color="white"/>
<stop offset="1" stop-color="#424242"/>
</linearGradient>
<linearGradient id="paint69_linear_991_36316" x1="-167.377" y1="377.528" x2="362.132" y2="29.7485" gradientUnits="userSpaceOnUse">
<stop stop-color="white"/>
<stop offset="1" stop-color="#424242"/>
</linearGradient>
<linearGradient id="paint70_linear_991_36316" x1="-169.489" y1="374.337" x2="359.625" y2="26.8258" gradientUnits="userSpaceOnUse">
<stop stop-color="white"/>
<stop offset="1" stop-color="#424242"/>
</linearGradient>
<linearGradient id="paint71_linear_991_36316" x1="-171.604" y1="371.14" x2="357.12" y2="23.894" gradientUnits="userSpaceOnUse">
<stop stop-color="white"/>
<stop offset="1" stop-color="#424242"/>
</linearGradient>
<linearGradient id="paint72_linear_991_36316" x1="-173.714" y1="367.951" x2="354.62" y2="20.9695" gradientUnits="userSpaceOnUse">
<stop stop-color="white"/>
<stop offset="1" stop-color="#424242"/>
</linearGradient>
<linearGradient id="paint73_linear_991_36316" x1="-175.83" y1="364.765" x2="352.119" y2="18.0456" gradientUnits="userSpaceOnUse">
<stop stop-color="white"/>
<stop offset="1" stop-color="#424242"/>
</linearGradient>
<linearGradient id="paint74_linear_991_36316" x1="-177.949" y1="361.574" x2="349.614" y2="15.1161" gradientUnits="userSpaceOnUse">
<stop stop-color="white"/>
<stop offset="1" stop-color="#424242"/>
</linearGradient>
<linearGradient id="paint75_linear_991_36316" x1="-180.068" y1="358.396" x2="347.116" y2="12.195" gradientUnits="userSpaceOnUse">
<stop stop-color="white"/>
<stop offset="1" stop-color="#424242"/>
</linearGradient>
<linearGradient id="paint76_linear_991_36316" x1="-182.169" y1="355.197" x2="344.614" y2="9.26764" gradientUnits="userSpaceOnUse">
<stop stop-color="white"/>
<stop offset="1" stop-color="#424242"/>
</linearGradient>
<linearGradient id="paint77_linear_991_36316" x1="-184.296" y1="352.007" x2="342.107" y2="6.33595" gradientUnits="userSpaceOnUse">
<stop stop-color="white"/>
<stop offset="1" stop-color="#424242"/>
</linearGradient>
<linearGradient id="paint78_linear_991_36316" x1="-186.398" y1="348.819" x2="339.61" y2="3.41601" gradientUnits="userSpaceOnUse">
<stop stop-color="white"/>
<stop offset="1" stop-color="#424242"/>
</linearGradient>
<linearGradient id="paint79_linear_991_36316" x1="-188.527" y1="345.637" x2="337.102" y2="0.491434" gradientUnits="userSpaceOnUse">
<stop stop-color="white"/>
<stop offset="1" stop-color="#424242"/>
</linearGradient>
<linearGradient id="paint80_linear_991_36316" x1="-190.639" y1="342.444" x2="334.599" y2="-2.43678" gradientUnits="userSpaceOnUse">
<stop stop-color="white"/>
<stop offset="1" stop-color="#424242"/>
</linearGradient>
<linearGradient id="paint81_linear_991_36316" x1="-192.746" y1="339.249" x2="332.097" y2="-5.36366" gradientUnits="userSpaceOnUse">
<stop stop-color="white"/>
<stop offset="1" stop-color="#424242"/>
</linearGradient>
<linearGradient id="paint82_linear_991_36316" x1="-194.863" y1="336.062" x2="329.594" y2="-8.29041" gradientUnits="userSpaceOnUse">
<stop stop-color="white"/>
<stop offset="1" stop-color="#424242"/>
</linearGradient>
<linearGradient id="paint83_linear_991_36316" x1="-196.981" y1="332.874" x2="327.091" y2="-11.2174" gradientUnits="userSpaceOnUse">
<stop stop-color="white"/>
<stop offset="1" stop-color="#424242"/>
</linearGradient>
<linearGradient id="paint84_linear_991_36316" x1="-199.093" y1="329.681" x2="324.589" y2="-14.1454" gradientUnits="userSpaceOnUse">
<stop stop-color="white"/>
<stop offset="1" stop-color="#424242"/>
</linearGradient>
<linearGradient id="paint85_linear_991_36316" x1="-201.213" y1="326.5" x2="322.089" y2="-17.0691" gradientUnits="userSpaceOnUse">
<stop stop-color="white"/>
<stop offset="1" stop-color="#424242"/>
</linearGradient>
<linearGradient id="paint86_linear_991_36316" x1="-203.322" y1="323.303" x2="319.584" y2="-19.9991" gradientUnits="userSpaceOnUse">
<stop stop-color="white"/>
<stop offset="1" stop-color="#424242"/>
</linearGradient>
<linearGradient id="paint87_linear_991_36316" x1="-205.438" y1="320.117" x2="317.077" y2="-22.9201" gradientUnits="userSpaceOnUse">
<stop stop-color="white"/>
<stop offset="1" stop-color="#424242"/>
</linearGradient>
<linearGradient id="paint88_linear_991_36316" x1="-207.565" y1="316.936" x2="314.575" y2="-25.8479" gradientUnits="userSpaceOnUse">
<stop stop-color="white"/>
<stop offset="1" stop-color="#424242"/>
</linearGradient>
<linearGradient id="paint89_linear_991_36316" x1="-209.674" y1="313.738" x2="312.07" y2="-28.7783" gradientUnits="userSpaceOnUse">
<stop stop-color="white"/>
<stop offset="1" stop-color="#424242"/>
</linearGradient>
<linearGradient id="paint90_linear_991_36316" x1="-211.793" y1="310.558" x2="309.571" y2="-31.7006" gradientUnits="userSpaceOnUse">
<stop stop-color="white"/>
<stop offset="1" stop-color="#424242"/>
</linearGradient>
<linearGradient id="paint91_linear_991_36316" x1="-213.901" y1="307.361" x2="307.067" y2="-34.6301" gradientUnits="userSpaceOnUse">
<stop stop-color="white"/>
<stop offset="1" stop-color="#424242"/>
</linearGradient>
</defs>
</svg>
