<svg width="1600" height="88" viewBox="0 0 1600 88" fill="none" xmlns="http://www.w3.org/2000/svg">
<g clip-path="url(#clip0_628_53460)">
<g style="mix-blend-mode:color-dodge" opacity="0.8" filter="url(#filter0_f_628_53460)">
<path opacity="0.6" d="M1495.62 -216.622C1441.86 -234.634 1363.3 -250.745 1289.35 -218.411C1202.1 -180.274 1205.17 -111.397 1124.55 -82.4745C1019.33 -44.7174 963.695 -143.944 853.794 -107.764C759.37 -76.6773 754.887 11.5655 674.695 12.9835C614.231 14.0487 593.103 -35.6912 521.581 -35.835C469.343 -35.9405 426.58 -9.53503 398.425 13.033" stroke="url(#paint0_linear_628_53460)" stroke-width="0.624859" stroke-miterlimit="10"/>
<path opacity="0.6" d="M1495.21 -219.531C1441.45 -237.542 1362.89 -253.654 1288.94 -221.32C1201.69 -183.183 1204.76 -114.305 1124.15 -85.3834C1018.92 -47.6263 963.286 -146.853 853.386 -110.673C758.961 -79.5862 754.479 8.65657 674.286 10.0745C613.822 11.1398 592.694 -38.6001 521.173 -38.7439C468.935 -38.8494 426.171 -12.444 398.016 10.124" stroke="url(#paint1_linear_628_53460)" stroke-width="0.624859" stroke-miterlimit="10"/>
<path opacity="0.6" d="M1494.8 -222.441C1441.04 -240.452 1362.48 -256.563 1288.53 -224.229C1201.28 -186.093 1204.36 -117.215 1123.74 -88.2928C1018.51 -50.5357 962.878 -149.762 852.977 -113.582C758.553 -82.4956 754.07 5.74721 673.878 7.16516C613.414 8.23042 592.286 -41.5095 520.764 -41.6533C468.526 -41.7588 425.763 -15.3533 397.608 7.21466" stroke="url(#paint2_linear_628_53460)" stroke-width="0.624859" stroke-miterlimit="10"/>
<path opacity="0.6" d="M1494.39 -225.35C1440.63 -243.361 1362.07 -259.472 1288.12 -227.138C1200.88 -189.001 1203.95 -120.124 1123.33 -91.2017C1018.1 -53.4446 962.469 -152.671 852.568 -116.491C758.144 -85.4044 753.661 2.83833 673.469 4.25628C613.005 5.32154 591.877 -44.4184 520.356 -44.5622C468.118 -44.6677 425.354 -18.2622 397.199 4.30579" stroke="url(#paint3_linear_628_53460)" stroke-width="0.624859" stroke-miterlimit="10"/>
<path opacity="0.6" d="M1493.98 -228.259C1440.22 -246.271 1361.66 -262.382 1287.71 -230.048C1200.47 -191.911 1203.54 -123.034 1122.92 -94.1116C1017.69 -56.3545 962.062 -155.581 852.161 -119.401C757.737 -88.3144 753.254 -0.0715788 673.062 1.34637C612.598 2.41163 591.47 -47.3283 519.948 -47.4721C467.711 -47.5776 424.947 -21.1721 396.792 1.39588" stroke="url(#paint4_linear_628_53460)" stroke-width="0.624859" stroke-miterlimit="10"/>
<path opacity="0.6" d="M1493.57 -231.169C1439.81 -249.18 1361.26 -265.292 1287.31 -232.958C1200.06 -194.821 1203.13 -125.943 1122.51 -97.0212C1017.28 -59.2642 961.653 -158.49 851.753 -122.311C757.328 -91.224 752.846 -2.98125 672.653 -1.5633C612.189 -0.498037 591.061 -50.2379 519.54 -50.3817C467.302 -50.4873 424.538 -24.0818 396.383 -1.51379" stroke="url(#paint5_linear_628_53460)" stroke-width="0.624859" stroke-miterlimit="10"/>
<path opacity="0.6" d="M1493.17 -234.078C1439.41 -252.089 1360.85 -268.201 1286.9 -235.867C1199.65 -197.73 1202.72 -128.852 1122.11 -99.9302C1016.88 -62.1732 961.246 -161.399 851.345 -125.22C756.921 -94.133 752.438 -5.89024 672.246 -4.47229C611.782 -3.40703 590.654 -53.1469 519.132 -53.2907C466.894 -53.3963 424.131 -26.9908 395.976 -4.42279" stroke="url(#paint6_linear_628_53460)" stroke-width="0.624859" stroke-miterlimit="10"/>
<path opacity="0.6" d="M1492.76 -236.987C1439 -254.999 1360.44 -271.11 1286.49 -238.776C1199.24 -200.639 1202.32 -131.762 1121.7 -102.839C1016.47 -65.0824 960.838 -164.309 850.937 -128.129C756.513 -97.0423 752.03 -8.79948 671.838 -7.38153C611.373 -6.31627 590.246 -56.0562 518.724 -56.2C466.486 -56.3055 423.723 -29.9 395.568 -7.33203" stroke="url(#paint7_linear_628_53460)" stroke-width="0.624859" stroke-miterlimit="10"/>
<path opacity="0.6" d="M1492.35 -239.896C1438.59 -257.907 1360.03 -274.019 1286.08 -241.685C1198.84 -203.548 1201.91 -134.67 1121.29 -105.748C1016.06 -67.9913 960.429 -167.218 850.528 -131.038C756.104 -99.9512 751.621 -11.7084 671.429 -10.2905C610.965 -9.22521 589.837 -58.9651 518.316 -59.1089C466.078 -59.2144 423.314 -32.809 395.159 -10.241" stroke="url(#paint8_linear_628_53460)" stroke-width="0.624859" stroke-miterlimit="10"/>
<path opacity="0.6" d="M402.213 16.8197C430.962 -4.68356 474.573 -29.9305 527.369 -30.5083C599.331 -31.1566 619.974 15.6866 680.964 14.0598C761.819 11.9178 767.398 -71.6792 862.253 -102.73C971.82 -138.65 1026.34 -43.9872 1130.95 -80.733C1211.08 -108.891 1208.52 -174.84 1295.38 -211.945C1368.81 -243.393 1446.53 -228.249 1499.69 -211.191" stroke="url(#paint9_linear_628_53460)" stroke-width="0.624859" stroke-miterlimit="10"/>
<path opacity="0.6" d="M406.007 20.6144C435.357 0.183839 479.809 -23.9126 533.183 -25.1637C605.581 -26.6257 625.738 17.3347 687.254 15.1463C768.765 12.2723 775.447 -66.6711 870.731 -97.6726C979.962 -133.319 1033.36 -43.2214 1137.36 -78.9675C1217 -106.355 1214.96 -169.388 1301.43 -205.441C1374.33 -236.04 1451.21 -221.878 1503.79 -205.757" stroke="url(#paint10_linear_628_53460)" stroke-width="0.624859" stroke-miterlimit="10"/>
<path opacity="0.6" d="M409.81 24.4032C439.746 5.04323 485.044 -18.0284 538.998 -19.8329C611.829 -22.2639 631.498 18.961 693.552 16.2268C775.733 12.6229 783.504 -61.6689 879.218 -92.6347C988.116 -128.021 1040.4 -42.4811 1143.79 -77.2217C1222.93 -103.839 1221.41 -163.95 1307.49 -198.97C1379.84 -228.696 1455.89 -215.499 1507.87 -200.33" stroke="url(#paint11_linear_628_53460)" stroke-width="0.624859" stroke-miterlimit="10"/>
<path opacity="0.6" d="M413.6 28.1898C444.13 9.89469 490.268 -12.0617 544.801 -14.5043C618.061 -17.7923 637.252 20.593 699.831 17.2972C782.675 12.9693 791.543 -56.6768 887.679 -87.6012C996.235 -122.722 1047.41 -41.7451 1150.19 -75.4802C1228.84 -101.328 1227.9 -158.323 1313.53 -192.49C1385.42 -221.18 1460.56 -209.122 1511.95 -194.898" stroke="url(#paint12_linear_628_53460)" stroke-width="0.624859" stroke-miterlimit="10"/>
<path opacity="0.6" d="M417.395 31.9842C448.525 14.7617 495.503 -6.07952 550.618 -9.17382C624.312 -13.3109 643.018 22.2269 706.131 18.3637C789.632 13.3038 799.602 -51.6887 896.161 -82.5715C1004.39 -117.425 1054.44 -41.0131 1156.6 -73.7369C1234.76 -98.814 1234.35 -152.842 1319.57 -186.022C1390.95 -213.812 1465.24 -202.752 1516.04 -189.481" stroke="url(#paint13_linear_628_53460)" stroke-width="0.624859" stroke-miterlimit="10"/>
<path opacity="0.6" d="M421.189 35.7783C452.913 19.6206 500.737 -0.0975289 556.425 -3.8377C630.547 -8.81807 648.768 23.8723 712.421 19.4495C796.584 13.6655 807.651 -46.6812 904.64 -77.5284C1012.53 -112.116 1061.46 -40.2616 1163.01 -71.9859C1240.68 -96.2928 1240.81 -147.361 1325.63 -179.533C1396.48 -206.409 1469.93 -196.374 1520.13 -184.047" stroke="url(#paint14_linear_628_53460)" stroke-width="0.624859" stroke-miterlimit="10"/>
<path opacity="0.6" d="M424.978 39.5658C457.302 24.4807 505.958 5.88361 562.228 1.4917C636.782 -4.32402 654.52 25.5051 718.699 20.5208C803.526 13.999 815.688 -41.6883 913.106 -72.4861C1020.66 -106.806 1068.48 -39.5169 1169.42 -70.2357C1246.59 -93.7862 1247.24 -141.875 1331.67 -173.058C1402 -199.034 1474.6 -189.996 1524.22 -178.62" stroke="url(#paint15_linear_628_53460)" stroke-width="0.624859" stroke-miterlimit="10"/>
<path opacity="0.6" d="M428.773 43.3593C461.691 29.339 511.192 11.865 568.035 6.82721C643.023 0.176159 660.278 27.144 724.989 21.606C810.478 14.3602 823.737 -36.6814 921.577 -67.4377C1028.79 -101.492 1075.5 -38.766 1175.82 -68.4793C1252.5 -91.2597 1253.69 -136.388 1337.7 -166.571C1407.51 -191.648 1479.27 -183.62 1528.29 -173.184" stroke="url(#paint16_linear_628_53460)" stroke-width="0.624859" stroke-miterlimit="10"/>
<path opacity="0.6" d="M432.567 47.1546C466.079 34.199 516.424 17.8619 573.843 12.1645C649.255 4.68391 666.03 28.7767 731.272 22.6851C817.424 14.7151 831.786 -31.6728 930.05 -62.4014C1036.93 -96.1961 1082.52 -38.0274 1182.23 -66.7352C1258.42 -88.7454 1260.13 -130.908 1343.76 -160.094C1413.03 -184.273 1483.95 -177.241 1532.38 -167.763" stroke="url(#paint17_linear_628_53460)" stroke-width="0.624859" stroke-miterlimit="10"/>
<path opacity="0.6" d="M436.357 50.9422C470.462 39.0652 521.644 23.8569 579.654 17.4882C655.492 9.17812 671.792 30.4038 737.56 23.7506C824.369 15.0487 839.833 -26.6856 938.52 -57.3726C1045.07 -90.8938 1089.53 -37.2903 1188.64 -64.9847C1264.33 -86.2248 1266.56 -125.436 1349.79 -153.613C1418.55 -176.892 1488.62 -170.863 1536.45 -162.324" stroke="url(#paint18_linear_628_53460)" stroke-width="0.624859" stroke-miterlimit="10"/>
<path opacity="0.6" d="M440.151 54.735C474.85 43.9228 526.876 29.8514 585.467 22.8309C661.743 13.6934 677.555 32.05 743.855 24.8431C831.326 15.4171 847.887 -21.6714 947.004 -52.3229C1053.22 -85.5842 1096.56 -36.5381 1195.06 -63.227C1270.26 -83.697 1273.01 -119.942 1355.85 -147.117C1424.07 -169.498 1493.3 -164.473 1540.55 -156.884" stroke="url(#paint19_linear_628_53460)" stroke-width="0.624859" stroke-miterlimit="10"/>
<path opacity="0.6" d="M443.953 58.5239C479.252 48.7844 532.115 35.8419 591.283 28.1618C667.976 18.2006 683.321 33.6843 750.146 25.9158C838.282 15.752 855.937 -16.6771 955.483 -47.2791C1061.36 -80.2748 1103.59 -35.7919 1201.47 -61.4754C1276.18 -81.1751 1279.46 -114.469 1361.9 -140.64C1429.6 -162.13 1497.99 -158.1 1544.64 -151.458" stroke="url(#paint20_linear_628_53460)" stroke-width="0.624859" stroke-miterlimit="10"/>
<path opacity="0.6" d="M447.743 62.3105C483.636 53.6357 537.335 41.836 597.086 33.4904C674.216 22.7156 689.066 35.3222 756.431 26.9941C845.229 16.1063 863.981 -11.6771 963.95 -42.2376C1069.49 -74.9598 1110.61 -35.048 1207.88 -59.7259C1282.09 -78.6556 1285.88 -108.999 1367.94 -134.153C1435.11 -154.75 1502.66 -151.717 1548.73 -146.018" stroke="url(#paint21_linear_628_53460)" stroke-width="0.624859" stroke-miterlimit="10"/>
<path opacity="0.6" d="M451.537 66.1052C488.025 58.4952 542.565 47.8461 602.893 38.8271C680.454 27.2307 694.824 36.9623 762.715 28.0726C852.175 16.4607 872.092 -6.47014 972.423 -37.2018C1077.69 -69.4437 1117.62 -34.3039 1214.29 -57.9823C1288.01 -76.1418 1292.32 -103.533 1373.99 -127.684C1440.63 -147.384 1507.34 -145.352 1552.81 -140.6" stroke="url(#paint22_linear_628_53460)" stroke-width="0.624859" stroke-miterlimit="10"/>
<path opacity="0.6" d="M455.332 69.8995C492.419 63.3622 547.798 53.8419 608.709 44.1574C686.699 31.7531 700.584 38.5881 769.015 29.1389C859.131 16.7951 880.151 -1.48217 980.904 -32.1724C1085.84 -64.1407 1124.65 -33.572 1220.7 -56.239C1293.92 -73.6284 1298.75 -98.0702 1380.03 -121.21C1446.13 -140.026 1512.01 -138.976 1556.89 -135.182" stroke="url(#paint23_linear_628_53460)" stroke-width="0.624859" stroke-miterlimit="10"/>
<path opacity="0.6" d="M459.122 73.6867C496.803 68.2141 553.023 59.8445 614.512 49.4866C692.931 36.2745 706.337 40.2207 775.3 30.2179C866.079 17.15 888.193 3.53221 989.371 -27.1303C1093.98 -58.8309 1131.67 -32.8275 1227.1 -54.4891C1299.83 -71.1083 1305.18 -92.606 1386.07 -114.728C1451.65 -132.66 1516.69 -132.604 1560.97 -129.742" stroke="url(#paint24_linear_628_53460)" stroke-width="0.624859" stroke-miterlimit="10"/>
<path opacity="0.6" d="M462.915 77.4809C501.191 73.0731 558.258 65.8619 620.319 54.8227C699.166 40.8028 712.094 41.8602 781.582 31.2958C873.026 17.49 896.241 8.5397 997.849 -22.0871C1102.12 -53.5143 1138.7 -32.082 1233.52 -52.7381C1305.76 -68.5929 1311.62 -87.1487 1392.12 -108.246C1457.15 -125.288 1521.37 -126.22 1565.06 -124.316" stroke="url(#paint25_linear_628_53460)" stroke-width="0.624859" stroke-miterlimit="10"/>
<path opacity="0.6" d="M466.711 81.2745C505.579 77.9452 563.481 71.8767 626.128 60.1584C705.404 45.3306 717.853 43.4992 787.867 32.3732C879.973 17.8434 904.285 13.5388 1006.32 -17.0465C1110.24 -48.208 1145.71 -31.3331 1239.92 -50.9895C1311.67 -66.0743 1318.04 -81.6802 1398.16 -101.765C1462.66 -117.931 1526.04 -119.85 1569.14 -118.885" stroke="url(#paint26_linear_628_53460)" stroke-width="0.624859" stroke-miterlimit="10"/>
<path opacity="0.6" d="M470.5 85.0626C509.962 82.7981 568.712 77.8881 631.938 65.4826C711.649 49.8549 723.614 45.1269 794.16 33.4472C886.928 18.1934 912.343 18.5424 1014.8 -12.0152C1118.4 -42.909 1152.74 -30.5993 1246.34 -49.2503C1317.6 -63.5649 1324.47 -76.2426 1404.21 -95.2952C1468.18 -110.577 1530.72 -113.478 1573.24 -113.464" stroke="url(#paint27_linear_628_53460)" stroke-width="0.624859" stroke-miterlimit="10"/>
<path opacity="0.6" d="M474.302 88.8501C514.365 87.6582 573.95 83.8909 637.754 70.8121C717.899 54.3844 729.372 46.7656 800.452 34.5185C893.876 18.5327 920.393 23.5354 1023.27 -6.98072C1126.53 -37.6089 1159.76 -29.8624 1252.74 -47.5021C1323.51 -61.0465 1330.9 -70.788 1410.26 -88.8142C1473.69 -103.22 1535.4 -107.108 1577.31 -108.033" stroke="url(#paint28_linear_628_53460)" stroke-width="0.624859" stroke-miterlimit="10"/>
<path opacity="0.6" d="M478.097 92.6453C518.754 92.5183 579.179 89.9153 643.568 76.1572C724.14 58.9354 735.13 48.4063 806.747 35.6134C900.842 18.8977 928.448 28.5518 1031.75 -1.92274C1134.67 -32.2911 1166.79 -29.102 1259.16 -45.7362C1329.43 -58.5104 1337.32 -65.3238 1416.3 -82.3178C1479.2 -95.8477 1540.08 -100.715 1581.4 -102.585" stroke="url(#paint29_linear_628_53460)" stroke-width="0.624859" stroke-miterlimit="10"/>
<path opacity="0.6" d="M481.886 96.4317C523.137 97.3694 584.409 95.9249 649.37 81.4855C730.383 63.4717 740.883 50.038 813.026 36.6835C907.777 19.2358 936.486 33.5436 1040.22 3.11258C1142.81 -26.9823 1173.8 -28.3584 1265.57 -43.993C1335.35 -55.9971 1343.75 -59.8822 1422.35 -75.8361C1484.7 -88.4978 1544.76 -94.3311 1585.48 -97.1533" stroke="url(#paint30_linear_628_53460)" stroke-width="0.624859" stroke-miterlimit="10"/>
<path opacity="0.6" d="M485.681 100.225C527.532 102.236 589.643 101.956 655.178 86.8213C736.618 68.0134 746.641 51.6772 819.31 37.7611C914.724 19.5893 944.529 38.5429 1048.69 8.15333C1150.95 -21.6817 1180.82 -27.6152 1271.97 -42.2443C1341.25 -53.4783 1350.17 -54.441 1428.39 -69.3628C1490.2 -81.1621 1549.43 -87.9689 1589.57 -91.736" stroke="url(#paint31_linear_628_53460)" stroke-width="0.624859" stroke-miterlimit="10"/>
<path opacity="0.6" d="M489.477 104.02C531.921 107.096 594.88 107.974 660.995 92.1524C742.875 72.5525 752.407 53.3117 825.608 38.842C921.685 19.9462 952.587 43.5454 1057.18 13.1915C1161.77 -17.1624 1187.86 -26.8746 1278.39 -40.4982C1347.19 -50.962 1356.61 -49.0044 1434.44 -62.886C1495.72 -73.8171 1554.12 -81.5896 1593.66 -86.3016" stroke="url(#paint32_linear_628_53460)" stroke-width="0.624859" stroke-miterlimit="10"/>
<path opacity="0.6" d="M493.265 107.807C536.302 111.96 600.108 113.997 666.796 97.4804C749.109 77.0942 758.159 54.9431 831.894 39.9059C928.626 20.2782 960.626 48.5231 1065.64 18.2186C1167.22 -11.099 1194.87 -26.1451 1284.8 -38.7633C1353.1 -48.4569 1363.03 -43.5848 1440.49 -56.4185C1501.23 -66.4872 1558.8 -75.2333 1597.75 -80.8901" stroke="url(#paint33_linear_628_53460)" stroke-width="0.624859" stroke-miterlimit="10"/>
<path opacity="0.6" d="M497.059 111.602C540.69 116.821 605.342 120.03 672.604 102.818C755.355 81.6535 763.909 56.5899 838.184 40.9932C935.587 20.6355 968.675 53.5321 1074.12 23.2691C1179.56 -6.99398 1201.89 -25.3864 1291.2 -36.999C1359 -45.9225 1369.44 -38.1301 1446.52 -49.9237C1506.71 -59.1242 1563.46 -68.8361 1601.81 -75.4455" stroke="url(#paint34_linear_628_53460)" stroke-width="0.624859" stroke-miterlimit="10"/>
<path opacity="0.6" d="M500.854 115.396C545.08 121.679 610.584 126.054 678.412 108.154C761.596 86.203 769.662 58.2211 844.468 42.0707C942.527 20.981 976.712 58.5234 1082.59 28.3118C1183.5 -0.480368 1208.91 -24.6413 1297.61 -35.2484C1364.93 -43.4076 1375.86 -32.7028 1452.58 -43.4404C1512.23 -51.7865 1568.15 -62.4562 1605.92 -70.0105" stroke="url(#paint35_linear_628_53460)" stroke-width="0.624859" stroke-miterlimit="10"/>
<path opacity="0.6" d="M504.643 119.183C549.469 126.539 615.813 132.079 684.215 113.483C767.845 90.7482 775.414 59.8539 850.747 43.1419C949.468 21.3282 984.698 63.2977 1091.06 33.346C1191.56 4.60103 1215.93 -23.8967 1304.01 -33.5062C1370.84 -40.8953 1382.28 -27.2898 1458.61 -36.9677C1517.72 -44.4593 1572.8 -56.0888 1609.98 -64.5879" stroke="url(#paint36_linear_628_53460)" stroke-width="0.624859" stroke-miterlimit="10"/>
<path opacity="0.6" d="M508.445 122.97C553.865 131.391 621.055 138.103 690.038 118.806C774.107 95.293 781.188 61.4804 857.052 44.2147C956.436 21.6769 992.762 68.2922 1099.54 38.3821C1199.71 9.91062 1222.97 -23.1582 1310.43 -31.7623C1376.77 -38.3812 1388.71 -21.8691 1464.67 -30.4911C1523.24 -37.1362 1577.51 -49.7155 1614.09 -59.1673" stroke="url(#paint37_linear_628_53460)" stroke-width="0.624859" stroke-miterlimit="10"/>
<path opacity="0.6" d="M512.24 126.766C558.259 136.259 626.294 144.143 695.845 124.144C780.353 99.8524 786.946 63.1215 863.335 45.2943C963.384 22.0187 1000.81 73.2935 1108.02 43.419C1207.85 15.2073 1229.98 -22.413 1316.84 -30.0175C1382.68 -35.8662 1395.14 -16.4613 1470.71 -24.0157C1528.74 -29.8122 1582.17 -43.3455 1618.17 -53.7342" stroke="url(#paint38_linear_628_53460)" stroke-width="0.624859" stroke-miterlimit="10"/>
<path opacity="0.6" d="M516.03 130.553C562.644 141.111 631.53 150.175 701.655 129.481C786.601 104.411 792.705 64.7617 869.627 46.3808C970.338 22.3811 1008.86 78.3016 1116.49 48.4686C1215.99 20.5305 1237 -21.661 1323.25 -28.2541C1388.59 -33.3327 1401.55 -11.0349 1476.75 -17.5138C1534.24 -22.4696 1586.85 -36.947 1622.24 -48.2885" stroke="url(#paint39_linear_628_53460)" stroke-width="0.624859" stroke-miterlimit="10"/>
<path opacity="0.6" d="M519.824 134.347C567.024 145.976 636.769 156.214 707.462 134.817C792.852 108.977 798.457 66.3935 875.91 47.4589C977.277 22.7273 1016.9 83.3014 1124.97 53.5119C1224.13 25.8394 1244.03 -20.9152 1329.66 -26.5029C1394.51 -30.8113 1407.97 -5.62861 1482.8 -11.0379C1539.75 -15.1471 1591.53 -30.5686 1626.33 -42.8627" stroke="url(#paint40_linear_628_53460)" stroke-width="0.624859" stroke-miterlimit="10"/>
<path opacity="0.6" d="M523.619 138.141C571.419 150.843 642.018 162.248 713.278 140.147C799.107 113.529 804.215 68.0331 882.202 48.531C984.232 23.0753 1024.95 88.2951 1133.44 58.5472C1232.27 31.1344 1251.05 -20.1717 1336.07 -24.7597C1400.43 -28.298 1414.4 -0.236251 1488.84 -4.56416C1545.25 -7.84646 1596.2 -24.2061 1630.42 -37.4372" stroke="url(#paint41_linear_628_53460)" stroke-width="0.624859" stroke-miterlimit="10"/>
<path opacity="0.6" d="M527.409 141.928C575.803 155.694 647.253 168.279 719.081 145.476C805.354 118.087 809.968 69.6651 888.487 49.6094C991.179 23.4296 1032.99 93.2952 1141.91 63.5887C1240.4 36.4495 1258.06 -19.4277 1342.48 -23.0023C1406.35 -25.7705 1420.82 5.17041 1494.9 1.92591C1550.76 -0.523572 1600.89 -17.8135 1634.5 -31.9973" stroke="url(#paint42_linear_628_53460)" stroke-width="0.624859" stroke-miterlimit="10"/>
<path opacity="0.6" d="M531.204 145.723C580.192 160.554 652.493 174.32 724.889 150.813C811.607 122.654 815.727 71.3059 894.779 50.6828C998.136 23.7652 1041.04 98.2902 1150.39 68.6194C1248.55 41.74 1265.09 -18.6946 1348.9 -21.2638C1412.27 -23.2617 1427.26 10.5444 1500.94 8.39502C1556.28 6.78037 1605.57 -11.4556 1638.59 -26.5842" stroke="url(#paint43_linear_628_53460)" stroke-width="0.624859" stroke-miterlimit="10"/>
<path opacity="0.6" d="M534.998 149.516C584.587 165.42 657.739 180.365 730.697 156.148C817.859 127.218 821.485 72.9441 901.063 51.7594C1005.08 24.1178 1049.09 103.289 1158.85 73.6592C1256.67 47.0454 1272.11 -17.9524 1355.29 -19.5102C1418.17 -20.7381 1433.66 15.9393 1506.98 14.8812C1561.77 14.0856 1610.23 -5.06695 1642.67 -21.1404" stroke="url(#paint44_linear_628_53460)" stroke-width="0.624859" stroke-miterlimit="10"/>
<path opacity="0.6" d="M538.794 153.298C588.977 170.266 663.025 186.518 736.507 161.471C824.167 131.927 827.245 74.571 907.355 52.8325C1012.03 24.459 1057.14 108.283 1167.33 78.7034C1264.82 52.3573 1279.13 -17.1999 1361.71 -17.7581C1424.09 -18.2237 1440.1 21.321 1513.03 21.3639C1567.28 21.3952 1614.92 1.31237 1646.76 -15.7138" stroke="url(#paint45_linear_628_53460)" stroke-width="0.624859" stroke-miterlimit="10"/>
<path opacity="0.6" d="M542.589 157.092C593.372 175.133 668.261 192.535 742.323 166.802C830.42 136.443 833.005 76.1965 913.647 53.9044C1018.98 24.8068 1065.19 113.277 1175.82 83.7326C1272.96 57.6521 1286.16 -16.4682 1368.13 -16.021C1430.02 -15.7223 1446.54 26.6798 1519.09 27.8336C1572.81 28.6782 1619.6 7.67677 1650.86 -10.3001" stroke="url(#paint46_linear_628_53460)" stroke-width="0.624859" stroke-miterlimit="10"/>
<path opacity="0.6" d="M546.384 160.889C597.753 180 673.498 198.555 748.131 172.141C836.663 140.982 838.763 77.8389 919.937 54.9932C1025.95 25.1656 1073.24 118.287 1184.29 88.7845C1281.11 62.9717 1293.18 -15.7139 1374.54 -14.2612C1435.94 -13.1923 1452.96 32.0614 1525.13 34.324C1578.32 35.9897 1624.28 14.0638 1654.94 -4.85199" stroke="url(#paint47_linear_628_53460)" stroke-width="0.624859" stroke-miterlimit="10"/>
<path opacity="0.6" d="M550.172 164.673C602.136 184.85 678.728 204.563 753.938 177.475C842.905 145.517 844.513 79.4829 926.22 56.0697C1032.88 25.5102 1081.28 123.286 1192.76 93.8184C1289.24 68.2712 1300.2 -14.9776 1380.95 -12.5194C1441.85 -10.6804 1459.4 37.3345 1531.18 40.7905C1583.83 43.2065 1628.95 20.425 1659.03 0.558481" stroke="url(#paint48_linear_628_53460)" stroke-width="0.624859" stroke-miterlimit="10"/>
<path opacity="0.6" d="M553.967 168.468C606.531 189.717 683.958 210.573 759.746 182.812C849.148 150.054 850.271 81.1228 932.504 57.1481C1039.83 25.8645 1089.33 128.293 1201.23 98.8599C1297.37 73.5725 1307.21 -14.2279 1387.34 -10.7642C1447.75 -8.15503 1465.82 42.7822 1537.21 47.2842C1589.33 50.5704 1633.62 26.8153 1663.1 6.00396" stroke="url(#paint49_linear_628_53460)" stroke-width="0.624859" stroke-miterlimit="10"/>
</g>
<g style="mix-blend-mode:color-dodge" opacity="0.8" filter="url(#filter1_f_628_53460)">
<path opacity="0.6" d="M-499.831 -123.024C-450.523 -151.01 -376.512 -181.887 -297.734 -164.334C-204.793 -143.636 -194.6 -75.4468 -109.931 -62.5213C0.585323 -45.6441 36.1556 -153.697 150.954 -139.263C249.588 -126.861 270.909 -41.1154 349.885 -55.1018C409.431 -65.6511 420.629 -118.519 490.795 -132.376C542.043 -142.497 589.077 -124.782 621.037 -108.032" stroke="url(#paint50_linear_628_53460)" stroke-width="0.624859" stroke-miterlimit="10"/>
<path opacity="0.6" d="M-499.988 -125.957C-450.68 -153.943 -376.668 -184.82 -297.891 -167.267C-204.95 -146.569 -194.757 -78.3801 -110.088 -65.4546C0.428462 -48.5774 35.9987 -156.63 150.798 -142.197C249.431 -129.794 270.752 -44.0487 349.728 -58.0351C409.274 -68.5844 420.472 -121.453 490.638 -135.309C541.886 -145.43 588.92 -127.715 620.88 -110.965" stroke="url(#paint51_linear_628_53460)" stroke-width="0.624859" stroke-miterlimit="10"/>
<path opacity="0.6" d="M-500.145 -128.89C-450.837 -156.877 -376.825 -187.754 -298.048 -170.201C-205.107 -149.503 -194.914 -81.3138 -110.245 -68.3883C0.271541 -51.5111 35.8418 -159.564 150.641 -145.13C249.274 -132.728 270.595 -46.9824 349.571 -60.9687C409.117 -71.5181 420.315 -124.386 490.481 -138.243C541.729 -148.364 588.763 -130.649 620.723 -113.899" stroke="url(#paint52_linear_628_53460)" stroke-width="0.624859" stroke-miterlimit="10"/>
<path opacity="0.6" d="M-500.302 -131.824C-450.993 -159.81 -376.982 -190.687 -298.205 -173.134C-205.264 -152.436 -195.071 -84.2471 -110.402 -71.3216C0.114681 -54.4444 35.6849 -162.497 150.484 -148.064C249.117 -135.661 270.438 -49.9157 349.414 -63.902C408.961 -74.4514 420.158 -127.32 490.324 -141.176C541.573 -151.297 588.606 -133.582 620.567 -116.832" stroke="url(#paint53_linear_628_53460)" stroke-width="0.624859" stroke-miterlimit="10"/>
<path opacity="0.6" d="M-500.46 -134.758C-451.152 -162.744 -377.141 -193.621 -298.363 -176.068C-205.422 -155.37 -195.229 -87.181 -110.56 -74.2555C-0.0437057 -57.3783 35.5266 -165.431 150.325 -150.998C248.959 -138.595 270.28 -52.8496 349.256 -66.836C408.802 -77.3853 420 -130.254 490.166 -144.11C541.414 -154.231 588.448 -136.516 620.408 -119.766" stroke="url(#paint54_linear_628_53460)" stroke-width="0.624859" stroke-miterlimit="10"/>
<path opacity="0.6" d="M-500.617 -137.692C-451.309 -165.678 -377.298 -196.555 -298.52 -179.002C-205.579 -158.304 -195.386 -90.115 -110.717 -77.1896C-0.200719 -60.3124 35.3695 -168.365 150.168 -153.932C248.802 -141.529 270.123 -55.7836 349.099 -69.77C408.645 -80.3193 419.843 -133.188 490.009 -147.044C541.257 -157.165 588.291 -139.45 620.251 -122.7" stroke="url(#paint55_linear_628_53460)" stroke-width="0.624859" stroke-miterlimit="10"/>
<path opacity="0.6" d="M-500.775 -140.625C-451.467 -168.611 -377.455 -199.488 -298.678 -181.935C-205.737 -161.237 -195.544 -93.0482 -110.875 -80.1227C-0.358464 -63.2455 35.2118 -171.298 150.011 -156.865C248.644 -144.462 269.965 -58.7168 348.941 -72.7031C408.487 -83.2525 419.685 -136.121 489.851 -149.977C541.099 -160.098 588.133 -142.383 620.093 -125.633" stroke="url(#paint56_linear_628_53460)" stroke-width="0.624859" stroke-miterlimit="10"/>
<path opacity="0.6" d="M-500.932 -143.558C-451.624 -171.544 -377.613 -202.422 -298.835 -184.869C-205.894 -164.17 -195.701 -95.9817 -111.033 -83.0563C-0.515843 -66.1791 35.0544 -174.232 149.853 -159.798C248.487 -147.396 269.808 -61.6503 348.784 -75.6367C408.33 -86.186 419.527 -139.054 489.694 -152.911C540.942 -163.032 587.976 -145.317 619.936 -128.567" stroke="url(#paint57_linear_628_53460)" stroke-width="0.624859" stroke-miterlimit="10"/>
<path opacity="0.6" d="M-501.089 -146.492C-451.781 -174.478 -377.77 -205.355 -298.992 -187.802C-206.051 -167.104 -195.858 -98.915 -111.189 -85.9895C-0.672704 -69.1123 34.8976 -177.165 149.696 -162.732C248.33 -150.329 269.651 -64.5836 348.627 -78.57C408.173 -89.1193 419.371 -141.988 489.537 -155.844C540.785 -165.965 587.819 -148.25 619.779 -131.5" stroke="url(#paint58_linear_628_53460)" stroke-width="0.624859" stroke-miterlimit="10"/>
<path opacity="0.6" d="M618.046 -103.589C585.706 -119.18 538.063 -135.595 486.136 -126.038C415.386 -112.875 404.108 -62.9421 343.938 -52.8431C264.173 -39.4404 242.666 -120.416 143.618 -132.701C29.196 -146.943 -6.16093 -43.582 -115.875 -59.5856C-199.92 -71.8541 -210.05 -137.072 -302.415 -156.83C-380.515 -173.613 -453.887 -143.847 -502.792 -116.91" stroke="url(#paint59_linear_628_53460)" stroke-width="0.624859" stroke-miterlimit="10"/>
<path opacity="0.6" d="M615.049 -99.1369C582.327 -113.56 534.078 -128.685 481.456 -119.678C410.12 -107.229 398.767 -60.2194 337.973 -50.5707C257.424 -37.7604 235.727 -113.957 136.267 -126.112C22.2277 -140.15 -12.9027 -41.4844 -121.831 -56.623C-205.245 -68.2303 -215.329 -130.485 -307.105 -149.287C-384.519 -165.339 -457.256 -136.697 -505.767 -110.792" stroke="url(#paint60_linear_628_53460)" stroke-width="0.624859" stroke-miterlimit="10"/>
<path opacity="0.6" d="M612.044 -94.6893C578.951 -107.949 530.069 -121.906 476.77 -113.331C404.825 -101.75 393.426 -57.5187 332 -48.3025C250.652 -36.0801 228.779 -107.503 128.904 -119.54C15.2412 -133.387 -19.667 -39.4084 -127.801 -53.6776C-210.583 -64.6237 -220.613 -123.911 -311.814 -141.774C-388.519 -157.074 -460.63 -129.538 -508.738 -104.683" stroke="url(#paint61_linear_628_53460)" stroke-width="0.624859" stroke-miterlimit="10"/>
<path opacity="0.6" d="M609.05 -90.2461C575.579 -102.347 526.086 -115.048 472.096 -106.988C399.566 -96.1666 388.092 -54.8137 326.042 -46.0478C243.906 -34.409 221.847 -101.062 121.565 -112.977C8.28875 -126.629 -26.4059 -37.3417 -133.746 -50.7416C-215.896 -61.0265 -225.903 -117.144 -316.492 -134.258C-392.552 -148.629 -463.991 -122.384 -511.701 -98.5696" stroke="url(#paint62_linear_628_53460)" stroke-width="0.624859" stroke-miterlimit="10"/>
<path opacity="0.6" d="M606.053 -85.7944C572.198 -96.7277 522.096 -108.173 467.41 -100.641C394.29 -90.5697 382.746 -52.1043 320.064 -43.793C237.143 -32.7466 214.894 -94.621 114.205 -106.414C1.30181 -119.866 -33.1664 -35.2749 -139.704 -47.8013C-221.221 -57.4249 -231.187 -110.527 -321.188 -126.75C-396.565 -140.337 -467.361 -115.235 -514.667 -92.4695" stroke="url(#paint63_linear_628_53460)" stroke-width="0.624859" stroke-miterlimit="10"/>
<path opacity="0.6" d="M603.057 -81.3431C568.823 -91.1174 518.106 -101.299 462.734 -94.2905C389.033 -84.9646 377.418 -49.3868 314.099 -41.5212C230.389 -31.0584 207.955 -88.1629 106.85 -99.8387C-5.66697 -113.096 -39.913 -33.1911 -145.665 -44.8524C-226.55 -53.8148 -236.47 -103.91 -325.883 -119.22C-400.572 -132.011 -470.735 -108.077 -517.642 -86.3521" stroke="url(#paint64_linear_628_53460)" stroke-width="0.624859" stroke-miterlimit="10"/>
<path opacity="0.6" d="M600.065 -76.8994C565.448 -85.5059 514.129 -94.4275 458.061 -87.9474C383.775 -79.3583 372.086 -46.6812 308.143 -39.2659C223.639 -29.3999 201.024 -81.7215 99.5088 -93.2666C-12.6355 -106.324 -46.655 -31.115 -151.613 -41.9069C-231.871 -50.2212 -241.731 -97.2924 -330.569 -111.707C-404.576 -123.715 -474.095 -100.922 -520.613 -80.2423" stroke="url(#paint65_linear_628_53460)" stroke-width="0.624859" stroke-miterlimit="10"/>
<path opacity="0.6" d="M597.068 -72.4487C562.072 -79.8962 510.139 -87.5534 453.384 -81.5972C378.513 -73.745 366.749 -43.9686 302.178 -36.9947C216.885 -27.7123 194.085 -75.264 92.1627 -86.6874C-19.5955 -99.5494 -53.4016 -29.0317 -157.565 -38.9543C-237.191 -46.6074 -247.005 -90.6719 -335.251 -104.183C-408.575 -115.407 -477.456 -93.7693 -523.566 -74.1258" stroke="url(#paint66_linear_628_53460)" stroke-width="0.624859" stroke-miterlimit="10"/>
<path opacity="0.6" d="M594.072 -67.9962C558.697 -74.2848 506.154 -80.6645 448.708 -75.2453C373.261 -68.1257 361.417 -41.2632 296.218 -34.7307C210.136 -26.0319 187.146 -68.8049 84.8125 -80.1197C-26.5684 -92.7907 -60.1524 -26.96 -163.522 -36.0134C-242.516 -43.0052 -252.275 -84.0587 -339.95 -96.6655C-412.578 -107.111 -480.829 -86.6103 -526.545 -68.0205" stroke="url(#paint67_linear_628_53460)" stroke-width="0.624859" stroke-miterlimit="10"/>
<path opacity="0.6" d="M591.078 -63.552C555.329 -68.6685 502.18 -73.7796 444.025 -68.9059C368.002 -62.5189 356.074 -38.5613 290.251 -32.4791C203.385 -24.3728 180.205 -62.3671 77.4646 -73.5601C-33.5345 -86.027 -66.8919 -24.8922 -169.471 -33.0673C-247.833 -39.3979 -257.542 -77.4534 -344.629 -89.1476C-416.574 -98.8096 -484.191 -79.455 -529.499 -61.9015" stroke="url(#paint68_linear_628_53460)" stroke-width="0.624859" stroke-miterlimit="10"/>
<path opacity="0.6" d="M588.082 -59.102C551.954 -63.0596 498.195 -66.8932 439.345 -62.5477C362.732 -56.8886 350.734 -35.8406 284.283 -30.1998C196.628 -22.6771 173.262 -55.9016 70.1061 -66.977C-40.5157 -79.2529 -73.6509 -22.8051 -175.436 -30.1109C-253.166 -35.7803 -262.82 -70.8248 -349.327 -81.6105C-420.577 -90.4938 -487.56 -72.2853 -532.478 -55.7766" stroke="url(#paint69_linear_628_53460)" stroke-width="0.624859" stroke-miterlimit="10"/>
<path opacity="0.6" d="M585.077 -54.6544C548.566 -57.4441 494.202 -60.0091 434.66 -56.2006C357.48 -51.2699 345.389 -33.131 278.314 -27.9406C189.865 -21.0146 166.318 -49.4561 62.7517 -60.401C-47.484 -72.4817 -80.4058 -20.725 -181.397 -27.1615C-258.495 -32.1697 -268.098 -64.2163 -354.026 -74.0936C-424.589 -82.2023 -490.942 -65.1309 -535.448 -49.6675" stroke="url(#paint70_linear_628_53460)" stroke-width="0.624859" stroke-miterlimit="10"/>
<path opacity="0.6" d="M582.084 -50.2113C545.193 -51.8421 490.228 -53.1253 429.986 -49.858C352.221 -45.6421 340.064 -30.4218 272.352 -25.677C183.114 -19.3346 159.382 -43.0063 55.409 -53.8294C-54.4449 -65.706 -87.1491 -18.6494 -187.346 -24.2166C-263.812 -28.5636 -273.352 -57.6169 -358.709 -66.5681C-428.585 -73.9022 -494.294 -57.9726 -538.415 -43.5452" stroke="url(#paint71_linear_628_53460)" stroke-width="0.624859" stroke-miterlimit="10"/>
<path opacity="0.6" d="M579.087 -45.7593C541.818 -46.2311 486.248 -46.2238 425.31 -43.5066C346.964 -40.0145 334.728 -27.7079 266.392 -23.4135C176.365 -17.6547 152.42 -36.3406 48.0584 -47.2622C-61.4404 -58.7188 -93.8912 -16.5739 -193.303 -21.276C-269.137 -24.9618 -278.626 -51.0172 -363.404 -59.0599C-432.584 -65.6153 -497.673 -50.8271 -541.382 -37.4449" stroke="url(#paint72_linear_628_53460)" stroke-width="0.624859" stroke-miterlimit="10"/>
<path opacity="0.6" d="M576.091 -41.3079C538.438 -40.6119 482.262 -39.336 420.624 -37.16C341.703 -34.3785 329.386 -25.0077 260.413 -21.159C169.602 -15.9927 145.468 -29.8999 40.6988 -40.6997C-68.4181 -51.9522 -100.651 -14.5074 -199.26 -18.3359C-274.462 -21.3605 -283.888 -44.4226 -368.09 -51.5481C-436.579 -57.3378 -501.033 -43.6736 -544.348 -31.3451" stroke="url(#paint73_linear_628_53460)" stroke-width="0.624859" stroke-miterlimit="10"/>
<path opacity="0.6" d="M573.098 -36.8642C535.066 -35.0092 478.285 -32.4427 415.951 -30.8169C336.454 -28.746 324.053 -22.3021 254.452 -18.8948C162.852 -14.3121 138.536 -23.4364 33.3563 -34.1275C-75.3877 -45.1801 -107.394 -12.4313 -205.209 -15.3904C-279.778 -17.7538 -289.15 -37.8269 -372.782 -44.0262C-440.58 -49.0502 -504.404 -36.5232 -547.315 -25.2222" stroke="url(#paint74_linear_628_53460)" stroke-width="0.624859" stroke-miterlimit="10"/>
<path opacity="0.6" d="M570.103 -32.413C531.692 -29.3991 474.301 -25.5331 411.275 -24.4663C331.203 -23.106 318.717 -19.5891 248.493 -16.6321C156.099 -12.6461 131.598 -16.9786 26.0028 -27.5522C-82.3593 -38.4008 -114.148 -10.3519 -211.169 -12.4418C-285.115 -14.1481 -294.419 -31.2369 -377.471 -36.5058C-444.569 -40.7599 -507.767 -29.3613 -550.284 -19.1139" stroke="url(#paint75_linear_628_53460)" stroke-width="0.624859" stroke-miterlimit="10"/>
<path opacity="0.6" d="M567.105 -27.9619C528.32 -23.7759 470.328 -18.6282 406.597 -18.1158C325.949 -17.4661 313.379 -16.8761 242.531 -14.3694C149.348 -10.967 124.662 -10.5296 18.6597 -20.9815C-89.3162 -31.6349 -120.883 -8.27297 -217.118 -9.49775C-290.432 -10.5429 -299.673 -24.6384 -382.163 -28.9854C-448.565 -32.4827 -511.138 -22.2123 -553.248 -13.0013" stroke="url(#paint76_linear_628_53460)" stroke-width="0.624859" stroke-miterlimit="10"/>
<path opacity="0.6" d="M564.112 -23.5174C524.948 -18.1725 466.347 -11.7253 401.915 -11.7761C320.687 -11.8281 308.038 -14.174 236.561 -12.1087C142.589 -9.28991 117.714 -4.07383 11.2998 -14.4171C-96.3031 -24.8705 -127.644 -6.20451 -223.084 -6.55997C-295.767 -6.94387 -304.944 -18.0681 -386.858 -21.4758C-452.57 -24.2074 -514.507 -15.0611 -556.227 -6.89493" stroke="url(#paint77_linear_628_53460)" stroke-width="0.624859" stroke-miterlimit="10"/>
<path opacity="0.6" d="M561.107 -19.0711C521.559 -12.5583 462.357 -4.82938 397.23 -5.43031C315.421 -6.18408 302.701 -11.4615 230.592 -9.85074C135.835 -7.6244 110.77 2.37039 3.94926 -7.8511C-103.268 -18.1093 -134.395 -4.13451 -229.033 -3.6164C-301.083 -3.33907 -310.201 -11.4831 -391.549 -13.9558C-456.565 -15.9306 -517.877 -7.91253 -559.189 -0.782723" stroke="url(#paint78_linear_628_53460)" stroke-width="0.624859" stroke-miterlimit="10"/>
<path opacity="0.6" d="M558.11 -14.6186C518.184 -6.94686 458.381 2.08577 392.549 0.930477C310.169 -0.520803 297.364 -8.74706 224.623 -7.56891C129.069 -5.93042 103.826 8.83844 -3.40102 -1.26131C-110.241 -11.3286 -141.145 -2.04067 -234.989 -0.653251C-306.407 0.285288 -315.463 -4.88751 -396.235 -6.4209C-460.556 -7.63896 -521.246 -0.740271 -562.16 5.34894" stroke="url(#paint79_linear_628_53460)" stroke-width="0.624859" stroke-miterlimit="10"/>
<path opacity="0.6" d="M555.117 -10.1759C514.812 -1.34519 454.4 8.98693 387.876 7.27263C304.912 5.12848 292.031 -6.0425 218.666 -5.31466C122.327 -4.26865 96.8948 15.2789 -10.7522 5.30555C-117.21 -4.55762 -147.888 0.034427 -240.947 2.28693C-311.733 3.88668 -320.725 1.6852 -400.926 1.09995C-464.547 0.629816 -524.611 6.42215 -565.122 11.4619" stroke="url(#paint80_linear_628_53460)" stroke-width="0.624859" stroke-miterlimit="10"/>
<path opacity="0.6" d="M552.121 -5.72485C511.432 4.27366 450.419 15.9095 383.199 13.6231C299.664 10.7814 286.694 -3.32955 212.705 -3.05201C115.577 -2.58961 89.9596 21.7278 -18.0941 11.8762C-124.175 2.20399 -154.631 2.10909 -246.895 5.23091C-317.049 7.49188 -325.987 8.2574 -405.612 8.61142C-468.543 8.88498 -527.977 13.5622 -568.089 17.5614" stroke="url(#paint81_linear_628_53460)" stroke-width="0.624859" stroke-miterlimit="10"/>
<path opacity="0.6" d="M549.123 -1.27238C508.056 9.88509 446.434 22.8204 378.512 19.9708C294.393 16.4362 281.348 -0.619428 206.731 -0.78333C108.814 -0.904526 83.0106 28.1827 -25.4586 18.4486C-133.928 8.71445 -161.396 4.18556 -252.866 8.17671C-322.388 11.0989 -331.259 14.8269 -410.312 16.129C-472.543 17.1505 -531.351 20.7214 -571.064 23.6799" stroke="url(#paint82_linear_628_53460)" stroke-width="0.624859" stroke-miterlimit="10"/>
<path opacity="0.6" d="M546.132 3.16977C504.69 15.4993 442.458 29.7341 373.841 26.3123C289.146 22.0892 276.016 2.08461 200.766 1.46615C102.065 0.752474 76.0758 34.6095 -32.8044 25.006C-138.117 15.7112 -168.142 6.24696 -258.818 11.1074C-327.708 14.6908 -336.521 21.377 -415.007 23.6361C-476.547 25.4013 -534.724 27.857 -574.039 29.775" stroke="url(#paint83_linear_628_53460)" stroke-width="0.624859" stroke-miterlimit="10"/>
<path opacity="0.6" d="M543.135 7.62264C501.314 21.1111 438.478 36.6584 369.164 32.6646C283.89 27.7617 270.688 4.80355 194.801 3.73942C95.3022 2.43789 69.1367 41.069 -40.1502 31.5873C-149.437 22.1055 -174.879 8.3365 -264.761 14.0663C-333.019 18.3109 -341.765 27.9595 -419.68 31.1667C-480.52 33.6798 -538.071 35.0292 -576.983 35.8977" stroke="url(#paint84_linear_628_53460)" stroke-width="0.624859" stroke-miterlimit="10"/>
<path opacity="0.6" d="M540.138 12.0736C497.938 26.721 434.488 43.5767 364.487 39.015C278.637 33.4234 265.355 7.50754 188.84 6.00198C88.5566 4.10798 62.2055 47.509 -47.5055 38.1625C-152.055 29.2538 -181.635 10.4157 -270.723 17.0148C-338.358 21.9164 -347.032 34.5185 -424.384 38.6917C-484.53 41.9396 -541.459 42.1916 -579.971 42.0195" stroke="url(#paint85_linear_628_53460)" stroke-width="0.624859" stroke-miterlimit="10"/>
<path opacity="0.6" d="M537.146 16.5174C494.563 32.3326 430.512 50.492 359.814 45.3582C273.376 39.0826 260.022 10.2132 182.884 8.25731C81.8109 5.7797 55.2833 53.7261 -54.8435 44.7257C-158.998 35.7879 -188.378 12.4919 -276.667 19.9514C-343.67 25.5142 -352.29 41.0614 -429.058 46.2001C-488.508 50.1828 -544.802 49.3327 -582.916 48.12" stroke="url(#paint86_linear_628_53460)" stroke-width="0.624859" stroke-miterlimit="10"/>
<path opacity="0.6" d="M534.14 20.963C491.178 37.9373 426.523 57.4093 355.12 51.6991C268.102 44.7438 254.668 12.9166 176.901 10.5193C75.0397 7.4581 48.3265 60.1743 -62.2069 51.2957C-165.979 42.562 -195.142 14.5659 -282.637 22.8948C-349.007 29.1189 -357.565 47.6153 -433.77 53.7198C-492.521 58.4285 -548.197 56.4899 -585.909 54.2278" stroke="url(#paint87_linear_628_53460)" stroke-width="0.624859" stroke-miterlimit="10"/>
<path opacity="0.6" d="M531.144 25.416C487.799 43.5581 422.539 64.3426 350.443 58.0515C262.846 50.4164 249.332 15.6315 170.941 12.7838C68.2861 9.12592 41.392 66.6251 -69.557 57.864C-172.952 49.3212 -201.884 16.6425 -288.593 25.8364C-354.332 32.7217 -362.832 54.1543 -438.456 61.2332C-496.521 66.6725 -551.553 63.6361 -588.87 60.3422" stroke="url(#paint88_linear_628_53460)" stroke-width="0.624859" stroke-miterlimit="10"/>
<path opacity="0.6" d="M528.151 29.8595C484.426 49.1605 418.557 71.2665 345.765 64.4033C257.588 56.0885 243.994 18.3457 164.975 15.0566C61.5309 10.8151 34.4513 73.0841 -76.9045 64.4448C-179.918 56.1061 -208.632 18.7272 -294.539 28.7947C-359.645 36.3412 -368.087 60.7101 -443.134 68.7722C-500.509 74.9332 -554.915 70.8124 -591.829 66.469" stroke="url(#paint89_linear_628_53460)" stroke-width="0.624859" stroke-miterlimit="10"/>
<path opacity="0.6" d="M525.155 34.3109C481.061 54.7751 414.573 78.1983 341.089 70.7541C252.328 61.7683 238.662 21.0501 159.015 17.3196C54.7865 12.4856 27.517 79.5333 -84.2585 71.0203C-186.886 62.8769 -215.386 20.8068 -300.499 31.7437C-364.973 39.9514 -373.353 67.2475 -447.833 76.2886C-504.509 83.1756 -558.288 77.9704 -594.798 72.5776" stroke="url(#paint90_linear_628_53460)" stroke-width="0.624859" stroke-miterlimit="10"/>
<path opacity="0.6" d="M522.157 38.7625C477.68 60.3945 410.579 85.1261 336.403 77.1009C247.062 67.4354 233.324 23.7636 153.045 19.5785C48.0272 14.1609 20.5723 85.9784 -91.61 77.5872C-193.86 69.6347 -222.129 22.882 -306.457 34.6839C-370.299 43.5528 -378.625 73.7721 -452.52 83.8006C-508.51 91.3962 -561.654 85.1109 -597.77 78.6864" stroke="url(#paint91_linear_628_53460)" stroke-width="0.624859" stroke-miterlimit="10"/>
<path opacity="0.6" d="M519.165 43.2055C474.308 65.9965 406.598 92.0495 331.73 83.4434C241.805 73.1069 227.991 26.4685 147.084 21.842C41.2771 15.8408 13.6366 92.4282 -98.9524 84.1587C-200.821 76.4104 -228.872 24.9575 -312.41 37.6377C-375.62 47.1678 -383.893 80.3102 -457.215 91.3309C-512.511 99.6393 -565.023 92.2828 -600.737 84.8088" stroke="url(#paint92_linear_628_53460)" stroke-width="0.624859" stroke-miterlimit="10"/>
<path opacity="0.6" d="M516.168 47.6583C470.932 71.6082 402.613 98.9826 327.053 89.7955C236.544 78.7882 222.655 29.1831 141.114 24.1021C34.514 17.5042 6.69256 98.8745 -106.312 90.7226C-207.803 83.1652 -235.632 27.0254 -318.376 40.5748C-380.954 50.7662 -389.178 86.8185 -461.911 98.8397C-516.525 107.866 -568.398 99.4202 -603.712 90.9056" stroke="url(#paint93_linear_628_53460)" stroke-width="0.624859" stroke-miterlimit="10"/>
<path opacity="0.6" d="M513.171 52.1083C467.552 77.2261 398.624 105.922 322.376 96.145C231.284 84.4668 217.318 31.8951 135.154 26.3637C27.7644 19.1822 -0.242663 105.322 -113.654 97.2922C-214.759 89.93 -242.375 29.099 -324.315 43.522C-386.261 54.3746 -394.428 93.3411 -466.592 106.363C-520.517 116.089 -571.754 106.585 -606.669 97.0302" stroke="url(#paint94_linear_628_53460)" stroke-width="0.624859" stroke-miterlimit="10"/>
<path opacity="0.6" d="M510.17 56.5476C464.173 82.8243 394.616 112.974 317.695 102.484C225.995 90.2978 211.977 34.5963 129.185 28.6235C21.0105 20.8495 -7.18638 111.768 -121.009 103.869C-221.74 96.7064 -249.121 31.1838 -330.276 46.4719C-391.586 57.9769 -399.717 99.8581 -471.283 113.885C-524.521 124.319 -575.127 113.744 -609.64 103.14" stroke="url(#paint95_linear_628_53460)" stroke-width="0.624859" stroke-miterlimit="10"/>
<path opacity="0.6" d="M507.173 60.9988C460.792 88.4434 390.63 119.884 313.009 108.83C220.725 95.9293 206.635 37.2962 123.215 30.882C14.2518 22.5244 -14.1306 118.213 -128.368 110.431C-228.714 103.464 -255.881 33.2502 -336.242 49.4076C-396.929 61.5695 -405.007 106.352 -475.991 121.397C-528.549 132.527 -578.506 120.889 -612.629 109.24" stroke="url(#paint96_linear_628_53460)" stroke-width="0.624859" stroke-miterlimit="10"/>
<path opacity="0.6" d="M504.177 65.4531C457.426 94.0608 386.646 126.796 308.332 115.184C215.468 101.581 201.298 40.0124 117.25 33.1568C7.48947 24.2113 -21.0697 124.674 -135.714 117.014C-235.687 110.247 -262.628 35.337 -342.194 52.3637C-402.249 65.1868 -410.283 112.866 -480.673 128.925C-532.554 140.759 -581.87 128.055 -615.586 115.369" stroke="url(#paint97_linear_628_53460)" stroke-width="0.624859" stroke-miterlimit="10"/>
<path opacity="0.6" d="M501.185 69.8942C454.055 99.6608 382.665 133.696 303.656 121.533C210.212 107.229 195.971 42.7285 111.29 35.4183C0.744517 25.8804 -28.0044 131.122 -143.064 123.579C-242.651 117.007 -269.378 37.4062 -348.151 55.3023C-407.573 68.7866 -415.587 119.275 -485.368 136.431C-536.582 148.899 -585.235 135.193 -618.561 121.463" stroke="url(#paint98_linear_628_53460)" stroke-width="0.624859" stroke-miterlimit="10"/>
<path opacity="0.6" d="M498.188 74.3461C450.675 105.281 378.684 140.597 298.979 127.885C204.955 112.878 190.634 45.4422 105.329 37.6817C-6.00525 27.5602 -34.9439 137.58 -150.406 130.15C-249.616 123.769 -276.112 39.4859 -354.091 58.2512C-412.881 72.3968 -420.84 125.852 -490.041 143.961C-540.568 157.181 -588.591 142.36 -621.518 127.589" stroke="url(#paint99_linear_628_53460)" stroke-width="0.624859" stroke-miterlimit="10"/>
</g>
</g>
<defs>
<filter id="filter0_f_628_53460" x="390.258" y="-265.255" width="1277.73" height="466.438" filterUnits="userSpaceOnUse" color-interpolation-filters="sRGB">
<feFlood flood-opacity="0" result="BackgroundImageFix"/>
<feBlend mode="normal" in="SourceGraphic" in2="BackgroundImageFix" result="shape"/>
<feGaussianBlur stdDeviation="2.35273" result="effect1_foregroundBlur_628_53460"/>
</filter>
<filter id="filter1_f_628_53460" x="-626.351" y="-197.952" width="1252.24" height="352.06" filterUnits="userSpaceOnUse" color-interpolation-filters="sRGB">
<feFlood flood-opacity="0" result="BackgroundImageFix"/>
<feBlend mode="normal" in="SourceGraphic" in2="BackgroundImageFix" result="shape"/>
<feGaussianBlur stdDeviation="2.35273" result="effect1_foregroundBlur_628_53460"/>
</filter>
<linearGradient id="paint0_linear_628_53460" x1="1354.13" y1="-406.157" x2="541.884" y2="200.739" gradientUnits="userSpaceOnUse">
<stop stop-color="white"/>
<stop offset="1" stop-color="#676767"/>
</linearGradient>
<linearGradient id="paint1_linear_628_53460" x1="1353.72" y1="-409.066" x2="541.475" y2="197.83" gradientUnits="userSpaceOnUse">
<stop stop-color="white"/>
<stop offset="1" stop-color="#676767"/>
</linearGradient>
<linearGradient id="paint2_linear_628_53460" x1="1353.31" y1="-411.976" x2="541.067" y2="194.921" gradientUnits="userSpaceOnUse">
<stop stop-color="white"/>
<stop offset="1" stop-color="#676767"/>
</linearGradient>
<linearGradient id="paint3_linear_628_53460" x1="1352.9" y1="-414.884" x2="540.658" y2="192.012" gradientUnits="userSpaceOnUse">
<stop stop-color="white"/>
<stop offset="1" stop-color="#676767"/>
</linearGradient>
<linearGradient id="paint4_linear_628_53460" x1="1352.49" y1="-417.794" x2="540.251" y2="189.102" gradientUnits="userSpaceOnUse">
<stop stop-color="white"/>
<stop offset="1" stop-color="#676767"/>
</linearGradient>
<linearGradient id="paint5_linear_628_53460" x1="1352.09" y1="-420.704" x2="539.842" y2="186.192" gradientUnits="userSpaceOnUse">
<stop stop-color="white"/>
<stop offset="1" stop-color="#676767"/>
</linearGradient>
<linearGradient id="paint6_linear_628_53460" x1="1351.68" y1="-423.613" x2="539.435" y2="183.283" gradientUnits="userSpaceOnUse">
<stop stop-color="white"/>
<stop offset="1" stop-color="#676767"/>
</linearGradient>
<linearGradient id="paint7_linear_628_53460" x1="1351.27" y1="-426.522" x2="539.027" y2="180.374" gradientUnits="userSpaceOnUse">
<stop stop-color="white"/>
<stop offset="1" stop-color="#676767"/>
</linearGradient>
<linearGradient id="paint8_linear_628_53460" x1="1350.86" y1="-429.431" x2="538.618" y2="177.465" gradientUnits="userSpaceOnUse">
<stop stop-color="white"/>
<stop offset="1" stop-color="#676767"/>
</linearGradient>
<linearGradient id="paint9_linear_628_53460" x1="1357.82" y1="-401.245" x2="546.167" y2="205.197" gradientUnits="userSpaceOnUse">
<stop stop-color="white"/>
<stop offset="1" stop-color="#676767"/>
</linearGradient>
<linearGradient id="paint10_linear_628_53460" x1="1361.47" y1="-396.414" x2="550.393" y2="209.577" gradientUnits="userSpaceOnUse">
<stop stop-color="white"/>
<stop offset="1" stop-color="#676767"/>
</linearGradient>
<linearGradient id="paint11_linear_628_53460" x1="1365.11" y1="-391.589" x2="554.623" y2="213.947" gradientUnits="userSpaceOnUse">
<stop stop-color="white"/>
<stop offset="1" stop-color="#676767"/>
</linearGradient>
<linearGradient id="paint12_linear_628_53460" x1="1368.74" y1="-386.762" x2="558.843" y2="218.318" gradientUnits="userSpaceOnUse">
<stop stop-color="white"/>
<stop offset="1" stop-color="#676767"/>
</linearGradient>
<linearGradient id="paint13_linear_628_53460" x1="1372.38" y1="-381.941" x2="563.064" y2="222.69" gradientUnits="userSpaceOnUse">
<stop stop-color="white"/>
<stop offset="1" stop-color="#676767"/>
</linearGradient>
<linearGradient id="paint14_linear_628_53460" x1="1376.02" y1="-377.112" x2="567.289" y2="227.069" gradientUnits="userSpaceOnUse">
<stop stop-color="white"/>
<stop offset="1" stop-color="#676767"/>
</linearGradient>
<linearGradient id="paint15_linear_628_53460" x1="1379.66" y1="-372.29" x2="571.509" y2="231.441" gradientUnits="userSpaceOnUse">
<stop stop-color="white"/>
<stop offset="1" stop-color="#676767"/>
</linearGradient>
<linearGradient id="paint16_linear_628_53460" x1="1383.29" y1="-367.454" x2="575.731" y2="235.816" gradientUnits="userSpaceOnUse">
<stop stop-color="white"/>
<stop offset="1" stop-color="#676767"/>
</linearGradient>
<linearGradient id="paint17_linear_628_53460" x1="1386.94" y1="-362.634" x2="579.954" y2="240.192" gradientUnits="userSpaceOnUse">
<stop stop-color="white"/>
<stop offset="1" stop-color="#676767"/>
</linearGradient>
<linearGradient id="paint18_linear_628_53460" x1="1390.56" y1="-357.8" x2="584.175" y2="244.565" gradientUnits="userSpaceOnUse">
<stop stop-color="white"/>
<stop offset="1" stop-color="#676767"/>
</linearGradient>
<linearGradient id="paint19_linear_628_53460" x1="1394.21" y1="-352.969" x2="588.403" y2="248.947" gradientUnits="userSpaceOnUse">
<stop stop-color="white"/>
<stop offset="1" stop-color="#676767"/>
</linearGradient>
<linearGradient id="paint20_linear_628_53460" x1="1397.85" y1="-348.143" x2="592.633" y2="253.317" gradientUnits="userSpaceOnUse">
<stop stop-color="white"/>
<stop offset="1" stop-color="#676767"/>
</linearGradient>
<linearGradient id="paint21_linear_628_53460" x1="1401.49" y1="-343.312" x2="596.857" y2="257.693" gradientUnits="userSpaceOnUse">
<stop stop-color="white"/>
<stop offset="1" stop-color="#676767"/>
</linearGradient>
<linearGradient id="paint22_linear_628_53460" x1="1405.13" y1="-338.491" x2="601.077" y2="262.066" gradientUnits="userSpaceOnUse">
<stop stop-color="white"/>
<stop offset="1" stop-color="#676767"/>
</linearGradient>
<linearGradient id="paint23_linear_628_53460" x1="1408.76" y1="-333.67" x2="605.297" y2="266.438" gradientUnits="userSpaceOnUse">
<stop stop-color="white"/>
<stop offset="1" stop-color="#676767"/>
</linearGradient>
<linearGradient id="paint24_linear_628_53460" x1="1412.4" y1="-328.838" x2="609.521" y2="270.815" gradientUnits="userSpaceOnUse">
<stop stop-color="white"/>
<stop offset="1" stop-color="#676767"/>
</linearGradient>
<linearGradient id="paint25_linear_628_53460" x1="1416.04" y1="-324.013" x2="613.743" y2="275.191" gradientUnits="userSpaceOnUse">
<stop stop-color="white"/>
<stop offset="1" stop-color="#676767"/>
</linearGradient>
<linearGradient id="paint26_linear_628_53460" x1="1419.68" y1="-319.183" x2="617.968" y2="279.566" gradientUnits="userSpaceOnUse">
<stop stop-color="white"/>
<stop offset="1" stop-color="#676767"/>
</linearGradient>
<linearGradient id="paint27_linear_628_53460" x1="1423.32" y1="-314.366" x2="622.189" y2="283.94" gradientUnits="userSpaceOnUse">
<stop stop-color="white"/>
<stop offset="1" stop-color="#676767"/>
</linearGradient>
<linearGradient id="paint28_linear_628_53460" x1="1426.96" y1="-309.536" x2="626.42" y2="288.31" gradientUnits="userSpaceOnUse">
<stop stop-color="white"/>
<stop offset="1" stop-color="#676767"/>
</linearGradient>
<linearGradient id="paint29_linear_628_53460" x1="1430.6" y1="-304.697" x2="630.649" y2="292.695" gradientUnits="userSpaceOnUse">
<stop stop-color="white"/>
<stop offset="1" stop-color="#676767"/>
</linearGradient>
<linearGradient id="paint30_linear_628_53460" x1="1434.23" y1="-299.87" x2="634.87" y2="297.067" gradientUnits="userSpaceOnUse">
<stop stop-color="white"/>
<stop offset="1" stop-color="#676767"/>
</linearGradient>
<linearGradient id="paint31_linear_628_53460" x1="1437.87" y1="-295.049" x2="639.09" y2="301.439" gradientUnits="userSpaceOnUse">
<stop stop-color="white"/>
<stop offset="1" stop-color="#676767"/>
</linearGradient>
<linearGradient id="paint32_linear_628_53460" x1="1441.51" y1="-290.22" x2="643.318" y2="305.821" gradientUnits="userSpaceOnUse">
<stop stop-color="white"/>
<stop offset="1" stop-color="#676767"/>
</linearGradient>
<linearGradient id="paint33_linear_628_53460" x1="1445.16" y1="-285.409" x2="647.535" y2="310.189" gradientUnits="userSpaceOnUse">
<stop stop-color="white"/>
<stop offset="1" stop-color="#676767"/>
</linearGradient>
<linearGradient id="paint34_linear_628_53460" x1="1448.77" y1="-280.565" x2="651.758" y2="314.567" gradientUnits="userSpaceOnUse">
<stop stop-color="white"/>
<stop offset="1" stop-color="#676767"/>
</linearGradient>
<linearGradient id="paint35_linear_628_53460" x1="1452.43" y1="-275.739" x2="655.988" y2="318.951" gradientUnits="userSpaceOnUse">
<stop stop-color="white"/>
<stop offset="1" stop-color="#676767"/>
</linearGradient>
<linearGradient id="paint36_linear_628_53460" x1="1456.05" y1="-270.913" x2="660.204" y2="323.317" gradientUnits="userSpaceOnUse">
<stop stop-color="white"/>
<stop offset="1" stop-color="#676767"/>
</linearGradient>
<linearGradient id="paint37_linear_628_53460" x1="1459.71" y1="-266.097" x2="664.438" y2="327.69" gradientUnits="userSpaceOnUse">
<stop stop-color="white"/>
<stop offset="1" stop-color="#676767"/>
</linearGradient>
<linearGradient id="paint38_linear_628_53460" x1="1463.34" y1="-261.265" x2="668.661" y2="332.069" gradientUnits="userSpaceOnUse">
<stop stop-color="white"/>
<stop offset="1" stop-color="#676767"/>
</linearGradient>
<linearGradient id="paint39_linear_628_53460" x1="1466.97" y1="-256.428" x2="672.887" y2="336.446" gradientUnits="userSpaceOnUse">
<stop stop-color="white"/>
<stop offset="1" stop-color="#676767"/>
</linearGradient>
<linearGradient id="paint40_linear_628_53460" x1="1470.61" y1="-251.603" x2="677.11" y2="340.823" gradientUnits="userSpaceOnUse">
<stop stop-color="white"/>
<stop offset="1" stop-color="#676767"/>
</linearGradient>
<linearGradient id="paint41_linear_628_53460" x1="1474.25" y1="-246.778" x2="681.334" y2="345.201" gradientUnits="userSpaceOnUse">
<stop stop-color="white"/>
<stop offset="1" stop-color="#676767"/>
</linearGradient>
<linearGradient id="paint42_linear_628_53460" x1="1477.89" y1="-241.947" x2="685.559" y2="349.578" gradientUnits="userSpaceOnUse">
<stop stop-color="white"/>
<stop offset="1" stop-color="#676767"/>
</linearGradient>
<linearGradient id="paint43_linear_628_53460" x1="1481.54" y1="-237.13" x2="689.781" y2="353.952" gradientUnits="userSpaceOnUse">
<stop stop-color="white"/>
<stop offset="1" stop-color="#676767"/>
</linearGradient>
<linearGradient id="paint44_linear_628_53460" x1="1485.16" y1="-232.291" x2="694.007" y2="358.332" gradientUnits="userSpaceOnUse">
<stop stop-color="white"/>
<stop offset="1" stop-color="#676767"/>
</linearGradient>
<linearGradient id="paint45_linear_628_53460" x1="1488.8" y1="-227.469" x2="698.236" y2="362.701" gradientUnits="userSpaceOnUse">
<stop stop-color="white"/>
<stop offset="1" stop-color="#676767"/>
</linearGradient>
<linearGradient id="paint46_linear_628_53460" x1="1492.46" y1="-222.656" x2="702.461" y2="367.078" gradientUnits="userSpaceOnUse">
<stop stop-color="white"/>
<stop offset="1" stop-color="#676767"/>
</linearGradient>
<linearGradient id="paint47_linear_628_53460" x1="1496.09" y1="-217.813" x2="706.688" y2="371.462" gradientUnits="userSpaceOnUse">
<stop stop-color="white"/>
<stop offset="1" stop-color="#676767"/>
</linearGradient>
<linearGradient id="paint48_linear_628_53460" x1="1499.73" y1="-213.003" x2="710.906" y2="375.83" gradientUnits="userSpaceOnUse">
<stop stop-color="white"/>
<stop offset="1" stop-color="#676767"/>
</linearGradient>
<linearGradient id="paint49_linear_628_53460" x1="1503.36" y1="-208.163" x2="715.133" y2="380.212" gradientUnits="userSpaceOnUse">
<stop stop-color="white"/>
<stop offset="1" stop-color="#676767"/>
</linearGradient>
<linearGradient id="paint50_linear_628_53460" x1="-397.313" y1="-336.173" x2="516.236" y2="103.701" gradientUnits="userSpaceOnUse">
<stop stop-color="white"/>
<stop offset="1" stop-color="#676767"/>
</linearGradient>
<linearGradient id="paint51_linear_628_53460" x1="-397.47" y1="-339.107" x2="516.079" y2="100.768" gradientUnits="userSpaceOnUse">
<stop stop-color="white"/>
<stop offset="1" stop-color="#676767"/>
</linearGradient>
<linearGradient id="paint52_linear_628_53460" x1="-397.627" y1="-342.04" x2="515.922" y2="97.8339" gradientUnits="userSpaceOnUse">
<stop stop-color="white"/>
<stop offset="1" stop-color="#676767"/>
</linearGradient>
<linearGradient id="paint53_linear_628_53460" x1="-397.784" y1="-344.974" x2="515.765" y2="94.9006" gradientUnits="userSpaceOnUse">
<stop stop-color="white"/>
<stop offset="1" stop-color="#676767"/>
</linearGradient>
<linearGradient id="paint54_linear_628_53460" x1="-397.942" y1="-347.908" x2="515.607" y2="91.9667" gradientUnits="userSpaceOnUse">
<stop stop-color="white"/>
<stop offset="1" stop-color="#676767"/>
</linearGradient>
<linearGradient id="paint55_linear_628_53460" x1="-398.1" y1="-350.842" x2="515.45" y2="89.0327" gradientUnits="userSpaceOnUse">
<stop stop-color="white"/>
<stop offset="1" stop-color="#676767"/>
</linearGradient>
<linearGradient id="paint56_linear_628_53460" x1="-398.257" y1="-353.775" x2="515.292" y2="86.0995" gradientUnits="userSpaceOnUse">
<stop stop-color="white"/>
<stop offset="1" stop-color="#676767"/>
</linearGradient>
<linearGradient id="paint57_linear_628_53460" x1="-398.415" y1="-356.708" x2="515.135" y2="83.166" gradientUnits="userSpaceOnUse">
<stop stop-color="white"/>
<stop offset="1" stop-color="#676767"/>
</linearGradient>
<linearGradient id="paint58_linear_628_53460" x1="-398.571" y1="-359.642" x2="514.978" y2="80.2327" gradientUnits="userSpaceOnUse">
<stop stop-color="white"/>
<stop offset="1" stop-color="#676767"/>
</linearGradient>
<linearGradient id="paint59_linear_628_53460" x1="-399.997" y1="-330.643" x2="512.887" y2="108.897" gradientUnits="userSpaceOnUse">
<stop stop-color="white"/>
<stop offset="1" stop-color="#676767"/>
</linearGradient>
<linearGradient id="paint60_linear_628_53460" x1="-402.648" y1="-325.204" x2="509.58" y2="114.007" gradientUnits="userSpaceOnUse">
<stop stop-color="white"/>
<stop offset="1" stop-color="#676767"/>
</linearGradient>
<linearGradient id="paint61_linear_628_53460" x1="-405.297" y1="-319.769" x2="506.266" y2="119.107" gradientUnits="userSpaceOnUse">
<stop stop-color="white"/>
<stop offset="1" stop-color="#676767"/>
</linearGradient>
<linearGradient id="paint62_linear_628_53460" x1="-407.936" y1="-314.335" x2="502.962" y2="124.206" gradientUnits="userSpaceOnUse">
<stop stop-color="white"/>
<stop offset="1" stop-color="#676767"/>
</linearGradient>
<linearGradient id="paint63_linear_628_53460" x1="-410.584" y1="-308.906" x2="499.658" y2="129.306" gradientUnits="userSpaceOnUse">
<stop stop-color="white"/>
<stop offset="1" stop-color="#676767"/>
</linearGradient>
<linearGradient id="paint64_linear_628_53460" x1="-413.235" y1="-303.468" x2="496.351" y2="134.414" gradientUnits="userSpaceOnUse">
<stop stop-color="white"/>
<stop offset="1" stop-color="#676767"/>
</linearGradient>
<linearGradient id="paint65_linear_628_53460" x1="-415.882" y1="-298.037" x2="493.048" y2="139.514" gradientUnits="userSpaceOnUse">
<stop stop-color="white"/>
<stop offset="1" stop-color="#676767"/>
</linearGradient>
<linearGradient id="paint66_linear_628_53460" x1="-418.513" y1="-292.596" x2="489.743" y2="144.617" gradientUnits="userSpaceOnUse">
<stop stop-color="white"/>
<stop offset="1" stop-color="#676767"/>
</linearGradient>
<linearGradient id="paint67_linear_628_53460" x1="-421.171" y1="-287.166" x2="486.438" y2="149.722" gradientUnits="userSpaceOnUse">
<stop stop-color="white"/>
<stop offset="1" stop-color="#676767"/>
</linearGradient>
<linearGradient id="paint68_linear_628_53460" x1="-423.801" y1="-281.726" x2="483.134" y2="154.824" gradientUnits="userSpaceOnUse">
<stop stop-color="white"/>
<stop offset="1" stop-color="#676767"/>
</linearGradient>
<linearGradient id="paint69_linear_628_53460" x1="-426.454" y1="-276.285" x2="479.825" y2="159.935" gradientUnits="userSpaceOnUse">
<stop stop-color="white"/>
<stop offset="1" stop-color="#676767"/>
</linearGradient>
<linearGradient id="paint70_linear_628_53460" x1="-429.102" y1="-270.851" x2="476.511" y2="165.035" gradientUnits="userSpaceOnUse">
<stop stop-color="white"/>
<stop offset="1" stop-color="#676767"/>
</linearGradient>
<linearGradient id="paint71_linear_628_53460" x1="-431.743" y1="-265.412" x2="473.204" y2="170.14" gradientUnits="userSpaceOnUse">
<stop stop-color="white"/>
<stop offset="1" stop-color="#676767"/>
</linearGradient>
<linearGradient id="paint72_linear_628_53460" x1="-434.39" y1="-259.983" x2="469.901" y2="175.241" gradientUnits="userSpaceOnUse">
<stop stop-color="white"/>
<stop offset="1" stop-color="#676767"/>
</linearGradient>
<linearGradient id="paint73_linear_628_53460" x1="-437.037" y1="-254.553" x2="466.598" y2="180.341" gradientUnits="userSpaceOnUse">
<stop stop-color="white"/>
<stop offset="1" stop-color="#676767"/>
</linearGradient>
<linearGradient id="paint74_linear_628_53460" x1="-439.678" y1="-249.114" x2="463.291" y2="185.446" gradientUnits="userSpaceOnUse">
<stop stop-color="white"/>
<stop offset="1" stop-color="#676767"/>
</linearGradient>
<linearGradient id="paint75_linear_628_53460" x1="-442.326" y1="-243.681" x2="459.987" y2="190.551" gradientUnits="userSpaceOnUse">
<stop stop-color="white"/>
<stop offset="1" stop-color="#676767"/>
</linearGradient>
<linearGradient id="paint76_linear_628_53460" x1="-444.967" y1="-238.243" x2="456.68" y2="195.655" gradientUnits="userSpaceOnUse">
<stop stop-color="white"/>
<stop offset="1" stop-color="#676767"/>
</linearGradient>
<linearGradient id="paint77_linear_628_53460" x1="-447.623" y1="-232.816" x2="453.376" y2="200.758" gradientUnits="userSpaceOnUse">
<stop stop-color="white"/>
<stop offset="1" stop-color="#676767"/>
</linearGradient>
<linearGradient id="paint78_linear_628_53460" x1="-450.264" y1="-227.379" x2="450.062" y2="205.857" gradientUnits="userSpaceOnUse">
<stop stop-color="white"/>
<stop offset="1" stop-color="#676767"/>
</linearGradient>
<linearGradient id="paint79_linear_628_53460" x1="-452.908" y1="-221.931" x2="446.752" y2="210.972" gradientUnits="userSpaceOnUse">
<stop stop-color="white"/>
<stop offset="1" stop-color="#676767"/>
</linearGradient>
<linearGradient id="paint80_linear_628_53460" x1="-455.547" y1="-216.498" x2="443.448" y2="216.073" gradientUnits="userSpaceOnUse">
<stop stop-color="white"/>
<stop offset="1" stop-color="#676767"/>
</linearGradient>
<linearGradient id="paint81_linear_628_53460" x1="-458.194" y1="-211.069" x2="440.144" y2="221.173" gradientUnits="userSpaceOnUse">
<stop stop-color="white"/>
<stop offset="1" stop-color="#676767"/>
</linearGradient>
<linearGradient id="paint82_linear_628_53460" x1="-460.845" y1="-205.63" x2="436.835" y2="226.284" gradientUnits="userSpaceOnUse">
<stop stop-color="white"/>
<stop offset="1" stop-color="#676767"/>
</linearGradient>
<linearGradient id="paint83_linear_628_53460" x1="-463.499" y1="-200.21" x2="433.534" y2="231.38" gradientUnits="userSpaceOnUse">
<stop stop-color="white"/>
<stop offset="1" stop-color="#676767"/>
</linearGradient>
<linearGradient id="paint84_linear_628_53460" x1="-466.121" y1="-194.762" x2="430.228" y2="236.486" gradientUnits="userSpaceOnUse">
<stop stop-color="white"/>
<stop offset="1" stop-color="#676767"/>
</linearGradient>
<linearGradient id="paint85_linear_628_53460" x1="-468.783" y1="-189.324" x2="426.918" y2="241.6" gradientUnits="userSpaceOnUse">
<stop stop-color="white"/>
<stop offset="1" stop-color="#676767"/>
</linearGradient>
<linearGradient id="paint86_linear_628_53460" x1="-471.409" y1="-183.894" x2="423.618" y2="246.693" gradientUnits="userSpaceOnUse">
<stop stop-color="white"/>
<stop offset="1" stop-color="#676767"/>
</linearGradient>
<linearGradient id="paint87_linear_628_53460" x1="-474.077" y1="-178.466" x2="420.301" y2="251.798" gradientUnits="userSpaceOnUse">
<stop stop-color="white"/>
<stop offset="1" stop-color="#676767"/>
</linearGradient>
<linearGradient id="paint88_linear_628_53460" x1="-476.717" y1="-173.026" x2="416.995" y2="256.905" gradientUnits="userSpaceOnUse">
<stop stop-color="white"/>
<stop offset="1" stop-color="#676767"/>
</linearGradient>
<linearGradient id="paint89_linear_628_53460" x1="-479.35" y1="-167.583" x2="413.688" y2="262.011" gradientUnits="userSpaceOnUse">
<stop stop-color="white"/>
<stop offset="1" stop-color="#676767"/>
</linearGradient>
<linearGradient id="paint90_linear_628_53460" x1="-481.998" y1="-162.15" x2="410.383" y2="267.117" gradientUnits="userSpaceOnUse">
<stop stop-color="white"/>
<stop offset="1" stop-color="#676767"/>
</linearGradient>
<linearGradient id="paint91_linear_628_53460" x1="-484.648" y1="-156.716" x2="407.076" y2="272.223" gradientUnits="userSpaceOnUse">
<stop stop-color="white"/>
<stop offset="1" stop-color="#676767"/>
</linearGradient>
<linearGradient id="paint92_linear_628_53460" x1="-487.289" y1="-151.277" x2="403.769" y2="277.329" gradientUnits="userSpaceOnUse">
<stop stop-color="white"/>
<stop offset="1" stop-color="#676767"/>
</linearGradient>
<linearGradient id="paint93_linear_628_53460" x1="-489.944" y1="-145.851" x2="400.464" y2="282.432" gradientUnits="userSpaceOnUse">
<stop stop-color="white"/>
<stop offset="1" stop-color="#676767"/>
</linearGradient>
<linearGradient id="paint94_linear_628_53460" x1="-492.578" y1="-140.406" x2="397.156" y2="287.541" gradientUnits="userSpaceOnUse">
<stop stop-color="white"/>
<stop offset="1" stop-color="#676767"/>
</linearGradient>
<linearGradient id="paint95_linear_628_53460" x1="-495.225" y1="-134.976" x2="393.843" y2="292.64" gradientUnits="userSpaceOnUse">
<stop stop-color="white"/>
<stop offset="1" stop-color="#676767"/>
</linearGradient>
<linearGradient id="paint96_linear_628_53460" x1="-497.892" y1="-129.551" x2="390.537" y2="297.746" gradientUnits="userSpaceOnUse">
<stop stop-color="white"/>
<stop offset="1" stop-color="#676767"/>
</linearGradient>
<linearGradient id="paint97_linear_628_53460" x1="-500.525" y1="-124.101" x2="387.228" y2="302.859" gradientUnits="userSpaceOnUse">
<stop stop-color="white"/>
<stop offset="1" stop-color="#676767"/>
</linearGradient>
<linearGradient id="paint98_linear_628_53460" x1="-503.178" y1="-118.682" x2="383.926" y2="307.955" gradientUnits="userSpaceOnUse">
<stop stop-color="white"/>
<stop offset="1" stop-color="#676767"/>
</linearGradient>
<linearGradient id="paint99_linear_628_53460" x1="-505.812" y1="-113.235" x2="380.618" y2="313.066" gradientUnits="userSpaceOnUse">
<stop stop-color="white"/>
<stop offset="1" stop-color="#676767"/>
</linearGradient>
<clipPath id="clip0_628_53460">
<rect width="1600" height="88" fill="white"/>
</clipPath>
</defs>
</svg>
