<svg width="150" height="117" viewBox="0 0 150 117" fill="none" xmlns="http://www.w3.org/2000/svg">
<g id="Illustratiion">
<mask id="mask0_1208_31745" style="mask-type:luminance" maskUnits="userSpaceOnUse" x="0" y="0" width="150" height="117">
<rect id="Mask" width="150" height="117" rx="12.426" transform="matrix(-1 0 0 1 150 0)" fill="white"/>
</mask>
<g mask="url(#mask0_1208_31745)">
<g id="Group 1729" filter="url(#filter0_d_1208_31745)">
<path id="Vector" d="M36.7437 22.113L36.2489 24.2527C36.0436 25.1359 36.5244 26.0325 37.3709 26.3537L52.7111 32.1782C53.4915 32.475 54.3728 32.1975 54.8449 31.5073L56.4354 29.1795L36.7466 22.1133L36.7437 22.113Z" fill="#00507D"/>
<path id="Vector_2" d="M36.4776 22.1286C36.4776 22.1286 45.8603 15.7687 51.8554 14.6255C57.6599 16.0423 66.9361 18.1113 66.9361 18.1113L56.2871 29.2692L36.4779 22.1256L36.4776 22.1286Z" fill="url(#paint0_linear_1208_31745)"/>
<path id="Vector_3" d="M77.3788 35.6193L77.3221 37.9658C77.2935 39.2031 78.1177 40.3002 79.3132 40.6137L93.3666 44.2884C94.6345 44.6209 95.9562 43.978 96.4815 42.7743L97.1556 41.2364L77.3756 35.6219L77.3788 35.6193Z" fill="#00507D"/>
<path id="Vector_4" d="M82.08 21.9515L77.4316 35.7467L97.1554 41.2363C97.1554 41.2363 98.5276 27.9855 97.6199 27.2857C96.7118 26.5889 82.08 21.9515 82.08 21.9515Z" fill="url(#paint1_linear_1208_31745)"/>
<path id="Vector_5" d="M117.182 45.1848L118.537 48.0628C118.833 48.6938 119.476 49.0846 120.172 49.0602L128.183 48.7847C129.977 48.7246 130.848 46.5172 129.543 45.2778C129.339 45.085 129.138 44.9222 128.947 44.8052C127.622 44.0139 117.182 45.1818 117.182 45.1818L117.182 45.1848Z" fill="#00507D"/>
<path id="Vector_6" d="M117.304 45.337C117.304 45.337 114.756 36.8723 111.536 33.0669C125.096 39.1079 128.425 43.6872 129.522 45.4428L117.303 45.34L117.304 45.337Z" fill="url(#paint2_linear_1208_31745)"/>
<path id="Vector_7" d="M56.2871 29.2688L56.0453 31.6211C55.9459 32.5772 56.534 33.4724 57.4523 33.7589L73.8096 38.8898C74.7451 39.1839 75.7534 38.7637 76.2075 37.8929L77.3358 35.7257L56.29 29.2691L56.2871 29.2688Z" fill="white"/>
<path id="Vector_8" d="M56.2873 29.2691C56.2873 29.2691 65.5934 18.3317 66.9363 18.1112C68.2765 17.8874 82.2399 22.3611 82.2399 22.3611L77.3475 35.8522L56.2873 29.2691Z" fill="url(#paint3_linear_1208_31745)"/>
<path id="Vector_9" d="M97.1541 41.2214L96.8845 43.6455C96.7648 44.7189 97.4933 45.6993 98.5547 45.8925L114.91 48.8798C116.147 49.105 117.291 48.1764 117.328 46.919L117.371 45.406L97.1541 41.2214Z" fill="white"/>
<path id="Vector_10" d="M97.1561 41.2344C97.1561 41.2344 97.2655 29.2732 96.6252 27.0851C100.009 28.2386 111.836 32.2233 113.278 33.9471C114.719 35.6708 117.351 45.4972 117.351 45.4972L97.1558 41.2373L97.1561 41.2344Z" fill="url(#paint4_linear_1208_31745)"/>
<path id="Vector_11" d="M36.6228 22.0654L34.7092 24.0755C34.2249 24.5856 33.4598 24.7106 32.8369 24.3844C30.9631 23.3994 27.1033 21.2068 25.2572 18.9635C24.8264 18.4385 24.7866 17.6893 25.1546 17.1201C25.9828 15.8327 26.2512 15.2479 26.2512 15.2479C26.2512 15.2479 34.8834 20.4049 36.6195 22.0681L36.6228 22.0654Z" fill="white"/>
<path id="Vector_12" d="M36.5579 22.1599C37.4774 21.5522 50.7161 14.4691 51.8555 14.6252C52.9952 14.7783 41.7657 12.1725 34.7298 12.6983C27.6941 13.2211 25.7755 16.8673 25.7755 16.8673L36.5577 22.1629L36.5579 22.1599Z" fill="url(#paint5_linear_1208_31745)"/>
<path id="Vector_13" d="M86.7898 8.59747L85.6807 12.5165C84.6472 12.2515 83.7628 11.9833 82.7022 11.7514C82.7022 11.7514 83.2636 9.75236 83.8244 7.75918C84.0564 6.93822 84.9095 6.46114 85.729 6.69326C86.5485 6.92537 87.0215 7.77946 86.7898 8.59747Z" fill="#6C79AA"/>
<path id="Vector_14" d="M49.5562 128.539L81.1321 15.8135C81.2366 15.4451 81.8177 15.2843 82.4317 15.4575L83.1731 15.6671C83.787 15.8404 84.2023 16.2804 84.0976 16.6518L52.6694 128.84L49.5565 128.536L49.5562 128.539Z" fill="#6C79AA"/>
<path id="Vector_15" d="M52.4049 19.7168C51.8654 20.6687 50.8047 21.2 49.718 21.0521C44.6017 20.3584 30.2459 18.4995 26.3298 18.1317C25.5044 18.0511 25.0328 17.1524 25.4344 16.4225C26.2836 14.8898 27.3317 13.2393 28.901 12.6802C41.8546 8.05844 57.8153 7.01561 75.4508 10.0297C76.8412 10.2669 54.4504 16.2649 54.4504 16.2649C54.4504 16.2649 53.3618 18.0247 52.4051 19.7139L52.4049 19.7168Z" fill="url(#paint6_linear_1208_31745)"/>
<path id="Vector_16" d="M54.4502 16.2711C44.7441 14.3985 35.5799 13.1632 27.2515 13.8816C26.5115 14.6321 25.9261 15.5676 25.4152 16.4716C25.012 17.1864 25.4598 18.0857 26.2743 18.1862L50.791 21.2526C51.2439 21.3088 51.6905 21.0931 51.9225 20.6984C52.6705 19.439 54.2643 16.7418 54.4472 16.2708L54.4502 16.2711Z" fill="#00507D"/>
<path id="Vector_17" d="M130.625 48.6182C131.653 49.0645 132.843 48.5131 133.165 47.4386C133.554 46.1381 133.844 44.5178 133.259 43.62C125.4 31.5569 108.668 20.1202 90.0646 13.7593C99.7454 19.0277 106.563 31.0905 106.563 31.0905L105.564 36.1352C105.393 37.0038 105.847 37.8709 106.657 38.2244L130.625 48.6182Z" fill="white"/>
<path id="Vector_18" d="M130.625 48.618C131.652 49.0643 132.843 48.5129 133.165 47.4384C133.554 46.1379 134.179 44.1629 133.259 43.6198C118.937 35.1702 106.566 31.0906 106.566 31.0906L105.567 36.1353C105.396 37.0039 105.85 37.871 106.66 38.2245L130.625 48.618Z" fill="url(#paint7_linear_1208_31745)"/>
<path id="Vector_19" d="M54.4496 16.2706C54.4496 16.2706 64.1211 10.6096 71.8133 10.0675C75.9844 9.77456 80.0576 10.3932 83.9599 11.5108L79.5978 26.8841C79.2213 28.2097 77.8371 28.9747 76.5151 28.5861L56.4256 22.6672C55.4161 22.3688 54.7039 21.4646 54.6522 20.4102L54.4496 16.2706Z" fill="white"/>
<path id="Vector_20" d="M80.6919 23.0325L79.5983 26.8845C79.2218 28.21 77.8376 28.9751 76.5156 28.5865L56.426 22.6676C55.4166 22.3692 54.7044 21.4649 54.6527 20.4106L54.4566 16.3879C68.6472 18.5973 80.6919 23.0325 80.6919 23.0325Z" fill="url(#paint8_linear_1208_31745)"/>
<path id="Vector_21" d="M106.566 31.0906C106.566 31.0906 101.311 21.1868 95.0498 16.6758C91.6551 14.2305 87.8643 12.6111 83.9602 11.5111L79.5981 26.8844C79.2216 28.21 79.9972 29.5915 81.3248 29.9537L101.523 35.4927C102.54 35.771 103.62 35.3758 104.217 34.507L106.562 31.0933L106.566 31.0906Z" fill="url(#paint9_linear_1208_31745)"/>
<path id="Vector_22" d="M80.6922 23.0327L79.5986 26.8847C79.222 28.2102 79.9977 29.5917 81.3253 29.954L101.523 35.493C102.541 35.7713 103.621 35.376 104.218 34.5072L106.497 31.1885C93.2673 25.603 80.6922 23.0327 80.6922 23.0327Z" fill="#00507D"/>
</g>
<g id="Chair">
<path id="Vector_23" d="M36.0992 140.236C36.599 140.236 37.0888 139.988 37.3739 139.535L83.4028 66.9844C83.849 66.2799 83.641 65.3473 82.9365 64.9011C82.2354 64.455 81.2994 64.663 80.8533 65.3674L34.8278 137.918C34.3816 138.622 34.5896 139.555 35.2941 140.001C35.5457 140.159 35.8241 140.236 36.1025 140.236H36.0992Z" fill="#DEE2E6"/>
<path id="Vector_24" d="M49.1488 117.931C77.17 117.931 80.4944 73.2175 80.8567 65.5957C80.8869 64.9785 81.3935 64.4988 82.0107 64.4988H113.645C114.554 64.4988 115.262 65.2838 115.158 66.1862C114.125 75.2738 107.818 117.931 80.4508 117.931H49.1488Z" fill="url(#paint10_linear_1208_31745)"/>
<path id="Vector_25" d="M82.4271 139.99C83.1416 139.524 83.3295 138.558 82.8397 137.86L58.9849 103.861C58.5119 103.173 57.5726 102.999 56.8849 103.475C56.1972 103.948 56.0262 104.888 56.4992 105.575L80.3707 139.595C80.837 140.259 81.7494 140.437 82.4304 139.99H82.4271Z" fill="#DEE2E6"/>
<path id="Vector_26" d="M79.0259 117.931C66.8787 116.717 65.0404 110.034 64.7653 107.874C64.715 107.488 64.3896 107.2 64.0005 107.2H32.0778C30.8467 107.2 30.4206 108.364 30.736 108.988C32.1382 111.765 36.3885 117.931 48.9013 117.931H81.042C60.3037 117.931 79.0292 117.931 79.0292 117.931H79.0259Z" fill="url(#paint11_linear_1208_31745)"/>
<path id="Vector_27" d="M68.8238 140.236C69.327 140.236 69.8201 139.984 70.1053 139.528L115.604 66.7494C116.044 66.045 115.832 65.1124 115.124 64.6696C114.417 64.2301 113.484 64.4414 113.045 65.1493L67.5457 137.925C67.1029 138.632 67.3176 139.562 68.0254 140.004C68.2737 140.159 68.5521 140.233 68.8238 140.233V140.236Z" fill="#DEE2E6"/>
<path id="Vector_28" d="M114.967 139.99C115.682 139.524 115.87 138.558 115.38 137.86L91.525 103.861C91.052 103.173 90.1127 102.999 89.425 103.475C88.7373 103.948 88.5662 104.887 89.0392 105.575L112.907 139.591C113.374 140.255 114.286 140.433 114.967 139.987V139.99Z" fill="#DEE2E6"/>
</g>
</g>
</g>
<defs>
<filter id="filter0_d_1208_31745" x="16.0281" y="-0.466007" width="126.584" height="139.957" filterUnits="userSpaceOnUse" color-interpolation-filters="sRGB">
<feFlood flood-opacity="0" result="BackgroundImageFix"/>
<feColorMatrix in="SourceAlpha" type="matrix" values="0 0 0 0 0 0 0 0 0 0 0 0 0 0 0 0 0 0 127 0" result="hardAlpha"/>
<feOffset dy="1.77515"/>
<feGaussianBlur stdDeviation="4.43787"/>
<feColorMatrix type="matrix" values="0 0 0 0 0 0 0 0 0 0 0 0 0 0 0 0 0 0 0.1 0"/>
<feBlend mode="normal" in2="BackgroundImageFix" result="effect1_dropShadow_1208_31745"/>
<feBlend mode="normal" in="SourceGraphic" in2="effect1_dropShadow_1208_31745" result="shape"/>
</filter>
<linearGradient id="paint0_linear_1208_31745" x1="51.6925" y1="14.2093" x2="55.0666" y2="31.1224" gradientUnits="userSpaceOnUse">
<stop stop-color="#005788"/>
<stop offset="1" stop-color="#00939C"/>
</linearGradient>
<linearGradient id="paint1_linear_1208_31745" x1="88.4993" y1="22.077" x2="97.8962" y2="40.3815" gradientUnits="userSpaceOnUse">
<stop stop-color="#005788"/>
<stop offset="1" stop-color="#00939C"/>
</linearGradient>
<linearGradient id="paint2_linear_1208_31745" x1="120.7" y1="33.6325" x2="128.444" y2="50.3913" gradientUnits="userSpaceOnUse">
<stop stop-color="#005788"/>
<stop offset="1" stop-color="#00939C"/>
</linearGradient>
<linearGradient id="paint3_linear_1208_31745" x1="81.6957" y1="27.9004" x2="56.6601" y2="25.454" gradientUnits="userSpaceOnUse">
<stop stop-color="#EFEFFB"/>
<stop offset="1" stop-color="#D0D7F6"/>
</linearGradient>
<linearGradient id="paint4_linear_1208_31745" x1="118.144" y1="37.3798" x2="95.8323" y2="35.1995" gradientUnits="userSpaceOnUse">
<stop stop-color="#EFEFFB"/>
<stop offset="1" stop-color="#D0D7F6"/>
</linearGradient>
<linearGradient id="paint5_linear_1208_31745" x1="51.5334" y1="18.7433" x2="25.8346" y2="16.2321" gradientUnits="userSpaceOnUse">
<stop stop-color="#EFEFFB"/>
<stop offset="1" stop-color="#D0D7F6"/>
</linearGradient>
<linearGradient id="paint6_linear_1208_31745" x1="60.5708" y1="7.96087" x2="43.56" y2="22.8912" gradientUnits="userSpaceOnUse">
<stop stop-color="#005788"/>
<stop offset="1" stop-color="#00939C"/>
</linearGradient>
<linearGradient id="paint7_linear_1208_31745" x1="134.078" y1="41.4135" x2="105.317" y2="38.603" gradientUnits="userSpaceOnUse">
<stop stop-color="#EFEFFB"/>
<stop offset="1" stop-color="#D0D7F6"/>
</linearGradient>
<linearGradient id="paint8_linear_1208_31745" x1="80.5987" y1="23.9863" x2="53.9684" y2="21.3841" gradientUnits="userSpaceOnUse">
<stop stop-color="#EFEFFB"/>
<stop offset="1" stop-color="#D0D7F6"/>
</linearGradient>
<linearGradient id="paint9_linear_1208_31745" x1="94.1933" y1="11.8829" x2="100.101" y2="25.9417" gradientUnits="userSpaceOnUse">
<stop stop-color="#005788"/>
<stop offset="1" stop-color="#00939C"/>
</linearGradient>
<linearGradient id="paint10_linear_1208_31745" x1="107.498" y1="56.5694" x2="113.241" y2="109.603" gradientUnits="userSpaceOnUse">
<stop stop-color="#F55B46"/>
<stop offset="1" stop-color="#E42C66"/>
</linearGradient>
<linearGradient id="paint11_linear_1208_31745" x1="75.186" y1="105.607" x2="75.4927" y2="116.374" gradientUnits="userSpaceOnUse">
<stop stop-color="#7446FB"/>
<stop offset="1" stop-color="#4800A3"/>
</linearGradient>
</defs>
</svg>
