<svg width="337" height="213" viewBox="0 0 337 213" fill="none" xmlns="http://www.w3.org/2000/svg">
<rect width="337" height="213" rx="13.37" transform="matrix(-1 0 0 1 337 0)" fill="url(#paint0_linear_1187_4266)"/>
<rect x="-0.693416" y="0.693416" width="335.613" height="211.613" rx="12.6766" transform="matrix(-1 0 0 1 335.613 0)" stroke="url(#paint1_linear_1187_4266)" stroke-opacity="0.4" stroke-width="1.38683"/>
<mask id="mask0_1187_4266" style="mask-type:alpha" maskUnits="userSpaceOnUse" x="0" y="0" width="337" height="213">
<rect width="337" height="212.217" rx="13.3677" transform="matrix(-1 0 0 1 337 0)" fill="white"/>
</mask>
<g mask="url(#mask0_1187_4266)">
<g style="mix-blend-mode:color-dodge" opacity="0.2" filter="url(#filter0_f_1187_4266)">
<path d="M440.985 50.332C407.012 38.6629 357.306 28.0452 310.236 47.991C254.701 71.516 256.241 114.949 204.963 132.705C138.032 155.885 103.353 93.0134 33.4688 115.172C-26.574 134.211 -29.9378 189.806 -80.7828 190.227C-119.119 190.543 -132.219 159.067 -177.558 158.555C-210.672 158.182 -237.938 174.574 -255.92 188.633" stroke="url(#paint2_linear_1187_4266)" stroke-width="0.486974" stroke-miterlimit="10"/>
<path d="M-253.54 191.042C-235.188 177.657 -207.392 162 -173.92 161.947C-128.297 161.962 -115.487 191.609 -76.814 190.943C-25.5449 190.068 -21.5133 137.408 38.8021 118.394C108.473 96.3977 142.476 156.386 209.008 133.84C259.974 116.563 258.738 74.9788 314.023 52.1022C360.76 32.7118 409.938 42.7146 443.539 53.7796" stroke="url(#paint3_linear_1187_4266)" stroke-width="0.486974" stroke-miterlimit="10"/>
<path d="M-251.157 193.456C-232.431 180.751 -204.108 165.824 -170.266 165.35C-124.361 164.854 -111.843 192.682 -72.8332 191.664C-21.1435 190.332 -16.4405 140.612 44.1462 121.632C113.602 99.8056 146.921 156.91 213.064 134.991C263.712 118.196 262.791 78.4531 317.819 56.2372C364.213 37.3785 412.866 46.7577 446.102 57.2287" stroke="url(#paint4_linear_1187_4266)" stroke-width="0.486974" stroke-miterlimit="10"/>
<path d="M-248.769 195.867C-229.677 183.84 -200.824 169.564 -166.61 168.744C-120.426 167.64 -108.201 193.741 -68.8471 192.382C-16.7282 190.594 -11.3623 143.812 49.497 124.857C118.74 103.193 151.377 157.418 217.126 136.129C267.457 119.817 266.846 81.9191 321.624 60.3514C367.663 42.0405 415.798 50.8061 448.661 60.6732" stroke="url(#paint5_linear_1187_4266)" stroke-width="0.486974" stroke-miterlimit="10"/>
<path d="M-246.39 198.276C-226.927 186.923 -197.549 173.355 -162.964 172.137C-116.503 170.495 -104.564 194.803 -64.8734 193.094C-12.3303 190.853 -6.29661 147.006 54.8303 128.079C123.855 106.58 155.817 157.923 221.171 137.264C271.184 121.435 270.926 85.5037 325.409 64.471C371.154 46.8103 418.721 54.8525 451.215 64.1205" stroke="url(#paint6_linear_1187_4266)" stroke-width="0.486974" stroke-miterlimit="10"/>
<path d="M-244.006 200.69C-224.17 190.017 -194.266 177.157 -159.308 175.531C-112.566 173.357 -100.918 195.867 -60.886 193.803C-7.92236 191.105 -1.2172 150.198 60.1773 131.3C128.993 109.968 160.269 158.426 225.224 138.401C274.92 123.054 274.985 88.9969 329.205 68.5839C374.615 51.4872 421.648 58.8959 453.77 67.5598" stroke="url(#paint7_linear_1187_4266)" stroke-width="0.486974" stroke-miterlimit="10"/>
<path d="M-241.623 203.104C-221.416 193.106 -190.983 180.959 -155.658 178.929C-108.64 176.226 -97.2828 196.938 -56.9049 194.525C-3.51707 191.374 3.85587 153.402 65.523 134.529C134.121 113.362 164.716 158.941 229.282 139.542C278.66 124.678 279.044 92.4899 333.003 72.7101C378.077 56.1863 424.58 62.944 456.332 71.009" stroke="url(#paint8_linear_1187_4266)" stroke-width="0.486974" stroke-miterlimit="10"/>
<path d="M-239.244 205.513C-218.663 196.195 -187.709 184.759 -152.011 182.321C-104.714 179.094 -93.6459 198.001 -52.9313 195.236C0.882087 191.625 8.92146 156.595 70.8598 137.756C139.248 116.756 169.159 159.451 233.33 140.683C282.393 126.292 283.089 95.985 336.794 76.8263C381.533 60.8665 427.503 66.9906 458.891 74.4529" stroke="url(#paint9_linear_1187_4266)" stroke-width="0.486974" stroke-miterlimit="10"/>
<path d="M-236.86 207.927C-215.909 199.284 -184.425 188.561 -148.361 185.72C-100.784 181.969 -90.0049 199.069 -48.95 195.959C5.28762 191.894 13.9948 159.8 76.2008 140.989C144.371 120.155 173.606 159.967 237.382 141.828C286.128 127.921 287.144 99.4821 340.584 80.9518C384.987 65.5561 430.426 71.038 461.44 77.9049" stroke="url(#paint10_linear_1187_4266)" stroke-width="0.486974" stroke-miterlimit="10"/>
<path d="M-234.477 210.341C-213.155 202.372 -181.144 192.371 -144.71 189.117C-96.8596 184.846 -86.3679 200.131 -44.9726 196.675C9.68911 192.158 19.0677 163.003 81.5427 144.213C149.5 123.54 178.053 160.473 241.436 142.965C289.864 129.539 291.194 102.973 344.383 85.0689C388.443 70.2359 433.358 75.0856 464.004 81.3448" stroke="url(#paint11_linear_1187_4266)" stroke-width="0.486974" stroke-miterlimit="10"/>
<path d="M-232.097 212.751C-210.407 205.465 -177.871 196.18 -141.058 192.507C-92.9335 187.715 -82.7258 201.19 -40.9938 197.383C14.0885 192.409 24.1386 166.194 86.8811 147.432C154.624 126.93 182.493 160.979 245.484 144.106C293.595 131.163 295.241 106.461 348.169 89.1895C391.894 74.9206 436.281 79.133 466.553 84.7969" stroke="url(#paint12_linear_1187_4266)" stroke-width="0.486974" stroke-miterlimit="10"/>
<path d="M-224.947 219.984C-202.141 214.727 -168.03 207.605 -130.103 202.696C-81.1437 196.359 -71.8042 204.392 -29.0497 199.539C27.3065 193.199 39.3587 175.797 102.913 157.122C170.01 137.117 195.842 162.516 257.651 147.534C304.809 136.039 307.392 116.935 359.559 101.563C402.264 88.9748 445.065 91.2841 474.236 95.1473" stroke="url(#paint13_linear_1187_4266)" stroke-width="0.486974" stroke-miterlimit="10"/>
<path d="M-222.563 222.397C-199.388 217.815 -164.75 211.424 -126.452 206.094C-77.2153 199.241 -68.1635 205.459 -25.0724 200.255C31.7081 193.463 44.4698 179.126 108.255 160.345C175.179 140.642 200.285 163.026 261.704 148.67C308.545 137.658 311.444 120.417 363.355 105.675C405.716 93.6499 447.998 95.3234 476.791 98.5862" stroke="url(#paint14_linear_1187_4266)" stroke-width="0.486974" stroke-miterlimit="10"/>
<path d="M-220.18 224.812C-196.631 220.91 -161.468 215.235 -122.797 209.489C-73.2832 202.129 -64.5214 206.519 -21.0849 200.966C36.116 193.715 49.5492 182.318 113.602 163.566C180.312 144.034 204.738 163.53 265.758 149.808C312.281 139.278 315.487 123.9 367.145 109.792C409.165 98.321 450.921 99.3709 479.346 102.026" stroke="url(#paint15_linear_1187_4266)" stroke-width="0.486974" stroke-miterlimit="10"/>
<path d="M-217.801 227.221C-193.881 223.994 -158.192 219.049 -119.15 212.882C-69.36 205.015 -60.8846 207.581 -17.1076 201.682C40.5175 193.979 54.6171 185.526 118.939 166.794C185.44 147.428 209.181 164.04 269.806 150.948C316.012 140.9 319.53 127.381 370.94 113.913C412.617 102.996 453.849 103.414 481.904 105.479" stroke="url(#paint16_linear_1187_4266)" stroke-width="0.486974" stroke-miterlimit="10"/>
<path d="M-215.418 229.635C-191.128 227.082 -154.908 222.873 -115.5 216.279C-65.4334 207.906 -57.2443 208.649 -13.1307 202.399C44.92 194.235 59.6897 188.73 124.284 170.023C190.57 150.827 213.632 164.552 273.863 152.089C319.756 142.521 323.577 130.859 374.734 118.035C416.064 107.675 456.775 107.466 484.462 108.923" stroke="url(#paint17_linear_1187_4266)" stroke-width="0.486974" stroke-miterlimit="10"/>
<path d="M-213.035 232.049C-188.375 230.18 -151.633 226.695 -111.85 219.677C-61.5064 210.798 -53.6036 209.716 -9.15326 203.115C49.3216 194.499 64.7592 191.929 129.621 173.25C195.689 154.22 218.07 165.065 277.911 153.23C323.487 144.144 327.615 134.344 378.528 122.156C419.512 112.346 459.703 111.509 487.016 112.37" stroke="url(#paint18_linear_1187_4266)" stroke-width="0.486974" stroke-miterlimit="10"/>
<path d="M-210.655 234.459C-185.625 233.264 -148.352 230.514 -108.198 223.067C-57.5739 213.685 -49.9611 210.776 -5.17043 203.829C53.7286 194.76 69.8377 195.129 134.968 176.471C200.828 157.607 222.523 165.569 281.97 154.363C327.229 145.76 331.662 137.809 382.324 126.269C422.966 117.013 462.631 115.552 489.581 115.811" stroke="url(#paint19_linear_1187_4266)" stroke-width="0.486974" stroke-miterlimit="10"/>
<path d="M-208.267 236.868C-182.863 236.353 -145.067 234.329 -104.543 226.46C-53.6386 216.577 -46.3209 211.842 -1.18845 204.541C58.1311 195.014 74.9116 198.324 140.31 179.694C205.951 160.996 226.97 166.074 286.018 155.503C330.96 147.382 335.701 141.285 386.118 130.39C426.415 121.682 465.559 119.595 492.134 119.258" stroke="url(#paint20_linear_1187_4266)" stroke-width="0.486974" stroke-miterlimit="10"/>
<path d="M-205.883 239.283C-180.109 239.442 -141.788 238.156 -100.889 229.863C-49.7091 219.482 -42.68 212.91 2.79645 205.268C62.5453 195.285 79.9886 201.533 145.654 182.932C211.083 164.395 231.421 166.595 290.074 156.653C334.698 149.015 339.744 144.767 389.912 134.52C429.862 126.361 468.489 123.652 494.696 122.716" stroke="url(#paint21_linear_1187_4266)" stroke-width="0.486974" stroke-miterlimit="10"/>
<path d="M-203.504 241.692C-177.359 242.525 -138.508 241.975 -97.2419 233.256C-45.7784 222.378 -39.0429 213.973 6.7702 205.979C66.9396 195.539 85.0543 204.727 150.996 186.156C216.21 167.79 235.864 167.105 294.128 157.79C338.434 150.634 343.785 148.235 393.706 138.641C433.307 131.027 471.416 127.703 497.249 126.164" stroke="url(#paint22_linear_1187_4266)" stroke-width="0.486974" stroke-miterlimit="10"/>
<path d="M-201.121 244.106C-174.602 245.619 -135.226 245.808 -93.5915 236.654C-41.8527 225.278 -35.4022 215.04 10.7476 206.696C71.3411 195.803 90.1237 207.926 156.333 189.383C221.334 171.179 240.306 167.615 298.177 158.93C342.165 152.257 347.825 151.703 397.497 142.757C436.753 135.684 474.34 131.742 499.805 129.603" stroke="url(#paint23_linear_1187_4266)" stroke-width="0.486974" stroke-miterlimit="10"/>
<path d="M-198.737 246.52C-171.848 248.708 -131.942 249.632 -89.936 240.049C-37.9133 228.176 -31.7565 216.104 14.7337 207.415C75.7514 196.069 95.2018 211.126 161.684 192.609C228.167 174.092 244.763 168.123 302.239 160.069C345.91 153.878 351.871 155.167 401.296 146.875C440.203 140.346 477.272 135.79 502.367 133.053" stroke="url(#paint24_linear_1187_4266)" stroke-width="0.486974" stroke-miterlimit="10"/>
<path d="M-196.358 248.929C-169.1 251.8 -128.663 253.459 -86.2896 243.441C-33.988 231.075 -28.1198 217.166 18.7121 208.122C80.1504 196.319 100.269 214.311 167.022 195.827C231.588 177.945 249.207 168.624 306.288 161.2C349.642 155.491 355.909 158.621 405.092 150.987C443.654 144.998 480.201 139.824 504.928 136.488" stroke="url(#paint25_linear_1187_4266)" stroke-width="0.486974" stroke-miterlimit="10"/>
<path d="M-193.974 251.344C-166.346 254.89 -125.38 257.293 -82.6388 246.84C-30.0546 233.986 -24.4837 218.238 22.6936 208.844C84.5611 196.586 105.342 217.516 172.363 199.061C239.385 180.606 253.649 169.144 310.336 162.35C353.373 157.124 359.941 162.097 408.877 155.117C447.09 149.672 483.118 143.884 507.472 139.943" stroke="url(#paint26_linear_1187_4266)" stroke-width="0.486974" stroke-miterlimit="10"/>
<path d="M-191.591 253.757C-163.593 257.978 -122.093 261.121 -78.9886 250.237C-26.1254 236.89 -20.8469 219.3 26.6708 209.561C88.9589 196.844 110.408 220.709 177.709 202.289C241.844 184.734 258.1 169.655 314.393 163.491C357.117 158.744 363.983 165.556 412.68 159.239C450.545 154.329 486.058 147.933 510.043 143.393" stroke="url(#paint27_linear_1187_4266)" stroke-width="0.486974" stroke-miterlimit="10"/>
<path d="M-189.212 256.167C-160.839 261.067 -118.814 264.949 -75.3418 253.631C-22.191 239.792 -17.2098 220.364 30.6446 210.273C93.3568 197.104 115.442 223.766 183.042 205.512C246.927 187.985 262.543 170.166 318.438 164.627C360.845 160.362 368.017 169.006 416.462 163.354C453.979 158.98 488.968 151.974 512.585 146.835" stroke="url(#paint28_linear_1187_4266)" stroke-width="0.486974" stroke-miterlimit="10"/>
<path d="M-186.824 258.576C-158.081 264.151 -115.527 268.777 -71.682 257.02C-18.2486 242.694 -13.5597 221.423 34.635 210.986C97.7714 197.365 120.524 226.961 188.392 208.736C252.063 191.38 266.999 170.672 322.499 165.764C364.589 161.982 372.064 172.46 420.269 167.472C457.434 163.628 491.913 156.019 515.157 150.276" stroke="url(#paint29_linear_1187_4266)" stroke-width="0.486974" stroke-miterlimit="10"/>
<path d="M-184.441 260.991C-155.323 267.246 -112.24 272.616 -68.0315 260.419C-14.3155 245.605 -9.91889 222.491 38.6126 211.704C102.175 197.621 125.594 230.161 193.734 211.961C257.192 194.766 271.442 171.184 326.553 166.901C368.325 163.602 376.104 175.907 424.06 171.59C460.882 168.277 494.832 160.061 517.711 153.725" stroke="url(#paint30_linear_1187_4266)" stroke-width="0.486974" stroke-miterlimit="10"/>
<path d="M-182.061 263.4C-152.573 270.33 -108.958 276.448 -64.381 263.817C-10.3824 248.514 -6.27806 223.559 42.5938 212.425C106.58 197.89 130.667 233.365 199.075 215.194C262.319 198.169 275.889 171.699 330.6 168.05C372.055 165.234 380.138 179.365 427.848 175.723C464.323 172.938 497.758 164.122 520.263 157.181" stroke="url(#paint31_linear_1187_4266)" stroke-width="0.486974" stroke-miterlimit="10"/>
<path d="M-179.678 265.814C-149.825 273.421 -105.672 280.285 -60.7306 267.214C-6.44575 251.429 -2.64102 224.621 46.5712 213.141C110.978 198.149 135.736 236.563 204.421 218.422C267.446 201.563 280.341 172.21 334.658 169.191C375.795 166.857 384.177 182.81 431.648 179.84C467.771 177.585 500.689 168.169 522.822 160.625" stroke="url(#paint32_linear_1187_4266)" stroke-width="0.486974" stroke-miterlimit="10"/>
<path d="M-177.295 268.228C-147.067 276.515 -102.38 284.119 -57.0752 270.608C-2.50772 254.335 0.999692 225.688 50.5536 213.854C115.384 198.41 140.811 239.758 209.763 221.646C272.575 204.949 284.783 172.72 338.711 170.328C379.531 168.477 388.219 186.247 435.438 183.957C471.217 182.22 503.614 172.208 525.381 164.069" stroke="url(#paint33_linear_1187_4266)" stroke-width="0.486974" stroke-miterlimit="10"/>
<path d="M-174.915 270.637C-144.318 279.599 -99.0977 287.952 -53.4285 274.001C1.42526 257.245 4.63669 226.751 54.531 214.571C119.786 198.674 145.88 242.958 215.1 224.874C277.698 208.347 289.226 173.23 342.763 171.474C383.266 170.105 392.259 189.693 439.236 188.083C474.664 186.868 506.544 176.265 527.939 167.522" stroke="url(#paint34_linear_1187_4266)" stroke-width="0.486974" stroke-miterlimit="10"/>
<path d="M-172.532 273.051C-141.564 282.688 -95.8116 291.79 -49.7781 277.399C5.36183 260.16 8.2773 227.818 58.5133 215.284C124.194 198.926 150.954 246.153 220.447 228.094C282.832 211.729 293.679 173.733 346.822 172.607C387.007 171.72 396.306 193.117 443.032 192.196C478.118 191.503 509.473 180.299 530.499 170.957" stroke="url(#paint35_linear_1187_4266)" stroke-width="0.486974" stroke-miterlimit="10"/>
<path d="M-170.149 275.465C-138.807 285.782 -92.5219 295.632 -46.128 280.797C9.29828 263.075 11.9178 228.886 62.4905 216.001C128.595 199.19 156.024 249.352 225.784 231.322C287.95 215.122 298.122 174.243 350.865 173.751C390.732 173.347 400.333 196.556 446.821 196.321C481.558 196.142 512.394 184.355 533.051 174.414" stroke="url(#paint36_linear_1187_4266)" stroke-width="0.486974" stroke-miterlimit="10"/>
<path d="M-167.764 277.87C-136.052 288.861 -89.207 299.54 -42.4764 284.186C13.2696 266.079 15.5596 229.944 66.4727 216.713C132.998 199.445 161.098 252.546 231.129 234.55C293.086 218.517 302.568 174.758 354.922 174.892C394.468 174.965 404.384 199.986 450.616 200.442C485.007 200.781 515.326 188.402 535.61 177.858" stroke="url(#paint37_linear_1187_4266)" stroke-width="0.486974" stroke-miterlimit="10"/>
<path d="M-165.381 280.285C-133.295 291.955 -85.9228 303.365 -38.8207 287.58C17.207 268.963 19.202 231.004 70.4554 217.427C137.405 199.706 166.173 255.742 236.476 237.771C298.216 221.903 307.021 175.261 358.981 176.025C398.215 176.578 408.434 203.402 454.42 204.556C488.468 205.404 518.259 192.442 538.18 181.295" stroke="url(#paint38_linear_1187_4266)" stroke-width="0.486974" stroke-miterlimit="10"/>
<path d="M-162.998 282.699C-130.546 295.048 -82.6392 307.189 -35.1706 290.979C21.1373 271.86 22.8424 232.072 74.4362 218.149C141.815 199.972 171.245 258.947 241.817 241.004C303.347 225.303 311.468 175.777 363.033 177.171C401.949 178.206 412.476 206.831 458.209 208.681C491.917 210.044 521.185 196.494 540.732 184.752" stroke="url(#paint39_linear_1187_4266)" stroke-width="0.486974" stroke-miterlimit="10"/>
<path d="M-160.618 285.108C-127.796 298.132 -79.3587 311.008 -31.52 294.376C25.0683 274.756 26.4783 233.143 78.4138 218.866C146.213 200.231 176.315 262.145 247.159 244.228C308.471 228.692 315.916 176.283 367.087 178.308C405.686 179.825 416.525 210.193 462.006 212.794C495.371 214.627 524.11 200.532 543.292 188.187" stroke="url(#paint40_linear_1187_4266)" stroke-width="0.486974" stroke-miterlimit="10"/>
<path d="M-158.235 287.522C-125.039 301.225 -76.0787 314.827 -27.8698 297.774C28.9987 277.652 30.1187 234.21 82.391 219.582C150.614 200.495 181.388 265.349 252.496 247.455C313.595 232.081 320.353 176.797 371.13 179.452C409.412 181.452 420.56 213.665 465.79 216.922C498.814 219.3 527.031 204.588 545.845 191.643" stroke="url(#paint41_linear_1187_4266)" stroke-width="0.486974" stroke-miterlimit="10"/>
</g>
<g style="mix-blend-mode:color-dodge" opacity="0.4" filter="url(#filter1_f_1187_4266)">
<path d="M522.979 223.726C482.994 232.549 425.337 238.15 374.656 209.491C314.861 175.688 322.278 126.718 266.547 99.9953C193.804 65.1107 146.333 131.807 70.1146 97.6976C4.6295 68.3905 8.08346 5.01937 -49.421 -2.02435C-92.7792 -7.33248 -111.72 26.6091 -163.113 21.333C-200.65 17.4799 -229.375 -4.59823 -247.895 -22.8365" stroke="url(#paint42_linear_1187_4266)" stroke-width="0.486974" stroke-miterlimit="10"/>
<path d="M-244.887 -25.2568C-225.859 -7.73442 -196.438 13.5799 -158.552 17.9631C-106.902 23.8381 -88.5286 -8.07076 -44.8352 -2.32192C13.0904 5.28884 10.7758 65.4239 76.5728 94.7379C152.571 128.636 198.9 65.1166 271.274 99.2321C326.714 125.372 319.883 172.289 379.48 205.326C429.856 233.313 486.836 228.34 526.32 220.153" stroke="url(#paint43_linear_1187_4266)" stroke-width="0.486974" stroke-miterlimit="10"/>
<path d="M-241.874 -27.6815C-222.334 -10.8802 -192.221 9.6755 -153.971 14.5832C-102.069 21.0722 -84.263 -8.81391 -40.2342 -2.62439C18.1077 5.55859 16.9372 62.4524 83.0457 91.7633C158.824 125.441 204.001 65.098 276.016 98.4539C331.159 124.007 324.925 168.879 384.318 201.135C434.376 228.476 490.679 224.141 529.671 216.579" stroke="url(#paint44_linear_1187_4266)" stroke-width="0.486974" stroke-miterlimit="10"/>
<path d="M-238.855 -30.102C-218.813 -14.0214 -188.015 5.86585 -149.39 11.2125C-97.2508 18.4262 -80.0018 -9.5425 -35.628 -2.92268C23.1402 5.83211 23.1038 59.485 89.5242 88.8028C165.082 122.27 209.112 65.0983 280.763 97.6899C335.61 122.656 329.968 165.479 389.162 196.969C438.89 223.644 494.526 219.937 533.018 213.01" stroke="url(#paint45_linear_1187_4266)" stroke-width="0.486974" stroke-miterlimit="10"/>
<path d="M-235.847 -32.5219C-215.297 -17.1572 -183.811 1.99664 -144.818 7.84261C-92.4358 15.7008 -75.7455 -10.2756 -31.0365 -3.21507C28.1528 6.10675 29.2559 56.5236 95.983 85.8436C171.315 119.095 214.204 65.0998 285.49 96.9271C340.041 121.305 335.055 161.948 393.986 192.794C443.465 218.695 498.364 215.733 536.36 209.437" stroke="url(#paint46_linear_1187_4266)" stroke-width="0.486974" stroke-miterlimit="10"/>
<path d="M-232.834 -34.947C-211.772 -20.3034 -179.598 -1.88303 -140.237 4.47221C-87.6061 12.9696 -71.4795 -11.0092 -26.4299 -3.50318C33.1757 6.39087 35.4229 53.5665 102.457 82.8885C177.574 115.924 219.31 65.1056 290.228 96.1638C344.482 119.955 340.106 158.518 398.82 188.629C447.994 213.847 502.206 211.534 539.701 205.874" stroke="url(#paint47_linear_1187_4266)" stroke-width="0.486974" stroke-miterlimit="10"/>
<path d="M-229.821 -37.3723C-208.251 -23.4446 -175.385 -5.76292 -135.661 1.09682C-82.7869 10.2287 -67.2239 -11.7525 -21.829 -3.80622C38.1978 6.65486 41.5843 50.5944 108.93 79.9233C183.822 112.744 224.411 65.0964 294.97 95.3951C348.928 118.599 345.158 155.088 403.659 184.448C452.526 208.974 506.054 207.33 543.053 202.3" stroke="url(#paint48_linear_1187_4266)" stroke-width="0.486974" stroke-miterlimit="10"/>
<path d="M-226.812 -39.7922C-204.73 -26.5856 -171.182 -9.64213 -131.089 -2.27312C-77.9672 7.48803 -62.9674 -12.4856 -17.2371 -4.09865C43.2111 6.93943 47.7365 47.6329 115.394 76.9588C190.07 109.563 229.508 65.0926 299.702 94.6269C353.364 117.254 350.194 151.653 408.488 180.277C457.051 204.122 509.892 203.126 546.4 198.732" stroke="url(#paint49_linear_1187_4266)" stroke-width="0.486974" stroke-miterlimit="10"/>
<path d="M-223.798 -42.2175C-201.209 -29.7269 -166.969 -13.522 -126.512 -5.64854C-73.143 4.74188 -58.7065 -13.2242 -12.636 -4.40175C48.2333 7.20337 53.8981 44.6608 121.862 73.9888C196.313 106.378 234.609 65.0834 304.439 93.8534C357.805 115.893 355.24 148.218 413.317 176.097C461.574 199.26 513.729 198.922 549.736 195.153" stroke="url(#paint50_linear_1187_4266)" stroke-width="0.486974" stroke-miterlimit="10"/>
<path d="M-220.785 -44.6418C-197.689 -32.867 -162.756 -17.4109 -121.937 -9.02287C-68.3246 1.99204 -54.4508 -13.9565 -8.04023 -4.69853C53.2502 7.47362 60.0591 41.6897 128.33 71.0299C202.562 103.208 239.71 65.0853 309.176 93.091C362.245 114.543 360.281 144.789 418.156 171.927C466.097 194.409 517.576 194.719 553.088 191.59" stroke="url(#paint51_linear_1187_4266)" stroke-width="0.486974" stroke-miterlimit="10"/>
<path d="M-217.777 -47.0628C-194.173 -36.0139 -158.553 -21.3011 -117.359 -12.3891C-63.5048 -0.749681 -50.189 -14.6859 -3.44314 -4.98722C58.2636 7.75717 66.2167 38.732 134.794 68.0743C208.805 100.032 244.802 65.0856 313.908 92.3219C366.682 113.187 365.318 141.364 422.98 167.751C470.616 189.551 521.414 190.514 556.425 188.011" stroke="url(#paint52_linear_1187_4266)" stroke-width="0.486974" stroke-miterlimit="10"/>
<path d="M-214.764 -49.4876C-190.653 -39.1546 -154.341 -25.1905 -112.779 -15.7692C-58.6717 -3.50572 -45.9239 -15.4292 1.16212 -5.29503C63.29 8.01639 72.3824 35.7551 141.272 65.1043C215.063 96.8516 249.912 65.0765 318.655 91.5484C371.132 111.826 370.369 137.924 427.823 163.565C475.144 184.683 525.261 186.3 559.78 184.433" stroke="url(#paint53_linear_1187_4266)" stroke-width="0.486974" stroke-miterlimit="10"/>
<path d="M-211.746 -51.9074C-187.123 -42.2956 -150.124 -29.0748 -108.198 -19.1391C-53.853 -6.2559 -41.6579 -16.1622 5.76341 -5.58738C68.3128 8.30104 78.5441 32.7938 147.745 62.1399C221.311 93.6717 255.018 65.0728 323.397 90.7804C375.577 110.471 375.415 134.5 432.662 159.395C479.672 179.837 529.113 182.101 563.127 180.865" stroke="url(#paint54_linear_1187_4266)" stroke-width="0.486974" stroke-miterlimit="10"/>
<path d="M-208.737 -54.328C-183.607 -45.4321 -145.921 -32.9648 -103.626 -22.5098C-49.0292 -9.01254 -37.407 -16.9009 10.3598 -5.88577C73.3303 8.56968 84.7009 29.8263 154.209 59.1746C227.554 90.4858 260.115 65.0683 328.129 90.0116C380.013 109.115 380.442 131.075 437.49 155.214C484.191 174.979 532.946 177.892 566.474 177.286" stroke="url(#paint55_linear_1187_4266)" stroke-width="0.486974" stroke-miterlimit="10"/>
<path d="M-205.724 -56.7522C-180.086 -48.5722 -141.708 -36.8635 -99.0497 -25.8841C-44.2055 -11.7675 -33.146 -17.6384 14.956 -6.18255C78.3476 8.83993 90.9219 26.7179 160.677 56.2157C233.866 87.1636 265.211 65.0653 332.866 89.2491C384.454 107.765 385.484 127.656 442.325 151.049C488.71 170.133 536.794 173.699 569.815 173.723" stroke="url(#paint56_linear_1187_4266)" stroke-width="0.486974" stroke-miterlimit="10"/>
<path d="M-202.71 -59.1783C-176.56 -51.7194 -137.495 -40.7541 -94.4676 -29.2554C-39.3765 -14.5296 -28.8842 -18.3677 19.5632 -6.4716C83.3711 9.12311 97.0896 23.7598 167.152 53.2597C240.12 83.987 270.318 65.0701 337.604 88.4848C388.896 106.413 390.516 124.236 447.154 146.878C493.224 165.29 540.632 169.494 573.158 170.159" stroke="url(#paint57_linear_1187_4266)" stroke-width="0.486974" stroke-miterlimit="10"/>
<path d="M-199.701 -61.5987C-173.044 -54.8556 -133.288 -44.649 -89.8961 -32.6259C-34.558 -17.2907 -24.6281 -19.1013 24.1595 -6.76972C88.3885 9.39202 103.246 20.7827 173.615 50.2947C246.368 80.8061 275.415 65.066 342.336 87.7163C393.332 105.058 395.548 120.816 451.988 142.702C497.743 160.443 544.475 165.294 576.504 166.58" stroke="url(#paint58_linear_1187_4266)" stroke-width="0.486974" stroke-miterlimit="10"/>
<path d="M-196.688 -64.0235C-169.524 -57.9964 -129.071 -48.5536 -85.3202 -36.0008C-29.7351 -20.0563 -20.3675 -19.8394 28.7554 -7.06709C93.4059 9.67166 109.407 17.811 180.088 47.3299C252.621 77.6208 280.52 65.062 347.078 86.948C397.782 103.707 400.585 117.402 456.822 138.526C502.257 155.591 548.316 161.086 579.851 163.012" stroke="url(#paint59_linear_1187_4266)" stroke-width="0.486974" stroke-miterlimit="10"/>
<path d="M-193.676 -66.4483C-166.004 -61.147 -124.865 -52.4576 -80.7445 -39.3756C-24.9124 -22.8218 -16.1072 -20.5774 33.351 -7.36438C98.4226 9.94141 115.563 14.8447 186.551 44.3658C258.859 74.4412 285.611 65.0538 351.809 86.1803C402.217 102.352 405.611 113.978 461.655 134.351C506.77 150.75 552.159 156.887 583.192 159.439" stroke="url(#paint60_linear_1187_4266)" stroke-width="0.486974" stroke-miterlimit="10"/>
<path d="M-190.667 -68.8688C-162.487 -64.2835 -120.652 -56.3579 -76.1672 -42.7414C-20.0833 -25.5835 -11.8453 -21.3064 37.9531 -7.65789C103.446 10.2149 121.73 11.8769 193.025 41.4101C265.118 71.2696 290.718 65.0589 356.553 85.4211C406.664 101.005 410.644 110.578 466.49 130.185C511.29 145.912 556.002 152.688 586.544 155.875" stroke="url(#paint61_linear_1187_4266)" stroke-width="0.486974" stroke-miterlimit="10"/>
<path d="M-187.648 -71.2881C-158.957 -67.4239 -116.435 -60.2517 -71.5861 -46.1108C-15.2504 -28.3487 -7.58471 -22.0437 42.5542 -7.9497C108.463 10.4953 127.892 8.91607 199.493 38.4514C271.361 68.0955 295.819 65.061 361.284 84.6541C411.1 99.6512 415.67 107.165 471.323 126.01C515.804 141.071 559.844 148.49 589.886 152.302" stroke="url(#paint62_linear_1187_4266)" stroke-width="0.486974" stroke-miterlimit="10"/>
<path d="M-184.635 -73.7136C-155.436 -70.5653 -112.222 -64.1617 -67.0046 -49.4915C-10.4223 -31.1302 -3.32341 -22.7825 47.1604 -8.25821C113.496 10.7586 134.059 5.93851 205.967 35.4759C277.614 64.9094 300.925 65.0463 366.026 83.875C415.545 98.2848 420.702 103.746 476.157 121.824C520.318 136.219 563.692 144.275 593.237 148.718" stroke="url(#paint63_linear_1187_4266)" stroke-width="0.486974" stroke-miterlimit="10"/>
<path d="M-181.627 -76.1332C-151.921 -73.7008 -108.011 -68.061 -62.4336 -52.8612C-5.59475 -33.9009 0.932229 -23.5153 51.7514 -8.55032C118.503 11.0388 140.21 2.97735 212.435 32.5165C283.862 61.7293 306.021 65.0429 370.763 83.1121C419.986 96.9346 425.729 100.342 480.99 117.649C524.826 131.383 567.534 140.066 596.578 145.145" stroke="url(#paint64_linear_1187_4266)" stroke-width="0.486974" stroke-miterlimit="10"/>
<path d="M-178.614 -78.5586C-148.395 -76.8473 -103.794 -71.9761 -57.8574 -56.2367C-0.77195 -36.6771 5.19308 -24.2539 56.3476 -8.84826C123.52 11.3078 146.367 0.0103559 218.898 29.5516C290.105 58.5538 311.117 65.0388 375.495 82.3437C424.422 95.579 430.757 96.9375 485.819 113.479C529.336 126.556 571.372 135.872 599.92 141.582" stroke="url(#paint65_linear_1187_4266)" stroke-width="0.486974" stroke-miterlimit="10"/>
<path d="M-175.6 -80.9839C-144.874 -79.9885 -99.5769 -75.8811 -53.2759 -59.6072C4.06608 -39.4487 9.45912 -24.9877 60.9537 -9.1465C128.548 11.5766 152.533 -2.95689 225.377 26.5913C298.22 56.1395 316.229 65.0392 380.243 81.5798C428.873 94.2278 435.789 93.538 490.658 109.308C533.85 121.724 575.219 131.668 603.271 138.008" stroke="url(#paint66_linear_1187_4266)" stroke-width="0.486974" stroke-miterlimit="10"/>
<path d="M-172.592 -83.4036C-141.359 -83.1341 -95.3651 -79.7905 -48.7045 -62.977C8.88891 -42.2243 13.7152 -25.7206 65.5504 -9.43398C133.561 11.8614 158.686 -5.9082 231.841 23.6369C302.597 52.2182 321.325 65.0457 384.975 80.8219C433.309 92.8827 440.812 90.1494 495.493 105.142C538.365 116.902 579.062 127.479 606.619 134.45" stroke="url(#paint67_linear_1187_4266)" stroke-width="0.486974" stroke-miterlimit="10"/>
<path d="M-169.578 -85.8292C-137.838 -86.2755 -91.1481 -83.7057 -44.1278 -66.3526C13.7218 -45.011 17.9713 -26.4642 70.1519 -9.73727C138.588 12.1299 164.848 -8.88061 238.309 20.6667C311.771 50.2139 326.421 65.0314 389.707 80.0433C437.745 91.5168 445.83 86.7352 500.316 100.957C542.865 112.056 582.894 123.26 609.95 130.866" stroke="url(#paint68_linear_1187_4266)" stroke-width="0.486974" stroke-miterlimit="10"/>
<path d="M-166.565 -88.2539C-134.317 -89.4162 -86.9261 -87.6154 -39.5515 -69.7275C18.5495 -47.7917 22.2275 -27.197 74.7481 -10.0346C143.601 12.4048 170.999 -11.8417 244.782 17.7021C315.094 45.8572 331.528 65.0276 394.449 79.2752C442.196 90.1662 450.857 83.3415 505.16 96.7811C547.384 107.229 586.752 119.056 613.312 127.293" stroke="url(#paint69_linear_1187_4266)" stroke-width="0.486974" stroke-miterlimit="10"/>
<path d="M-163.556 -90.6742C-130.797 -92.5576 -82.7144 -91.5254 -34.9801 -73.0978C23.3822 -50.5683 26.4834 -27.9305 79.3394 -10.3274C148.613 12.6791 177.097 -14.6514 251.241 14.7424C321.273 42.8343 336.624 65.0235 399.176 78.512C446.627 88.8158 455.876 79.9575 509.979 92.6109C551.879 102.408 590.575 114.858 616.638 123.725" stroke="url(#paint70_linear_1187_4266)" stroke-width="0.486974" stroke-miterlimit="10"/>
<path d="M-160.539 -93.0938C-127.271 -95.6931 -78.4932 -95.4346 -30.3941 -76.4627C28.2245 -53.3443 30.7541 -28.6586 83.9503 -10.62C153.645 12.9535 183.269 -17.613 257.719 11.7829C327.531 39.6542 341.735 65.0247 403.923 77.7489C451.077 87.4655 460.908 76.5688 514.828 88.4404C556.399 97.5914 594.437 110.659 620 120.161" stroke="url(#paint71_linear_1187_4266)" stroke-width="0.486974" stroke-miterlimit="10"/>
<path d="M-157.525 -95.5195C-123.745 -98.8399 -74.2714 -99.3553 -25.8174 -79.8385C33.0573 -56.1312 35.0154 -29.3976 88.5469 -10.9183C158.663 13.2322 189.426 -20.5804 264.188 8.8224C333.78 36.483 346.831 65.0202 408.661 76.9849C455.518 86.1142 465.932 73.1892 519.657 84.2693C560.909 92.7741 598.27 106.459 623.341 116.587" stroke="url(#paint72_linear_1187_4266)" stroke-width="0.486974" stroke-miterlimit="10"/>
<path d="M-154.516 -97.9396C-120.229 -101.976 -70.0545 -103.27 -21.2408 -83.2139C37.89 -58.9176 39.2766 -30.1361 93.1482 -11.2213C163.686 13.4962 195.588 -23.5525 270.656 5.85246C340.028 33.2924 351.933 65.0111 413.393 76.2067C459.954 84.7487 470.95 69.7953 524.486 80.0788C565.414 87.9425 602.112 102.24 626.683 113.004" stroke="url(#paint73_linear_1187_4266)" stroke-width="0.486974" stroke-miterlimit="10"/>
<path d="M-151.503 -100.364C-116.714 -105.121 -65.8336 -107.19 -16.6651 -86.5888C42.7267 -61.7088 43.5321 -30.869 97.7439 -11.5187C168.698 13.7711 201.744 -26.5189 277.129 2.88776C346.275 30.1123 357.038 65.0072 418.134 75.4384C464.399 83.3932 475.973 66.4167 529.324 75.9083C569.923 83.1262 605.959 98.0365 630.029 109.436" stroke="url(#paint74_linear_1187_4266)" stroke-width="0.486974" stroke-miterlimit="10"/>
<path d="M-148.49 -102.79C-113.188 -108.268 -61.6064 -111.105 -12.0832 -89.9592C47.5648 -64.4902 47.7935 -31.6073 102.346 -11.8115C173.721 14.0453 207.906 -29.4807 283.598 -0.0719692C352.524 26.9419 362.135 65.0034 422.872 74.6751C468.841 82.0427 480.997 63.0478 534.153 71.738C574.43 78.3248 609.797 93.8427 633.376 105.867" stroke="url(#paint75_linear_1187_4266)" stroke-width="0.486974" stroke-miterlimit="10"/>
<path d="M-145.482 -105.21C-109.673 -111.404 -57.3901 -115.02 -7.51204 -93.3295C52.3969 -67.2768 52.0492 -32.3408 106.942 -12.1095C178.738 14.3143 214.062 -32.4478 290.061 -3.03691C358.767 23.7564 367.231 64.9993 427.609 73.9015C473.281 80.6817 486.02 59.6685 538.992 67.5569C578.939 73.5078 613.644 89.6282 636.722 102.288" stroke="url(#paint76_linear_1187_4266)" stroke-width="0.486974" stroke-miterlimit="10"/>
<path d="M-142.468 -107.634C-106.152 -114.544 -53.1685 -118.94 -2.93558 -96.7042C57.2344 -70.0678 56.3103 -33.0787 111.543 -12.402C183.761 14.5988 220.224 -35.4093 296.535 -5.99154C365.021 20.5911 372.338 65.0054 432.351 73.1433C477.727 79.3363 491.05 56.3146 543.826 63.3917C583.455 68.7063 617.487 85.4396 640.07 98.7301" stroke="url(#paint77_linear_1187_4266)" stroke-width="0.486974" stroke-miterlimit="10"/>
<path d="M-139.455 -110.06C-102.626 -117.691 -48.9423 -122.865 1.64065 -100.08C62.0716 -72.8595 60.5712 -33.8173 116.139 -12.6999C188.778 14.868 226.381 -38.3762 302.998 -8.95631C371.259 17.4109 377.434 65.0014 437.078 72.3702C482.158 77.976 496.058 52.9411 548.655 59.2112C587.956 63.8999 621.324 81.2257 643.411 95.1467" stroke="url(#paint78_linear_1187_4266)" stroke-width="0.486974" stroke-miterlimit="10"/>
<path d="M-136.441 -112.475C-99.1056 -120.822 -44.6791 -126.862 6.21712 -103.445C66.9598 -75.7479 64.8323 -34.5456 120.741 -12.9926C193.796 15.1475 232.543 -41.338 309.472 -11.9211C377.517 14.2302 382.535 64.9926 441.82 71.6018C486.599 76.6255 501.092 49.5819 553.488 55.0358C592.466 59.0933 625.172 77.0217 646.757 91.5783" stroke="url(#paint79_linear_1187_4266)" stroke-width="0.486974" stroke-miterlimit="10"/>
<path d="M-133.428 -114.9C-95.5801 -123.968 -40.462 -130.767 10.7986 -106.815C71.7935 -78.5043 69.0936 -35.2741 125.342 -13.2856C198.818 15.4215 238.705 -44.3001 315.945 -14.8763C383.765 11.0595 387.641 64.9982 446.562 70.8431C491.05 75.2843 506.122 46.2375 558.332 50.8696C596.987 54.306 629.019 72.8273 650.114 88.0191" stroke="url(#paint80_linear_1187_4266)" stroke-width="0.486974" stroke-miterlimit="10"/>
<path d="M-130.415 -117.326C-92.0648 -127.114 -36.2451 -134.672 15.3748 -110.191C76.6214 -81.2757 73.3544 -36.0127 129.943 -13.5888C203.846 15.6901 244.866 -47.2723 322.414 -17.8464C390.018 7.87363 392.742 64.9889 451.299 70.0695C495.49 73.9235 511.146 42.8782 563.161 46.689C601.498 49.4991 632.862 68.6181 653.456 84.4357" stroke="url(#paint81_linear_1187_4266)" stroke-width="0.486974" stroke-miterlimit="10"/>
<path d="M-127.407 -119.745C-88.5489 -130.25 -32.0328 -138.572 19.951 -113.566C81.4495 -84.0467 77.61 -36.7558 134.539 -13.8864C208.858 15.9647 251.023 -50.2389 328.882 -20.8061C396.262 4.69847 397.844 64.99 456.037 69.3063C499.931 72.573 516.169 39.5943 567.995 42.5234C606.006 44.7575 636.7 64.4244 656.803 80.8772" stroke="url(#paint82_linear_1187_4266)" stroke-width="0.486974" stroke-miterlimit="10"/>
<path d="M-124.393 -122.17C-85.0229 -133.396 -27.8201 -142.471 24.5277 -116.94C86.278 -86.8171 81.8714 -37.4935 139.136 -14.1834C213.876 16.2348 257.185 -53.2102 335.346 -23.7701C402.505 1.52382 402.935 64.982 460.764 68.5339C504.362 71.2134 521.191 36.186 572.819 38.3389C610.515 39.9115 640.537 60.2112 660.144 77.2945" stroke="url(#paint83_linear_1187_4266)" stroke-width="0.486974" stroke-miterlimit="10"/>
</g>
</g>
<defs>
<filter id="filter0_f_1187_4266" x="-261.688" y="30.9764" width="813.288" height="280.623" filterUnits="userSpaceOnUse" color-interpolation-filters="sRGB">
<feFlood flood-opacity="0" result="BackgroundImageFix"/>
<feBlend mode="normal" in="SourceGraphic" in2="BackgroundImageFix" result="shape"/>
<feGaussianBlur stdDeviation="2.80833" result="effect1_foregroundBlur_1187_4266"/>
</filter>
<filter id="filter1_f_1187_4266" x="-252.067" y="-137.619" width="916.372" height="372.719" filterUnits="userSpaceOnUse" color-interpolation-filters="sRGB">
<feFlood flood-opacity="0" result="BackgroundImageFix"/>
<feBlend mode="normal" in="SourceGraphic" in2="BackgroundImageFix" result="shape"/>
<feGaussianBlur stdDeviation="2" result="effect1_foregroundBlur_1187_4266"/>
</filter>
<linearGradient id="paint0_linear_1187_4266" x1="354.345" y1="-16.8513" x2="7.2768" y2="-1.93878" gradientUnits="userSpaceOnUse">
<stop stop-color="#FFA114"/>
<stop offset="1" stop-color="#E87205"/>
</linearGradient>
<linearGradient id="paint1_linear_1187_4266" x1="322.062" y1="-2.25562e-05" x2="-19.6466" y2="155.097" gradientUnits="userSpaceOnUse">
<stop stop-color="white"/>
<stop offset="0.515625" stop-color="white" stop-opacity="0"/>
<stop offset="1" stop-color="white" stop-opacity="0.8"/>
</linearGradient>
<linearGradient id="paint2_linear_1187_4266" x1="352.412" y1="-69.9682" x2="-164.013" y2="310.607" gradientUnits="userSpaceOnUse">
<stop stop-color="white"/>
<stop offset="1" stop-color="#424242"/>
</linearGradient>
<linearGradient id="paint3_linear_1187_4266" x1="354.725" y1="-66.8501" x2="-161.325" y2="313.44" gradientUnits="userSpaceOnUse">
<stop stop-color="white"/>
<stop offset="1" stop-color="#424242"/>
</linearGradient>
<linearGradient id="paint4_linear_1187_4266" x1="357.008" y1="-63.7841" x2="-158.674" y2="316.223" gradientUnits="userSpaceOnUse">
<stop stop-color="white"/>
<stop offset="1" stop-color="#424242"/>
</linearGradient>
<linearGradient id="paint5_linear_1187_4266" x1="359.288" y1="-60.721" x2="-156.019" y2="319" gradientUnits="userSpaceOnUse">
<stop stop-color="white"/>
<stop offset="1" stop-color="#424242"/>
</linearGradient>
<linearGradient id="paint6_linear_1187_4266" x1="361.561" y1="-57.6574" x2="-153.372" y2="321.778" gradientUnits="userSpaceOnUse">
<stop stop-color="white"/>
<stop offset="1" stop-color="#424242"/>
</linearGradient>
<linearGradient id="paint7_linear_1187_4266" x1="363.84" y1="-54.5969" x2="-150.724" y2="324.557" gradientUnits="userSpaceOnUse">
<stop stop-color="white"/>
<stop offset="1" stop-color="#424242"/>
</linearGradient>
<linearGradient id="paint8_linear_1187_4266" x1="366.122" y1="-51.5316" x2="-148.073" y2="327.34" gradientUnits="userSpaceOnUse">
<stop stop-color="white"/>
<stop offset="1" stop-color="#424242"/>
</linearGradient>
<linearGradient id="paint9_linear_1187_4266" x1="368.4" y1="-48.4714" x2="-145.425" y2="330.118" gradientUnits="userSpaceOnUse">
<stop stop-color="white"/>
<stop offset="1" stop-color="#424242"/>
</linearGradient>
<linearGradient id="paint10_linear_1187_4266" x1="370.671" y1="-45.4007" x2="-142.775" y2="332.899" gradientUnits="userSpaceOnUse">
<stop stop-color="white"/>
<stop offset="1" stop-color="#424242"/>
</linearGradient>
<linearGradient id="paint11_linear_1187_4266" x1="372.956" y1="-42.3421" x2="-140.126" y2="335.68" gradientUnits="userSpaceOnUse">
<stop stop-color="white"/>
<stop offset="1" stop-color="#424242"/>
</linearGradient>
<linearGradient id="paint12_linear_1187_4266" x1="375.225" y1="-39.2738" x2="-137.478" y2="338.459" gradientUnits="userSpaceOnUse">
<stop stop-color="white"/>
<stop offset="1" stop-color="#424242"/>
</linearGradient>
<linearGradient id="paint13_linear_1187_4266" x1="382.064" y1="-30.0774" x2="-129.52" y2="346.803" gradientUnits="userSpaceOnUse">
<stop stop-color="white"/>
<stop offset="1" stop-color="#424242"/>
</linearGradient>
<linearGradient id="paint14_linear_1187_4266" x1="384.342" y1="-27.0173" x2="-126.872" y2="349.581" gradientUnits="userSpaceOnUse">
<stop stop-color="white"/>
<stop offset="1" stop-color="#424242"/>
</linearGradient>
<linearGradient id="paint15_linear_1187_4266" x1="386.621" y1="-23.9562" x2="-124.224" y2="352.361" gradientUnits="userSpaceOnUse">
<stop stop-color="white"/>
<stop offset="1" stop-color="#424242"/>
</linearGradient>
<linearGradient id="paint16_linear_1187_4266" x1="388.896" y1="-20.8898" x2="-121.575" y2="355.142" gradientUnits="userSpaceOnUse">
<stop stop-color="white"/>
<stop offset="1" stop-color="#424242"/>
</linearGradient>
<linearGradient id="paint17_linear_1187_4266" x1="391.176" y1="-17.827" x2="-118.925" y2="357.923" gradientUnits="userSpaceOnUse">
<stop stop-color="white"/>
<stop offset="1" stop-color="#424242"/>
</linearGradient>
<linearGradient id="paint18_linear_1187_4266" x1="393.451" y1="-14.7606" x2="-116.275" y2="360.704" gradientUnits="userSpaceOnUse">
<stop stop-color="white"/>
<stop offset="1" stop-color="#424242"/>
</linearGradient>
<linearGradient id="paint19_linear_1187_4266" x1="395.735" y1="-11.7035" x2="-113.627" y2="363.483" gradientUnits="userSpaceOnUse">
<stop stop-color="white"/>
<stop offset="1" stop-color="#424242"/>
</linearGradient>
<linearGradient id="paint20_linear_1187_4266" x1="398.01" y1="-8.63777" x2="-110.972" y2="366.26" gradientUnits="userSpaceOnUse">
<stop stop-color="white"/>
<stop offset="1" stop-color="#424242"/>
</linearGradient>
<linearGradient id="paint21_linear_1187_4266" x1="400.289" y1="-5.56632" x2="-108.318" y2="369.047" gradientUnits="userSpaceOnUse">
<stop stop-color="white"/>
<stop offset="1" stop-color="#424242"/>
</linearGradient>
<linearGradient id="paint22_linear_1187_4266" x1="402.563" y1="-2.50225" x2="-105.67" y2="371.826" gradientUnits="userSpaceOnUse">
<stop stop-color="white"/>
<stop offset="1" stop-color="#424242"/>
</linearGradient>
<linearGradient id="paint23_linear_1187_4266" x1="404.841" y1="0.558147" x2="-103.022" y2="374.605" gradientUnits="userSpaceOnUse">
<stop stop-color="white"/>
<stop offset="1" stop-color="#424242"/>
</linearGradient>
<linearGradient id="paint24_linear_1187_4266" x1="407.123" y1="3.62393" x2="-100.37" y2="377.389" gradientUnits="userSpaceOnUse">
<stop stop-color="white"/>
<stop offset="1" stop-color="#424242"/>
</linearGradient>
<linearGradient id="paint25_linear_1187_4266" x1="409.405" y1="6.67745" x2="-97.7234" y2="380.166" gradientUnits="userSpaceOnUse">
<stop stop-color="white"/>
<stop offset="1" stop-color="#424242"/>
</linearGradient>
<linearGradient id="paint26_linear_1187_4266" x1="411.67" y1="9.75198" x2="-95.0729" y2="382.948" gradientUnits="userSpaceOnUse">
<stop stop-color="white"/>
<stop offset="1" stop-color="#424242"/>
</linearGradient>
<linearGradient id="paint27_linear_1187_4266" x1="413.959" y1="12.8156" x2="-92.4191" y2="385.734" gradientUnits="userSpaceOnUse">
<stop stop-color="white"/>
<stop offset="1" stop-color="#424242"/>
</linearGradient>
<linearGradient id="paint28_linear_1187_4266" x1="416.224" y1="15.8789" x2="-89.7743" y2="388.509" gradientUnits="userSpaceOnUse">
<stop stop-color="white"/>
<stop offset="1" stop-color="#424242"/>
</linearGradient>
<linearGradient id="paint29_linear_1187_4266" x1="418.516" y1="18.9359" x2="-87.1177" y2="391.289" gradientUnits="userSpaceOnUse">
<stop stop-color="white"/>
<stop offset="1" stop-color="#424242"/>
</linearGradient>
<linearGradient id="paint30_linear_1187_4266" x1="420.791" y1="22.0034" x2="-84.4673" y2="394.071" gradientUnits="userSpaceOnUse">
<stop stop-color="white"/>
<stop offset="1" stop-color="#424242"/>
</linearGradient>
<linearGradient id="paint31_linear_1187_4266" x1="423.061" y1="25.0734" x2="-81.817" y2="396.853" gradientUnits="userSpaceOnUse">
<stop stop-color="white"/>
<stop offset="1" stop-color="#424242"/>
</linearGradient>
<linearGradient id="paint32_linear_1187_4266" x1="425.342" y1="28.1357" x2="-79.1665" y2="399.634" gradientUnits="userSpaceOnUse">
<stop stop-color="white"/>
<stop offset="1" stop-color="#424242"/>
</linearGradient>
<linearGradient id="paint33_linear_1187_4266" x1="427.622" y1="31.1985" x2="-76.5161" y2="402.416" gradientUnits="userSpaceOnUse">
<stop stop-color="white"/>
<stop offset="1" stop-color="#424242"/>
</linearGradient>
<linearGradient id="paint34_linear_1187_4266" x1="429.897" y1="34.2653" x2="-73.8657" y2="405.199" gradientUnits="userSpaceOnUse">
<stop stop-color="white"/>
<stop offset="1" stop-color="#424242"/>
</linearGradient>
<linearGradient id="paint35_linear_1187_4266" x1="432.181" y1="37.3218" x2="-71.217" y2="407.978" gradientUnits="userSpaceOnUse">
<stop stop-color="white"/>
<stop offset="1" stop-color="#424242"/>
</linearGradient>
<linearGradient id="paint36_linear_1187_4266" x1="434.453" y1="40.3946" x2="-68.565" y2="410.763" gradientUnits="userSpaceOnUse">
<stop stop-color="white"/>
<stop offset="1" stop-color="#424242"/>
</linearGradient>
<linearGradient id="paint37_linear_1187_4266" x1="436.731" y1="43.4544" x2="-65.9115" y2="413.538" gradientUnits="userSpaceOnUse">
<stop stop-color="white"/>
<stop offset="1" stop-color="#424242"/>
</linearGradient>
<linearGradient id="paint38_linear_1187_4266" x1="439.022" y1="46.5104" x2="-63.2605" y2="416.321" gradientUnits="userSpaceOnUse">
<stop stop-color="white"/>
<stop offset="1" stop-color="#424242"/>
</linearGradient>
<linearGradient id="paint39_linear_1187_4266" x1="441.293" y1="49.5834" x2="-60.6085" y2="419.106" gradientUnits="userSpaceOnUse">
<stop stop-color="white"/>
<stop offset="1" stop-color="#424242"/>
</linearGradient>
<linearGradient id="paint40_linear_1187_4266" x1="443.575" y1="52.6375" x2="-57.9612" y2="421.883" gradientUnits="userSpaceOnUse">
<stop stop-color="white"/>
<stop offset="1" stop-color="#424242"/>
</linearGradient>
<linearGradient id="paint41_linear_1187_4266" x1="445.847" y1="55.7099" x2="-55.309" y2="424.667" gradientUnits="userSpaceOnUse">
<stop stop-color="white"/>
<stop offset="1" stop-color="#424242"/>
</linearGradient>
<linearGradient id="paint42_linear_1187_4266" x1="406.994" y1="348.475" x2="-127.798" y2="-149.178" gradientUnits="userSpaceOnUse">
<stop stop-color="white"/>
<stop offset="1" stop-color="white"/>
</linearGradient>
<linearGradient id="paint43_linear_1187_4266" x1="410.02" y1="345.243" x2="-124.386" y2="-152.039" gradientUnits="userSpaceOnUse">
<stop stop-color="white"/>
<stop offset="1" stop-color="white"/>
</linearGradient>
<linearGradient id="paint44_linear_1187_4266" x1="413.004" y1="342.068" x2="-121.021" y2="-154.847" gradientUnits="userSpaceOnUse">
<stop stop-color="white"/>
<stop offset="1" stop-color="white"/>
</linearGradient>
<linearGradient id="paint45_linear_1187_4266" x1="415.986" y1="338.895" x2="-117.653" y2="-157.648" gradientUnits="userSpaceOnUse">
<stop stop-color="white"/>
<stop offset="1" stop-color="white"/>
</linearGradient>
<linearGradient id="paint46_linear_1187_4266" x1="418.96" y1="335.72" x2="-114.293" y2="-160.451" gradientUnits="userSpaceOnUse">
<stop stop-color="white"/>
<stop offset="1" stop-color="white"/>
</linearGradient>
<linearGradient id="paint47_linear_1187_4266" x1="421.939" y1="332.549" x2="-110.933" y2="-163.254" gradientUnits="userSpaceOnUse">
<stop stop-color="white"/>
<stop offset="1" stop-color="white"/>
</linearGradient>
<linearGradient id="paint48_linear_1187_4266" x1="424.923" y1="329.374" x2="-107.568" y2="-166.063" gradientUnits="userSpaceOnUse">
<stop stop-color="white"/>
<stop offset="1" stop-color="white"/>
</linearGradient>
<linearGradient id="paint49_linear_1187_4266" x1="427.902" y1="326.204" x2="-104.207" y2="-168.866" gradientUnits="userSpaceOnUse">
<stop stop-color="white"/>
<stop offset="1" stop-color="white"/>
</linearGradient>
<linearGradient id="paint50_linear_1187_4266" x1="430.873" y1="323.021" x2="-100.845" y2="-171.672" gradientUnits="userSpaceOnUse">
<stop stop-color="white"/>
<stop offset="1" stop-color="white"/>
</linearGradient>
<linearGradient id="paint51_linear_1187_4266" x1="433.86" y1="319.854" x2="-97.4823" y2="-174.477" gradientUnits="userSpaceOnUse">
<stop stop-color="white"/>
<stop offset="1" stop-color="white"/>
</linearGradient>
<linearGradient id="paint52_linear_1187_4266" x1="436.829" y1="316.673" x2="-94.1218" y2="-177.281" gradientUnits="userSpaceOnUse">
<stop stop-color="white"/>
<stop offset="1" stop-color="white"/>
</linearGradient>
<linearGradient id="paint53_linear_1187_4266" x1="439.814" y1="313.495" x2="-90.7547" y2="-180.092" gradientUnits="userSpaceOnUse">
<stop stop-color="white"/>
<stop offset="1" stop-color="white"/>
</linearGradient>
<linearGradient id="paint54_linear_1187_4266" x1="442.796" y1="310.323" x2="-87.3869" y2="-182.893" gradientUnits="userSpaceOnUse">
<stop stop-color="white"/>
<stop offset="1" stop-color="white"/>
</linearGradient>
<linearGradient id="paint55_linear_1187_4266" x1="445.772" y1="307.145" x2="-84.024" y2="-185.7" gradientUnits="userSpaceOnUse">
<stop stop-color="white"/>
<stop offset="1" stop-color="white"/>
</linearGradient>
<linearGradient id="paint56_linear_1187_4266" x1="448.751" y1="303.975" x2="-80.6633" y2="-188.503" gradientUnits="userSpaceOnUse">
<stop stop-color="white"/>
<stop offset="1" stop-color="white"/>
</linearGradient>
<linearGradient id="paint57_linear_1187_4266" x1="451.731" y1="300.804" x2="-77.3021" y2="-191.307" gradientUnits="userSpaceOnUse">
<stop stop-color="white"/>
<stop offset="1" stop-color="white"/>
</linearGradient>
<linearGradient id="paint58_linear_1187_4266" x1="454.707" y1="297.626" x2="-73.9391" y2="-194.114" gradientUnits="userSpaceOnUse">
<stop stop-color="white"/>
<stop offset="1" stop-color="white"/>
</linearGradient>
<linearGradient id="paint59_linear_1187_4266" x1="457.688" y1="294.453" x2="-70.5764" y2="-196.92" gradientUnits="userSpaceOnUse">
<stop stop-color="white"/>
<stop offset="1" stop-color="white"/>
</linearGradient>
<linearGradient id="paint60_linear_1187_4266" x1="460.664" y1="291.276" x2="-67.2139" y2="-199.726" gradientUnits="userSpaceOnUse">
<stop stop-color="white"/>
<stop offset="1" stop-color="white"/>
</linearGradient>
<linearGradient id="paint61_linear_1187_4266" x1="463.649" y1="288.11" x2="-63.8525" y2="-202.53" gradientUnits="userSpaceOnUse">
<stop stop-color="white"/>
<stop offset="1" stop-color="white"/>
</linearGradient>
<linearGradient id="paint62_linear_1187_4266" x1="466.625" y1="284.934" x2="-60.4845" y2="-205.331" gradientUnits="userSpaceOnUse">
<stop stop-color="white"/>
<stop offset="1" stop-color="white"/>
</linearGradient>
<linearGradient id="paint63_linear_1187_4266" x1="469.606" y1="281.75" x2="-57.1161" y2="-208.143" gradientUnits="userSpaceOnUse">
<stop stop-color="white"/>
<stop offset="1" stop-color="white"/>
</linearGradient>
<linearGradient id="paint64_linear_1187_4266" x1="472.58" y1="278.576" x2="-53.7559" y2="-210.946" gradientUnits="userSpaceOnUse">
<stop stop-color="white"/>
<stop offset="1" stop-color="white"/>
</linearGradient>
<linearGradient id="paint65_linear_1187_4266" x1="475.559" y1="275.405" x2="-50.3948" y2="-213.751" gradientUnits="userSpaceOnUse">
<stop stop-color="white"/>
<stop offset="1" stop-color="white"/>
</linearGradient>
<linearGradient id="paint66_linear_1187_4266" x1="478.543" y1="272.229" x2="-47.0292" y2="-216.56" gradientUnits="userSpaceOnUse">
<stop stop-color="white"/>
<stop offset="1" stop-color="white"/>
</linearGradient>
<linearGradient id="paint67_linear_1187_4266" x1="481.525" y1="269.067" x2="-43.6705" y2="-219.361" gradientUnits="userSpaceOnUse">
<stop stop-color="white"/>
<stop offset="1" stop-color="white"/>
</linearGradient>
<linearGradient id="paint68_linear_1187_4266" x1="484.491" y1="265.879" x2="-40.3068" y2="-222.168" gradientUnits="userSpaceOnUse">
<stop stop-color="white"/>
<stop offset="1" stop-color="white"/>
</linearGradient>
<linearGradient id="paint69_linear_1187_4266" x1="487.483" y1="262.706" x2="-36.9384" y2="-224.98" gradientUnits="userSpaceOnUse">
<stop stop-color="white"/>
<stop offset="1" stop-color="white"/>
</linearGradient>
<linearGradient id="paint70_linear_1187_4266" x1="490.447" y1="259.531" x2="-33.5823" y2="-227.779" gradientUnits="userSpaceOnUse">
<stop stop-color="white"/>
<stop offset="1" stop-color="white"/>
</linearGradient>
<linearGradient id="paint71_linear_1187_4266" x1="493.44" y1="256.366" x2="-30.2116" y2="-230.583" gradientUnits="userSpaceOnUse">
<stop stop-color="white"/>
<stop offset="1" stop-color="white"/>
</linearGradient>
<linearGradient id="paint72_linear_1187_4266" x1="496.417" y1="253.188" x2="-26.8477" y2="-233.391" gradientUnits="userSpaceOnUse">
<stop stop-color="white"/>
<stop offset="1" stop-color="white"/>
</linearGradient>
<linearGradient id="paint73_linear_1187_4266" x1="499.388" y1="250.005" x2="-23.4839" y2="-236.198" gradientUnits="userSpaceOnUse">
<stop stop-color="white"/>
<stop offset="1" stop-color="white"/>
</linearGradient>
<linearGradient id="paint74_linear_1187_4266" x1="502.369" y1="246.833" x2="-20.1208" y2="-239.004" gradientUnits="userSpaceOnUse">
<stop stop-color="white"/>
<stop offset="1" stop-color="white"/>
</linearGradient>
<linearGradient id="paint75_linear_1187_4266" x1="505.351" y1="243.66" x2="-16.7565" y2="-241.811" gradientUnits="userSpaceOnUse">
<stop stop-color="white"/>
<stop offset="1" stop-color="white"/>
</linearGradient>
<linearGradient id="paint76_linear_1187_4266" x1="508.327" y1="240.482" x2="-13.3932" y2="-244.619" gradientUnits="userSpaceOnUse">
<stop stop-color="white"/>
<stop offset="1" stop-color="white"/>
</linearGradient>
<linearGradient id="paint77_linear_1187_4266" x1="511.312" y1="237.317" x2="-10.0314" y2="-247.423" gradientUnits="userSpaceOnUse">
<stop stop-color="white"/>
<stop offset="1" stop-color="white"/>
</linearGradient>
<linearGradient id="paint78_linear_1187_4266" x1="514.285" y1="234.132" x2="-6.66543" y2="-250.233" gradientUnits="userSpaceOnUse">
<stop stop-color="white"/>
<stop offset="1" stop-color="white"/>
</linearGradient>
<linearGradient id="paint79_linear_1187_4266" x1="517.264" y1="230.962" x2="-3.29899" y2="-253.032" gradientUnits="userSpaceOnUse">
<stop stop-color="white"/>
<stop offset="1" stop-color="white"/>
</linearGradient>
<linearGradient id="paint80_linear_1187_4266" x1="520.256" y1="227.798" x2="0.065085" y2="-255.84" gradientUnits="userSpaceOnUse">
<stop stop-color="white"/>
<stop offset="1" stop-color="white"/>
</linearGradient>
<linearGradient id="paint81_linear_1187_4266" x1="523.229" y1="224.613" x2="3.43119" y2="-258.65" gradientUnits="userSpaceOnUse">
<stop stop-color="white"/>
<stop offset="1" stop-color="white"/>
</linearGradient>
<linearGradient id="paint82_linear_1187_4266" x1="526.211" y1="221.45" x2="6.79043" y2="-261.452" gradientUnits="userSpaceOnUse">
<stop stop-color="white"/>
<stop offset="1" stop-color="white"/>
</linearGradient>
<linearGradient id="paint83_linear_1187_4266" x1="529.185" y1="218.266" x2="10.1572" y2="-264.261" gradientUnits="userSpaceOnUse">
<stop stop-color="white"/>
<stop offset="1" stop-color="white"/>
</linearGradient>
</defs>
</svg>
