<svg width="82" height="99" viewBox="0 0 82 99" fill="none" xmlns="http://www.w3.org/2000/svg">
<g id="Pig">
<g id="Layer_1">
<path id="Vector" d="M63.7819 20.5981C63.565 20.7558 63.3665 20.9228 63.1773 21.0945C60.2882 21.0945 58.5253 22.9546 57.9253 24.1747C57.6622 24.7128 57.8791 25.3576 58.4099 25.6313C58.9406 25.9003 59.596 25.6869 59.8683 25.1535C59.9513 24.9865 60.4682 24.0726 61.6082 23.5855C61.3589 24.6107 61.5205 25.7008 62.1066 26.7863C63.2096 28.8274 66.0064 30.7618 67.7555 30.1773C67.7786 30.168 67.8016 30.1634 67.8201 30.1541C69.0431 29.6902 69.8646 28.1919 69.8185 26.508C69.7585 24.3556 68.2355 22.5882 65.9694 21.6929C68.2678 20.5239 69.6015 20.9785 70.3584 21.3357C72.7721 22.4815 72.2875 24.6154 72.8875 24.6154C73.7875 24.6154 74.009 21.1594 71.323 19.5034C69.1631 18.172 66.334 18.7101 63.7773 20.6074L63.7819 20.5981ZM67.6493 26.5637C67.6724 27.4033 67.3078 27.9831 67.0771 28.0945C66.4956 28.1455 64.5111 27.0136 63.865 25.4132C63.5696 24.6803 63.6342 24.003 64.068 23.3582C64.3403 23.4046 64.6265 23.4742 64.9264 23.5716C67.3309 24.3324 67.6309 25.9189 67.6493 26.5637Z" fill="url(#paint0_linear_1208_31804)"/>
<path id="Vector_2" d="M27.0825 86.344C24.9734 85.1194 17.52 84.8735 17.52 84.8735L17.8615 88.5614C17.8615 89.3639 18.3877 90.1618 19.4445 90.7787C21.5536 92.0034 24.9688 92.0034 27.0825 90.7787C29.1916 89.5541 29.1916 87.5733 27.0825 86.3486V86.344Z" fill="url(#paint1_linear_1208_31804)"/>
<path id="Vector_3" d="M31.6883 94.9959C31.7945 95.8262 32.3944 96.638 33.4882 97.2735C35.9112 98.6791 39.8432 98.6791 42.2616 97.2735C43.4707 96.5684 44.0799 95.6453 44.0799 94.7268L44.8322 89.4478L30.4653 89.5963L31.6883 94.9959Z" fill="url(#paint2_linear_1208_31804)"/>
<path id="Vector_4" d="M61.4417 83.5055C61.5478 84.3358 62.1524 85.1476 63.2415 85.7831C65.6645 87.1887 69.5966 87.1887 72.0149 85.7831C73.224 85.078 73.8332 84.1549 73.8332 83.2364L77.9822 66.3464L60.7725 76.3431L61.437 83.5008L61.4417 83.5055Z" fill="url(#paint3_linear_1208_31804)"/>
<g id="Clip path group">
<mask id="mask0_1208_31804" style="mask-type:luminance" maskUnits="userSpaceOnUse" x="3" y="22" width="79" height="69">
<g id="clippath">
<path id="Vector_5" d="M27.6361 27.663C4.26518 39.5291 -7.16646 70.8598 17.5152 86.2096C26.3162 91.6835 43.0414 93.1957 60.1588 84.382C83.5529 72.3396 84.6143 47.2806 76.9025 36.7458C69.1906 26.211 51.0024 15.7969 27.6315 27.663H27.6361Z" fill="white"/>
</g>
</mask>
<g mask="url(#mask0_1208_31804)">
<g id="Group">
<path id="Vector_6" d="M84.8032 15.201H-6.97754V92.5998H84.8032V15.201Z" fill="url(#paint4_linear_1208_31804)"/>
</g>
</g>
</g>
<path id="Vector_7" d="M21.3735 85.1097L21.433 85.0731C21.433 85.0731 21.3964 85.096 21.3781 85.1097H21.3735Z" fill="#CE6480"/>
<path id="Vector_8" d="M7.62012 31.532L18.7795 40.0721C20.3163 39.0748 20.6486 36.9455 19.4763 35.5353C17.1549 32.7381 12.9183 29.1709 7.62012 31.532Z" fill="url(#paint5_linear_1208_31804)"/>
<path id="Vector_9" d="M48.778 45.2351C39.9815 40.3968 31.0098 47.5824 31.0098 47.5824C40.6461 49.5214 44.1998 64.0085 44.1998 64.0085C55.1376 60.1629 54.4176 48.3385 48.7733 45.2351H48.778Z" fill="url(#paint6_linear_1208_31804)"/>
<path id="Vector_10" d="M29.6341 68.7305C29.9941 68.3547 30.2064 67.7656 30.2064 66.9956C30.2064 65.0241 28.8264 62.6258 27.1281 61.6377C25.4297 60.6496 24.0498 61.4522 24.0498 63.4237C24.0498 63.4654 24.0498 63.5118 24.0544 63.5535C26.2789 64.8153 28.1665 66.6105 29.6341 68.7305Z" fill="#040D3F"/>
<path id="Vector_11" d="M14.6815 58.9199C14.7461 58.405 14.2016 54.7125 10.6433 54.8007C8.66803 54.8517 6.87275 56.9948 7.12659 58.1313C9.66028 57.802 12.2447 58.1035 14.6815 58.9199Z" fill="#040D3F"/>
<path id="Vector_12" d="M6.85407 32.1724C3.51273 36.3474 9.46161 44.8318 9.46161 44.8318C11.7276 40.0631 18.7795 40.077 18.7795 40.077C18.7795 40.077 10.1954 27.9975 6.85407 32.1771V32.1724Z" fill="url(#paint7_linear_1208_31804)"/>
<path id="Vector_13" d="M31.0098 47.5824C31.0098 47.5824 37.9371 51.6738 44.1998 64.0085C44.1998 64.0085 50.8963 52.8938 45.7228 47.1185C41.6338 42.5539 31.0098 47.5824 31.0098 47.5824Z" fill="url(#paint8_linear_1208_31804)"/>
<path id="Vector_14" d="M13.6615 64.259C10.4632 63.4333 6.09271 64.9966 1.62989 67.9515C-2.97138 71.0038 17.9166 82.5592 17.9166 82.5592C17.9166 82.5592 21.3734 79.1264 21.3734 73.3186C21.3734 69.3849 19.1212 65.6692 13.6615 64.259Z" fill="url(#paint9_linear_1208_31804)"/>
<path id="Vector_15" d="M8.56178 68.3968C3.36516 66.2073 -0.44692 67.5896 0.0422817 71.4909C0.536099 75.3922 5.15121 80.3325 10.3478 82.522C15.5445 84.7116 19.3565 83.3292 18.8673 79.4279C18.3735 75.5267 13.763 70.5863 8.56178 68.3968Z" fill="url(#paint10_linear_1208_31804)"/>
<path id="Vector_16" d="M5.04986 70.5353C4.27914 70.2106 3.8084 71.194 4.00685 72.7295C4.20068 74.2649 4.98525 75.7772 5.75598 76.1019C6.5267 76.4266 6.99744 75.4432 6.79899 73.9077C6.60516 72.3676 5.82059 70.86 5.04986 70.5353Z" fill="#040D3F"/>
<path id="Vector_17" d="M12.0416 74.4597C11.2708 74.135 10.8001 75.1185 10.9985 76.6539C11.1924 78.194 11.977 79.7016 12.7477 80.0263C13.5184 80.3511 13.9891 79.3676 13.7907 77.8322C13.5969 76.2921 12.8123 74.7845 12.0416 74.4597Z" fill="#040D3F"/>
<path id="Vector_18" d="M48.5795 25.1768C36.9494 25.0423 28.1161 32.7845 27.7423 33.1139C26.9762 33.7958 26.9023 34.974 27.5807 35.7441C27.9084 36.1152 28.3515 36.3286 28.8084 36.3657C29.2976 36.4121 29.8052 36.259 30.2021 35.9064C30.2806 35.8368 38.3709 28.7905 48.5334 28.9064C49.5579 28.9204 50.3979 28.0946 50.4117 27.0602C50.4255 26.0304 49.5994 25.1861 48.5749 25.1722L48.5795 25.1768Z" fill="#901957"/>
<path id="Vector_19" d="M48.4779 25.9886C37.2447 25.8588 28.7114 33.3365 28.3514 33.6566C27.6084 34.3153 27.5391 35.4518 28.1945 36.1987C28.5083 36.5605 28.9375 36.76 29.3806 36.8018C29.8559 36.8435 30.3405 36.6997 30.7282 36.3564C30.8066 36.2868 38.6154 29.4817 48.4364 29.593C49.4286 29.6023 50.2409 28.8044 50.2501 27.8117C50.2593 26.8144 49.4655 25.9979 48.4779 25.9886Z" fill="#040D3F"/>
<g id="Coin">
<path id="Vector_20" d="M37.5469 17.6224C34.7039 19.2692 32.4102 23.2725 32.4195 26.5568C32.4241 28.1804 32.9964 29.3262 33.9194 29.8689L35.3501 30.7039C34.427 30.1658 33.8548 29.02 33.8501 27.3918C33.8409 24.1075 36.1392 20.1042 38.9775 18.4574C40.4082 17.6271 41.7005 17.5529 42.6373 18.1002L41.2066 17.2652C40.2698 16.7179 38.9775 16.7967 37.5469 17.6271V17.6224Z" fill="#005583"/>
<g id="Group_2" opacity="0.3">
<path id="Vector_21" d="M33.9794 28.6166L32.5718 27.8605C32.6272 28.0924 32.6964 28.3104 32.7841 28.5099L34.1825 29.2614C34.104 29.0619 34.0348 28.8485 33.984 28.6212L33.9794 28.6166Z" fill="white" fill-opacity="0.6"/>
<path id="Vector_22" d="M36.8866 20.1833L35.419 19.3947C35.3129 19.5154 35.2021 19.6313 35.1006 19.7566L36.5682 20.5452C36.6743 20.4199 36.7805 20.2993 36.8866 20.1833Z" fill="white" fill-opacity="0.6"/>
<path id="Vector_23" d="M36.3607 20.8096L34.8931 20.021C34.7962 20.1462 34.6992 20.2715 34.6069 20.4013L36.0699 21.19C36.1622 21.0601 36.2638 20.9348 36.3607 20.8096Z" fill="white" fill-opacity="0.6"/>
<path id="Vector_24" d="M39.7436 18.0815L38.2437 17.2744C38.0729 17.3486 37.8975 17.4321 37.7222 17.5295L39.2129 18.332C39.3928 18.2346 39.5682 18.1557 39.7436 18.0815Z" fill="white" fill-opacity="0.6"/>
<path id="Vector_25" d="M35.8806 21.4588L34.4176 20.6702C34.3299 20.8001 34.2423 20.93 34.1592 21.0645L35.6176 21.8485C35.7006 21.714 35.7883 21.5841 35.8806 21.4542V21.4588Z" fill="white" fill-opacity="0.6"/>
<path id="Vector_26" d="M40.8652 17.78L39.3422 16.9589C39.116 16.9914 38.8899 17.0424 38.6499 17.1213L40.159 17.9331C40.4036 17.8589 40.639 17.8078 40.8652 17.78Z" fill="white" fill-opacity="0.6"/>
<path id="Vector_27" d="M38.1284 19.0329L36.6469 18.235C36.5131 18.3371 36.3839 18.4484 36.2593 18.5598L37.7361 19.353C37.8653 19.2417 37.9992 19.135 38.1284 19.0283V19.0329Z" fill="white" fill-opacity="0.6"/>
<path id="Vector_28" d="M37.4683 19.5897L35.996 18.7965C35.876 18.9078 35.7653 19.0285 35.6499 19.1444L37.1221 19.9377C37.2375 19.8217 37.3529 19.7011 37.4683 19.5897Z" fill="white" fill-opacity="0.6"/>
<path id="Vector_29" d="M38.8668 18.5225L37.3808 17.7246C37.2285 17.8174 37.0808 17.9148 36.9331 18.0168L38.4146 18.8147C38.5622 18.7126 38.7145 18.6152 38.8668 18.5225Z" fill="white" fill-opacity="0.6"/>
<path id="Vector_30" d="M33.9932 25.8983L32.5533 25.1236C32.5256 25.2906 32.5026 25.453 32.4795 25.62L33.9148 26.3946C33.9333 26.2323 33.9609 26.0653 33.9932 25.9029V25.8983Z" fill="white" fill-opacity="0.6"/>
<path id="Vector_31" d="M35.0594 22.8363L33.601 22.0523C33.5272 22.1915 33.4626 22.3353 33.3979 22.4791L34.8517 23.2631C34.9163 23.1193 34.9855 22.9801 35.0548 22.8409L35.0594 22.8363Z" fill="white" fill-opacity="0.6"/>
<path id="Vector_32" d="M35.4469 22.1362L33.9886 21.3522C33.9101 21.4867 33.8317 21.6259 33.7578 21.7651L35.2162 22.549C35.29 22.4099 35.3685 22.2753 35.4469 22.1408V22.1362Z" fill="white" fill-opacity="0.6"/>
<path id="Vector_33" d="M34.4222 29.767L33.0469 29.0294C33.2822 29.3866 33.573 29.6695 33.9145 29.869L35.1421 30.588L35.1514 30.5695C34.8652 30.3654 34.616 30.0963 34.4176 29.767H34.4222Z" fill="white" fill-opacity="0.6"/>
<path id="Vector_34" d="M42.259 17.9191L42.2775 17.8867L41.2021 17.2604C40.8375 17.047 40.4176 16.9311 39.9561 16.9171L41.5252 17.7614C41.7836 17.7846 42.0282 17.831 42.259 17.9191Z" fill="white" fill-opacity="0.6"/>
<path id="Vector_35" d="M33.8597 27.6427L32.4336 26.8773C32.4428 27.0721 32.4613 27.2623 32.489 27.4432L33.9058 28.2086C33.8827 28.0277 33.8643 27.8421 33.855 27.6473L33.8597 27.6427Z" fill="white" fill-opacity="0.6"/>
<path id="Vector_36" d="M34.7129 23.5604L33.2638 22.781C33.1991 22.9248 33.1438 23.0733 33.0884 23.2217L34.5375 24.001C34.5929 23.8526 34.6529 23.7088 34.7129 23.5604Z" fill="white" fill-opacity="0.6"/>
<path id="Vector_37" d="M33.8732 26.7429L32.4379 25.9728C32.424 26.1491 32.4194 26.3207 32.4194 26.497L33.8501 27.267C33.8501 27.0954 33.8593 26.9191 33.8732 26.7429Z" fill="white" fill-opacity="0.6"/>
<path id="Vector_38" d="M34.1776 25.0865L32.7331 24.3118C32.6915 24.4695 32.65 24.6272 32.6177 24.7849L34.0576 25.5596C34.0945 25.4019 34.136 25.2442 34.1776 25.0865Z" fill="white" fill-opacity="0.6"/>
<path id="Vector_39" d="M34.4179 24.3122L32.9687 23.5329C32.9179 23.686 32.8626 23.8344 32.8164 23.9875L34.2656 24.7668C34.3117 24.6137 34.3625 24.4653 34.4179 24.3122Z" fill="white" fill-opacity="0.6"/>
</g>
<path id="Vector_40" d="M38.9726 18.4575C36.1297 20.1043 33.836 24.1076 33.8452 27.3919C33.8545 30.6669 36.1666 31.9936 39.0049 30.3421C41.8479 28.6954 44.1416 24.6921 44.1323 21.417C44.1231 18.1327 41.8109 16.806 38.968 18.4528L38.9726 18.4575Z" fill="#01839A"/>
<g id="Group_3" opacity="0.4">
<path id="Vector_41" d="M42.6235 18.105C42.2405 17.8869 41.802 17.7663 41.3174 17.7617C38.9591 20.1321 36.5962 22.5072 34.2379 24.8777C34.0348 25.5596 33.9102 26.2461 33.8687 26.9095L42.6235 18.105Z" fill="white"/>
<path id="Vector_42" d="M34.9352 30.3702C37.9997 27.29 41.0641 24.2098 44.1239 21.1343C44.0962 20.573 44.0039 20.072 43.847 19.6406L34.2061 29.3311C34.386 29.7578 34.6399 30.1011 34.9352 30.3702Z" fill="white"/>
</g>
</g>
<g id="Coin_2">
<path id="Vector_43" d="M51.9258 0.706205C49.0829 2.35299 46.7891 6.3563 46.7984 9.64059C46.803 11.2642 47.3753 12.41 48.2983 12.9527L49.729 13.7877C48.8059 13.2496 48.2337 12.1038 48.2291 10.4756C48.2198 7.19129 50.5182 3.18798 53.3564 1.54119C54.7871 0.710844 56.0794 0.636623 57.0162 1.184L55.5855 0.349015C54.6487 -0.198367 53.3564 -0.119507 51.9258 0.710844V0.706205Z" fill="#005583"/>
<g id="Group_4" opacity="0.3">
<path id="Vector_44" d="M48.3583 11.7004L46.9507 10.9443C47.0061 11.1762 47.0753 11.3942 47.163 11.5937L48.5614 12.3452C48.4829 12.1457 48.4137 11.9323 48.3629 11.705L48.3583 11.7004Z" fill="white" fill-opacity="0.6"/>
<path id="Vector_45" d="M51.2655 3.26712L49.7979 2.47852C49.6918 2.59913 49.581 2.7151 49.4795 2.84034L50.9471 3.62894C51.0532 3.5037 51.1594 3.38309 51.2655 3.26712Z" fill="white" fill-opacity="0.6"/>
<path id="Vector_46" d="M50.7396 3.89334L49.272 3.10474C49.1751 3.22998 49.0781 3.35523 48.9858 3.48512L50.4488 4.27372C50.5411 4.14383 50.6427 4.01859 50.7396 3.89334Z" fill="white" fill-opacity="0.6"/>
<path id="Vector_47" d="M54.1225 1.16528L52.6226 0.358124C52.4518 0.432345 52.2764 0.515844 52.1011 0.613259L53.5918 1.41578C53.7717 1.31836 53.9471 1.2395 54.1225 1.16528Z" fill="white" fill-opacity="0.6"/>
<path id="Vector_48" d="M50.2595 4.5426L48.7965 3.754C48.7088 3.88388 48.6212 4.01377 48.5381 4.1483L49.9965 4.93226C50.0795 4.79773 50.1672 4.66785 50.2595 4.53796V4.5426Z" fill="white" fill-opacity="0.6"/>
<path id="Vector_49" d="M55.2441 0.863767L53.7211 0.0426941C53.4949 0.0751659 53.2688 0.126193 53.0288 0.205053L54.5379 1.01685C54.7826 0.942627 55.0179 0.8916 55.2441 0.863767Z" fill="white" fill-opacity="0.6"/>
<path id="Vector_50" d="M52.5073 2.1167L51.0259 1.31882C50.892 1.42087 50.7628 1.5322 50.6382 1.64354L52.115 2.43677C52.2442 2.32544 52.3781 2.21875 52.5073 2.11206V2.1167Z" fill="white" fill-opacity="0.6"/>
<path id="Vector_51" d="M51.8472 2.67352L50.3749 1.88028C50.255 1.99161 50.1442 2.11222 50.0288 2.22819L51.501 3.02143C51.6164 2.90546 51.7318 2.78485 51.8472 2.67352Z" fill="white" fill-opacity="0.6"/>
<path id="Vector_52" d="M53.2457 1.60623L51.7597 0.80835C51.6074 0.901126 51.4597 0.998542 51.312 1.1006L52.7935 1.89847C52.9411 1.79642 53.0934 1.699 53.2457 1.60623Z" fill="white" fill-opacity="0.6"/>
<path id="Vector_53" d="M48.3722 8.98205L46.9322 8.20737C46.9045 8.37436 46.8815 8.53672 46.8584 8.70372L48.2937 9.47841C48.3122 9.31605 48.3398 9.14905 48.3722 8.98669V8.98205Z" fill="white" fill-opacity="0.6"/>
<path id="Vector_54" d="M49.4383 5.92007L47.9799 5.13611C47.9061 5.27527 47.8415 5.41908 47.7769 5.56288L49.2306 6.34684C49.2952 6.20304 49.3645 6.06387 49.4337 5.92471L49.4383 5.92007Z" fill="white" fill-opacity="0.6"/>
<path id="Vector_55" d="M49.8259 5.21994L48.3675 4.43597C48.289 4.5705 48.2106 4.70966 48.1367 4.84883L49.5951 5.63279C49.6689 5.49363 49.7474 5.3591 49.8259 5.22457V5.21994Z" fill="white" fill-opacity="0.6"/>
<path id="Vector_56" d="M48.8011 12.8507L47.4258 12.1131C47.6612 12.4703 47.9519 12.7533 48.2934 12.9528L49.521 13.6718L49.5303 13.6532C49.2441 13.4491 48.9949 13.1801 48.7965 12.8507H48.8011Z" fill="white" fill-opacity="0.6"/>
<path id="Vector_57" d="M56.6379 1.0029L56.6564 0.970431L55.581 0.344189C55.2165 0.130803 54.7965 0.014832 54.335 0.000915527L55.9041 0.845182C56.1625 0.868376 56.4072 0.914765 56.6379 1.0029Z" fill="white" fill-opacity="0.6"/>
<path id="Vector_58" d="M48.2381 10.7264L46.812 9.96103C46.8212 10.1559 46.8397 10.3461 46.8674 10.527L48.2842 11.2924C48.2612 11.1115 48.2427 10.9259 48.2335 10.7311L48.2381 10.7264Z" fill="white" fill-opacity="0.6"/>
<path id="Vector_59" d="M49.0918 6.64413L47.6427 5.86481C47.578 6.00861 47.5227 6.15705 47.4673 6.3055L48.9164 7.08482C48.9718 6.93638 49.0318 6.79257 49.0918 6.64413Z" fill="white" fill-opacity="0.6"/>
<path id="Vector_60" d="M48.2521 9.82663L46.8168 9.05658C46.803 9.23286 46.7983 9.40449 46.7983 9.58077L48.229 10.3508C48.229 10.1792 48.2383 10.0029 48.2521 9.82663Z" fill="white" fill-opacity="0.6"/>
<path id="Vector_61" d="M48.5565 8.17025L47.112 7.39557C47.0704 7.55329 47.0289 7.71101 46.9966 7.86873L48.4365 8.64341C48.4734 8.48569 48.515 8.32797 48.5565 8.17025Z" fill="white" fill-opacity="0.6"/>
<path id="Vector_62" d="M48.7963 7.39593L47.3471 6.61661C47.2964 6.76969 47.241 6.91813 47.1948 7.07121L48.644 7.85054C48.6901 7.69746 48.7409 7.54901 48.7963 7.39593Z" fill="white" fill-opacity="0.6"/>
</g>
<path id="Vector_63" d="M53.3515 1.54124C50.5086 3.18802 48.2149 7.19133 48.2241 10.4756C48.2334 13.7506 50.5456 15.0773 53.3838 13.4259C56.2268 11.7791 58.5205 7.77582 58.5112 4.50081C58.502 1.21652 56.1898 -0.110185 53.3469 1.5366L53.3515 1.54124Z" fill="#01839A"/>
<g id="Group_5" opacity="0.4">
<path id="Vector_64" d="M57.0024 1.18895C56.6194 0.970921 56.1809 0.850311 55.6964 0.845673C53.338 3.21611 50.9751 5.59119 48.6168 7.96164C48.4137 8.64354 48.2891 9.33009 48.2476 9.99344L57.0024 1.18895Z" fill="white"/>
<path id="Vector_65" d="M49.3137 13.454C52.3781 10.3738 55.4425 7.29364 58.5024 4.2181C58.4747 3.6568 58.3824 3.15581 58.2254 2.7244L48.5845 12.4149C48.7645 12.8417 49.0183 13.185 49.3137 13.454Z" fill="white"/>
</g>
</g>
<g id="Coin_3">
<path id="Vector_66" d="M20.6308 1.55203C17.7879 3.19881 15.4942 7.20212 15.5034 10.4864C15.5081 12.11 16.0803 13.2558 17.0034 13.7985L18.434 14.6335C17.511 14.0954 16.9387 12.9496 16.9341 11.3214C16.9249 8.03711 19.2232 4.0338 22.0615 2.38702C23.4922 1.55667 24.7844 1.48245 25.7213 2.02983L24.2906 1.19484C23.3538 0.647459 22.0615 0.726319 20.6308 1.55667V1.55203Z" fill="#005583"/>
<g id="Group_6" opacity="0.3">
<path id="Vector_67" d="M17.0634 12.5462L15.6558 11.7901C15.7111 12.022 15.7804 12.24 15.8681 12.4395L17.2664 13.191C17.188 12.9915 17.1188 12.7781 17.068 12.5508L17.0634 12.5462Z" fill="white" fill-opacity="0.6"/>
<path id="Vector_68" d="M19.9706 4.11291L18.503 3.32431C18.3969 3.44492 18.2861 3.56089 18.1846 3.68614L19.6522 4.47474C19.7583 4.34949 19.8645 4.22888 19.9706 4.11291Z" fill="white" fill-opacity="0.6"/>
<path id="Vector_69" d="M19.4447 4.73916L17.9771 3.95056C17.8801 4.07581 17.7832 4.20106 17.6909 4.33095L19.1539 5.11955C19.2462 4.98966 19.3477 4.86441 19.4447 4.73916Z" fill="white" fill-opacity="0.6"/>
<path id="Vector_70" d="M22.8276 2.01111L21.3277 1.20395C21.1569 1.27817 20.9815 1.36167 20.8062 1.45908L22.2968 2.2616C22.4768 2.16419 22.6522 2.08533 22.8276 2.01111Z" fill="white" fill-opacity="0.6"/>
<path id="Vector_71" d="M18.9646 5.38842L17.5016 4.59982C17.4139 4.72971 17.3262 4.8596 17.2432 4.99412L18.7015 5.77809C18.7846 5.64356 18.8723 5.51367 18.9646 5.38378V5.38842Z" fill="white" fill-opacity="0.6"/>
<path id="Vector_72" d="M23.9491 1.70959L22.4262 0.888519C22.2 0.920991 21.9739 0.972018 21.7339 1.05088L23.243 1.86267C23.4876 1.78845 23.723 1.73742 23.9491 1.70959Z" fill="white" fill-opacity="0.6"/>
<path id="Vector_73" d="M21.2124 2.96252L19.7309 2.16464C19.5971 2.2667 19.4679 2.37803 19.3433 2.48936L20.8201 3.2826C20.9493 3.17127 21.0832 3.06458 21.2124 2.95788V2.96252Z" fill="white" fill-opacity="0.6"/>
<path id="Vector_74" d="M20.5522 3.51934L19.08 2.7261C18.96 2.83744 18.8493 2.95805 18.7339 3.07402L20.2061 3.86726C20.3215 3.75129 20.4369 3.63068 20.5522 3.51934Z" fill="white" fill-opacity="0.6"/>
<path id="Vector_75" d="M21.9508 2.45205L20.4648 1.65417C20.3125 1.74695 20.1648 1.84437 20.0171 1.94642L21.4985 2.7443C21.6462 2.64225 21.7985 2.54483 21.9508 2.45205Z" fill="white" fill-opacity="0.6"/>
<path id="Vector_76" d="M17.0772 9.82788L15.6373 9.05319C15.6096 9.22019 15.5866 9.38255 15.5635 9.54955L16.9988 10.3242C17.0172 10.1619 17.0449 9.99487 17.0772 9.83252V9.82788Z" fill="white" fill-opacity="0.6"/>
<path id="Vector_77" d="M18.1434 6.7659L16.685 5.98193C16.6112 6.1211 16.5465 6.2649 16.4819 6.40871L17.9357 7.19267C18.0003 7.04886 18.0695 6.9097 18.1388 6.77053L18.1434 6.7659Z" fill="white" fill-opacity="0.6"/>
<path id="Vector_78" d="M18.5309 6.06576L17.0726 5.2818C16.9941 5.41633 16.9156 5.55549 16.8418 5.69465L18.3002 6.47862C18.374 6.33945 18.4525 6.20493 18.5309 6.0704V6.06576Z" fill="white" fill-opacity="0.6"/>
<path id="Vector_79" d="M17.5062 13.6965L16.1309 12.959C16.3662 13.3161 16.657 13.5991 16.9985 13.7986L18.2261 14.5176L18.2354 14.499C17.9492 14.2949 17.7 14.0259 17.5015 13.6965H17.5062Z" fill="white" fill-opacity="0.6"/>
<path id="Vector_80" d="M25.343 1.84873L25.3614 1.81626L24.2861 1.19001C23.9215 0.976628 23.5016 0.860657 23.04 0.846741L24.6092 1.69101C24.8676 1.7142 25.1122 1.76059 25.343 1.84873Z" fill="white" fill-opacity="0.6"/>
<path id="Vector_81" d="M16.9432 11.5723L15.5171 10.8069C15.5263 11.0017 15.5448 11.1919 15.5725 11.3728L16.9893 12.1382C16.9662 11.9573 16.9478 11.7717 16.9385 11.5769L16.9432 11.5723Z" fill="white" fill-opacity="0.6"/>
<path id="Vector_82" d="M17.7969 7.48996L16.3477 6.71063C16.2831 6.85444 16.2277 7.00288 16.1724 7.15132L17.6215 7.93064C17.6769 7.7822 17.7369 7.6384 17.7969 7.48996Z" fill="white" fill-opacity="0.6"/>
<path id="Vector_83" d="M16.9572 10.6725L15.5219 9.9024C15.508 10.0787 15.5034 10.2503 15.5034 10.4266L16.9341 11.1966C16.9341 11.025 16.9433 10.8487 16.9572 10.6725Z" fill="white" fill-opacity="0.6"/>
<path id="Vector_84" d="M17.2616 9.01605L15.817 8.24136C15.7755 8.39908 15.734 8.5568 15.7017 8.71452L17.1416 9.48921C17.1785 9.33149 17.22 9.17377 17.2616 9.01605Z" fill="white" fill-opacity="0.6"/>
<path id="Vector_85" d="M17.5013 8.24176L16.0522 7.46243C16.0014 7.61551 15.9461 7.76396 15.8999 7.91704L17.349 8.69636C17.3952 8.54328 17.446 8.39484 17.5013 8.24176Z" fill="white" fill-opacity="0.6"/>
</g>
<path id="Vector_86" d="M22.0566 2.38706C19.2137 4.03385 16.92 8.03716 16.9292 11.3214C16.9385 14.5965 19.2506 15.9232 22.0889 14.2717C24.9318 12.625 27.2255 8.62165 27.2163 5.34664C27.2071 2.06234 24.8949 0.73564 22.052 2.38242L22.0566 2.38706Z" fill="#01839A"/>
<g id="Group_7" opacity="0.4">
<path id="Vector_87" d="M25.7075 2.03477C25.3245 1.81675 24.886 1.69614 24.4014 1.6915C22.0431 4.06194 19.6802 6.43702 17.3218 8.80746C17.1188 9.48937 16.9942 10.1759 16.9526 10.8393L25.7075 2.03477Z" fill="white"/>
<path id="Vector_88" d="M18.0187 14.2998C21.0832 11.2196 24.1476 8.13947 27.2074 5.06392C27.1797 4.50263 27.0874 4.00163 26.9305 3.57022L17.2896 13.2607C17.4695 13.6875 17.7234 14.0308 18.0187 14.2998Z" fill="white"/>
</g>
</g>
</g>
</g>
<defs>
<linearGradient id="paint0_linear_1208_31804" x1="55.7325" y1="9.71842" x2="66.1485" y2="27.6243" gradientUnits="userSpaceOnUse">
<stop stop-color="#F55B46"/>
<stop offset="1" stop-color="#94123B"/>
</linearGradient>
<linearGradient id="paint1_linear_1208_31804" x1="16.0415" y1="79.5115" x2="15.7139" y2="88.1483" gradientUnits="userSpaceOnUse">
<stop stop-color="#F45D48"/>
<stop offset="1" stop-color="#94123B"/>
</linearGradient>
<linearGradient id="paint2_linear_1208_31804" x1="28.5593" y1="82.4701" x2="31.7442" y2="92.6467" gradientUnits="userSpaceOnUse">
<stop stop-color="#F55B46"/>
<stop offset="1" stop-color="#94123B"/>
</linearGradient>
<linearGradient id="paint3_linear_1208_31804" x1="58.4892" y1="50.245" x2="67.9118" y2="72.1973" gradientUnits="userSpaceOnUse">
<stop stop-color="#F55B46"/>
<stop offset="1" stop-color="#94123B"/>
</linearGradient>
<linearGradient id="paint4_linear_1208_31804" x1="12.1581" y1="13.5754" x2="51.2893" y2="83.2019" gradientUnits="userSpaceOnUse">
<stop stop-color="#F55B46"/>
<stop offset="1" stop-color="#D5235B"/>
</linearGradient>
<linearGradient id="paint5_linear_1208_31804" x1="13.8722" y1="35.4043" x2="14.0558" y2="67.6357" gradientUnits="userSpaceOnUse">
<stop stop-color="#FE6C58"/>
<stop offset="1" stop-color="#E42C66"/>
</linearGradient>
<linearGradient id="paint6_linear_1208_31804" x1="41.8515" y1="53.7564" x2="42.3622" y2="124.546" gradientUnits="userSpaceOnUse">
<stop stop-color="#FE6C58"/>
<stop offset="1" stop-color="#E42C66"/>
</linearGradient>
<linearGradient id="paint7_linear_1208_31804" x1="4.11816" y1="20.6631" x2="17.9548" y2="37.3649" gradientUnits="userSpaceOnUse">
<stop stop-color="#F55B46"/>
<stop offset="1" stop-color="#94123B"/>
</linearGradient>
<linearGradient id="paint8_linear_1208_31804" x1="28.7976" y1="30.4267" x2="48.2415" y2="52.1862" gradientUnits="userSpaceOnUse">
<stop stop-color="#F55B46"/>
<stop offset="1" stop-color="#94123B"/>
</linearGradient>
<linearGradient id="paint9_linear_1208_31804" x1="-1.73943" y1="49.487" x2="16.5287" y2="74.8905" gradientUnits="userSpaceOnUse">
<stop stop-color="#F55B46"/>
<stop offset="1" stop-color="#94123B"/>
</linearGradient>
<linearGradient id="paint10_linear_1208_31804" x1="9.41269" y1="75.437" x2="9.78214" y2="131.534" gradientUnits="userSpaceOnUse">
<stop stop-color="#FE6C58"/>
<stop offset="1" stop-color="#E42C66"/>
</linearGradient>
</defs>
</svg>
