<svg width="36" height="36" viewBox="0 0 36 36" fill="none" xmlns="http://www.w3.org/2000/svg">
<circle opacity="0.4" cx="18" cy="18" r="18" fill="white"/>
<path d="M20.0442 11.3154C21.728 10.7542 23.2514 10.861 24.1936 11.8046C25.1347 12.7475 25.2414 14.2719 24.6848 15.955V15.956L22.3264 23.0312C21.9172 24.2607 21.4267 25.232 20.8684 25.9081C20.3118 26.5821 19.6291 27.0273 18.8499 27.0273C18.0706 27.0272 17.3879 26.5821 16.8313 25.9081C16.273 25.232 15.7825 24.2608 15.3733 23.0312L14.7727 21.2275L12.969 20.6259V20.6269C11.7395 20.2178 10.7682 19.7284 10.092 19.1708C9.418 18.615 8.97293 17.9324 8.9729 17.1533C8.9729 16.3743 9.41827 15.6915 10.092 15.1347C10.7679 14.5762 11.7387 14.085 12.968 13.6738H12.969L20.0442 11.3154ZM23.3088 12.6874C22.8574 12.2353 21.9305 12.0041 20.4397 12.5009L13.3645 14.8593C12.215 15.2439 11.4015 15.6741 10.8879 16.0986C10.3723 16.5247 10.2229 16.8875 10.2229 17.1533C10.2229 17.4189 10.3725 17.7809 10.8879 18.206C11.4013 18.6293 12.2142 19.0579 13.3635 19.4404H13.3645L15.4641 20.1406L15.5325 20.1679C15.6863 20.2402 15.8052 20.3729 15.8596 20.5361L16.5598 22.6357C16.9423 23.7851 17.3712 24.5988 17.7952 25.1122C18.2206 25.6274 18.5834 25.7772 18.8499 25.7773C19.1163 25.7773 19.4799 25.6277 19.9055 25.1122C20.3294 24.5988 20.7574 23.785 21.1399 22.6357H21.1409L23.4983 15.5605C23.9909 14.0697 23.761 13.1403 23.3088 12.6874Z" fill="#040D3F"/>
<path d="M17.9662 16.9424C18.2099 16.6981 18.6056 16.6977 18.85 16.9414C19.0942 17.1852 19.0946 17.5808 18.851 17.8252L15.8676 20.8164C15.6239 21.0608 15.2282 21.062 14.9838 20.8184C14.7394 20.5747 14.7392 20.179 14.9828 19.9346L17.9662 16.9424Z" fill="#040D3F"/>
</svg>
