<svg width="76" height="106" viewBox="0 0 76 106" fill="none" xmlns="http://www.w3.org/2000/svg">
<g id="Wallet">
<path id="Vector" d="M59.4861 50.2661L16.8824 25.8816C16.4521 25.6357 16.2195 25.3168 16.1923 24.994V37.9817C16.1574 38.3544 16.3939 38.731 16.8862 39.0115L50.1357 58.0395C54.055 60.2835 59.0209 58.8541 61.2383 54.9425C61.2499 54.9233 61.2615 54.904 61.2732 54.8848C62.2191 53.3132 61.5097 51.4189 59.4899 50.2623L59.4861 50.2661Z" fill="#220058"/>
<path id="Vector_2" d="M62.1921 57.3559C57.8115 59.8689 51.5974 59.8458 47.2207 57.3328L4.33014 33.0636C3.86883 32.7985 3.63623 32.4488 3.63623 32.103V77.9863C3.64786 78.3244 3.88046 78.6625 4.33014 78.9161L46.8641 103.301C51.2446 105.81 58.3737 105.81 62.7542 103.301C64.8669 102.086 65.8826 100.499 66.0299 98.9125C66.0338 98.8587 66.0377 52.5758 66.0377 52.5758C66.0377 54.2281 64.3746 56.1032 62.1882 57.3597L62.1921 57.3559Z" fill="url(#paint0_linear_1208_31778)"/>
<path id="Vector_3" d="M3.64063 32.0607V32.1019C3.64063 32.1019 3.64062 32.0757 3.64438 32.0607H3.64063Z" fill="#430017"/>
<path id="Vector_4" d="M62.8511 48.3381L20.2474 23.9574C19.317 23.4272 17.809 23.4272 16.8825 23.9574C15.9522 24.4877 15.9522 25.3522 16.8825 25.8825L59.4862 50.267C62.0177 51.7156 62.0177 54.0711 59.4862 55.5197C56.9548 56.9683 52.8379 56.9683 50.3065 55.5197L7.6989 31.1352C6.76851 30.6049 5.26052 30.6049 4.33402 31.1352C3.40364 31.6655 3.40364 32.53 4.33402 33.0603L46.9377 57.441C51.326 59.9501 57.6138 61.1874 62.8511 57.441C66.9603 54.5015 67.2394 50.8434 62.8511 48.3342V48.3381Z" fill="#36007B"/>
<g id="Clip path group">
<mask id="mask0_1208_31778" style="mask-type:luminance" maskUnits="userSpaceOnUse" x="4" y="0" width="72" height="57">
<g id="clippath">
<path id="Vector_5" d="M59.4862 55.5195C56.9548 56.9681 52.8379 56.9681 50.3064 55.5195L7.70274 31.1388C6.77236 30.6047 5.26437 30.6047 4.33398 31.1388L6.90686 14.1894L25.4692 0L75.976 2.14992L59.4823 50.2668C62.0137 51.7154 62.0137 54.0708 59.4823 55.5195H59.4862Z" fill="white"/>
</g>
</mask>
<g mask="url(#mask0_1208_31778)">
<g id="Group">
<path id="Vector_6" d="M54.323 21.5527L30.6797 8.01944V34.8286L58.9788 51.0247V29.5451C58.9788 26.2483 57.2033 23.2012 54.323 21.5527Z" fill="#005583"/>
<path id="Vector_7" d="M58.4281 51.4326C58.3312 51.4326 58.2381 51.4095 58.1529 51.3596L34.3739 37.7495C34.2033 37.6534 34.0986 37.4728 34.0986 37.2768V14.7751C34.0986 14.5792 34.2033 14.3986 34.3739 14.3025C34.5444 14.2065 34.7538 14.2065 34.9243 14.3025L56.013 26.3718C57.8466 27.4323 58.9786 29.4343 58.9786 31.5976V50.887C58.9786 51.0829 58.8739 51.2635 58.7033 51.3596C58.618 51.4095 58.5211 51.4326 58.4281 51.4326ZM35.2035 36.9617L57.8776 49.9379V31.5976C57.8776 29.8224 56.955 28.1816 55.4664 27.3209L35.2035 15.7242V36.9617Z" fill="#00759A"/>
<path id="Vector_8" d="M51.947 18.2135L28.3037 4.68024V31.4894L56.6028 47.6855V26.2059C56.6028 22.9091 54.8273 19.862 51.947 18.2135Z" fill="#005583"/>
<path id="Vector_9" d="M56.0521 48.0892C55.9552 48.0892 55.8622 48.0662 55.7769 48.0162L31.9979 34.4061C31.8273 34.31 31.7227 34.1294 31.7227 33.9335V11.4318C31.7227 11.2358 31.8273 11.0552 31.9979 10.9592C32.1685 10.8631 32.3778 10.8631 32.5484 10.9592L53.637 23.0285C55.4706 24.089 56.6026 26.0909 56.6026 28.2543V47.5398C56.6026 47.7357 56.4979 47.9163 56.3274 48.0124C56.2421 48.0623 56.1452 48.0854 56.0521 48.0854V48.0892ZM32.8275 33.6184L55.5016 46.5945V28.2543C55.5016 26.479 54.579 24.8383 53.0904 23.9776L32.8275 12.3809V33.6184Z" fill="#00759A"/>
<path id="Vector_10" d="M49.0476 17.3879L25.4043 3.85458V30.6637L53.7034 46.8598V25.3803C53.7034 22.0834 51.9279 19.0363 49.0476 17.3879Z" fill="#005583"/>
<path id="Vector_11" d="M53.1527 47.2669C53.0558 47.2669 52.9628 47.2439 52.8775 47.1939L29.0985 33.5838C28.9279 33.4877 28.8232 33.3071 28.8232 33.1112V10.6056C28.8232 10.4097 28.9279 10.2291 29.0985 10.133C29.269 10.037 29.4784 10.037 29.649 10.133L50.7376 22.2023C52.5712 23.2628 53.7032 25.2648 53.7032 27.4281V46.7175C53.7032 46.9134 53.5985 47.094 53.4279 47.1901C53.3427 47.24 53.2457 47.2631 53.1527 47.2631V47.2669ZM29.9281 32.7961L52.6022 45.7722V27.432C52.6022 25.6567 51.6796 24.016 50.191 23.1553L29.9281 11.5586V32.7961Z" fill="#00759A"/>
<path id="Vector_12" d="M40.4605 26.0752L14.4253 11.343V44.0312L40.2085 58.8094C43.3291 60.5962 48.4075 60.5962 51.5242 58.8094C53.0284 57.9449 53.7533 56.8152 53.8579 55.6855C53.8579 55.647 53.8618 24.0617 53.8618 24.0617C53.8618 25.2375 49.9155 30.3403 40.4605 26.0713V26.0752Z" fill="url(#paint1_linear_1208_31778)"/>
<path id="Vector_13" d="M45.481 55.7744C44.1436 55.7744 42.8566 55.4939 42.0309 55.0212L18.4573 41.5072V18.8864L37.8829 29.8798C40.0771 31.1401 42.6899 31.8087 45.4306 31.8087C48.8343 31.8087 51.3037 31.7011 53.4784 29.8067V28.4158C52.1061 29.6146 50.2376 30.7136 45.4306 30.7136C42.8837 30.7136 40.457 30.0949 38.4295 28.9307L17.3486 17.0035V42.1412L41.4765 55.9703C42.4767 56.5429 43.9343 56.8695 45.4772 56.8695C50.9742 56.8695 53.4203 53.9646 53.4707 53.8877C53.4707 53.6571 53.4707 53.2691 53.4707 52.7542C51.8852 54.4064 49.5127 55.7782 45.4772 55.7782L45.481 55.7744Z" fill="#901957"/>
<path id="Vector_14" d="M43.3604 26.8978L17.3252 12.1656V44.8538L43.1084 59.632C46.229 61.4188 51.3074 61.4188 54.4241 59.632C55.9283 58.7675 56.6532 57.6378 56.7579 56.5081C56.7579 56.4696 56.7617 24.8843 56.7617 24.8843C56.7617 26.0601 52.8154 31.1629 43.3604 26.8939V26.8978Z" fill="url(#paint2_linear_1208_31778)"/>
<path id="Vector_15" d="M48.3805 56.5971C47.043 56.5971 45.756 56.3166 44.9303 55.8439L21.3568 42.3299V19.7091L40.7823 30.7024C42.9765 31.9628 45.5893 32.6314 48.3301 32.6314C51.7298 32.6314 54.2031 32.5238 56.3778 30.6294C56.3778 30.1607 56.3778 29.6957 56.3778 29.2385C55.0055 30.4373 53.137 31.5363 48.3301 31.5363C45.7831 31.5363 43.3564 30.9176 41.3289 29.7534L20.248 17.8262V42.9639L44.3759 56.793C45.3761 57.3656 46.8337 57.6922 48.3766 57.6922C53.8736 57.6922 56.3197 54.7872 56.3701 54.7104C56.3701 54.4798 56.3701 54.0918 56.3701 53.5769C54.7846 55.2291 52.4121 56.6009 48.3766 56.6009L48.3805 56.5971Z" fill="#005583"/>
<path id="Vector_16" d="M45.5777 30.8593L19.5425 16.1272V48.8153L45.3257 63.5974C48.4463 65.3842 53.5247 65.3842 56.6414 63.5974C58.1455 62.7329 58.8705 61.5993 58.9751 60.4735C58.9751 60.435 58.979 28.8497 58.979 28.8497C58.979 30.0255 55.0326 35.1283 45.5777 30.8593Z" fill="url(#paint3_linear_1208_31778)"/>
<path id="Vector_17" d="M50.9815 60.5584C49.6441 60.5584 48.3571 60.2779 47.5314 59.8053L23.9578 46.2912V23.6704L43.3834 34.6638C45.5776 35.9241 48.1904 36.5927 50.9311 36.5927C54.3348 36.5927 56.8042 36.4851 58.9789 34.5908C58.9789 34.122 58.9789 33.657 58.9789 33.1998C57.6027 34.3987 55.7381 35.4976 50.9311 35.4976C48.3842 35.4976 45.9575 34.879 43.93 33.7147L22.8491 21.7876V46.9252L46.977 60.7544C47.9772 61.3269 49.4348 61.6535 50.9776 61.6535C56.4746 61.6535 58.9208 58.7486 58.9712 58.6679C58.9712 58.4373 58.9712 58.0492 58.9712 57.5343C57.3856 59.1866 55.0132 60.5584 50.9776 60.5584H50.9815Z" fill="#005583"/>
</g>
</g>
</g>
<path id="Vector_18" d="M14.2544 56.0997L3.95429 50.1439C3.07043 49.6328 1.97723 49.6098 1.07399 50.0862L0.469238 50.4013L15.6189 66.7166L17.1928 65.8904C17.941 65.4601 18.4062 64.5379 18.4062 63.2237C18.4062 60.5993 16.5493 57.4062 14.2544 56.0959V56.0997Z" fill="url(#paint4_linear_1208_31778)"/>
<path id="Vector_19" d="M12.3896 56.641L1.50412 50.4123C0.833466 50.0281 0 50.5084 0 51.273V56.6026C0 58.1204 0.814083 59.5191 2.13988 60.276L12.785 66.3702C13.9325 67.0273 14.9675 67.0888 15.7196 66.6584C16.7662 66.059 17.2547 64.5105 16.7081 62.2741C16.1266 59.8879 14.5295 57.8668 12.3818 56.641H12.3896Z" fill="url(#paint5_linear_1208_31778)"/>
<path id="Vector_20" d="M12.9865 59.1157C11.7305 58.3972 10.7109 58.9813 10.7109 60.4183C10.7109 61.8554 11.7305 63.6038 12.9826 64.3223C14.2386 65.0409 15.2543 64.4568 15.2543 63.0197C15.2543 61.5826 14.2348 59.8343 12.9826 59.1157H12.9865Z" fill="url(#paint6_linear_1208_31778)"/>
<path id="Vector_21" d="M12.4676 59.8691C11.4287 59.2774 10.5913 59.7577 10.5913 60.945C10.5913 62.1324 11.4325 63.5733 12.4676 64.1689C13.5026 64.7645 14.3438 64.2803 14.3438 63.0968C14.3438 61.9134 13.5026 60.4686 12.4676 59.873V59.8691Z" fill="white"/>
</g>
<defs>
<linearGradient id="paint0_linear_1208_31778" x1="8.52849" y1="72.4761" x2="73.7881" y2="107.343" gradientUnits="userSpaceOnUse">
<stop stop-color="#4800A3"/>
<stop offset="1" stop-color="#501AEC"/>
</linearGradient>
<linearGradient id="paint1_linear_1208_31778" x1="51.5669" y1="30.9936" x2="14.4645" y2="13.3109" gradientUnits="userSpaceOnUse">
<stop stop-color="#005788"/>
<stop offset="1" stop-color="#0097A0"/>
</linearGradient>
<linearGradient id="paint2_linear_1208_31778" x1="54.4668" y1="31.8162" x2="17.3644" y2="14.1335" gradientUnits="userSpaceOnUse">
<stop stop-color="#005788"/>
<stop offset="1" stop-color="#0097A0"/>
</linearGradient>
<linearGradient id="paint3_linear_1208_31778" x1="55.4524" y1="44.6281" x2="16.9672" y2="29.7306" gradientUnits="userSpaceOnUse">
<stop stop-color="#005788"/>
<stop offset="1" stop-color="#0097A0"/>
</linearGradient>
<linearGradient id="paint4_linear_1208_31778" x1="-1.91046" y1="36.4074" x2="15.0418" y2="59.0182" gradientUnits="userSpaceOnUse">
<stop stop-color="#F55B46"/>
<stop offset="1" stop-color="#94123B"/>
</linearGradient>
<linearGradient id="paint5_linear_1208_31778" x1="8.42942" y1="58.5819" x2="8.8653" y2="116.243" gradientUnits="userSpaceOnUse">
<stop stop-color="#FE6C58"/>
<stop offset="1" stop-color="#E42C66"/>
</linearGradient>
<linearGradient id="paint6_linear_1208_31778" x1="10.1082" y1="54.2338" x2="16.1649" y2="60.1996" gradientUnits="userSpaceOnUse">
<stop stop-color="#F55B46"/>
<stop offset="1" stop-color="#94123B"/>
</linearGradient>
</defs>
</svg>
